<svg width="18" height="18" viewBox="0 0 18 18" fill="none" xmlns="http://www.w3.org/2000/svg">
<path d="M8.25 1.50049H6.75C3 1.50049 1.5 3.00049 1.5 6.75049V11.2505C1.5 15.0005 3 16.5005 6.75 16.5005H11.25C15 16.5005 16.5 15.0005 16.5 11.2505V9.75049" stroke="white" stroke-width="1.5" stroke-linecap="round" stroke-linejoin="round"/>
<path d="M12.0299 2.26543L6.11991 8.17543C5.89491 8.40043 5.66991 8.84293 5.62491 9.16543L5.30241 11.4229C5.18241 12.2404 5.75991 12.8104 6.57741 12.6979L8.83491 12.3754C9.14991 12.3304 9.59241 12.1054 9.82491 11.8804L15.7349 5.97043C16.7549 4.95043 17.2349 3.76543 15.7349 2.26543C14.2349 0.765434 13.0499 1.24543 12.0299 2.26543Z" stroke="white" stroke-width="1.5" stroke-miterlimit="10" stroke-linecap="round" stroke-linejoin="round"/>
<path d="M11.1826 3.11279C11.6851 4.90529 13.0876 6.30779 14.8876 6.81779" stroke="white" stroke-width="1.5" stroke-miterlimit="10" stroke-linecap="round" stroke-linejoin="round"/>
</svg>
