<svg width="64" height="64" viewBox="0 0 64 64" fill="none" xmlns="http://www.w3.org/2000/svg">
<path d="M53.9016 33.3206C66.2897 40.3403 66.3558 51.7201 54.0454 58.7384C41.735 65.7567 21.7216 65.7509 9.33349 58.7384C-3.0546 51.7258 -3.11933 40.3403 9.18964 33.3221C21.4986 26.3038 41.5149 26.3023 53.9016 33.3206Z" fill="#C6E8FF"/>
<path d="M41.9306 1.6285L42.565 1.26025L42.5276 14.369L41.8947 14.7387L41.9306 1.6285Z" fill="#F0F0F0"/>
<path d="M41.8947 14.7388L42.5276 14.3691L60.8163 24.9275L60.1819 25.2957L41.8947 14.7388Z" fill="#F5F5F5"/>
<path d="M41.2042 0.369629L60.9501 11.7695L60.9083 26.5555L41.1625 15.1542L41.2042 0.369629ZM60.1819 25.2954L60.2193 12.1866L41.9306 1.62829L41.8947 14.7371L60.1819 25.2954Z" fill="#E3F4FF"/>
<path d="M41.2041 0.369686L41.8385 0L61.5843 11.4013L60.95 11.7696L41.2041 0.369686Z" fill="#F5F5F5"/>
<path d="M60.95 11.7696L61.5844 11.4014L61.5427 26.1874L60.9083 26.5556L60.95 11.7696Z" fill="#F0F0F0"/>
<path d="M50.7095 6.69775L50.6721 19.8065L51.4014 20.228L51.4388 7.11779L50.7095 6.69775Z" fill="#E3F4FF"/>
<path d="M51.4388 7.11768L51.4014 20.2279L52.0357 19.8596L52.0717 7.48305L51.4388 7.11768Z" fill="#F0F0F0"/>
<path opacity="0.2" d="M51.4389 7.70756L51.4403 7.11779L50.711 6.69775L50.7081 7.28609L51.4389 7.70756Z" fill="black"/>
<path opacity="0.2" d="M51.4374 7.70745L51.9495 7.41256L51.4388 7.11768L51.4374 7.70745Z" fill="black"/>
<path d="M11.2423 41.5845C10.8352 41.8204 10.8323 42.2016 11.2423 42.436L12.6995 43.2833C12.9274 43.3993 13.1795 43.4597 13.4353 43.4597C13.691 43.4597 13.9431 43.3993 14.171 43.2833L31.7391 33.0774C32.1461 32.8429 32.1505 32.4603 31.7391 32.2244L30.2804 31.3771C30.0525 31.2611 29.8004 31.2007 29.5447 31.2007C29.2889 31.2007 29.0368 31.2611 28.8089 31.3771L11.2423 41.5845Z" fill="#E6E6E6"/>
<path d="M13.7078 52.0851L26.6929 59.6299C26.874 59.7351 27.0797 59.7906 27.2891 59.7906C27.4986 59.7906 27.7043 59.7351 27.8854 59.6299L51.4691 46.0191C51.5141 45.9929 51.5516 45.9554 51.5776 45.9102C51.6036 45.865 51.6173 45.8138 51.6173 45.7616C51.6173 45.7095 51.6036 45.6583 51.5776 45.6131C51.5516 45.5679 51.5141 45.5303 51.4691 45.5041L38.6667 38.0644C38.4864 37.9608 38.282 37.9062 38.074 37.9062C37.8661 37.9062 37.6617 37.9608 37.4814 38.0644L13.7107 51.5716C13.6658 51.5976 13.6285 51.6349 13.6024 51.6798C13.5764 51.7247 13.5626 51.7757 13.5623 51.8276C13.562 51.8795 13.5752 51.9305 13.6008 51.9757C13.6263 52.0209 13.6632 52.0586 13.7078 52.0851Z" fill="#E6E6E6"/>
<path d="M8.14972 7.12341L8.15979 10.2895L8.54242 10.5124L8.53235 6.90332L8.14972 7.12341Z" fill="#F0F0F0"/>
<path d="M4.01691 12.6817L4.01835 13.1248L8.54233 10.5125L8.1597 10.2896L4.01691 12.6817Z" fill="#F5F5F5"/>
<path d="M8.99403 6.10352L3.54224 9.25089L3.55518 13.9259L9.00842 10.7785L8.99403 6.10352ZM4.01693 13.1247V12.6816L4.00686 9.517L8.14965 7.12483L8.53228 6.90474L8.54235 10.5139L4.01693 13.1247Z" fill="#E3F4FF"/>
<path d="M8.99401 6.10333L8.61138 5.88037L3.15814 9.02774L3.54221 9.2507L8.99401 6.10333Z" fill="#F5F5F5"/>
<path d="M3.1582 9.02783L3.17115 13.7029L3.55522 13.9258L3.54227 9.2508L3.1582 9.02783Z" fill="#F0F0F0"/>
<path d="M8.14972 13.7215L8.15979 16.8876L8.54242 17.1106L8.53235 13.5L8.14972 13.7215Z" fill="#F0F0F0"/>
<path d="M4.01691 19.2794L4.01835 19.7224L8.54233 17.1102L8.1597 16.8872L4.01691 19.2794Z" fill="#F5F5F5"/>
<path d="M8.99403 12.7002L3.54224 15.849L3.55518 20.524L9.00842 17.3752L8.99403 12.7002ZM4.01693 19.7199V19.2754L4.00686 16.1108L8.14965 13.7201L8.53228 13.4985L8.54235 17.1091L4.01693 19.7199Z" fill="#E3F4FF"/>
<path d="M8.99407 12.7L8.61144 12.4771L3.1582 15.6259L3.54227 15.8488L8.99407 12.7Z" fill="#F5F5F5"/>
<path d="M3.1582 15.6265L3.17115 20.3001L3.55522 20.5245L3.54227 15.8494L3.1582 15.6265Z" fill="#F0F0F0"/>
<path d="M6.83353 8.32617L7.96416 9.21515L7.9656 10.084L4.20832 12.2532L4.20544 11.3844L4.9218 9.96315L5.5648 10.4623L5.33752 11.1686L5.66837 10.5414L6.83353 8.32617Z" fill="#E3F4FF"/>
<path d="M5.59919 8.76315C5.77612 8.66102 5.91996 8.74301 5.9214 8.94727C5.91648 9.05921 5.88494 9.16836 5.82941 9.26568C5.77387 9.36299 5.69594 9.44566 5.60206 9.50684C5.42513 9.60897 5.28128 9.52698 5.27985 9.32415C5.28454 9.21197 5.31597 9.10253 5.37152 9.00494C5.42707 8.90736 5.50512 8.82446 5.59919 8.76315Z" fill="#E3F4FF"/>
<path d="M6.83353 14.9243L7.96416 15.8133L7.9656 16.6821L4.20832 18.8513L4.20544 17.9825L4.9218 16.5599L5.5648 17.059L5.33752 17.7653L5.66837 17.1381L6.83353 14.9243Z" fill="#E3F4FF"/>
<path d="M5.59919 15.3618C5.77612 15.2597 5.91996 15.3417 5.9214 15.5445C5.91559 15.6554 5.88363 15.7634 5.82813 15.8597C5.77263 15.9559 5.69517 16.0377 5.60206 16.0983C5.42513 16.2004 5.28128 16.1185 5.27985 15.9142C5.28588 15.8035 5.31795 15.6958 5.37344 15.5998C5.42892 15.5038 5.50627 15.4223 5.59919 15.3618Z" fill="#E3F4FF"/>
<path d="M52.7795 34.7319L52.7781 35.2224L44.7025 30.5589L44.704 30.0684L52.7795 34.7319Z" fill="#0070BB"/>
<path d="M49.9025 33.8517L49.9011 34.3422L44.6996 31.3387L44.701 30.8481L49.9025 33.8517Z" fill="#0070BB"/>
<path d="M47.5435 27.046C47.6281 27.0949 47.7027 27.1594 47.7636 27.2359C48.0196 27.5423 48.0829 27.9551 48.1174 28.3133C48.1663 28.8095 48.2167 29.3058 48.2613 29.8021C48.2796 30.0628 48.3279 30.3205 48.4051 30.5702C48.4881 30.8409 48.645 31.0831 48.8582 31.2693C48.8828 31.2886 48.9087 31.3059 48.9359 31.3211C49.0102 31.3708 49.0976 31.3973 49.1869 31.3973C49.2763 31.3973 49.3636 31.3708 49.4379 31.3211C49.5805 31.1919 49.6933 31.0334 49.7688 30.8565C49.8625 30.6487 50.0163 30.4739 50.2104 30.3545C50.3095 30.3115 50.4178 30.2937 50.5255 30.3028C50.6331 30.3118 50.7369 30.3473 50.8275 30.4062C50.8656 30.4287 50.9021 30.4537 50.9368 30.481C51.3554 30.8018 51.6028 31.4319 51.7999 31.9785C51.997 32.5251 52.2487 33.1595 52.6702 33.4659C52.6979 33.4865 52.7267 33.5057 52.7565 33.5234C52.884 33.6004 53.0325 33.6354 53.181 33.6232C53.3294 33.6111 53.4703 33.5525 53.5836 33.4558C53.8152 33.2789 54.0022 33.0243 54.2913 32.9466C54.4447 32.9167 54.6037 32.939 54.743 33.0099V35.3977L44.7083 29.6079L44.7198 25.6392C44.9082 25.9645 45.0414 26.3189 45.1139 26.6878C45.2002 27.1654 45.1801 27.6847 45.5023 28.1061C45.5806 28.2086 45.6783 28.2947 45.79 28.3593C45.9109 28.4359 46.0561 28.4646 46.1971 28.4399C46.3956 28.3881 46.5207 28.2025 46.6027 27.9839C46.7135 27.6962 46.7638 27.3366 46.9393 27.1208C47.0142 27.0377 47.1165 26.9844 47.2274 26.9707C47.3384 26.9569 47.4506 26.9837 47.5435 27.046Z" fill="#0070BB"/>
<path opacity="0.4" d="M47.5435 27.046C47.6281 27.0949 47.7027 27.1594 47.7636 27.2359C48.0196 27.5423 48.0829 27.9551 48.1174 28.3133C48.1663 28.8095 48.2167 29.3058 48.2613 29.8021C48.2796 30.0628 48.3279 30.3205 48.4051 30.5702C48.4881 30.8409 48.645 31.0831 48.8582 31.2693C48.8828 31.2886 48.9087 31.3059 48.9359 31.3211C49.0102 31.3708 49.0976 31.3973 49.1869 31.3973C49.2763 31.3973 49.3636 31.3708 49.4379 31.3211C49.5805 31.1919 49.6933 31.0334 49.7688 30.8565C49.8625 30.6487 50.0163 30.4739 50.2104 30.3545C50.3095 30.3115 50.4178 30.2937 50.5255 30.3028C50.6331 30.3118 50.7369 30.3473 50.8275 30.4062C50.8656 30.4287 50.9021 30.4537 50.9368 30.481C51.3554 30.8018 51.6028 31.4319 51.7999 31.9785C51.997 32.5251 52.2487 33.1595 52.6702 33.4659C52.6979 33.4865 52.7267 33.5057 52.7565 33.5234C52.884 33.6004 53.0325 33.6354 53.181 33.6232C53.3294 33.6111 53.4703 33.5525 53.5836 33.4558C53.8152 33.2789 54.0022 33.0243 54.2913 32.9466C54.4447 32.9167 54.6037 32.939 54.743 33.0099V35.3977L44.7083 29.6079L44.7198 25.6392C44.9082 25.9645 45.0414 26.3189 45.1139 26.6878C45.2002 27.1654 45.1801 27.6847 45.5023 28.1061C45.5806 28.2086 45.6783 28.2947 45.79 28.3593C45.9109 28.4359 46.0561 28.4646 46.1971 28.4399C46.3956 28.3881 46.5207 28.2025 46.6027 27.9839C46.7135 27.6962 46.7638 27.3366 46.9393 27.1208C47.0142 27.0377 47.1165 26.9844 47.2274 26.9707C47.3384 26.9569 47.4506 26.9837 47.5435 27.046Z" fill="white"/>
<path d="M56.3311 14.5083L45.0176 7.97625C44.9748 7.94678 44.9255 7.92801 44.874 7.9215C44.8224 7.915 44.77 7.92094 44.7213 7.93885H44.7126L44.6954 7.94892L44.2379 8.21216H44.2279H44.2207C44.1795 8.24506 44.1471 8.28761 44.1262 8.33603C44.1054 8.38445 44.0968 8.43726 44.1013 8.48978L44.0927 11.5393C44.1005 11.6933 44.1448 11.8432 44.2218 11.9767C44.2988 12.1102 44.4064 12.2236 44.5357 12.3075L55.8493 18.8568C55.8947 18.8899 55.9482 18.9101 56.0041 18.9154C56.06 18.9207 56.1163 18.9109 56.1672 18.887L56.6332 18.618C56.677 18.5848 56.7115 18.5409 56.7334 18.4905C56.7553 18.4402 56.7639 18.385 56.7584 18.3303L56.767 15.2808C56.76 15.1269 56.7169 14.9768 56.6412 14.8426C56.5655 14.7084 56.4593 14.5939 56.3311 14.5083Z" fill="#0070BB"/>
<path opacity="0.3" d="M56.3311 14.5083L45.0176 7.97625C44.9748 7.94678 44.9255 7.92801 44.8739 7.9215C44.8224 7.915 44.77 7.92094 44.7212 7.93885H44.7126L44.6953 7.94892L44.2379 8.21216C44.288 8.19058 44.3427 8.18229 44.3969 8.18808C44.4511 8.19388 44.5028 8.21357 44.5472 8.24524L55.8607 14.7773C56.0446 14.8968 56.1829 15.0746 56.2534 15.2822L56.7253 15.0132C56.6546 14.8053 56.5157 14.6274 56.3311 14.5083Z" fill="white"/>
<path opacity="0.2" d="M56.2534 15.2852C56.2856 15.3692 56.3027 15.4584 56.3038 15.5484L56.2951 18.5994C56.3012 18.6544 56.2926 18.71 56.2701 18.7606C56.2476 18.8111 56.212 18.8548 56.1671 18.8871L56.6332 18.6181C56.6769 18.5849 56.7114 18.541 56.7333 18.4906C56.7552 18.4402 56.7638 18.3851 56.7583 18.3304L56.767 15.2808C56.7653 15.1913 56.7483 15.1028 56.7166 15.019L56.2534 15.2852Z" fill="black"/>
<path d="M47.2631 11.0042C47.5091 11.4357 47.5292 11.8888 47.3249 12.0845L46.5165 11.6184L46.4604 11.1293C46.4584 11.1153 46.4535 11.1018 46.4461 11.0896C46.4386 11.0775 46.4288 11.067 46.4173 11.0588C46.3942 11.0459 46.3755 11.0588 46.3727 11.0775L46.2547 11.7968L46.1022 10.646C46.0998 10.6321 46.0946 10.6188 46.087 10.6069C46.0793 10.5951 46.0693 10.5849 46.0576 10.5769C46.0539 10.5736 46.0494 10.5715 46.0445 10.5707C46.0396 10.5699 46.0346 10.5705 46.0301 10.5725C46.0255 10.5744 46.0216 10.5777 46.0189 10.5818C46.0161 10.5859 46.0146 10.5907 46.0145 10.5956L45.9037 11.3854L45.793 10.7927C45.7874 10.7664 45.7719 10.7432 45.7498 10.728C45.7282 10.7165 45.711 10.728 45.7066 10.7409L45.606 11.0905L44.9457 10.7093C44.7429 10.2777 44.7659 9.8462 45.0147 9.70235C45.0941 9.66659 45.1816 9.65241 45.2682 9.66125C45.3548 9.67009 45.4376 9.70163 45.5081 9.7527C45.7132 9.88056 45.8821 10.0588 45.9987 10.2705L46.1425 10.5122L46.2864 10.4317C46.3656 10.3963 46.4527 10.3824 46.539 10.3912C46.6254 10.4 46.7079 10.4313 46.7783 10.482C46.9817 10.6119 47.1486 10.7917 47.2631 11.0042ZM46.4129 11.4357L46.2979 12.1434C46.2979 12.165 46.2763 12.1722 46.2547 12.1593C46.2427 12.152 46.2325 12.1421 46.2248 12.1304C46.2171 12.1188 46.2121 12.1055 46.2101 12.0916L46.0663 10.9581L45.9641 11.6889C45.9641 11.7119 45.9426 11.7191 45.9195 11.709C45.9081 11.7016 45.8984 11.6919 45.891 11.6805C45.8836 11.6691 45.8786 11.6563 45.8764 11.6428L45.7512 10.9768L45.6894 11.1969C45.6894 11.2156 45.6664 11.2214 45.6462 11.2099L45.0306 10.8546L45.1572 11.0746L46.1382 12.7735L47.125 12.2096L47.2516 12.1377L46.4849 11.6946C46.4729 11.687 46.4628 11.6768 46.4551 11.6649C46.4474 11.653 46.4423 11.6396 46.4403 11.6256L46.4129 11.4357Z" fill="#0070BB"/>
<path d="M46.0575 10.5781C46.0692 10.586 46.0792 10.5962 46.0869 10.6081C46.0945 10.6199 46.0997 10.6332 46.1021 10.6471L46.2546 11.7979L46.3726 11.0787C46.3726 11.0556 46.3941 11.047 46.4172 11.06C46.4288 11.0682 46.4385 11.0787 46.446 11.0908C46.4534 11.1029 46.4583 11.1164 46.4603 11.1304L46.5164 11.6195L47.3248 12.0856L47.7837 12.3503C47.7967 12.3588 47.8075 12.3703 47.8153 12.3838C47.823 12.3973 47.8275 12.4124 47.8283 12.4279C47.8283 12.4553 47.8082 12.4668 47.7823 12.4524L47.2457 12.1431L46.479 11.7001C46.4671 11.6924 46.4569 11.6823 46.4492 11.6704C46.4415 11.6585 46.4365 11.6451 46.4344 11.631L46.4128 11.4412L46.2978 12.1489C46.2978 12.1705 46.2762 12.1777 46.2546 12.1647C46.2427 12.1574 46.2325 12.1476 46.2247 12.1359C46.217 12.1242 46.212 12.111 46.21 12.0971L46.0662 10.9636L45.964 11.6943C45.964 11.6991 45.9626 11.7038 45.96 11.7079C45.9574 11.7119 45.9537 11.7152 45.9494 11.7173C45.9451 11.7194 45.9403 11.7202 45.9355 11.7197C45.9307 11.7192 45.9261 11.7174 45.9223 11.7145C45.9101 11.7077 45.8997 11.6982 45.8917 11.6867C45.8837 11.6752 45.8785 11.6621 45.8763 11.6483L45.7512 10.9823L45.6893 11.2024C45.6893 11.2211 45.6663 11.2268 45.6461 11.2153L45.0305 10.86L44.4939 10.5493C44.4811 10.5413 44.4703 10.5303 44.4626 10.5173C44.4548 10.5043 44.4503 10.4896 44.4493 10.4745C44.4493 10.4457 44.4695 10.4342 44.4939 10.4472L44.9514 10.7119L45.6116 11.093L45.7123 10.7435C45.7123 10.7248 45.7339 10.719 45.7526 10.7291C45.7642 10.7366 45.7743 10.7463 45.7822 10.7576C45.7901 10.769 45.7957 10.7818 45.7986 10.7953L45.9094 11.3879L46.0201 10.5982C46.0206 10.5941 46.0221 10.5901 46.0244 10.5867C46.0268 10.5832 46.0299 10.5804 46.0336 10.5784C46.0373 10.5764 46.0414 10.5754 46.0455 10.5753C46.0497 10.5752 46.0538 10.5762 46.0575 10.5781Z" fill="white"/>
<path opacity="0.4" d="M47.2631 11.0042C47.5091 11.4357 47.5292 11.8888 47.3249 12.0845L46.5165 11.6184L46.4604 11.1293C46.4584 11.1153 46.4535 11.1018 46.4461 11.0896C46.4386 11.0775 46.4288 11.067 46.4173 11.0588C46.3942 11.0459 46.3755 11.0588 46.3727 11.0775L46.2547 11.7968L46.1022 10.646C46.0998 10.6321 46.0946 10.6188 46.087 10.6069C46.0793 10.5951 46.0693 10.5849 46.0576 10.5769C46.0539 10.5736 46.0494 10.5715 46.0445 10.5707C46.0396 10.5699 46.0346 10.5705 46.0301 10.5725C46.0255 10.5744 46.0216 10.5777 46.0189 10.5818C46.0161 10.5859 46.0146 10.5907 46.0145 10.5956L45.9037 11.3854L45.793 10.7927C45.7874 10.7664 45.7719 10.7432 45.7498 10.728C45.7282 10.7165 45.711 10.728 45.7066 10.7409L45.606 11.0905L44.9457 10.7093C44.7429 10.2777 44.7659 9.8462 45.0147 9.70235C45.0941 9.66659 45.1816 9.65241 45.2682 9.66125C45.3548 9.67009 45.4376 9.70163 45.5081 9.7527C45.7132 9.88056 45.8821 10.0588 45.9987 10.2705L46.1425 10.5122L46.2864 10.4317C46.3656 10.3963 46.4527 10.3824 46.539 10.3912C46.6254 10.4 46.7079 10.4313 46.7783 10.482C46.9817 10.6119 47.1486 10.7917 47.2631 11.0042ZM46.4129 11.4357L46.2979 12.1434C46.2979 12.165 46.2763 12.1722 46.2547 12.1593C46.2427 12.152 46.2325 12.1421 46.2248 12.1304C46.2171 12.1188 46.2121 12.1055 46.2101 12.0916L46.0663 10.9581L45.9641 11.6889C45.9641 11.7119 45.9426 11.7191 45.9195 11.709C45.9081 11.7016 45.8984 11.6919 45.891 11.6805C45.8836 11.6691 45.8786 11.6563 45.8764 11.6428L45.7512 10.9768L45.6894 11.1969C45.6894 11.2156 45.6664 11.2214 45.6462 11.2099L45.0306 10.8546L45.1572 11.0746L46.1382 12.7735L47.125 12.2096L47.2516 12.1377L46.4849 11.6946C46.4729 11.687 46.4628 11.6768 46.4551 11.6649C46.4474 11.653 46.4423 11.6396 46.4403 11.6256L46.4129 11.4357Z" fill="white"/>
<path d="M54.0008 16.6371L53.9994 17.1406L48.1348 13.7544L48.1362 13.251L54.0008 16.6371Z" fill="white"/>
<path d="M55.1301 16.3005L55.1287 16.8054L48.1377 12.7691L48.1391 12.2642L55.1301 16.3005Z" fill="white"/>
<path d="M50.5441 12.664L50.5426 13.1675L48.1404 11.7808L48.1418 11.2773L50.5441 12.664Z" fill="white"/>
<path d="M56.3311 20.4546L45.0176 13.9225C44.9748 13.8931 44.9255 13.8743 44.874 13.8678C44.8224 13.8613 44.77 13.8672 44.7213 13.8851H44.7126L44.6954 13.8952L44.2379 14.1584H44.2279H44.2207C44.1795 14.1914 44.1471 14.2339 44.1262 14.2823C44.1054 14.3307 44.0968 14.3835 44.1013 14.4361L44.0927 17.4856C44.1005 17.6396 44.1448 17.7894 44.2218 17.923C44.2988 18.0565 44.4064 18.1699 44.5357 18.2538L55.8493 24.7859C55.8947 24.8189 55.9482 24.8391 56.0041 24.8445C56.06 24.8498 56.1163 24.84 56.1672 24.8161L56.6332 24.5471C56.6773 24.5141 56.712 24.4703 56.734 24.4198C56.7559 24.3694 56.7643 24.3141 56.7584 24.2594L56.767 21.2084C56.7573 21.0577 56.7129 20.9112 56.6373 20.7805C56.5617 20.6498 56.4569 20.5382 56.3311 20.4546Z" fill="#0070BB"/>
<path opacity="0.3" d="M56.3311 20.4546L45.0176 13.9225C44.9748 13.8931 44.9255 13.8743 44.8739 13.8678C44.8224 13.8613 44.77 13.8672 44.7212 13.8851H44.7126L44.6953 13.8952L44.2379 14.1584C44.288 14.1369 44.3427 14.1286 44.3969 14.1344C44.4511 14.1402 44.5028 14.1599 44.5472 14.1915L55.8607 20.7265C56.0446 20.8459 56.1829 21.0238 56.2534 21.2314L56.7253 20.9624C56.6551 20.7534 56.5162 20.5744 56.3311 20.4546Z" fill="white"/>
<path opacity="0.2" d="M56.2534 21.2314C56.2858 21.3155 56.3028 21.4046 56.3038 21.4947L56.2951 24.5457C56.3012 24.6007 56.2926 24.6563 56.2701 24.7069C56.2476 24.7574 56.212 24.8011 56.1671 24.8334L56.6332 24.5644C56.6772 24.5314 56.712 24.4876 56.7339 24.4371C56.7559 24.3867 56.7643 24.3314 56.7583 24.2767L56.767 21.2257C56.7652 21.1367 56.7481 21.0486 56.7166 20.9653L56.2534 21.2314Z" fill="black"/>
<path d="M54.5906 22.9119L54.5891 23.4153L51.3871 21.5669L51.3885 21.062L54.5906 22.9119Z" fill="white"/>
<path d="M54.9948 22.1552L54.9934 22.6601L51.3885 20.5787L51.39 20.0752L54.9948 22.1552Z" fill="white"/>
<path d="M52.9954 20.0133L52.9939 20.5168L51.3915 19.5918L51.3929 19.0884L52.9954 20.0133Z" fill="white"/>
<path d="M46.4517 17.1001C46.5037 17.1337 46.5469 17.1791 46.5779 17.2326C46.6089 17.2861 46.6268 17.3462 46.6301 17.408V17.7489C46.6301 17.8611 46.5481 17.9071 46.4503 17.851L46.154 17.6798C46.1025 17.6459 46.0598 17.6003 46.029 17.5469C45.9983 17.4934 45.9805 17.4336 45.9771 17.372V17.0311C45.9771 16.9175 46.0576 16.8729 46.1554 16.929L46.4517 17.1001Z" fill="white"/>
<path opacity="0.4" d="M46.3079 15.7972L46.351 15.8246V16.2345C46.3367 16.2241 46.3218 16.2145 46.3064 16.2058C45.7382 15.8778 45.275 16.141 45.2722 16.7955C45.2799 17.0871 45.3516 17.3734 45.4822 17.6342L45.1772 17.673C45.0145 17.3345 44.9257 16.9653 44.9169 16.5898C44.9183 15.7109 45.5426 15.3556 46.3079 15.7972Z" fill="white"/>
<path d="M46.351 15.8242C47.0962 16.2817 47.6931 17.3289 47.6903 18.1905C47.6874 19.0521 47.0631 19.4247 46.2992 18.9831C45.8034 18.6674 45.4129 18.2112 45.1772 17.6727L45.4822 17.6338C45.6582 18.0196 45.942 18.3462 46.2992 18.5746C46.8746 18.9025 47.3321 18.6379 47.3335 17.9848C47.3144 17.6373 47.2159 17.2989 47.0456 16.9954C46.8753 16.6919 46.6377 16.4315 46.351 16.2342V15.8242Z" fill="white"/>
<path opacity="0.4" d="M49.392 17.5781L49.4366 17.6054V18.0154C49.4223 18.005 49.4074 17.9954 49.392 17.9866C48.8238 17.6586 48.3606 17.9219 48.3592 18.5764C48.3663 18.8678 48.4375 19.1542 48.5678 19.415L48.2642 19.4538C48.1004 19.1157 48.0111 18.7463 48.0024 18.3707C48.0039 17.4918 48.6282 17.1307 49.392 17.5781Z" fill="white"/>
<path d="M49.5372 18.8809C49.5887 18.9148 49.6316 18.9603 49.6623 19.0138C49.693 19.0672 49.7108 19.1272 49.7141 19.1887V19.5282C49.7141 19.6419 49.635 19.6879 49.5358 19.6318L49.2394 19.4606C49.1878 19.4268 49.1449 19.3813 49.1142 19.3278C49.0835 19.2743 49.0657 19.2144 49.0625 19.1528V18.8119C49.0625 18.6982 49.1431 18.6536 49.2423 18.7097L49.5372 18.8809Z" fill="white"/>
<path d="M49.4365 17.605C50.1802 18.0624 50.7771 19.1096 50.7743 19.9713C50.7714 20.8329 50.1485 21.2055 49.3833 20.7639C48.8876 20.4484 48.4974 19.9921 48.2627 19.4534L48.5662 19.4146C48.7428 19.8004 49.027 20.1271 49.3847 20.3553C49.9529 20.6833 50.4161 20.4186 50.419 19.7656C50.3998 19.4179 50.3011 19.0793 50.1306 18.7759C49.96 18.4724 49.722 18.212 49.435 18.0149L49.4365 17.605Z" fill="white"/>
<path d="M45.4907 20.6246C45.5634 20.6715 45.6238 20.7352 45.6668 20.8103C45.7099 20.8854 45.7343 20.9697 45.7381 21.0561V21.5294C45.7381 21.6862 45.6274 21.7495 45.4893 21.6732L45.0779 21.4359C45.0058 21.3884 44.9459 21.3246 44.9032 21.2496C44.8605 21.1746 44.836 21.0906 44.8319 21.0043V20.5311C44.8319 20.3743 44.9441 20.311 45.0793 20.3872L45.4907 20.6246Z" fill="#0070BB"/>
<path d="M45.4879 21.9566C45.5604 22.0036 45.6206 22.0674 45.6634 22.1424C45.7062 22.2175 45.7304 22.3018 45.7339 22.3881V22.8614C45.7339 23.0182 45.6231 23.0815 45.4865 23.0052L45.0751 22.7679C45.0026 22.7208 44.9424 22.6571 44.8996 22.582C44.8568 22.5069 44.8326 22.4227 44.8291 22.3363V21.8616C44.8291 21.7049 44.9399 21.6416 45.0765 21.7178L45.4879 21.9566Z" fill="#0070BB"/>
<path d="M45.4837 23.2902C45.5562 23.3373 45.6166 23.401 45.6596 23.476C45.7026 23.5511 45.7271 23.6353 45.7311 23.7217V24.195C45.7311 24.3518 45.6189 24.4151 45.4822 24.3388L45.0708 24.1015C44.9984 24.0544 44.9383 23.9906 44.8955 23.9155C44.8527 23.8405 44.8285 23.7563 44.8248 23.67V23.1967C44.8248 23.0413 44.9356 22.9781 45.0722 23.0529L45.4837 23.2902Z" fill="#0070BB"/>
<path d="M52.407 27.5725L52.4055 28.0428L46.1539 24.4323L46.1554 23.9619L52.407 27.5725Z" fill="#0070BB"/>
<path d="M54.8999 27.676L54.8984 28.1478L46.1569 23.1017L46.1583 22.6299L54.8999 27.676Z" fill="#0070BB"/>
<path d="M53.7462 25.6761L53.7447 26.1464L46.1611 21.7692L46.1626 21.2974L53.7462 25.6761Z" fill="#0070BB"/>
<path d="M30.7984 4.83323C30.7984 3.6206 30.3668 2.76902 29.6749 2.36769L28.1228 1.45139L28.1012 1.43988C28.0392 1.40394 27.9748 1.37222 27.9085 1.34494C27.8962 1.33998 27.8838 1.33566 27.8711 1.33199L27.8049 1.30898C27.7718 1.29747 27.7402 1.28309 27.7057 1.27302C27.6711 1.26295 27.6309 1.25575 27.5949 1.24712L27.5258 1.23274C27.5141 1.22902 27.5021 1.22614 27.4899 1.22411C27.4128 1.21058 27.335 1.20146 27.2569 1.19678H27.1864C27.126 1.19678 27.0655 1.19678 27.0022 1.19678L26.939 1.20397L26.8239 1.21548C26.7879 1.21548 26.752 1.21548 26.716 1.22555L26.6196 1.24712C26.5678 1.25575 26.516 1.26726 26.4628 1.28021C26.434 1.28021 26.4067 1.29028 26.378 1.29891C26.3132 1.31617 26.2485 1.33631 26.1823 1.35789H26.1622C26.0831 1.38378 26.0054 1.41399 25.9248 1.44707L25.8299 1.49023L25.7393 1.53194C25.6228 1.5866 25.5062 1.64558 25.3868 1.71463L14.0402 8.26685C13.9165 8.33877 13.7942 8.41645 13.6734 8.49988L13.5583 8.58332C13.4763 8.64229 13.3958 8.70271 13.3152 8.766L13.1843 8.87532C13.111 8.93718 13.0405 9.00047 12.9671 9.0652L12.8376 9.18603L12.7556 9.26227C12.7283 9.2896 12.701 9.32125 12.6737 9.35002C12.5873 9.43777 12.501 9.52839 12.4176 9.62189C12.3917 9.6521 12.3629 9.67943 12.3356 9.70964L12.2709 9.78875C12.2205 9.84773 12.1716 9.90958 12.127 9.97C12.0824 10.0304 12.0609 10.0491 12.0292 10.0894C11.9976 10.1297 11.9789 10.1584 11.9544 10.193C11.93 10.2275 11.8825 10.2879 11.848 10.3368L11.7732 10.4361C11.7329 10.4936 11.6955 10.5526 11.6567 10.6116L11.5819 10.7223L11.5517 10.7683C11.4826 10.8762 11.4164 10.9841 11.3517 11.0949L11.3402 11.1165L11.3028 11.1826C11.2582 11.2603 11.2136 11.3394 11.1719 11.4185C11.1518 11.4545 11.1345 11.4919 11.1158 11.5293L11.0568 11.6444C11.041 11.6789 11.0223 11.712 11.0065 11.7451C10.9619 11.8357 10.9216 11.9263 10.8813 12.0184L10.8597 12.0658L10.8526 12.0788C10.8036 12.1939 10.7562 12.3089 10.7087 12.424C10.7015 12.4456 10.6943 12.4672 10.6857 12.4888C10.6771 12.5103 10.6569 12.5722 10.6411 12.6139C10.6253 12.6556 10.5979 12.729 10.5792 12.788C10.5605 12.8469 10.5519 12.8771 10.5375 12.9232C10.5231 12.9692 10.5044 13.0282 10.4901 13.08C10.4757 13.1318 10.4685 13.1461 10.4599 13.1792C10.4426 13.2382 10.4311 13.2972 10.4167 13.3562C10.4023 13.4151 10.3822 13.4871 10.3678 13.5518C10.3678 13.5748 10.3563 13.5978 10.3505 13.6208C10.3405 13.6683 10.3361 13.7143 10.3275 13.7647C10.3074 13.8668 10.2887 13.9689 10.2743 14.0711C10.2743 14.0998 10.2628 14.1286 10.2599 14.1559C10.2513 14.2207 10.247 14.284 10.2412 14.3487C10.2355 14.4134 10.2311 14.4393 10.2283 14.4839C10.2168 14.6278 10.2096 14.7716 10.211 14.9083L10.2599 36.8032C10.2599 38.0158 10.6914 38.8688 11.3834 39.2702L12.9369 40.1894C12.8933 40.1623 12.851 40.133 12.8103 40.1016C13.518 40.595 14.5365 40.5777 15.6714 39.9218L27.0152 33.3681C29.1384 32.1426 30.8559 29.1692 30.8487 26.7267L30.7984 4.83323Z" fill="#0070BB"/>
<path opacity="0.6" d="M30.7984 4.83323C30.7984 3.6206 30.3668 2.76902 29.6749 2.36769L28.1228 1.45139L28.1012 1.43988C28.0392 1.40394 27.9748 1.37222 27.9085 1.34494C27.8962 1.33998 27.8838 1.33566 27.8711 1.33199L27.8049 1.30898C27.7718 1.29747 27.7402 1.28309 27.7057 1.27302C27.6711 1.26295 27.6309 1.25575 27.5949 1.24712L27.5258 1.23274C27.5141 1.22902 27.5021 1.22614 27.4899 1.22411C27.4128 1.21058 27.335 1.20146 27.2569 1.19678H27.1864C27.126 1.19678 27.0655 1.19678 27.0022 1.19678L26.939 1.20397L26.8239 1.21548C26.7879 1.21548 26.752 1.21548 26.716 1.22555L26.6196 1.24712C26.5678 1.25575 26.516 1.26726 26.4628 1.28021C26.434 1.28021 26.4067 1.29028 26.378 1.29891C26.3132 1.31617 26.2485 1.33631 26.1823 1.35789H26.1622C26.0831 1.38378 26.0054 1.41399 25.9248 1.44707L25.8299 1.49023L25.7393 1.53194C25.6228 1.5866 25.5062 1.64558 25.3868 1.71463L14.0402 8.26685C13.9165 8.33877 13.7942 8.41645 13.6734 8.49988L13.5583 8.58332C13.4763 8.64229 13.3958 8.70271 13.3152 8.766L13.1843 8.87532C13.111 8.93718 13.0405 9.00047 12.9671 9.0652L12.8376 9.18603L12.7556 9.26227C12.7283 9.2896 12.701 9.32125 12.6737 9.35002C12.5873 9.43777 12.501 9.52839 12.4176 9.62189C12.3917 9.6521 12.3629 9.67943 12.3356 9.70964L12.2709 9.78875C12.2205 9.84773 12.1716 9.90958 12.127 9.97C12.0824 10.0304 12.0609 10.0491 12.0292 10.0894C11.9976 10.1297 11.9789 10.1584 11.9544 10.193C11.93 10.2275 11.8825 10.2879 11.848 10.3368L11.7732 10.4361C11.7329 10.4936 11.6955 10.5526 11.6567 10.6116L11.5819 10.7223L11.5517 10.7683C11.4826 10.8762 11.4164 10.9841 11.3517 11.0949L11.3402 11.1165L11.3028 11.1826C11.2582 11.2603 11.2136 11.3394 11.1719 11.4185C11.1518 11.4545 11.1345 11.4919 11.1158 11.5293L11.0568 11.6444C11.041 11.6789 11.0223 11.712 11.0065 11.7451C10.9619 11.8357 10.9216 11.9263 10.8813 12.0184L10.8597 12.0658L10.8526 12.0788C10.8036 12.1939 10.7562 12.3089 10.7087 12.424C10.7015 12.4456 10.6943 12.4672 10.6857 12.4888C10.6771 12.5103 10.6569 12.5722 10.6411 12.6139C10.6253 12.6556 10.5979 12.729 10.5792 12.788C10.5605 12.8469 10.5519 12.8771 10.5375 12.9232C10.5231 12.9692 10.5044 13.0282 10.4901 13.08C10.4757 13.1318 10.4685 13.1461 10.4599 13.1792C10.4426 13.2382 10.4311 13.2972 10.4167 13.3562C10.4023 13.4151 10.3822 13.4871 10.3678 13.5518C10.3678 13.5748 10.3563 13.5978 10.3505 13.6208C10.3405 13.6683 10.3361 13.7143 10.3275 13.7647C10.3074 13.8668 10.2887 13.9689 10.2743 14.0711C10.2743 14.0998 10.2628 14.1286 10.2599 14.1559C10.2513 14.2207 10.247 14.284 10.2412 14.3487C10.2355 14.4134 10.2311 14.4393 10.2283 14.4839C10.2168 14.6278 10.2096 14.7716 10.211 14.9083L10.2599 36.8032C10.2599 38.0158 10.6914 38.8688 11.3834 39.2702L12.9369 40.1894C12.8933 40.1623 12.851 40.133 12.8103 40.1016C13.518 40.595 14.5365 40.5777 15.6714 39.9218L27.0152 33.3681C29.1384 32.1426 30.8559 29.1692 30.8487 26.7267L30.7984 4.83323Z" fill="white"/>
<path opacity="0.1" d="M11.8106 37.718L11.7675 15.8245L10.2139 14.9053L10.2628 36.8002C10.2628 38.0128 10.6944 38.8659 11.3863 39.2672L12.9398 40.1864C12.2436 39.785 11.8149 38.932 11.8106 37.718Z" fill="black"/>
<path opacity="0.3" d="M27.3834 2.41084C27.4919 2.36105 27.6028 2.31687 27.7157 2.27851H27.7359C27.8308 2.24686 27.9243 2.22241 28.0236 2.20083L28.1804 2.16631C28.2494 2.15336 28.317 2.14329 28.3846 2.1361L28.4997 2.12315C28.5821 2.11888 28.6647 2.11888 28.7471 2.12315H28.8032C28.8998 2.12892 28.9959 2.14093 29.0909 2.15911L29.16 2.17494C29.2311 2.19164 29.3012 2.21229 29.37 2.23679L29.4361 2.25837C29.523 2.2922 29.6071 2.3326 29.6879 2.3792L28.1228 1.45139L28.1012 1.43988C28.0392 1.40394 27.9748 1.37222 27.9085 1.34494C27.8962 1.33998 27.8838 1.33566 27.8711 1.33199L27.8049 1.30898C27.7718 1.29747 27.7402 1.28309 27.7057 1.27302C27.6711 1.26295 27.6309 1.25575 27.5949 1.24712L27.5258 1.23274C27.5141 1.22902 27.5021 1.22614 27.4899 1.22411C27.4128 1.21058 27.335 1.20146 27.2569 1.19678H27.1864C27.126 1.19678 27.0655 1.19678 27.0022 1.19678L26.939 1.20397L26.8239 1.21548C26.7879 1.21548 26.752 1.21548 26.716 1.22555L26.6196 1.24712C26.5678 1.25575 26.516 1.26726 26.4628 1.28021C26.4341 1.28021 26.4067 1.29028 26.378 1.29891C26.3132 1.31617 26.2485 1.33631 26.1823 1.35789H26.1622C26.0831 1.38378 26.0054 1.41399 25.9248 1.44707L25.8299 1.49023L25.7393 1.53194C25.6228 1.5866 25.5062 1.64558 25.3868 1.71463L14.0402 8.26685C13.9165 8.33878 13.7942 8.41645 13.6734 8.49988L13.5583 8.58475C13.4763 8.64229 13.3958 8.70271 13.3152 8.766L13.1843 8.87533C13.111 8.93718 13.0405 9.00047 12.9671 9.0652L12.8376 9.18603L12.7556 9.26227C12.7283 9.2896 12.701 9.32125 12.6737 9.35002C12.5873 9.43777 12.501 9.52839 12.4176 9.62189C12.3917 9.6521 12.3629 9.67943 12.3356 9.70964L12.2709 9.78875C12.2205 9.84773 12.1716 9.90958 12.127 9.97C12.0824 10.0304 12.0609 10.0491 12.0292 10.0894C11.9976 10.1297 11.9789 10.1584 11.9544 10.193C11.93 10.2275 11.8825 10.2879 11.848 10.3368L11.7732 10.4361C11.7329 10.4936 11.6955 10.5526 11.6567 10.6116L11.5819 10.7223L11.5517 10.7683C11.4826 10.8762 11.4164 10.9841 11.3517 11.0949L11.3402 11.1165L11.3028 11.1826C11.2582 11.2617 11.2136 11.3394 11.1719 11.4185C11.1518 11.4545 11.1345 11.4919 11.1158 11.5293L11.0568 11.6444C11.041 11.6789 11.0223 11.712 11.0065 11.7451C10.9619 11.8357 10.9216 11.9263 10.8813 12.0184L10.8597 12.0658L10.8526 12.0788C10.8036 12.1939 10.7562 12.309 10.7087 12.424C10.7015 12.4456 10.6943 12.4672 10.6857 12.4888C10.6771 12.5103 10.6569 12.5722 10.6411 12.6139C10.6253 12.6556 10.5979 12.729 10.5792 12.788C10.5605 12.8469 10.5519 12.8771 10.5375 12.9232C10.5231 12.9692 10.5044 13.0282 10.4901 13.08C10.4757 13.1318 10.4685 13.1461 10.4599 13.1792C10.4426 13.2382 10.4311 13.2972 10.4167 13.3562C10.4023 13.4151 10.3822 13.4871 10.3678 13.5518C10.3678 13.5748 10.3563 13.5978 10.3505 13.6208C10.3405 13.6683 10.3361 13.7143 10.3275 13.7647C10.3074 13.8668 10.2887 13.9689 10.2743 14.0711C10.2743 14.0998 10.2628 14.1286 10.2599 14.1559C10.2513 14.2207 10.247 14.284 10.2412 14.3487C10.2355 14.4134 10.2311 14.4393 10.2283 14.4839C10.2168 14.6278 10.2096 14.7716 10.211 14.9083L11.7645 15.8274C11.7645 15.6836 11.7645 15.5398 11.7804 15.4031C11.7804 15.3571 11.7904 15.3125 11.7948 15.2664C11.8034 15.1744 11.8149 15.0823 11.8278 14.9903C11.8408 14.8982 11.8609 14.786 11.8811 14.6839C11.894 14.6134 11.9055 14.54 11.9213 14.4738C11.9372 14.4077 11.953 14.3429 11.9702 14.2768C11.9933 14.1862 12.0163 14.0941 12.0422 14.002C12.058 13.9502 12.0753 13.897 12.0911 13.8438C12.1242 13.7417 12.1587 13.6381 12.1946 13.536C12.209 13.4942 12.2234 13.4511 12.2392 13.4094C12.2925 13.2655 12.3486 13.1217 12.4104 12.9879L12.432 12.939C12.4881 12.8139 12.5456 12.6901 12.6075 12.5664C12.6262 12.5276 12.6463 12.4888 12.6665 12.4514C12.7254 12.3348 12.7887 12.2198 12.8535 12.1047L12.8909 12.0385C12.9685 11.9047 13.0491 11.7738 13.1325 11.6444L13.2073 11.5322C13.2692 11.4401 13.3325 11.3495 13.3972 11.2589L13.5051 11.115C13.5612 11.0402 13.6202 10.9712 13.6777 10.8935L13.8216 10.7108L13.9654 10.5454C14.0488 10.4519 14.1351 10.3613 14.2214 10.2735C14.2761 10.2174 14.3293 10.1628 14.3854 10.1095C14.4415 10.0563 14.4717 10.0275 14.5149 9.9887C14.5868 9.92253 14.6587 9.85924 14.7321 9.79882L14.863 9.6895C14.9436 9.62621 15.0241 9.56579 15.1061 9.50681C15.1449 9.47948 15.1823 9.44927 15.2212 9.42338C15.342 9.33995 15.4643 9.26227 15.588 9.19035L26.9346 2.63956C27.054 2.57052 27.1705 2.51154 27.2871 2.45688L27.3834 2.41084Z" fill="white"/>
<path d="M13.7453 37.7121C13.7453 38.1882 13.8503 38.4313 13.9036 38.5061C13.9198 38.5075 13.9362 38.5075 13.9525 38.5061C14.0402 38.5061 14.2876 38.4802 14.7019 38.2415L26.0485 31.6907C27.5805 30.806 28.9255 28.4886 28.914 26.7294L28.9025 21.105L13.7266 29.9616L13.7453 37.7121Z" fill="#0070BB"/>
<path d="M28.8651 4.83896C28.8651 4.35707 28.7558 4.11972 28.704 4.04492H28.6392H28.5946L28.5313 4.05499L28.4709 4.06794C28.4335 4.07657 28.3803 4.09095 28.3415 4.1039H28.3228C28.2839 4.11828 28.2321 4.13842 28.1789 4.16575L28.1257 4.19021C28.0394 4.23048 27.9718 4.26501 27.9128 4.29953L16.5662 10.8503C16.4957 10.892 16.4223 10.9409 16.3346 10.9942L16.2483 11.056C16.1922 11.0977 16.1361 11.1395 16.0814 11.1826L16.0037 11.2459L15.9879 11.2603C15.9332 11.3049 15.8815 11.3509 15.8297 11.3969L15.7333 11.4876L15.6297 11.5926L15.611 11.6113C15.5449 11.6774 15.4801 11.7465 15.4183 11.817L15.3967 11.84L15.3046 11.9436L15.1881 12.0874C15.1421 12.1449 15.0961 12.2025 15.0529 12.2615L14.968 12.3737C14.9177 12.4456 14.8673 12.5175 14.8242 12.5909L14.7638 12.68C14.6947 12.7879 14.63 12.8929 14.5739 12.9893L14.5422 13.0454C14.4905 13.136 14.4415 13.2281 14.3984 13.3202L14.3524 13.4108C14.3035 13.5086 14.2574 13.6064 14.2085 13.6985C14.1999 13.7172 14.1927 13.7359 14.1826 13.756C14.1423 13.851 14.1006 13.9545 14.056 14.071L14.0215 14.1689C13.9927 14.248 13.9669 14.3271 13.9424 14.4062C13.9295 14.4465 13.9165 14.4868 13.905 14.5256C13.8849 14.5947 13.8676 14.6623 13.8503 14.7342L13.8403 14.773L13.8144 14.8766L13.7971 14.9658L13.7856 15.0291C13.7712 15.1024 13.7583 15.1729 13.7482 15.2477C13.7381 15.3225 13.7309 15.3743 13.7252 15.4376L13.7151 15.5297C13.7065 15.6375 13.7036 15.7267 13.7036 15.8058L13.7338 29.3059L28.9097 20.4492L28.8651 4.83896Z" fill="#455A64"/>
<path d="M13.7252 29.3205L13.7266 29.965L28.9024 21.1083L28.8996 20.4639L13.7252 29.3205Z" fill="white"/>
<path d="M26.447 12.4497L25.0013 13.2855C25.5221 12.1347 25.4501 10.9839 24.7856 10.6099C24.4144 10.3985 23.9225 10.4661 23.4449 10.7538C22.8857 11.1014 22.4251 11.5868 22.1071 12.1635L21.7116 12.8482L21.644 11.9736C21.644 11.9002 21.5835 11.8715 21.5102 11.9089C21.4755 11.9315 21.4458 11.9611 21.4231 11.9958C21.4003 12.0304 21.3849 12.0694 21.3778 12.1102L21.2541 12.9172L21.0269 12.7878C20.6557 12.5763 20.1638 12.6439 19.6848 12.9244C19.1257 13.2718 18.6655 13.7573 18.3484 14.3341C17.6867 15.4849 17.622 16.7018 18.1485 17.2499L16.6999 18.0856C16.6606 18.1105 16.6278 18.1446 16.6045 18.1849C16.5812 18.2253 16.568 18.2707 16.5662 18.3172C16.5662 18.4021 16.6266 18.4366 16.6999 18.3949L18.3844 17.4182L18.9037 17.7145L21.5922 19.245L21.8986 18.7142L21.9115 18.8797C21.9115 18.9545 21.9748 18.9832 22.0453 18.9444C22.0817 18.9204 22.1125 18.8888 22.1355 18.8518C22.1586 18.8148 22.1735 18.7733 22.1791 18.7301L22.2323 18.136L24.262 14.6204L24.7784 13.7271L26.4556 12.759C26.4934 12.7329 26.5246 12.6984 26.5468 12.6582C26.569 12.618 26.5816 12.5733 26.5837 12.5274C26.5837 12.4411 26.5218 12.4066 26.447 12.4497Z" fill="#0070BB"/>
<path d="M21.5088 11.9021C21.5821 11.8647 21.6368 11.8935 21.6426 11.9669L21.7102 12.8414L22.054 17.2086L22.4697 12.6588C22.474 12.6166 22.4876 12.5759 22.5095 12.5396C22.5314 12.5033 22.561 12.4723 22.5963 12.4487C22.6653 12.4085 22.7214 12.4272 22.7329 12.4948L23.2249 15.1531L23.3169 14.3892C23.3229 14.3472 23.3378 14.307 23.3606 14.2713C23.3835 14.2356 23.4137 14.2051 23.4493 14.1821L25.0014 13.2859L26.4485 12.4502C26.5233 12.407 26.5837 12.4415 26.5837 12.5279C26.581 12.5742 26.5675 12.6193 26.5443 12.6595C26.5211 12.6997 26.4887 12.734 26.4499 12.7594L24.7727 13.7275L23.5629 14.4238L23.3716 16.0061C23.3659 16.0476 23.3514 16.0874 23.3291 16.1229C23.3067 16.1584 23.2771 16.1887 23.2421 16.2118C23.1745 16.2506 23.1199 16.2305 23.1069 16.1643L22.6365 13.611L22.2251 18.1379L22.1719 18.732C22.1663 18.7752 22.1515 18.8167 22.1284 18.8537C22.1053 18.8907 22.0745 18.9223 22.0381 18.9463C21.9677 18.9851 21.9101 18.9564 21.9044 18.8816L21.8914 18.7161L21.4599 13.2039L20.7406 17.8775C20.7334 17.9179 20.7181 17.9565 20.6956 17.9909C20.6731 18.0252 20.6439 18.0547 20.6097 18.0775C20.5349 18.1163 20.4817 18.0875 20.476 18.0142L20.1883 14.7057L19.8617 16.4506C19.8537 16.4897 19.838 16.5269 19.8155 16.56C19.7931 16.5931 19.7643 16.6214 19.7308 16.6433L18.3844 17.4186L16.7057 18.3882C16.6324 18.4299 16.572 18.3882 16.572 18.3105C16.5738 18.2639 16.587 18.2186 16.6103 18.1782C16.6336 18.1379 16.6664 18.1038 16.7057 18.0789L18.1543 17.2432L19.6301 16.3901L20.1192 13.7822C20.1269 13.7427 20.1424 13.7051 20.1649 13.6718C20.1874 13.6384 20.2164 13.6099 20.2501 13.588C20.3249 13.5506 20.3767 13.5808 20.3839 13.6513L20.663 16.8159L21.2599 12.9076L21.3836 12.1006C21.3902 12.0609 21.4047 12.0228 21.4261 11.9887C21.4476 11.9546 21.4757 11.9252 21.5088 11.9021Z" fill="white"/>
<path d="M19.702 22.0488L19.7063 23.926L19.1554 24.2439L19.151 22.8443L18.8705 23.0054V22.5293L19.702 22.0488Z" fill="white"/>
<path d="M20.5119 21.5381C20.8988 21.3151 21.1721 21.3942 21.1736 21.7452C21.1736 21.9293 21.1333 22.1192 20.8945 22.5047L20.6629 22.8845L21.2124 22.568V23.0585L19.9034 23.8152V23.4268L20.4932 22.4573C20.5668 22.361 20.6112 22.2457 20.6212 22.125C20.6212 22.0358 20.5666 22.0099 20.4615 22.0703C20.3477 22.1434 20.2628 22.2537 20.2213 22.3825H19.8056C19.9342 22.0265 20.1843 21.7275 20.5119 21.5381Z" fill="white"/>
<path d="M22.0611 20.6432C22.4926 20.3958 22.8019 20.5756 22.8033 21.1971C22.8126 21.4754 22.7497 21.7514 22.6206 21.9982C22.4915 22.245 22.3008 22.4542 22.0668 22.6053C21.6353 22.8556 21.3246 22.6744 21.3231 22.0515C21.3143 21.7731 21.3776 21.4971 21.5069 21.2503C21.6362 21.0036 21.8271 20.7944 22.0611 20.6432ZM22.0611 22.099C22.1675 22.0371 22.2466 21.8789 22.2452 21.5236C22.2438 21.1683 22.1646 21.0921 22.0582 21.1582C21.9518 21.2244 21.8712 21.3783 21.8726 21.7336C21.8741 22.0889 21.9546 22.1652 22.0611 22.1004" fill="white"/>
<path d="M23.5154 21.1251C23.6492 21.0475 23.7643 21.0978 23.7643 21.2863C23.7632 21.3759 23.7401 21.4638 23.6969 21.5423C23.6538 21.6209 23.5919 21.6876 23.5169 21.7365C23.4536 21.7725 23.4075 21.7811 23.373 21.7595V21.807L23.1716 21.9235V21.1223L23.3831 21V21.2517C23.4145 21.198 23.4603 21.1541 23.5154 21.1251ZM23.4651 21.5768C23.4921 21.5588 23.5139 21.5341 23.5285 21.5051C23.5431 21.4761 23.55 21.4438 23.5485 21.4114C23.5485 21.3352 23.5111 21.3179 23.4651 21.3452C23.4383 21.3627 23.4166 21.3869 23.4022 21.4155C23.3878 21.444 23.3812 21.4759 23.3831 21.5078C23.3831 21.584 23.419 21.6027 23.4651 21.5768Z" fill="white"/>
<path d="M24.1728 20.7442C24.3065 20.668 24.4202 20.7198 24.4202 20.9097C24.4197 20.9988 24.3969 21.0864 24.354 21.1646C24.311 21.2427 24.2492 21.3089 24.1742 21.357C24.1181 21.3887 24.0749 21.3987 24.0433 21.3815V21.6318L23.8318 21.754V20.9557L24.0332 20.8392V20.8866C24.0655 20.8271 24.1139 20.7777 24.1728 20.7442ZM24.1239 21.1974C24.1508 21.1796 24.1727 21.1552 24.1873 21.1264C24.202 21.0977 24.2088 21.0656 24.2073 21.0334C24.2073 20.9571 24.1699 20.9384 24.1224 20.9658C24.0953 20.9837 24.0734 21.0084 24.0588 21.0374C24.0441 21.0664 24.0373 21.0987 24.039 21.1312C24.039 21.2074 24.0764 21.2247 24.1239 21.1974Z" fill="white"/>
<path d="M25.1667 20.1704C25.2832 20.1042 25.371 20.1344 25.371 20.3142V20.6508L25.1595 20.7731V20.4854C25.1595 20.4106 25.1365 20.3962 25.1034 20.4149C25.0805 20.4307 25.0623 20.4525 25.0506 20.4778C25.039 20.5031 25.0343 20.531 25.0372 20.5587V20.8464L24.8258 20.9687V20.681C24.8258 20.6062 24.8028 20.5918 24.7668 20.612C24.7439 20.6278 24.7257 20.6495 24.714 20.6748C24.7024 20.7001 24.6977 20.7281 24.7006 20.7558V21.0435L24.4877 21.1658V20.576L24.6891 20.4609V20.5142C24.724 20.4547 24.7735 20.4052 24.833 20.3703C24.9006 20.3315 24.9581 20.3272 24.9941 20.3703C25.0312 20.2885 25.0911 20.219 25.1667 20.1704Z" fill="white"/>
<path d="M16.3834 30.077C16.8927 29.7821 17.3069 30.0195 17.3098 30.6035C17.2933 30.923 17.2012 31.234 17.0412 31.5111C16.8811 31.7881 16.6577 32.0233 16.3892 32.1973C15.8785 32.4922 15.4643 32.2563 15.4628 31.6694C15.4797 31.3501 15.5719 31.0394 15.7319 30.7627C15.892 30.4859 16.1152 30.2509 16.3834 30.077Z" fill="white"/>
<path d="M27.4956 24.5171L27.4971 24.9155L18.311 30.2192L18.3096 29.8222L27.4956 24.5171Z" fill="white"/>
<path d="M27.5057 27.6113V28.0098L18.3197 33.3134L18.3182 32.915L27.5057 27.6113Z" fill="white"/>
<path d="M23.2464 30.8164L23.2479 31.2134L18.3211 34.0573V33.6603L23.2464 30.8164Z" fill="white"/>
<path d="M21.933 30.0825V30.481L18.3167 32.5696V32.1712L21.933 30.0825Z" fill="white"/>
<path d="M26.4959 25.8408L26.4973 26.2378L18.3124 30.9632V30.5662L26.4959 25.8408Z" fill="white"/>
<path d="M23.9498 25.8203L23.9513 26.2173L18.3082 29.4755V29.077L23.9498 25.8203Z" fill="white"/>
<path d="M16.3921 33.1656C16.9013 32.8707 17.317 33.1067 17.3184 33.6921C17.3015 34.0116 17.2093 34.3225 17.0493 34.5995C16.8893 34.8765 16.6661 35.1117 16.3978 35.2859C15.8886 35.5808 15.4729 35.3435 15.4714 34.758C15.4883 34.4388 15.5805 34.1281 15.7406 33.8513C15.9006 33.5745 16.1238 33.3396 16.3921 33.1656Z" fill="white"/>
<path d="M39.3773 37.3573L37.8051 36.4438L16.8538 46.8771L18.4303 47.7876L39.3773 37.3573Z" fill="#455A64"/>
<path d="M49.5401 43.2637L28.6291 53.6753L30.3207 54.652L51.2246 44.2418L49.5401 43.2637Z" fill="#455A64"/>
<path opacity="0.3" d="M39.3773 37.3573L37.8051 36.4438L16.8538 46.8771L18.4303 47.7876L39.3773 37.3573Z" fill="white"/>
<path d="M28.6291 53.6749L18.4304 47.7873L16.8538 46.8767L13.9222 46.4912L27.3432 54.2906L30.3208 54.6516L28.6291 53.6749Z" fill="#455A64"/>
<path opacity="0.5" d="M28.6291 53.6749L18.4304 47.7873L16.8538 46.8767L13.9222 46.4912L27.3432 54.2906L30.3208 54.6516L28.6291 53.6749Z" fill="white"/>
<path opacity="0.3" d="M49.5401 43.2637L28.6291 53.6753L30.3207 54.652L51.2246 44.2418L49.5401 43.2637Z" fill="white"/>
<path d="M27.3432 54.2906L13.9222 46.4912L13.9251 50.0298L13.928 51.5891L27.3475 59.3885L27.3432 54.2906Z" fill="#455A64"/>
<path d="M15.2197 50.4269V49.2503C15.2195 49.1997 15.2326 49.1499 15.2578 49.106C15.2829 49.0621 15.3192 49.0256 15.363 49.0003C15.4068 48.9749 15.4565 48.9615 15.5071 48.9614C15.5577 48.9614 15.6074 48.9747 15.6512 49L25.6802 54.8286C25.7895 54.8918 25.8803 54.9826 25.9435 55.0919C26.0066 55.2012 26.0398 55.3253 26.0398 55.4515V56.6282C26.04 56.6788 26.0269 56.7285 26.0017 56.7724C25.9765 56.8163 25.9402 56.8528 25.8965 56.8782C25.8527 56.9036 25.803 56.917 25.7524 56.917C25.7018 56.9171 25.6521 56.9038 25.6083 56.8785L15.5836 51.0498C15.4735 50.9872 15.3818 50.8967 15.3179 50.7873C15.254 50.6779 15.2201 50.5536 15.2197 50.4269Z" fill="#37474F"/>
<path d="M27.3431 54.2908L27.3474 59.3888L51.2303 45.5996L51.2245 44.2417L30.3207 54.6519L27.3431 54.2908Z" fill="#455A64"/>
<path opacity="0.1" d="M27.3431 54.2908L27.3474 59.3888L51.2303 45.5996L51.2245 44.2417L30.3207 54.6519L27.3431 54.2908Z" fill="white"/>
<path d="M39.3773 37.3574L39.3759 38.0004H38.0856L39.3773 37.3574Z" fill="#455A64"/>
<path d="M38.2942 37.8963L18.4304 47.7873L28.6292 53.6749L48.9432 43.5596L39.2508 37.9266C39.1064 37.8426 38.9433 37.7958 38.7763 37.7905C38.6093 37.7853 38.4437 37.8216 38.2942 37.8963Z" fill="#37474F"/>
<path d="M27.6064 38.7349C27.492 38.7349 27.3822 38.7803 27.3013 38.8613C27.2203 38.9422 27.1749 39.052 27.1749 39.1664V53.5065C27.4358 53.6693 27.7316 53.7679 28.0379 53.7942V39.1678C28.0381 39.1111 28.0271 39.0548 28.0055 39.0023C27.9839 38.9497 27.9522 38.902 27.9121 38.8618C27.872 38.8215 27.8243 38.7896 27.7719 38.7678C27.7194 38.7461 27.6632 38.7349 27.6064 38.7349Z" fill="#E3F4FF"/>
<path opacity="0.2" d="M27.6064 38.7349C27.492 38.7349 27.3822 38.7803 27.3013 38.8613C27.2203 38.9422 27.1749 39.052 27.1749 39.1664V53.5065C27.4358 53.6693 27.7316 53.7679 28.0379 53.7942V39.1678C28.0381 39.1111 28.0271 39.0548 28.0055 39.0023C27.9839 38.9497 27.9522 38.902 27.9121 38.8618C27.872 38.8215 27.8243 38.7896 27.7719 38.7678C27.7194 38.7461 27.6632 38.7349 27.6064 38.7349Z" fill="black"/>
<path opacity="0.3" d="M27.6064 38.7349C27.492 38.7349 27.3822 38.7803 27.3013 38.8613C27.2203 38.9422 27.1749 39.052 27.1749 39.1664V40.4078C27.4299 40.4532 27.6883 40.4763 27.9473 40.4768H28.0394V39.1678C28.0396 39.1109 28.0285 39.0545 28.0068 39.0019C27.9851 38.9493 27.9532 38.9015 27.913 38.8613C27.8727 38.821 27.8249 38.7891 27.7723 38.7674C27.7197 38.7457 27.6633 38.7347 27.6064 38.7349Z" fill="black"/>
<path d="M16.2468 32.6016C16.1323 32.6016 16.0226 32.647 15.9416 32.728C15.8607 32.8089 15.8152 32.9187 15.8152 33.0331V47.0898C16.0795 47.2397 16.3749 47.3264 16.6783 47.343V33.0345C16.6785 32.9778 16.6675 32.9215 16.6459 32.869C16.6243 32.8164 16.5925 32.7687 16.5524 32.7285C16.5124 32.6882 16.4647 32.6563 16.4123 32.6346C16.3598 32.6128 16.3036 32.6016 16.2468 32.6016Z" fill="#E3F4FF"/>
<path opacity="0.2" d="M16.2468 32.6016C16.1323 32.6016 16.0226 32.647 15.9416 32.728C15.8607 32.8089 15.8152 32.9187 15.8152 33.0331V47.0898C16.0795 47.2397 16.3749 47.3264 16.6783 47.343V33.0345C16.6785 32.9778 16.6675 32.9215 16.6459 32.869C16.6243 32.8164 16.5925 32.7687 16.5524 32.7285C16.5124 32.6882 16.4647 32.6563 16.4123 32.6346C16.3598 32.6128 16.3036 32.6016 16.2468 32.6016Z" fill="black"/>
<path opacity="0.3" d="M16.2468 32.6016C16.1323 32.6016 16.0226 32.647 15.9416 32.728C15.8607 32.8089 15.8152 32.9187 15.8152 33.0331V34.1594L16.6783 34.66V33.0345C16.6785 32.9778 16.6675 32.9215 16.6459 32.869C16.6243 32.8164 16.5925 32.7687 16.5524 32.7285C16.5124 32.6882 16.4647 32.6563 16.4123 32.6346C16.3598 32.6128 16.3036 32.6016 16.2468 32.6016Z" fill="black"/>
<path d="M19.5265 29.6797C19.4975 29.6394 19.4589 29.6069 19.4142 29.5853C19.3695 29.5637 19.3201 29.5536 19.2705 29.556L16.4913 30.1889C16.5427 30.1838 16.5945 30.1925 16.6414 30.2143C16.6882 30.2361 16.7283 30.27 16.7575 30.3126C16.8442 30.4275 16.9025 30.5614 16.9275 30.7031C16.9525 30.8449 16.9435 30.9906 16.9013 31.1282C16.8899 31.1785 16.8652 31.2248 16.8297 31.2623C16.7943 31.2997 16.7495 31.327 16.6999 31.3411L19.4661 30.7082C19.5162 30.6945 19.5616 30.6674 19.5976 30.6299C19.6335 30.5925 19.6587 30.5459 19.6704 30.4953C19.7117 30.3576 19.7203 30.2121 19.6953 30.0704C19.6703 29.9288 19.6125 29.795 19.5265 29.6797Z" fill="#455A64"/>
<path d="M16.907 31.1287C16.9493 30.9911 16.9582 30.8454 16.9332 30.7036C16.9082 30.5619 16.8499 30.428 16.7632 30.3131C16.734 30.2705 16.6939 30.2366 16.6471 30.2148C16.6003 30.193 16.5485 30.1843 16.4971 30.1894L16.4798 30.1966C16.4344 30.2133 16.3937 30.2407 16.3611 30.2766C16.3286 30.3124 16.3051 30.3555 16.2928 30.4023C16.2508 30.54 16.242 30.6856 16.267 30.8274C16.292 30.9691 16.3501 31.1029 16.4367 31.2179C16.4654 31.2603 16.505 31.2943 16.5513 31.3163C16.5975 31.3383 16.6489 31.3476 16.6999 31.3431H16.7071C16.7566 31.3286 16.8012 31.301 16.8364 31.2633C16.8716 31.2256 16.896 31.1791 16.907 31.1287Z" fill="#263238"/>
<path d="M33.0237 37.6215C32.9952 37.581 32.9569 37.5482 32.9124 37.5263C32.8679 37.5045 32.8186 37.4942 32.7691 37.4964L29.9899 38.1322C30.0414 38.1272 30.0934 38.1362 30.1402 38.1582C30.187 38.1802 30.227 38.2145 30.256 38.2573C30.3425 38.3721 30.4005 38.5057 30.4255 38.6472C30.4505 38.7887 30.4417 38.9341 30.3999 39.0715C30.3875 39.1216 30.3623 39.1676 30.3268 39.2049C30.2912 39.2422 30.2465 39.2696 30.1971 39.2844L32.9632 38.6529C33.0129 38.6382 33.0578 38.6109 33.0936 38.5736C33.1294 38.5362 33.1549 38.4902 33.1675 38.44C33.21 38.3019 33.2191 38.1558 33.1941 38.0135C33.1691 37.8712 33.1107 37.7369 33.0237 37.6215Z" fill="#455A64"/>
<path d="M29.9698 38.1323C29.9755 38.1317 29.9813 38.1317 29.9871 38.1323H29.9698Z" fill="#455A64"/>
<path d="M30.4057 39.0686C30.4475 38.9312 30.4563 38.7858 30.4313 38.6443C30.4063 38.5028 30.3482 38.3692 30.2618 38.2544C30.2328 38.2116 30.1928 38.1773 30.146 38.1553C30.0991 38.1333 30.0472 38.1243 29.9957 38.1293C29.99 38.1287 29.9842 38.1287 29.9784 38.1293C29.933 38.1462 29.8924 38.1739 29.8601 38.21C29.8278 38.2461 29.8047 38.2894 29.7929 38.3364C29.7507 38.4738 29.7417 38.6193 29.7667 38.7608C29.7917 38.9024 29.85 39.036 29.9367 39.1506C29.9655 39.193 30.005 39.227 30.0513 39.249C30.0976 39.271 30.1489 39.2802 30.2 39.2757C30.2492 39.2619 30.294 39.2356 30.3301 39.1993C30.3661 39.163 30.3922 39.1179 30.4057 39.0686Z" fill="#263238"/>
<g opacity="0.4">
<path d="M19.5264 29.6797C19.4975 29.6394 19.4589 29.6069 19.4141 29.5853C19.3694 29.5637 19.32 29.5536 19.2704 29.556L16.4913 30.1889C16.5426 30.1838 16.5945 30.1925 16.6413 30.2143C16.6881 30.2361 16.7282 30.27 16.7574 30.3126C16.8441 30.4275 16.9024 30.5614 16.9274 30.7031C16.9524 30.8449 16.9434 30.9906 16.9012 31.1282C16.8898 31.1785 16.8651 31.2248 16.8297 31.2623C16.7943 31.2997 16.7494 31.327 16.6998 31.3411L19.466 30.7082C19.5161 30.6945 19.5616 30.6674 19.5975 30.6299C19.6335 30.5925 19.6586 30.5459 19.6703 30.4953C19.7117 30.3576 19.7202 30.2121 19.6953 30.0704C19.6703 29.9288 19.6125 29.795 19.5264 29.6797Z" fill="white"/>
</g>
<g opacity="0.4">
<path d="M33.0237 37.6215C32.9952 37.581 32.957 37.5482 32.9125 37.5263C32.868 37.5045 32.8187 37.4942 32.7691 37.4964L29.99 38.1322C30.0415 38.1272 30.0934 38.1362 30.1402 38.1582C30.1871 38.1802 30.2271 38.2145 30.2561 38.2573C30.3425 38.3721 30.4006 38.5057 30.4256 38.6472C30.4506 38.7887 30.4418 38.9341 30.4 39.0715C30.3876 39.1216 30.3624 39.1676 30.3268 39.2049C30.2912 39.2422 30.2465 39.2696 30.1971 39.2844L32.9633 38.6529C33.0129 38.6382 33.0578 38.6109 33.0937 38.5736C33.1295 38.5362 33.1549 38.4902 33.1676 38.44C33.21 38.3019 33.2191 38.1558 33.1941 38.0135C33.1691 37.8712 33.1107 37.7369 33.0237 37.6215Z" fill="white"/>
<path d="M29.9698 38.1323C29.9756 38.1317 29.9814 38.1317 29.9871 38.1323H29.9698Z" fill="white"/>
</g>
<path d="M29.9324 38.3507L28.8277 38.6269C27.921 38.8554 26.9609 38.7206 26.1521 38.2515L16.0311 32.4084C15.931 32.3517 15.8503 32.2663 15.7992 32.1633C15.7481 32.0603 15.7291 31.9443 15.7446 31.8304C15.7601 31.7164 15.8094 31.6097 15.8861 31.5241C15.9627 31.4384 16.0634 31.3777 16.1749 31.3497L16.6179 31.2404C16.7704 31.1167 16.7532 30.4449 16.4295 30.396L15.9649 30.5096C15.6849 30.5777 15.4318 30.7283 15.2384 30.942C15.045 31.1556 14.9202 31.4224 14.8802 31.7077C14.8402 31.9931 14.8868 32.2839 15.0141 32.5425C15.1413 32.801 15.3433 33.0154 15.5938 33.1579L25.7206 38.9952C26.3979 39.3883 27.167 39.5957 27.9502 39.5964C28.3191 39.5934 28.6863 39.5451 29.0434 39.4526L30.1252 39.1836C30.2733 39.0728 30.2561 38.4011 29.9324 38.3507Z" fill="#E3F4FF"/>
<path d="M17.2206 34.1594V31.1602L23.711 34.9088V37.9066L17.2206 34.1594Z" fill="#455A64"/>
<path d="M23.711 34.9087L27.6064 36.8089V37.9065H23.711V34.9087Z" fill="#455A64"/>
<path d="M17.2206 31.1602L23.711 34.9088L27.6064 36.809L21.1146 33.0618L17.2206 31.1602Z" fill="#455A64"/>
<path opacity="0.1" d="M23.711 34.9087L27.6064 36.8089V37.9065H23.711V34.9087Z" fill="white"/>
<path opacity="0.3" d="M17.2206 31.1602L23.711 34.9088L27.6064 36.809L21.1146 33.0618L17.2206 31.1602Z" fill="white"/>
<path opacity="0.2" d="M38.8897 43.0522C41.3739 44.4906 41.3868 46.8109 38.9199 48.245C36.4529 49.6792 32.4381 49.6835 29.9539 48.245C27.4696 46.8066 27.4581 44.4863 29.9251 43.0522C32.3921 41.618 36.4069 41.618 38.8897 43.0522Z" fill="black"/>
<path d="M34.1888 26.8451L34.734 24.4673C33.9906 24.5713 33.2877 24.869 32.6957 25.3304L29.8417 27.5744L31.8052 28.18L34.1888 26.8451Z" fill="#FFA8A7"/>
<path d="M35.5222 37.5367L35.9207 38.4358C36.0323 38.6891 36.2222 38.8999 36.4624 39.0374C36.7027 39.1749 36.9806 39.2317 37.2556 39.1996L40.6216 38.8155C40.9044 38.7835 41.1908 38.8045 41.466 38.8774L42.2025 39.073V37.3468L42.0011 37.4058C41.6136 37.5209 41.2026 37.5309 40.81 37.4346L39.583 37.1325C39.0023 36.9898 38.394 37.0047 37.8209 37.1757L37.6957 36.1572L35.5222 37.5367Z" fill="#F28F8F"/>
<path d="M44.6694 39.8098C44.6567 39.393 44.4817 38.9977 44.1817 38.708C43.9602 38.498 43.6812 38.357 43.4711 38.1326C43.228 37.8722 43.1273 37.586 42.9202 37.2911C42.8837 37.2413 42.8338 37.2029 42.7764 37.1803C42.7553 37.1782 42.7341 37.1782 42.7131 37.1803C42.6397 37.1861 42.5683 37.2067 42.5031 37.2407C42.5868 37.2551 42.6616 37.3016 42.7116 37.3702C42.9202 37.6579 43.0669 38.0031 43.3115 38.2577C43.52 38.4749 43.7991 38.613 44.0206 38.8187C44.3193 39.0986 44.4947 39.4856 44.5083 39.8947C44.5198 40.2989 44.3716 40.9966 44.0767 40.9966C44.1698 41.0192 44.268 41.0042 44.35 40.9549C44.6061 40.7003 44.6766 40.1105 44.6694 39.8098Z" fill="#EBEBEB"/>
<path d="M42.9202 37.2909C43.1273 37.5858 43.228 37.8663 43.4711 38.1324C43.6811 38.3568 43.9602 38.4978 44.1817 38.7078C44.4817 38.9975 44.6566 39.3929 44.6693 39.8097C44.6693 40.1103 44.6061 40.7001 44.3601 40.9504C44.6737 40.762 44.76 40.096 44.7499 39.7709C44.7361 39.3621 44.5613 38.9754 44.2637 38.6949C44.0422 38.4892 43.7617 38.3511 43.5531 38.1324C43.3086 37.8778 43.2093 37.5973 43.0007 37.3111C42.9748 37.2756 42.9419 37.2456 42.904 37.2232C42.8662 37.2007 42.8243 37.186 42.7806 37.1802C42.8365 37.2034 42.8848 37.2418 42.9202 37.2909Z" fill="#455A64"/>
<path d="M41.9262 37.3614C41.8549 37.3927 41.7763 37.4042 41.699 37.3945C41.699 37.3945 41.4717 37.3714 41.3969 37.3571C41.253 37.3297 41.2386 37.4923 41.2386 37.4923C41.3242 37.5013 41.4105 37.5013 41.4961 37.4923C41.5156 37.5222 41.5412 37.5476 41.5712 37.567C41.6012 37.5863 41.6349 37.5991 41.6702 37.6045C41.7423 37.6186 41.8127 37.6403 41.8802 37.6692C41.9137 37.6845 41.9419 37.7093 41.9613 37.7405C41.9808 37.7717 41.9906 37.8079 41.9895 37.8447C41.9766 37.9252 41.8975 37.9727 41.8457 38.0403C41.8216 38.0796 41.8079 38.1244 41.8059 38.1705C41.8039 38.2165 41.8136 38.2623 41.8342 38.3036C41.788 38.2837 41.7365 38.2805 41.6882 38.2944C41.6399 38.3083 41.598 38.3385 41.5695 38.3798C41.5154 38.4668 41.4829 38.5654 41.4746 38.6675C41.4598 38.7355 41.4549 38.8053 41.4602 38.8746C41.4626 38.9096 41.4721 38.9437 41.4882 38.9749C41.5043 39.0061 41.5266 39.0336 41.5537 39.0559C41.5812 39.0773 41.6151 39.089 41.65 39.089C41.685 39.089 41.7189 39.0773 41.7464 39.0559C41.9306 39.3551 42.7721 39.4687 43.1935 40.034C43.615 40.5994 43.7071 41.0007 44.0811 41.0007C44.3688 41.0007 44.5126 40.303 44.5126 39.8988C44.499 39.4897 44.3236 39.1027 44.025 38.8229C43.8034 38.6171 43.5244 38.4791 43.3158 38.2618C43.0713 38.0072 42.9245 37.662 42.716 37.3743C42.6659 37.3057 42.5911 37.2592 42.5074 37.2449C42.482 37.242 42.4565 37.242 42.4311 37.2449C42.257 37.2517 42.0858 37.2913 41.9262 37.3614Z" fill="#0070BB"/>
<path d="M43.9718 40.896L44.0667 40.6356C44.0731 40.6187 44.084 40.6039 44.0982 40.5928C44.1124 40.5816 44.1293 40.5745 44.1472 40.5723C44.4349 40.5378 44.5256 40.4946 44.6507 40.3623C44.6328 40.5238 44.5808 40.6797 44.4982 40.8197C44.4499 40.9037 44.3708 40.9656 44.2777 40.9925C44.1846 41.0193 44.0847 41.0089 43.9991 40.9636C43.9868 40.9579 43.9771 40.9478 43.972 40.9352C43.9669 40.9226 43.9668 40.9086 43.9718 40.896Z" fill="#455A64"/>
<path d="M42.1506 38.4734C42.1505 38.4837 42.1483 38.4939 42.1441 38.5033C42.1399 38.5127 42.1338 38.5211 42.1262 38.528C42.0307 38.6102 41.9654 38.7219 41.9406 38.8455C41.9158 38.969 41.9331 39.0972 41.9895 39.2099C41.9965 39.2266 41.9969 39.2454 41.9906 39.2625C41.9843 39.2795 41.9718 39.2935 41.9556 39.3017C41.9394 39.3099 41.9207 39.3117 41.9032 39.3066C41.8858 39.3016 41.8708 39.2902 41.8615 39.2746C41.7912 39.1331 41.7694 38.9723 41.7996 38.8172C41.8301 38.6622 41.9116 38.5219 42.0312 38.4187C42.0458 38.4064 42.0647 38.4002 42.0838 38.4015C42.1028 38.4029 42.1206 38.4116 42.1334 38.4259C42.1447 38.4391 42.1508 38.456 42.1506 38.4734Z" fill="#37474F"/>
<path d="M42.5923 38.6766C42.5922 38.696 42.5845 38.7146 42.5707 38.7284C42.4797 38.8185 42.4135 38.9306 42.3785 39.0538C42.3435 39.1771 42.3408 39.3072 42.3708 39.4318C42.373 39.4412 42.3734 39.451 42.3719 39.4606C42.3704 39.4702 42.367 39.4794 42.3619 39.4877C42.3568 39.496 42.3502 39.5032 42.3423 39.5089C42.3345 39.5146 42.3256 39.5187 42.3161 39.521C42.3067 39.5232 42.2969 39.5236 42.2873 39.5221C42.2777 39.5206 42.2685 39.5172 42.2602 39.5121C42.2519 39.507 42.2447 39.5004 42.239 39.4925C42.2333 39.4846 42.2292 39.4757 42.2269 39.4663C42.1915 39.3173 42.1949 39.1617 42.2367 39.0144C42.2785 38.8671 42.3573 38.733 42.4657 38.6248C42.4724 38.6181 42.4804 38.6127 42.4891 38.609C42.4979 38.6054 42.5073 38.6035 42.5168 38.6035C42.5263 38.6035 42.5357 38.6054 42.5444 38.609C42.5532 38.6127 42.5612 38.6181 42.5678 38.6248C42.5753 38.6312 42.5814 38.6392 42.5856 38.6481C42.5898 38.657 42.5921 38.6667 42.5923 38.6766Z" fill="#37474F"/>
<path d="M42.9821 38.9959C42.9822 39.0067 42.9797 39.0174 42.975 39.0271C42.9703 39.0368 42.9633 39.0453 42.9548 39.052C42.8736 39.1186 42.8111 39.2053 42.7736 39.3034C42.736 39.4015 42.7246 39.5077 42.7405 39.6115C42.7434 39.6304 42.7389 39.6496 42.7279 39.6652C42.7169 39.6808 42.7002 39.6914 42.6815 39.6949C42.6626 39.6979 42.6434 39.6934 42.6278 39.6824C42.6122 39.6714 42.6016 39.6547 42.598 39.636C42.5776 39.5064 42.5915 39.3738 42.6385 39.2513C42.6854 39.1289 42.7638 39.0209 42.8656 38.9383C42.8805 38.9266 42.8995 38.9212 42.9183 38.9233C42.9372 38.9255 42.9544 38.935 42.9663 38.9498C42.9768 38.9629 42.9823 38.9791 42.9821 38.9959Z" fill="#37474F"/>
<path d="M43.3028 39.305C43.3026 39.315 43.3003 39.325 43.2961 39.3341C43.2919 39.3433 43.2859 39.3515 43.2784 39.3582C43.2091 39.422 43.156 39.5012 43.1232 39.5895C43.0905 39.6777 43.0791 39.7725 43.0899 39.866C43.0924 39.8848 43.0872 39.9039 43.0756 39.919C43.064 39.9341 43.0469 39.944 43.0281 39.9465C43.0187 39.9479 43.0091 39.9474 42.9999 39.9451C42.9908 39.9427 42.9822 39.9385 42.9746 39.9327C42.9671 39.927 42.9608 39.9197 42.9562 39.9115C42.9515 39.9032 42.9486 39.8941 42.9475 39.8847C42.9336 39.7681 42.9475 39.6499 42.9883 39.5399C43.0291 39.4298 43.0955 39.3311 43.182 39.2517C43.1887 39.245 43.1966 39.2397 43.2054 39.236C43.2141 39.2323 43.2235 39.2305 43.233 39.2305C43.2425 39.2305 43.2519 39.2323 43.2607 39.236C43.2695 39.2397 43.2774 39.245 43.2841 39.2517C43.2967 39.2666 43.3033 39.2855 43.3028 39.305Z" fill="#37474F"/>
<path d="M34.0636 31.3804C33.9557 32.908 34.3642 34.6889 34.4951 35.2153L34.2693 35.7562C34.2132 37.1443 36.2587 37.9024 37.1966 37.3615C38.6667 35.0111 39.4118 33.7366 39.1227 32.2578L34.0636 31.3804Z" fill="#263238"/>
<path opacity="0.3" d="M34.6174 34.9795L35.5222 33.1785C34.7655 32.9527 34.1887 32.0508 34.1887 32.0508C34.3052 32.8175 35.036 33.3037 35.036 33.3037C34.7148 33.8006 34.5676 34.39 34.6174 34.9795Z" fill="black"/>
<path d="M37.2282 36.8496C37.0354 35.9865 35.725 35.0472 34.6073 35.3478L33.563 37.6565C33.3873 38.0455 33.2811 38.4623 33.2494 38.8879L32.8337 44.4619C32.8053 44.852 32.7348 45.2378 32.6237 45.6127L32.6107 45.6559L34.0636 46.0443C34.0693 45.4004 34.1901 44.7627 34.4203 44.1613L35.5308 41.2642C35.7459 40.7001 35.8438 40.0981 35.8185 39.4949L35.8012 39.0389L37.2282 36.8496Z" fill="#FFA8A7"/>
<path d="M31.7937 48.4896C32.21 48.4765 32.6048 48.3016 32.8941 48.0019C33.1056 47.7804 33.2465 47.5013 33.4695 47.2928C33.7299 47.0482 34.0176 46.9475 34.311 46.7404C34.3608 46.7039 34.3992 46.654 34.4218 46.5966C34.424 46.5755 34.424 46.5543 34.4218 46.5333C34.4162 46.46 34.3961 46.3887 34.3628 46.3232C34.349 46.4072 34.3024 46.4822 34.2333 46.5318C33.9456 46.7404 33.6018 46.8871 33.3472 47.1317C33.1286 47.3402 32.9905 47.6207 32.7848 47.8408C32.5049 48.1395 32.1179 48.3149 31.7088 48.3285C31.3061 48.34 30.607 48.1933 30.607 47.8969C30.5844 47.99 30.5994 48.0882 30.6487 48.1702C30.899 48.4205 31.4916 48.4896 31.7937 48.4896Z" fill="#EBEBEB"/>
<path d="M34.311 46.7347C34.0233 46.9419 33.7356 47.0426 33.4695 47.2871C33.2465 47.4957 33.1056 47.7748 32.8941 47.9963C32.6048 48.2959 32.21 48.4708 31.7937 48.4839C31.4916 48.4926 30.9033 48.4206 30.6516 48.1747C30.84 48.4882 31.5074 48.5745 31.8311 48.5645C32.24 48.5514 32.627 48.3765 32.9071 48.0783C33.1128 47.8568 33.2509 47.5777 33.4695 47.3677C33.7241 47.1246 34.0046 47.0239 34.2923 46.8153C34.328 46.7896 34.3579 46.7568 34.3802 46.7189C34.4025 46.681 34.4167 46.6389 34.4218 46.5952C34.3985 46.6511 34.3602 46.6994 34.311 46.7347Z" fill="#455A64"/>
<path d="M34.242 45.7405C34.2103 45.6697 34.1988 45.5915 34.2089 45.5146C34.2089 45.5146 34.2305 45.2859 34.2448 45.2126C34.2722 45.0687 34.1614 45.0615 34.1614 45.0615C34.1614 45.0615 34.1398 45.1752 34.1211 45.3089C34.0902 45.3287 34.0635 45.3544 34.0425 45.3845C34.0215 45.4146 34.0067 45.4486 33.9989 45.4844C33.9847 45.5565 33.963 45.6269 33.9341 45.6944C33.919 45.728 33.8943 45.7563 33.863 45.7758C33.8318 45.7953 33.7954 45.805 33.7586 45.8038C33.6795 45.7923 33.6306 45.7117 33.5644 45.6599C33.5249 45.6358 33.4799 45.6222 33.4336 45.6202C33.3873 45.6181 33.3413 45.6279 33.2998 45.6484C33.3201 45.6026 33.3236 45.5511 33.3096 45.5029C33.2957 45.4547 33.2652 45.4131 33.2235 45.3852C33.1367 45.3305 33.0381 45.2974 32.9358 45.2888C32.8673 45.2747 32.7971 45.2699 32.7273 45.2744C32.6924 45.2767 32.6585 45.2862 32.6275 45.3023C32.5966 45.3184 32.5693 45.3407 32.5474 45.3679C32.5257 45.3954 32.5139 45.4293 32.5139 45.4643C32.5139 45.4993 32.5257 45.5332 32.5474 45.5607C32.2468 45.7448 32.1332 46.5863 31.5678 47.0078C31.0025 47.4292 30.6012 47.5227 30.6012 47.8953C30.6012 48.183 31.3003 48.3268 31.7031 48.3268C32.1122 48.3133 32.4991 48.1379 32.779 47.8392C32.9847 47.6191 33.1228 47.3386 33.3415 47.13C33.5961 46.8855 33.9399 46.7388 34.2276 46.5302C34.2718 46.4968 34.3072 46.4532 34.3308 46.4031C34.3543 46.3529 34.3653 46.2978 34.3628 46.2425C34.3528 46.0693 34.3119 45.8993 34.242 45.7405Z" fill="#0070BB"/>
<path d="M30.7061 47.786L30.9665 47.881C30.9839 47.8871 30.9993 47.8981 31.0107 47.9126C31.0222 47.9271 31.0293 47.9446 31.0312 47.963C31.0643 48.2506 31.1075 48.3413 31.2398 48.465C31.0788 48.4477 30.9233 48.3962 30.7838 48.3139C30.6998 48.2653 30.6378 48.186 30.611 48.0926C30.5842 47.9993 30.5945 47.8992 30.64 47.8133C30.6459 47.8016 30.6558 47.7924 30.668 47.7873C30.6801 47.7823 30.6937 47.7819 30.7061 47.786Z" fill="#455A64"/>
<path d="M33.13 45.9668C33.1196 45.9669 33.1092 45.9645 33.0998 45.9601C33.0903 45.9556 33.082 45.9491 33.0754 45.941C32.9926 45.846 32.8809 45.7808 32.7575 45.7554C32.6335 45.7307 32.5048 45.7485 32.3921 45.8057C32.3749 45.8143 32.355 45.8157 32.3368 45.8097C32.3186 45.8036 32.3036 45.7905 32.295 45.7734C32.2864 45.7562 32.285 45.7363 32.2911 45.7181C32.2971 45.6999 32.3102 45.6849 32.3274 45.6763C32.4695 45.6037 32.632 45.5812 32.7886 45.6122C32.9452 45.6433 33.0867 45.7261 33.1904 45.8475C33.2027 45.8618 33.2088 45.8804 33.2075 45.8993C33.2061 45.9181 33.1974 45.9357 33.1832 45.9481C33.1761 45.9547 33.1677 45.9597 33.1585 45.9629C33.1494 45.9661 33.1397 45.9675 33.13 45.9668Z" fill="#37474F"/>
<path d="M32.9257 46.4066C32.9063 46.4066 32.8877 46.3988 32.874 46.3851C32.784 46.2942 32.6722 46.2281 32.5492 46.193C32.4262 46.158 32.2963 46.1553 32.172 46.1851C32.1627 46.1875 32.1531 46.188 32.1436 46.1865C32.1342 46.1851 32.1251 46.1819 32.117 46.1769C32.1088 46.1719 32.1017 46.1654 32.0961 46.1577C32.0905 46.15 32.0864 46.1412 32.0842 46.1319C32.0819 46.1228 32.0814 46.1134 32.0827 46.1041C32.084 46.0948 32.0872 46.0859 32.092 46.0779C32.0968 46.0698 32.1032 46.0628 32.1108 46.0573C32.1183 46.0517 32.1269 46.0478 32.136 46.0456C32.285 46.0099 32.4406 46.0131 32.588 46.0549C32.7354 46.0967 32.8695 46.1758 32.9775 46.2844C32.9875 46.2945 32.9942 46.3074 32.9968 46.3213C32.9995 46.3353 32.9979 46.3497 32.9924 46.3628C32.9869 46.3758 32.9776 46.387 32.9657 46.3948C32.9539 46.4026 32.9399 46.4067 32.9257 46.4066Z" fill="#37474F"/>
<path d="M32.6122 46.7911C32.6012 46.7909 32.5903 46.7884 32.5804 46.7837C32.5705 46.779 32.5617 46.7722 32.5546 46.7637C32.4882 46.6822 32.4016 46.6193 32.3035 46.5815C32.2054 46.5437 32.099 46.5321 31.9951 46.548C31.976 46.551 31.9565 46.5464 31.9408 46.535C31.9252 46.5237 31.9147 46.5066 31.9116 46.4875C31.9086 46.4685 31.9132 46.449 31.9246 46.4333C31.9359 46.4177 31.953 46.4072 31.972 46.4041C32.1014 46.3837 32.2338 46.3977 32.356 46.4447C32.4782 46.4917 32.5859 46.5699 32.6683 46.6717C32.677 46.6822 32.6826 46.6951 32.6844 46.7087C32.6861 46.7223 32.6838 46.7362 32.6779 46.7486C32.672 46.761 32.6627 46.7715 32.6511 46.7787C32.6394 46.786 32.6259 46.7898 32.6122 46.7896V46.7911Z" fill="#37474F"/>
<path d="M32.2985 47.1173C32.2884 47.1174 32.2784 47.1152 32.2692 47.111C32.26 47.1068 32.2519 47.1006 32.2453 47.0929C32.1811 47.0239 32.1015 46.971 32.0131 46.9385C31.9246 46.906 31.8297 46.8948 31.7361 46.9059C31.7171 46.9075 31.6983 46.9019 31.6833 46.8902C31.6683 46.8784 31.6584 46.8614 31.6555 46.8426C31.6543 46.8331 31.655 46.8235 31.6576 46.8143C31.6601 46.8051 31.6644 46.7965 31.6703 46.789C31.6762 46.7815 31.6835 46.7753 31.6919 46.7707C31.7002 46.766 31.7094 46.7631 31.7188 46.762C31.8354 46.7482 31.9535 46.7622 32.0636 46.803C32.1736 46.8437 32.2724 46.9101 32.3518 46.9965C32.3607 47.007 32.3665 47.0198 32.3685 47.0334C32.3705 47.047 32.3686 47.061 32.363 47.0736C32.3575 47.0862 32.3485 47.097 32.3371 47.1047C32.3257 47.1124 32.3123 47.1168 32.2985 47.1173Z" fill="#37474F"/>
<path d="M37.8755 24.3422C37.0881 24.2803 36.2974 24.2745 35.5092 24.3249C35.1554 24.3302 34.8071 24.4137 34.4893 24.5694C34.2869 24.6986 34.1124 24.8669 33.976 25.0646C33.8396 25.2622 33.7442 25.4851 33.6953 25.7202C33.6015 26.1902 33.5715 26.6706 33.6061 27.1486C33.6478 28.7108 33.7644 30.0443 33.9327 31.5978C35.4848 32.494 37.5288 32.9183 39.255 32.4264C39.2794 30.4125 39.1802 28.2821 38.7745 26.3085C38.6307 25.5951 38.4221 24.824 37.8755 24.3422Z" fill="#455A64"/>
<path opacity="0.3" d="M37.8755 24.3422C37.0881 24.2803 36.2974 24.2745 35.5092 24.3249C35.1554 24.3302 34.8071 24.4137 34.4893 24.5694C34.2869 24.6986 34.1124 24.8669 33.976 25.0646C33.8396 25.2622 33.7442 25.4851 33.6953 25.7202C33.6015 26.1902 33.5715 26.6706 33.6061 27.1486C33.6478 28.7108 33.7644 30.0443 33.9327 31.5978C35.4848 32.494 37.5288 32.9183 39.255 32.4264C39.2794 30.4125 39.1802 28.2821 38.7745 26.3085C38.6307 25.5951 38.4221 24.824 37.8755 24.3422Z" fill="white"/>
<path d="M42.5664 28.3508C42.586 28.138 42.5527 27.9237 42.4694 27.7269C42.386 27.5301 42.2553 27.357 42.0888 27.223L39.2262 24.9114C38.8385 24.5973 38.3706 24.398 37.8755 24.336L37.595 24.3145C37.339 24.5518 37.2268 26.242 38.3804 26.9282L40.869 28.381L40.8445 31.5787L39.9929 32.5511C39.9776 32.568 39.9664 32.5884 39.9604 32.6104C39.9545 32.6325 39.9539 32.6557 39.9586 32.678C39.9634 32.7004 39.9735 32.7213 39.9879 32.739C40.0024 32.7567 40.0209 32.7707 40.0419 32.7798C40.0908 32.8028 40.1453 32.8114 40.199 32.8048C40.2527 32.7982 40.3034 32.7766 40.3454 32.7424L40.6216 32.5166C40.4504 32.8388 40.3008 33.2056 40.1296 33.5235C40.0869 33.5861 40.0657 33.6608 40.0692 33.7364C40.075 33.7684 40.0878 33.7986 40.1067 33.825C40.1256 33.8514 40.1501 33.8732 40.1785 33.8889C40.2346 33.9209 40.2969 33.9405 40.3612 33.9464C40.5861 33.9728 40.8137 33.9323 41.0157 33.8299C41.2171 33.7278 41.3949 33.5847 41.5379 33.4099C41.8113 33.0807 41.9752 32.6744 42.0068 32.2476C42.2639 30.9598 42.4507 29.6589 42.5664 28.3508Z" fill="#FFA8A7"/>
<path d="M34.9942 23.7307V23.9896C34.9876 24.1793 34.9527 24.3669 34.8906 24.5463C34.8647 24.6218 34.8647 24.7038 34.8906 24.7793C34.9173 24.8427 34.9579 24.8994 35.0094 24.9449C35.061 24.9905 35.1222 25.0239 35.1884 25.0425C35.3199 25.0778 35.4577 25.0822 35.5912 25.0555C35.9903 24.9874 36.3529 24.7812 36.6154 24.4729L36.5564 22.7021L34.9942 23.7307Z" fill="#FFA8A7"/>
<path opacity="0.2" d="M36.2428 23.4717C36.3695 23.2502 36.4507 23.0057 36.4816 22.7524L34.9942 23.7292V23.9881C34.9928 24.0638 34.9856 24.1393 34.9727 24.2139C35.1824 24.1775 35.3868 24.1152 35.5811 24.0284C35.8513 23.9113 36.0813 23.7178 36.2428 23.4717Z" fill="black"/>
<path d="M33.3443 20.8578C33.1744 20.8633 33.0062 20.8221 32.8581 20.7387C32.71 20.6552 32.5876 20.5327 32.5043 20.3846C32.4925 20.3628 32.4873 20.3381 32.4894 20.3134C32.4915 20.2888 32.5008 20.2653 32.5161 20.2459C32.5314 20.2264 32.552 20.2119 32.5755 20.2041C32.599 20.1963 32.6242 20.1955 32.6481 20.2019C32.7656 20.2227 32.8859 20.2227 33.0034 20.2019C32.8679 20.0254 32.7688 19.8238 32.712 19.6087C32.6552 19.3936 32.6418 19.1693 32.6726 18.949C32.6764 18.9245 32.6859 18.9012 32.7003 18.881C32.7147 18.8609 32.7337 18.8444 32.7557 18.8329C32.7777 18.8214 32.802 18.8153 32.8268 18.815C32.8516 18.8146 32.8761 18.8201 32.8984 18.831C33.3861 19.0729 33.9288 19.1825 34.4721 19.1489C34.7598 19.1288 35.0475 19.0669 35.3352 19.0453C35.6246 19.0095 35.9183 19.0543 36.1839 19.1748C36.3173 19.2361 36.4315 19.3327 36.5142 19.4541C36.5968 19.5755 36.6448 19.7172 36.6528 19.8638C36.6859 19.8169 36.7287 19.7776 36.7783 19.7488C36.828 19.72 36.8833 19.7023 36.9405 19.697C37.0002 19.6897 37.0607 19.6948 37.1184 19.7119C37.176 19.729 37.2295 19.7577 37.2757 19.7962L36.778 20.0724C36.8713 20.0538 36.9682 20.0665 37.0535 20.1087C37.1388 20.1508 37.2078 20.22 37.2498 20.3054C37.3229 20.4728 37.3545 20.6554 37.3418 20.8377C37.3512 21.0779 37.3406 21.3185 37.3102 21.5569C37.2776 21.798 37.1829 22.0265 37.0354 22.22C36.9058 22.3783 36.7329 22.4952 36.5377 22.5566C36.272 22.6309 35.9898 22.6218 35.7293 22.5307C35.4707 22.4405 35.2247 22.3178 34.9971 22.1654C34.4073 21.7811 33.854 21.3434 33.3443 20.8578Z" fill="#263238"/>
<path d="M33.3127 20.3763C33.146 21.3775 33.2565 22.4052 33.632 23.3482C33.7005 23.5742 33.8428 23.7708 34.0363 23.9063C34.2491 24.0285 34.5138 24.0027 34.7555 23.9667C35.1497 23.9222 35.534 23.8138 35.8933 23.6459C36.2557 23.4752 36.5381 23.1712 36.6816 22.7972C36.8103 22.8235 36.9438 22.8119 37.0661 22.7639C37.1884 22.7159 37.2941 22.6336 37.3706 22.5268C37.5224 22.3052 37.6009 22.0416 37.595 21.773C37.595 21.6033 37.5634 21.4019 37.4109 21.3271C37.336 21.3042 37.2562 21.3022 37.1802 21.3212C37.1041 21.3402 37.0347 21.3795 36.9794 21.435C36.7746 21.5997 36.6242 21.8222 36.5478 22.0737C36.4356 21.6579 36.2601 21.2566 36.1479 20.8423C36.1226 20.6738 36.0367 20.5204 35.9063 20.4108C35.7322 20.2986 35.5049 20.3633 35.3035 20.4108C34.6478 20.5692 33.9625 20.5573 33.3127 20.3763Z" fill="#FFA8A7"/>
<path d="M34.5225 21.6362L34.0377 22.4547L34.616 22.5626L34.5225 21.6362Z" fill="#F28F8F"/>
<path d="M35.1741 22.8447L34.7339 23.0591C34.7716 23.109 34.8246 23.1454 34.8848 23.1625C34.9451 23.1796 35.0092 23.1766 35.0676 23.154C35.1184 23.1228 35.1568 23.0748 35.1762 23.0184C35.1957 22.962 35.1949 22.9006 35.1741 22.8447Z" fill="#F28F8F"/>
<path opacity="0.3" d="M35.1741 22.8447L34.7339 23.0591C34.7716 23.109 34.8246 23.1454 34.8848 23.1625C34.9451 23.1796 35.0092 23.1766 35.0676 23.154C35.1184 23.1228 35.1568 23.0748 35.1762 23.0184C35.1957 22.962 35.1949 22.9006 35.1741 22.8447Z" fill="black"/>
<path d="M34.9151 23.1728C34.9663 23.1827 35.0192 23.1778 35.0676 23.1584C35.1079 23.1357 35.1406 23.1016 35.1616 23.0604C35.1826 23.0192 35.1909 22.9727 35.1855 22.9268C35.1227 22.9261 35.0616 22.9475 35.0129 22.9872C34.9851 23.0101 34.9622 23.0383 34.9454 23.0702C34.9286 23.102 34.9183 23.1369 34.9151 23.1728Z" fill="#F28F8F"/>
<path d="M35.3582 21.6693C35.3626 21.7023 35.3571 21.7358 35.3423 21.7656C35.3275 21.7955 35.3042 21.8202 35.2753 21.8366C35.2463 21.8531 35.2131 21.8605 35.18 21.8579C35.1468 21.8554 35.1151 21.8429 35.0891 21.8223C35.063 21.8016 35.0437 21.7736 35.0337 21.7418C35.0237 21.7101 35.0234 21.6761 35.0328 21.6442C35.0422 21.6123 35.061 21.5839 35.0867 21.5628C35.1124 21.5416 35.1438 21.5286 35.1769 21.5254C35.22 21.5206 35.2633 21.533 35.2972 21.56C35.3312 21.5869 35.3531 21.6262 35.3582 21.6693Z" fill="#263238"/>
<path d="M33.9673 21.7557C33.9715 21.7784 33.971 21.8018 33.9658 21.8243C33.9606 21.8468 33.9507 21.868 33.9368 21.8865C33.923 21.905 33.9054 21.9204 33.8853 21.9318C33.8652 21.9432 33.8429 21.9502 33.8199 21.9525C33.7969 21.9548 33.7736 21.9523 33.7517 21.9452C33.7297 21.938 33.7094 21.9264 33.6922 21.911C33.6749 21.8956 33.6611 21.8768 33.6515 21.8558C33.6419 21.8347 33.6368 21.8119 33.6364 21.7888C33.6358 21.747 33.651 21.7066 33.6788 21.6754C33.7066 21.6442 33.7451 21.6246 33.7867 21.6205C33.8282 21.6163 33.8699 21.6279 33.9033 21.6529C33.9367 21.678 33.9596 21.7147 33.9673 21.7557Z" fill="#263238"/>
<path d="M33.7399 21.1138L33.3976 21.4015C33.3772 21.3575 33.3707 21.3084 33.3789 21.2606C33.3871 21.2128 33.4097 21.1686 33.4436 21.134C33.4861 21.1031 33.5365 21.0848 33.5889 21.0812C33.6413 21.0776 33.6937 21.089 33.7399 21.1138Z" fill="#263238"/>
<path d="M35.154 20.9503L35.5467 21.1675C35.5581 21.1206 35.5549 21.0713 35.5374 21.0263C35.5199 20.9813 35.489 20.9427 35.4489 20.9158C35.4012 20.8942 35.3486 20.886 35.2966 20.8921C35.2447 20.8982 35.1954 20.9183 35.154 20.9503Z" fill="#263238"/>
<path d="M35.2632 30.6638C35.2632 30.6236 35.2632 30.5847 35.2531 30.5459C35.2048 30.2141 35.0617 29.9033 34.8409 29.651C34.6202 29.3986 34.3313 29.2153 34.0089 29.1232L31.8684 27.8286L30.43 27.1094L29.8373 27.5769C29.7039 27.6806 29.6039 27.8211 29.5496 27.9811C29.4799 28.1946 29.4962 28.4269 29.5951 28.6287C29.6939 28.8304 29.8675 28.9856 30.079 29.0614L33.5313 30.2783C33.757 30.5144 33.9004 30.8172 33.9398 31.1414C33.9489 31.2366 33.9677 31.3306 33.9959 31.4219C34.0443 31.5304 34.1265 31.6202 34.2302 31.6781C34.3339 31.7359 34.4536 31.7586 34.5713 31.7427C34.6878 31.7249 34.7986 31.6801 34.8947 31.6119C34.9909 31.5438 35.0698 31.4541 35.1251 31.35C35.2362 31.1393 35.2841 30.9011 35.2632 30.6638Z" fill="#FFA8A7"/>
<path d="M34.1096 29.1233V28.9147H33.9571V28.991L33.632 28.8011C33.5982 28.7814 33.5597 28.771 33.5205 28.771C33.4814 28.771 33.4429 28.7814 33.4091 28.8011L32.8667 29.1147V29.0241L32.7229 29.037V29.2427C32.723 29.2556 32.7265 29.2683 32.7331 29.2794C32.7397 29.2905 32.7491 29.2997 32.7603 29.306L33.2062 29.5649C33.2403 29.5841 33.2787 29.5941 33.3177 29.5941C33.3568 29.5941 33.3952 29.5841 33.4292 29.5649L34.0837 29.1866C34.0945 29.1806 34.1034 29.1718 34.1097 29.1612C34.1161 29.1506 34.1195 29.1385 34.1197 29.1262L34.1096 29.1233Z" fill="#0070BB"/>
<path d="M33.4033 28.6304L32.8495 28.9512C32.8396 28.9564 32.8313 28.9643 32.8255 28.9739C32.8197 28.9836 32.8166 28.9946 32.8166 29.0058C32.8166 29.0171 32.8197 29.0281 32.8255 29.0377C32.8313 29.0474 32.8396 29.0552 32.8495 29.0605L33.2293 29.2791C33.258 29.2961 33.2908 29.305 33.3242 29.305C33.3576 29.305 33.3904 29.2961 33.4191 29.2791L33.9744 28.9584C33.9839 28.9528 33.9919 28.9448 33.9974 28.9352C34.0029 28.9256 34.0058 28.9148 34.0058 28.9037C34.0058 28.8926 34.0029 28.8818 33.9974 28.8722C33.9919 28.8626 33.9839 28.8546 33.9744 28.849L33.5932 28.6304C33.5644 28.6134 33.5316 28.6045 33.4982 28.6045C33.4649 28.6045 33.4321 28.6134 33.4033 28.6304Z" fill="#0070BB"/>
<path opacity="0.3" d="M34.1096 29.1233V28.9147H33.9571V28.991L33.632 28.8011C33.5982 28.7814 33.5597 28.771 33.5205 28.771C33.4814 28.771 33.4429 28.7814 33.4091 28.8011L32.8667 29.1147V29.0241L32.7229 29.037V29.2427C32.723 29.2556 32.7265 29.2683 32.7331 29.2794C32.7397 29.2905 32.7491 29.2997 32.7603 29.306L33.2062 29.5649C33.2403 29.5841 33.2787 29.5941 33.3177 29.5941C33.3568 29.5941 33.3952 29.5841 33.4292 29.5649L34.0837 29.1866C34.0945 29.1806 34.1034 29.1718 34.1097 29.1612C34.1161 29.1506 34.1195 29.1385 34.1197 29.1262L34.1096 29.1233Z" fill="black"/>
<path d="M33.4019 28.5957L32.7502 28.9726C32.7388 28.979 32.7294 28.9883 32.7228 28.9995C32.7162 29.0108 32.7127 29.0236 32.7127 29.0366C32.7127 29.0496 32.7162 29.0624 32.7228 29.0737C32.7294 29.085 32.7388 29.0942 32.7502 29.1006L33.2005 29.3581C33.2345 29.3773 33.2729 29.3873 33.3119 29.3873C33.351 29.3873 33.3894 29.3773 33.4234 29.3581L34.0779 28.9798C34.089 28.9731 34.0981 28.9637 34.1044 28.9525C34.1107 28.9413 34.114 28.9286 34.114 28.9158C34.114 28.9029 34.1107 28.8902 34.1044 28.879C34.0981 28.8678 34.089 28.8584 34.0779 28.8518L33.632 28.5957C33.5973 28.5746 33.5575 28.5635 33.5169 28.5635C33.4763 28.5635 33.4365 28.5746 33.4019 28.5957Z" fill="#0070BB"/>
<path opacity="0.5" d="M33.4033 28.6304L32.8495 28.9512C32.8396 28.9564 32.8313 28.9643 32.8255 28.9739C32.8197 28.9836 32.8166 28.9946 32.8166 29.0058C32.8166 29.0171 32.8197 29.0281 32.8255 29.0377C32.8313 29.0474 32.8396 29.0552 32.8495 29.0605L33.2293 29.2791C33.258 29.2961 33.2908 29.305 33.3242 29.305C33.3576 29.305 33.3904 29.2961 33.4191 29.2791L33.9744 28.9584C33.9839 28.9528 33.9919 28.9448 33.9974 28.9352C34.0029 28.9256 34.0058 28.9148 34.0058 28.9037C34.0058 28.8926 34.0029 28.8818 33.9974 28.8722C33.9919 28.8626 33.9839 28.8546 33.9744 28.849L33.5932 28.6304C33.5644 28.6134 33.5316 28.6045 33.4982 28.6045C33.4649 28.6045 33.4321 28.6134 33.4033 28.6304Z" fill="white"/>
<path d="M33.1573 30.1436C33.0696 30.0616 33.0221 29.6142 33.1962 29.4689L32.7503 29.2114C32.6064 29.3941 32.6424 29.7868 32.7229 29.9853C32.7324 30.008 32.7467 30.0284 32.7648 30.0451C32.7829 30.0617 32.8045 30.0742 32.8279 30.0817C32.9142 30.1105 33.0595 30.1608 33.1156 30.1795C33.1328 30.1857 33.1511 30.188 33.1693 30.1862C33.1874 30.1845 33.205 30.1788 33.2206 30.1694L33.1573 30.1436Z" fill="#455A64"/>
</svg>
