<svg width="44" height="50" viewBox="0 0 44 50" fill="none" xmlns="http://www.w3.org/2000/svg">
<path d="M15.4926 49.8737L11.641 46.4438C11.4301 46.247 11.149 46.1346 10.8538 46.1064L6.08851 45.7129C5.73709 45.6847 5.52623 45.3193 5.6668 44.996L12.4844 29.5475L23.1254 34.2424L16.3079 49.6909C16.1673 50.0143 15.7596 50.0986 15.4926 49.8737Z" fill="url(#paint0_linear_666_5004)"/>
<path d="M30.1239 49.8737L33.9755 46.4438C34.1863 46.247 34.4675 46.1346 34.7627 46.1064L39.528 45.7129C39.8794 45.6847 40.0902 45.3193 39.9497 44.996L33.1321 29.5475L22.491 34.2424L29.3086 49.6909C29.4492 50.0143 29.8568 50.0986 30.1239 49.8737Z" fill="url(#paint1_linear_666_5004)"/>
<path d="M40.6149 24.8905C42.2919 14.5135 35.2392 4.74183 24.8622 3.06483C14.4851 1.38784 4.71345 8.4406 3.03646 18.8176C1.35947 29.1946 8.41223 38.9663 18.7892 40.6433C29.1662 42.3203 38.9379 35.2675 40.6149 24.8905Z" fill="#2E9DE7"/>
<path d="M39.298 25.8407C41.5777 16.1287 35.5527 6.40748 25.8407 4.12776C16.1287 1.84805 6.4075 7.8731 4.12779 17.5851C1.84807 27.2971 7.87312 37.0183 17.5851 39.298C27.2971 41.5777 37.0183 35.5527 39.298 25.8407Z" fill="url(#paint2_linear_666_5004)"/>
<path d="M34.2806 24.5013C35.9454 17.4201 31.5545 10.33 24.4733 8.66524C17.392 7.00044 10.302 11.3913 8.63716 18.4726C6.97236 25.5538 11.3632 32.6439 18.4445 34.3087C25.5257 35.9735 32.6158 31.5826 34.2806 24.5013Z" fill="url(#paint3_linear_666_5004)"/>
<g style="mix-blend-mode:overlay">
<path d="M9.09472 22.2801C9.09472 15.0127 14.9846 9.12289 22.252 9.12289C25.724 9.12289 28.8587 10.4724 31.2202 12.6652C28.8165 10.0928 25.4007 8.46222 21.6053 8.46222C14.3239 8.46222 8.43405 14.352 8.43405 21.6194C8.43405 25.4148 10.0506 28.8306 12.6371 31.2343C10.4442 28.8869 9.09472 25.7381 9.09472 22.2661V22.2801Z" fill="white"/>
</g>
<g style="mix-blend-mode:multiply" opacity="0.54">
<path d="M21.5913 8.46222C21.4788 8.46222 21.3664 8.46222 21.2539 8.47628C28.0012 8.65902 33.4272 14.1693 33.4272 20.9588C33.4272 27.7482 27.8325 33.4553 20.9306 33.4553C14.0287 33.4553 8.63085 28.0434 8.44811 21.2961C8.44811 21.4086 8.43405 21.5211 8.43405 21.6335C8.43405 28.9009 14.3239 34.8048 21.5913 34.8048C28.8587 34.8048 34.7626 28.915 34.7626 21.6335C34.7626 14.352 28.8727 8.46222 21.5913 8.46222Z" fill="#591706"/>
</g>
<path d="M28.1638 23.9928C27.7795 23.9928 27.4319 23.9303 27.1212 23.8054C26.8137 23.6773 26.5511 23.4995 26.3333 23.2721C26.1187 23.0447 25.9537 22.7772 25.8384 22.4697C25.7231 22.1622 25.6654 21.8307 25.6654 21.4752V21.283C25.6654 20.8762 25.7247 20.5078 25.8432 20.1779C25.9617 19.848 26.1267 19.5661 26.3381 19.3323C26.5495 19.0953 26.7993 18.9143 27.0876 18.7894C27.3759 18.6645 27.6882 18.602 28.0245 18.602C28.396 18.602 28.7212 18.6645 28.9998 18.7894C29.2785 18.9143 29.5091 19.0905 29.6917 19.3179C29.8775 19.5421 30.0152 19.8096 30.1049 20.1203C30.1978 20.431 30.2442 20.7737 30.2442 21.1485V21.6433H26.2276V20.8121H29.1007V20.7208C29.0943 20.5126 29.0527 20.3173 28.9758 20.1347C28.9021 19.9521 28.7884 19.8048 28.6347 19.6927C28.4809 19.5806 28.2759 19.5245 28.0197 19.5245C27.8275 19.5245 27.6561 19.5661 27.5056 19.6494C27.3583 19.7295 27.2349 19.8464 27.1356 20.0002C27.0363 20.1539 26.9595 20.3397 26.905 20.5575C26.8538 20.7721 26.8281 21.0139 26.8281 21.283V21.4752C26.8281 21.7026 26.8586 21.914 26.9194 22.1094C26.9835 22.3016 27.0764 22.4697 27.1981 22.6139C27.3198 22.758 27.4672 22.8717 27.6401 22.955C27.8131 23.0351 28.0101 23.0751 28.2311 23.0751C28.5098 23.0751 28.758 23.019 28.9758 22.9069C29.1936 22.7948 29.3826 22.6363 29.5427 22.4313L30.1529 23.0222C30.0408 23.1856 29.8951 23.3426 29.7157 23.4931C29.5363 23.6404 29.3169 23.7606 29.0575 23.8534C28.8012 23.9463 28.5034 23.9928 28.1638 23.9928Z" fill="white"/>
<path d="M22.9868 23.9928C22.6024 23.9928 22.2549 23.9303 21.9442 23.8054C21.6367 23.6773 21.374 23.4995 21.1562 23.2721C20.9416 23.0447 20.7766 22.7772 20.6613 22.4697C20.546 22.1622 20.4884 21.8307 20.4884 21.4752V21.283C20.4884 20.8762 20.5476 20.5078 20.6661 20.1779C20.7847 19.848 20.9496 19.5661 21.161 19.3323C21.3724 19.0953 21.6223 18.9143 21.9105 18.7894C22.1988 18.6645 22.5111 18.602 22.8474 18.602C23.219 18.602 23.5441 18.6645 23.8228 18.7894C24.1014 18.9143 24.332 19.0905 24.5146 19.3179C24.7004 19.5421 24.8381 19.8096 24.9278 20.1203C25.0207 20.431 25.0672 20.7737 25.0672 21.1485V21.6433H21.0505V20.8121H23.9237V20.7208C23.9173 20.5126 23.8756 20.3173 23.7987 20.1347C23.7251 19.9521 23.6114 19.8048 23.4576 19.6927C23.3039 19.5806 23.0989 19.5245 22.8426 19.5245C22.6504 19.5245 22.4791 19.5661 22.3285 19.6494C22.1812 19.7295 22.0579 19.8464 21.9586 20.0002C21.8593 20.1539 21.7824 20.3397 21.728 20.5575C21.6767 20.7721 21.6511 21.0139 21.6511 21.283V21.4752C21.6511 21.7026 21.6815 21.914 21.7424 22.1094C21.8064 22.3016 21.8993 22.4697 22.021 22.6139C22.1428 22.758 22.2901 22.8717 22.4631 22.955C22.636 23.0351 22.833 23.0751 23.054 23.0751C23.3327 23.0751 23.5809 23.019 23.7987 22.9069C24.0165 22.7948 24.2055 22.6363 24.3657 22.4313L24.9759 23.0222C24.8638 23.1856 24.718 23.3426 24.5386 23.4931C24.3593 23.6404 24.1399 23.7606 23.8804 23.8534C23.6242 23.9463 23.3263 23.9928 22.9868 23.9928Z" fill="white"/>
<path d="M18.5737 19.6879V23.8967H17.4158V18.6981H18.5209L18.5737 19.6879ZM20.1641 18.6645L20.1545 19.7407C20.084 19.7279 20.0071 19.7183 19.9238 19.7119C19.8438 19.7055 19.7637 19.7023 19.6836 19.7023C19.485 19.7023 19.3104 19.7311 19.1599 19.7888C19.0094 19.8432 18.8828 19.9233 18.7803 20.029C18.681 20.1315 18.6042 20.2564 18.5497 20.4037C18.4953 20.5511 18.4632 20.716 18.4536 20.8986L18.1894 20.9178C18.1894 20.5911 18.2214 20.2884 18.2855 20.0098C18.3495 19.7311 18.4456 19.4861 18.5737 19.2747C18.7051 19.0633 18.8684 18.8983 19.0638 18.7798C19.2624 18.6613 19.4914 18.602 19.7509 18.602C19.8213 18.602 19.8966 18.6084 19.9767 18.6212C20.06 18.6341 20.1224 18.6485 20.1641 18.6645Z" fill="white"/>
<path d="M13.536 16.9011V23.8966H12.3301V16.9011H13.536ZM16.39 19.9616V20.9178H13.2285V19.9616H16.39ZM16.7887 16.9011V17.862H13.2285V16.9011H16.7887Z" fill="white"/>
<defs>
<linearGradient id="paint0_linear_666_5004" x1="8.69987" y1="50.4743" x2="26.0655" y2="26.478" gradientUnits="userSpaceOnUse">
<stop stop-color="#1079C0"/>
<stop offset="0.35" stop-color="#31A7F7"/>
<stop offset="0.73" stop-color="#153347"/>
<stop offset="1" stop-color="#188EDE"/>
</linearGradient>
<linearGradient id="paint1_linear_666_5004" x1="25.5681" y1="50.4743" x2="42.9337" y2="26.478" gradientUnits="userSpaceOnUse">
<stop stop-color="#1079C0"/>
<stop offset="0.35" stop-color="#31A7F7"/>
<stop offset="0.73" stop-color="#153347"/>
<stop offset="1" stop-color="#188EDE"/>
</linearGradient>
<linearGradient id="paint2_linear_666_5004" x1="37.4373" y1="37.4341" x2="-1.40123" y2="-1.3774" gradientUnits="userSpaceOnUse">
<stop stop-color="#1079C0"/>
<stop offset="0.35" stop-color="#31A7F7"/>
<stop offset="0.73" stop-color="#153347"/>
<stop offset="1" stop-color="#188EDE"/>
</linearGradient>
<linearGradient id="paint3_linear_666_5004" x1="32.9209" y1="32.9546" x2="4.61032" y2="4.64404" gradientUnits="userSpaceOnUse">
<stop stop-color="#1079C0"/>
<stop offset="0.35" stop-color="#31A7F7"/>
<stop offset="0.73" stop-color="#153347"/>
<stop offset="1" stop-color="#188EDE"/>
</linearGradient>
</defs>
</svg>
