<svg width="44" height="50" viewBox="0 0 44 50" fill="none" xmlns="http://www.w3.org/2000/svg">
<path d="M15.4929 49.8737L11.6413 46.4438C11.4304 46.247 11.1493 46.1346 10.8541 46.1064L6.08879 45.7129C5.73737 45.6847 5.52651 45.3193 5.66708 44.996L12.4847 29.5475L23.1257 34.2424L16.3082 49.6909C16.1676 50.0143 15.7599 50.0986 15.4929 49.8737Z" fill="url(#paint0_linear_136_2)"/>
<path d="M30.1241 49.8737L33.9757 46.4438C34.1865 46.247 34.4677 46.1346 34.7629 46.1064L39.5282 45.7129C39.8796 45.6847 40.0904 45.3193 39.9499 44.996L33.1323 29.5475L22.4912 34.2424L29.3088 49.6909C29.4494 50.0143 29.857 50.0986 30.1241 49.8737Z" fill="url(#paint1_linear_136_2)"/>
<path d="M40.6151 24.8905C42.2921 14.5135 35.2394 4.74184 24.8624 3.06484C14.4853 1.38785 4.71366 8.44061 3.03667 18.8176C1.35968 29.1946 8.41244 38.9663 18.7894 40.6433C29.1664 42.3203 38.9381 35.2675 40.6151 24.8905Z" fill="#2E9DE7"/>
<path d="M39.2977 25.8407C41.5774 16.1287 35.5524 6.40747 25.8404 4.12775C16.1284 1.84804 6.40725 7.87309 4.12754 17.5851C1.84782 27.2971 7.87287 37.0183 17.5848 39.298C27.2968 41.5777 37.018 35.5527 39.2977 25.8407Z" fill="url(#paint2_linear_136_2)"/>
<path d="M34.2802 24.5013C35.945 17.4201 31.5541 10.33 24.4729 8.66523C17.3916 7.00043 10.3016 11.3913 8.63672 18.4726C6.97192 25.5538 11.3628 32.6439 18.4441 34.3087C25.5253 35.9735 32.6154 31.5826 34.2802 24.5013Z" fill="url(#paint3_linear_136_2)"/>
<g style="mix-blend-mode:overlay">
<path d="M9.09426 22.2801C9.09426 15.0127 14.9841 9.12289 22.2515 9.12289C25.7235 9.12289 28.8582 10.4724 31.2197 12.6652C28.816 10.0928 25.4002 8.46222 21.6048 8.46222C14.3234 8.46222 8.43359 14.352 8.43359 21.6194C8.43359 25.4148 10.0501 28.8306 12.6366 31.2343C10.4437 28.8869 9.09426 25.7381 9.09426 22.2661V22.2801Z" fill="white"/>
</g>
<g style="mix-blend-mode:multiply" opacity="0.54">
<path d="M21.5908 8.46222C21.4783 8.46222 21.3659 8.46222 21.2534 8.47628C28.0007 8.65902 33.4267 14.1693 33.4267 20.9588C33.4267 27.7482 27.832 33.4553 20.9301 33.4553C14.0282 33.4553 8.63039 28.0434 8.44765 21.2961C8.44765 21.4086 8.43359 21.5211 8.43359 21.6335C8.43359 28.9009 14.3234 34.8048 21.5908 34.8048C28.8582 34.8048 34.7621 28.915 34.7621 21.6335C34.7621 14.352 28.8722 8.46222 21.5908 8.46222Z" fill="#591706"/>
</g>
<path d="M16.9385 26L20.7188 15.9854H22.2432L26.0508 26H24.3828L21.71 18.6445C21.6553 18.4896 21.6074 18.3415 21.5664 18.2002C21.5299 18.0589 21.4958 17.9154 21.4639 17.7695H21.4023C21.3704 17.9154 21.334 18.0612 21.293 18.207C21.2565 18.3483 21.2109 18.4941 21.1562 18.6445L18.4629 26H16.9385ZM18.7363 23.5391L19.167 22.2949H23.7539L24.1777 23.5391H18.7363Z" fill="white"/>
<defs>
<linearGradient id="paint0_linear_136_2" x1="8.70015" y1="50.4743" x2="26.0658" y2="26.478" gradientUnits="userSpaceOnUse">
<stop stop-color="#1079C0"/>
<stop offset="0.35" stop-color="#31A7F7"/>
<stop offset="0.73" stop-color="#153347"/>
<stop offset="1" stop-color="#188EDE"/>
</linearGradient>
<linearGradient id="paint1_linear_136_2" x1="25.5683" y1="50.4743" x2="42.9339" y2="26.478" gradientUnits="userSpaceOnUse">
<stop stop-color="#1079C0"/>
<stop offset="0.35" stop-color="#31A7F7"/>
<stop offset="0.73" stop-color="#153347"/>
<stop offset="1" stop-color="#188EDE"/>
</linearGradient>
<linearGradient id="paint2_linear_136_2" x1="37.437" y1="37.4341" x2="-1.40148" y2="-1.37741" gradientUnits="userSpaceOnUse">
<stop stop-color="#1079C0"/>
<stop offset="0.35" stop-color="#31A7F7"/>
<stop offset="0.73" stop-color="#153347"/>
<stop offset="1" stop-color="#188EDE"/>
</linearGradient>
<linearGradient id="paint3_linear_136_2" x1="32.9205" y1="32.9546" x2="4.60989" y2="4.64402" gradientUnits="userSpaceOnUse">
<stop stop-color="#1079C0"/>
<stop offset="0.35" stop-color="#31A7F7"/>
<stop offset="0.73" stop-color="#153347"/>
<stop offset="1" stop-color="#188EDE"/>
</linearGradient>
</defs>
</svg>
