<svg width="45" height="50" viewBox="0 0 45 50" fill="none" xmlns="http://www.w3.org/2000/svg">
<path d="M16.0771 49.8736L12.2255 46.4437C12.0146 46.2469 11.7335 46.1345 11.4383 46.1064L6.67301 45.7128C6.32159 45.6847 6.11074 45.3192 6.25131 44.9959L13.0689 29.5474L23.7099 34.2424L16.8924 49.6909C16.7518 50.0142 16.3441 50.0985 16.0771 49.8736Z" fill="url(#paint0_linear_367_7415)"/>
<path d="M30.7083 49.8736L34.5599 46.4437C34.7708 46.2469 35.0519 46.1345 35.3471 46.1064L40.1124 45.7128C40.4638 45.6847 40.6746 45.3192 40.5341 44.9959L33.7165 29.5474L23.0754 34.2424L29.893 49.6909C30.0336 50.0142 30.4412 50.0985 30.7083 49.8736Z" fill="url(#paint1_linear_367_7415)"/>
<path d="M41.1994 24.8906C42.8764 14.5136 35.8236 4.74193 25.4466 3.06494C15.0696 1.38795 5.29792 8.4407 3.62093 18.8177C1.94394 29.1947 8.9967 38.9664 19.3737 40.6434C29.7507 42.3204 39.5224 35.2676 41.1994 24.8906Z" fill="url(#paint2_linear_367_7415)"/>
<path d="M39.8825 25.8409C42.1622 16.1289 36.1372 6.40769 26.4252 4.12797C16.7132 1.84826 6.99198 7.87331 4.71226 17.5853C2.43255 27.2973 8.4576 37.0185 18.1696 39.2982C27.8816 41.5779 37.6028 35.5529 39.8825 25.8409Z" fill="url(#paint3_linear_367_7415)"/>
<path d="M34.8651 24.5015C36.5299 17.4203 32.139 10.3302 25.0578 8.6654C17.9765 7.0006 10.8865 11.3915 9.22166 18.4727C7.55686 25.554 11.9478 32.644 19.029 34.3088C26.1102 35.9736 33.2003 31.5827 34.8651 24.5015Z" fill="url(#paint4_linear_367_7415)"/>
<g style="mix-blend-mode:overlay">
<path d="M9.67923 22.2803C9.67923 15.0129 15.5691 9.12308 22.8365 9.12308C26.3085 9.12308 29.4432 10.4725 31.8047 12.6654C29.401 10.093 25.9852 8.4624 22.1898 8.4624C14.9084 8.4624 9.01855 14.3522 9.01855 21.6196C9.01855 25.415 10.6351 28.8308 13.2216 31.2345C11.0287 28.887 9.67923 25.7383 9.67923 22.2662V22.2803Z" fill="white"/>
</g>
<path d="M22.1758 8.4624V8.4624C22.1441 8.4624 22.1452 8.48843 22.1769 8.49014C28.7662 8.84444 34.0117 14.2834 34.0117 20.959C34.0117 27.7484 28.417 33.4555 21.5151 33.4555C14.6132 33.4555 9.21535 28.0436 9.03261 21.2963C9.03261 21.4088 9.01855 21.5212 9.01855 21.6337C9.01855 28.9011 14.9084 34.805 22.1758 34.805C29.4432 34.805 35.3471 28.9151 35.3471 21.6337C35.3471 14.3522 29.4572 8.4624 22.1758 8.4624Z" fill="url(#paint5_linear_367_7415)"/>
<path d="M22.9746 22.0381H19.895L19.8784 20.519H22.5679C23.0216 20.519 23.4062 20.4526 23.7217 20.3198C24.0426 20.1815 24.2861 19.985 24.4521 19.7305C24.6182 19.4704 24.7012 19.1577 24.7012 18.7925C24.7012 18.3885 24.6237 18.0592 24.4688 17.8047C24.3138 17.5501 24.0758 17.3647 23.7549 17.2485C23.4395 17.1323 23.0355 17.0742 22.543 17.0742H20.5259V27.5H18.4424V15.4141H22.543C23.207 15.4141 23.7992 15.4777 24.3193 15.605C24.8451 15.7323 25.2905 15.9315 25.6558 16.2026C26.0265 16.4683 26.306 16.8058 26.4941 17.2153C26.6878 17.6248 26.7847 18.1118 26.7847 18.6763C26.7847 19.1743 26.6657 19.6309 26.4277 20.0459C26.1898 20.4554 25.8384 20.7902 25.3735 21.0503C24.9087 21.3104 24.3304 21.4653 23.6387 21.5151L22.9746 22.0381ZM22.8833 27.5H19.2393L20.1772 25.8481H22.8833C23.3537 25.8481 23.7466 25.7707 24.062 25.6157C24.3774 25.4552 24.6126 25.2367 24.7676 24.96C24.9281 24.6777 25.0083 24.3485 25.0083 23.9722C25.0083 23.5793 24.9391 23.2389 24.8008 22.9512C24.6624 22.6579 24.4438 22.4338 24.145 22.2788C23.8462 22.1183 23.4561 22.0381 22.9746 22.0381H20.6338L20.6504 20.519H23.6968L24.1699 21.0918C24.834 21.1139 25.3791 21.2606 25.8052 21.5317C26.2368 21.8029 26.5578 22.1543 26.7681 22.5859C26.9784 23.0176 27.0835 23.4824 27.0835 23.9805C27.0835 24.7497 26.9147 25.3944 26.5771 25.9146C26.2451 26.4347 25.7664 26.8304 25.1411 27.1016C24.5158 27.3672 23.7632 27.5 22.8833 27.5Z" fill="#AF3004"/>
<defs>
<linearGradient id="paint0_linear_367_7415" x1="12.4082" y1="44.8694" x2="15.5991" y2="38.361" gradientUnits="userSpaceOnUse">
<stop stop-color="#D60909"/>
<stop offset="1" stop-color="#A00505"/>
</linearGradient>
<linearGradient id="paint1_linear_367_7415" x1="33.8992" y1="44.771" x2="31.0035" y2="37.6582" gradientUnits="userSpaceOnUse">
<stop stop-color="#D60909"/>
<stop offset="1" stop-color="#A00505"/>
</linearGradient>
<linearGradient id="paint2_linear_367_7415" x1="6.98094" y1="32.9937" x2="37.8471" y2="10.7159" gradientUnits="userSpaceOnUse">
<stop stop-color="#F7AA00"/>
<stop offset="0.35" stop-color="#F9DB00"/>
<stop offset="0.73" stop-color="#ED9700"/>
<stop offset="1" stop-color="#F7AA00"/>
</linearGradient>
<linearGradient id="paint3_linear_367_7415" x1="6.94765" y1="31.2297" x2="37.6543" y2="12.1982" gradientUnits="userSpaceOnUse">
<stop stop-color="#F7AA00"/>
<stop offset="0.35" stop-color="#F9DB00"/>
<stop offset="0.73" stop-color="#ED9700"/>
<stop offset="1" stop-color="#F7AA00"/>
</linearGradient>
<linearGradient id="paint4_linear_367_7415" x1="10.8482" y1="28.4226" x2="33.2438" y2="14.5529" gradientUnits="userSpaceOnUse">
<stop stop-color="#F7AA00"/>
<stop offset="0.35" stop-color="#F9DB00"/>
<stop offset="0.73" stop-color="#ED9700"/>
<stop offset="1" stop-color="#F7AA00"/>
</linearGradient>
<linearGradient id="paint5_linear_367_7415" x1="12.8743" y1="12.3229" x2="31.5013" y2="30.94" gradientUnits="userSpaceOnUse">
<stop stop-color="#F7AA00"/>
<stop offset="0.35" stop-color="#F9DB00"/>
<stop offset="0.73" stop-color="#ED9700"/>
<stop offset="1" stop-color="#F7AA00"/>
</linearGradient>
</defs>
</svg>
