<svg width="86" height="64" viewBox="0 0 86 64" fill="none" xmlns="http://www.w3.org/2000/svg">
<path d="M40.4342 52.4066C54.4852 52.4066 65.8758 41.016 65.8758 26.965C65.8758 12.914 54.4852 1.52344 40.4342 1.52344C26.3832 1.52344 14.9926 12.914 14.9926 26.965C14.9926 41.016 26.3832 52.4066 40.4342 52.4066Z" fill="#D0E8F7"/>
<path d="M19.3211 38.3334C19.248 38.3334 19.179 38.2948 19.1425 38.2258C19.0167 37.9884 18.8909 37.7428 18.7712 37.4952C18.7224 37.3938 18.763 37.274 18.8645 37.2233C18.966 37.1746 19.0877 37.2172 19.1364 37.3167C19.2541 37.5582 19.3759 37.7996 19.5017 38.035C19.5545 38.1345 19.5159 38.2562 19.4165 38.309C19.386 38.3252 19.3536 38.3334 19.3211 38.3334Z" fill="white"/>
<path d="M18.5379 36.7055C18.4587 36.7055 18.3857 36.6609 18.3512 36.5838C18.2172 36.2773 18.0894 35.9668 17.9696 35.6563C17.9291 35.5529 17.9818 35.4352 18.0853 35.3946C18.1908 35.354 18.3065 35.4067 18.3471 35.5102C18.4648 35.8146 18.5906 36.1211 18.7225 36.4214C18.7672 36.5249 18.7205 36.6446 18.617 36.6893C18.5906 36.7014 18.5622 36.7055 18.5358 36.7055H18.5379Z" fill="white"/>
<path d="M17.8195 34.853C17.7342 34.853 17.6551 34.8002 17.6267 34.715C17.5394 34.4593 17.4562 34.1955 17.3771 33.9357C17.3446 33.8282 17.4055 33.7145 17.513 33.6821C17.6206 33.6496 17.7342 33.7105 17.7667 33.818C17.8438 34.0737 17.927 34.3315 18.0123 34.5851C18.0488 34.6906 17.992 34.8063 17.8864 34.8428C17.8641 34.851 17.8418 34.853 17.8215 34.853H17.8195Z" fill="white"/>
<path d="M64.2361 29.0896C64.2361 29.0896 64.2259 29.0896 64.2198 29.0896C64.1082 29.0815 64.025 28.9821 64.0331 28.8705C64.0534 28.6087 64.0717 28.3388 64.0839 28.0668C64.09 27.9552 64.1853 27.872 64.2949 27.8741C64.4065 27.8801 64.4938 27.9735 64.4877 28.0851C64.4755 28.3611 64.4573 28.6371 64.437 28.9029C64.4289 29.0084 64.3396 29.0896 64.234 29.0896H64.2361Z" fill="white"/>
<path d="M64.0311 30.8526C64.021 30.8526 64.0108 30.8526 64.0007 30.8506C63.8891 30.8324 63.814 30.7289 63.8323 30.6193C63.8729 30.3575 63.9094 30.0876 63.9418 29.8218C63.9561 29.7101 64.0555 29.631 64.1671 29.6452C64.2787 29.6594 64.3579 29.7588 64.3437 29.8705C64.3112 30.1404 64.2726 30.4143 64.232 30.6822C64.2158 30.7816 64.1306 30.8547 64.0311 30.8547V30.8526Z" fill="white"/>
<path d="M61.117 15.2256C61.046 15.2256 60.979 15.1891 60.9405 15.1241C60.8065 14.8928 60.6665 14.6615 60.5265 14.4342C60.4677 14.3388 60.4961 14.213 60.5914 14.1541C60.6868 14.0953 60.8106 14.1237 60.8715 14.2191C61.0156 14.4484 61.1576 14.6858 61.2936 14.9212C61.3504 15.0186 61.3159 15.1424 61.2205 15.1992C61.1881 15.2175 61.1536 15.2256 61.1191 15.2256H61.117Z" fill="white"/>
<path d="M62.0851 17.0842C62.0079 17.0842 61.9349 17.0416 61.9004 16.9665C61.7888 16.7271 61.669 16.4836 61.5473 16.2421C61.4965 16.1426 61.5371 16.0209 61.6366 15.9701C61.736 15.9194 61.8578 15.96 61.9085 16.0594C62.0323 16.305 62.154 16.5525 62.2677 16.7961C62.3144 16.8975 62.2717 17.0193 62.1703 17.066C62.1419 17.0781 62.1135 17.0842 62.0851 17.0842Z" fill="white"/>
<path d="M50.9014 5.69988C50.871 5.69988 50.8405 5.6938 50.8121 5.67959C50.5727 5.56189 50.3271 5.44825 50.0836 5.33867C49.9821 5.29199 49.9355 5.17226 49.9821 5.0708C50.0268 4.96933 50.1465 4.92265 50.25 4.96933C50.4976 5.08094 50.7472 5.19661 50.9907 5.31634C51.0922 5.36505 51.1328 5.48681 51.0841 5.58827C51.0496 5.6593 50.9765 5.70191 50.9014 5.70191V5.69988Z" fill="white"/>
<path d="M52.0135 6.28013C51.981 6.28013 51.9465 6.27201 51.9161 6.25374C51.6847 6.1259 51.4453 5.99805 51.2058 5.87426C51.1064 5.82353 51.0658 5.70177 51.1186 5.6003C51.1693 5.50087 51.291 5.46231 51.3925 5.51304C51.636 5.63683 51.8795 5.76671 52.1149 5.89861C52.2124 5.9534 52.2489 6.07719 52.1941 6.1746C52.1576 6.24157 52.0886 6.2781 52.0155 6.2781L52.0135 6.28013Z" fill="white"/>
<path d="M32.2459 4.73198C32.1627 4.73198 32.0856 4.68125 32.0551 4.59805C32.0166 4.49252 32.0714 4.37685 32.1769 4.3383C32.4326 4.24495 32.6944 4.15566 32.9501 4.07043C33.0576 4.03593 33.1713 4.09478 33.2058 4.2003C33.2403 4.30583 33.1814 4.4215 33.0759 4.456C32.8242 4.5392 32.5686 4.62646 32.3149 4.71981C32.2926 4.72793 32.2682 4.73198 32.2459 4.73198Z" fill="white"/>
<path d="M34.4051 4.05808C34.3158 4.05808 34.2326 3.9972 34.2083 3.90588C34.1799 3.79832 34.2448 3.68671 34.3544 3.6583C34.8252 3.53654 35.3041 3.42696 35.783 3.33361C35.8926 3.31129 36.0002 3.38434 36.0204 3.49392C36.0428 3.60351 35.9697 3.71106 35.8601 3.73135C35.3914 3.82267 34.9185 3.93023 34.4558 4.05199C34.4396 4.05605 34.4213 4.05808 34.4051 4.05808Z" fill="white"/>
<path d="M37.2563 3.49999C37.1569 3.49999 37.0696 3.42491 37.0554 3.32344C37.0412 3.21183 37.1183 3.11036 37.2299 3.09616C37.4998 3.05963 37.7738 3.02919 38.0437 3.00281C38.1614 2.99266 38.2547 3.07384 38.2649 3.18545C38.275 3.29706 38.1938 3.3965 38.0822 3.40664C37.8164 3.43303 37.5485 3.46347 37.2827 3.49999C37.2746 3.49999 37.2644 3.49999 37.2563 3.49999Z" fill="white"/>
<path d="M16.8961 23.1317C16.884 23.1317 16.8738 23.1317 16.8616 23.1296C16.7521 23.1114 16.677 23.0058 16.6952 22.8963C16.7419 22.6264 16.7927 22.3565 16.8474 22.0906C16.8698 21.981 16.9753 21.91 17.0869 21.9323C17.1965 21.9546 17.2675 22.0622 17.2452 22.1718C17.1924 22.4315 17.1417 22.6974 17.097 22.9632C17.0808 23.0627 16.9936 23.1317 16.8982 23.1317H16.8961Z" fill="white"/>
<path d="M17.3892 20.8971C17.371 20.8971 17.3547 20.8951 17.3365 20.889C17.2289 20.8586 17.164 20.749 17.1944 20.6394C17.3243 20.1625 17.4704 19.6836 17.6287 19.2148C17.6652 19.1093 17.7788 19.0525 17.8864 19.089C17.9919 19.1255 18.0487 19.2412 18.0122 19.3467C17.856 19.8054 17.7119 20.2782 17.584 20.747C17.5597 20.8383 17.4785 20.8971 17.3892 20.8971ZM18.3389 18.1028C18.3126 18.1028 18.2882 18.0987 18.2618 18.0865C18.1583 18.0439 18.1096 17.9262 18.1522 17.8227C18.341 17.3641 18.5439 16.9075 18.761 16.4631C18.8097 16.3616 18.9315 16.321 19.033 16.3697C19.1344 16.4184 19.175 16.5402 19.1263 16.6417C18.9153 17.078 18.7123 17.5264 18.5277 17.9769C18.4952 18.0561 18.4201 18.1028 18.3389 18.1028ZM19.6276 15.4484C19.5931 15.4484 19.5586 15.4403 19.5281 15.422C19.4307 15.3672 19.3962 15.2434 19.451 15.146C19.6945 14.7158 19.9543 14.2876 20.2222 13.8737C20.283 13.7803 20.4088 13.7519 20.5022 13.8148C20.5955 13.8757 20.624 14.0015 20.561 14.0949C20.2952 14.5027 20.0415 14.9248 19.8021 15.3469C19.7656 15.4139 19.6966 15.4504 19.6255 15.4504L19.6276 15.4484ZM21.2348 12.9726C21.1922 12.9726 21.1516 12.9605 21.1151 12.9321C21.0258 12.8651 21.0055 12.7372 21.0724 12.6479C21.3667 12.2502 21.6772 11.8585 21.9958 11.4791C22.0668 11.3938 22.1967 11.3817 22.2819 11.4547C22.3671 11.5278 22.3793 11.6556 22.3063 11.7408C21.9937 12.1142 21.6873 12.4998 21.3992 12.8894C21.3586 12.9422 21.2977 12.9706 21.2368 12.9706L21.2348 12.9726Z" fill="white"/>
<path d="M23.1343 10.7103C23.0835 10.7103 23.0328 10.692 22.9942 10.6535C22.9131 10.5764 22.909 10.4485 22.9861 10.3673C23.1728 10.1705 23.3656 9.97364 23.5604 9.78491C23.6396 9.70577 23.7694 9.7078 23.8465 9.78694C23.9257 9.86609 23.9237 9.99596 23.8445 10.0731C23.6538 10.2598 23.465 10.4526 23.2804 10.6474C23.2398 10.69 23.187 10.7103 23.1343 10.7103Z" fill="white"/>
<path d="M14.2864 20.7554L13.6938 20.6153C14.605 16.7617 16.3076 13.2164 18.755 10.0791L19.2359 10.4525C16.8434 13.5208 15.1793 16.9869 14.2864 20.7533V20.7554Z" fill="#D7EDF9"/>
<path d="M66.3689 36.0684L65.7946 35.8675C66.7971 33.0143 67.3044 30.019 67.3044 26.9649C67.3044 20.7795 65.2629 14.9675 61.3971 10.154L61.872 9.77246C65.7683 14.6246 67.9132 20.7288 67.9132 26.9628C67.9132 30.0839 67.3937 33.1482 66.3689 36.0664V36.0684Z" fill="#D7EDF9"/>
<path d="M58.2151 32.2455V28.1888L55.6643 28.0569V28.0488H55.6562H55.644L55.5953 28.0529H55.5466V28.0488H55.5344H55.5263V28.0569L52.9754 28.1888V32.2455C52.9754 32.2455 50.5707 32.8482 50.5707 34.8856V57.269C50.5707 58.7748 53.6248 59.071 55.5242 59.0812C55.5242 59.0812 55.5385 59.0812 55.5445 59.0812C55.5608 59.0812 55.577 59.0812 55.5912 59.0812C55.6075 59.0812 55.6237 59.0812 55.6379 59.0812C55.644 59.0812 55.6521 59.0812 55.6582 59.0812C57.5576 59.069 60.6118 58.7727 60.6118 57.267V34.8836C60.6118 32.8461 58.207 32.2434 58.207 32.2434L58.2151 32.2455Z" fill="url(#paint0_linear_347_20807)"/>
<path style="mix-blend-mode:screen" opacity="0.4" d="M51.0192 35.4292V57.2667C51.0192 58.0683 52.8313 58.6162 55.5648 58.6345H55.6643H55.6623C58.3592 58.6182 60.1714 58.0683 60.1714 57.2667V35.4292H51.0192Z" fill="url(#paint1_linear_347_20807)"/>
<g style="mix-blend-mode:multiply" opacity="0.5">
<path d="M50.6985 57.7518C51.285 58.8375 53.8541 59.0709 55.5283 59.081C55.5283 59.081 55.5425 59.081 55.5486 59.081C55.5648 59.081 55.5811 59.081 55.5953 59.081C55.6115 59.081 55.6277 59.081 55.6419 59.081C55.648 59.081 55.6561 59.081 55.6622 59.081C57.5617 59.0688 60.6158 58.7726 60.6158 57.2668V34.8834C60.6158 32.846 58.2111 32.2433 58.2111 32.2433V28.3003L52.9734 29.6701V31.5431H55.7475V32.2433C55.7475 32.2433 57.0503 32.6593 57.0503 34.7535V57.4048C57.0503 58.4093 52.2022 58.939 50.6945 57.7498L50.6985 57.7518Z" fill="#0E8DC8"/>
</g>
<path d="M58.7975 30.9182H52.395V28.278C52.395 28.002 52.6182 27.7788 52.8942 27.7788H58.2983C58.5743 27.7788 58.7975 28.002 58.7975 28.278V30.9182Z" fill="url(#paint2_linear_347_20807)"/>
<path d="M60.6178 39.4536H50.5727V50.2455H60.6178V39.4536Z" fill="url(#paint3_linear_347_20807)"/>
<g style="mix-blend-mode:multiply" opacity="0.4">
<path d="M58.2983 27.7788H56.1939V30.9182H58.7996V28.278C58.7996 28.002 58.5763 27.7788 58.3003 27.7788H58.2983Z" fill="#A2B8D6"/>
</g>
<g style="mix-blend-mode:screen" opacity="0.6">
<path d="M53.1358 28.1969H55.0311V30.3824H52.7745V28.556C52.7745 28.3572 52.9369 28.1948 53.1358 28.1948V28.1969Z" fill="#FFF7E6"/>
</g>
<path d="M51.9851 46.3672H51.567L51.0739 42.7124H51.5711L51.7862 44.6118L51.7964 44.7316H51.8369L51.8511 44.6118L52.0805 42.7124H52.4681L52.6974 44.6118L52.7116 44.7316H52.7522L52.7623 44.6118L52.9754 42.7124H53.4726L52.9794 46.3672H52.5614L52.3138 44.6362L52.2834 44.4211H52.2631L52.2327 44.6362L51.9851 46.3672Z" fill="#009AD3"/>
<path d="M53.5801 46.3672L54.1321 42.7124H54.7876L55.3396 46.3672H54.818L54.7186 45.6204H54.2011L54.1017 46.3672H53.5801ZM54.4913 43.8996L54.4771 43.8042H54.4467L54.4325 43.8996L54.2782 45.0542H54.6476L54.4933 43.8996H54.4913Z" fill="#009AD3"/>
<path d="M55.2929 43.2624V42.7104H56.8453V43.2624H56.338V46.3653H55.8002V43.2624H55.2929Z" fill="#009AD3"/>
<path d="M57.0523 42.7104H58.28V43.2624H57.588V44.2223H58.0852V44.8088H57.588V45.8133H58.28V46.3653H57.0523V42.7104Z" fill="#009AD3"/>
<path d="M59.5402 46.3672L59.2622 44.8249H59.1182V46.3672H58.5804V42.7124H59.1182C59.7594 42.7124 60.0334 43.0757 60.0334 43.7676C60.0334 44.1309 59.938 44.4596 59.7351 44.5976L60.078 46.3692H59.5402V46.3672ZM59.1182 44.3277C59.1932 44.3277 59.2927 44.3176 59.3718 44.2486C59.451 44.1796 59.5159 44.0457 59.5159 43.7859C59.5159 43.5262 59.451 43.3882 59.3718 43.3192C59.2927 43.2502 59.1932 43.2441 59.1182 43.2441V44.3277Z" fill="#009AD3"/>
<g style="mix-blend-mode:multiply" opacity="0.4">
<path d="M58.1928 27.7788H57.8681V30.9182H58.1928V27.7788Z" fill="#A2B8D6"/>
</g>
<g style="mix-blend-mode:multiply" opacity="0.4">
<path d="M56.9772 27.7788H56.6525V30.9182H56.9772V27.7788Z" fill="#A2B8D6"/>
</g>
<g style="mix-blend-mode:multiply" opacity="0.4">
<path d="M55.7616 27.7788H55.437V30.9182H55.7616V27.7788Z" fill="#A2B8D6"/>
</g>
<g style="mix-blend-mode:multiply" opacity="0.4">
<path d="M54.5461 27.7788H54.2214V30.9182H54.5461V27.7788Z" fill="#A2B8D6"/>
</g>
<g style="mix-blend-mode:multiply" opacity="0.4">
<path d="M53.3305 27.7788H53.0058V30.9182H53.3305V27.7788Z" fill="#A2B8D6"/>
</g>
<g style="mix-blend-mode:multiply" opacity="0.4">
<path d="M57.0543 50.2455H60.6198V39.4536H57.0543V50.2455Z" fill="#A2B8D6"/>
</g>
<g style="mix-blend-mode:screen" opacity="0.6">
<path d="M54.2701 33.0632C55.1204 33.948 52.393 35.4598 51.8329 34.8835C50.9623 33.9906 53.3528 32.1094 54.2701 33.0632Z" fill="#FFF7E6"/>
<path d="M53.1804 44.0662C53.1804 49.5758 52.5493 56.4309 52.0298 56.4309C51.5103 56.4309 51.2972 49.5758 51.2972 44.0662C51.2972 38.5566 51.5103 36.4766 52.0298 36.4766C52.5493 36.4766 53.1804 38.5566 53.1804 44.0662Z" fill="#FFF7E6"/>
</g>
<path d="M76.9051 34.9442C75.7484 33.272 71.4808 35.6261 66.1274 33.3532C62.846 31.9591 62.4543 29.6761 60.9669 27.9573C60.5001 27.4175 59.5139 27.0562 59.0776 26.6849C58.6413 26.3135 58.2719 25.7169 58.0872 25.1588C57.9026 24.6028 57.7768 22.7399 57.7768 22.7399L56.1533 22.1514L55.2726 23.4603C55.2726 23.4603 56.5044 25.1852 56.758 25.723C57.0117 26.2607 57.3425 27.0786 57.2248 27.6833C57.1071 28.288 56.6464 28.7588 56.6931 30.1083C56.7804 32.5882 58.3024 36.2653 63.9723 38.8385C72.3128 42.6252 78.4758 37.215 76.9051 34.9462V34.9442Z" fill="url(#paint4_linear_347_20807)"/>
<path d="M56.1533 22.1494L57.7768 22.7379C57.7768 22.7379 57.9026 24.6008 58.0873 25.1569C58.2719 25.7129 58.6413 26.3115 59.0776 26.6829C59.2764 26.8534 59.593 27.0218 59.9218 27.2065C59.1709 26.8595 58.5601 26.9386 58.1339 27.1395C57.7179 27.3364 57.0909 27.9695 56.8474 28.7751C56.9793 28.3307 57.1558 28.0263 57.2228 27.6813C57.3405 27.0766 57.0097 26.2608 56.756 25.721C56.5024 25.1832 55.2706 23.4583 55.2706 23.4583L56.1513 22.1514L56.1533 22.1494Z" fill="url(#paint5_linear_347_20807)"/>
<g style="mix-blend-mode:multiply" opacity="0.3">
<path d="M57.2248 27.6791C57.3425 27.0743 57.0117 26.2585 56.758 25.7187C56.5044 25.181 55.2726 23.456 55.2726 23.456L56.1127 22.208C56.4029 22.8797 58.0325 26.6705 58.1826 27.5614C58.347 28.5375 58.0385 33.8198 64.9362 36.9084C72.2093 40.1655 76.1279 37.3549 77.1487 35.6888C77.3496 38.1016 71.499 42.2516 63.9743 38.8363C58.3024 36.2631 56.7804 32.586 56.6951 30.1061C56.6485 28.7546 57.1091 28.2838 57.2268 27.6811L57.2248 27.6791Z" fill="#DB7301"/>
</g>
<path d="M77.1284 36.0969C77.1284 36.0969 76.7773 35.8412 76.5886 35.3846C76.4221 34.9848 76.4627 34.5566 76.4627 34.5566C76.4627 34.5566 77.3394 34.9503 77.1284 36.0969Z" fill="#7C5939"/>
<path d="M57.7788 22.7379L56.1533 22.1494L55.2726 23.4563L55.7941 24.1564L57.8417 23.6186L57.7788 22.7379Z" fill="#7C5939"/>
<g style="mix-blend-mode:multiply" opacity="0.3">
<path d="M56.1533 22.1494L55.2726 23.4563L55.7941 24.1564L56.8717 23.8743L56.1533 22.1494Z" fill="#7C5939"/>
</g>
<g style="mix-blend-mode:screen" opacity="0.4">
<path d="M74.3563 35.1192C74.6323 35.7584 72.7126 36.6026 69.8959 36.1704C67.0792 35.7381 64.8449 34.3927 65.1838 33.8346C65.4719 33.3618 67.1908 34.3947 69.8167 34.6666C72.6375 34.9588 74.1351 34.6057 74.3563 35.1192Z" fill="#FFE299"/>
<path d="M64.6481 33.518C64.7455 33.2988 64.4492 32.9518 63.9682 32.4607C63.4853 31.9696 63.0449 31.4947 62.8541 31.5861C62.4726 31.7667 62.6309 32.5906 63.3209 33.175C64.0109 33.7595 64.5547 33.727 64.6481 33.518Z" fill="#FFE299"/>
</g>
<path d="M6.55268 51.01C6.55268 51.01 5.43249 50.0968 5.40003 48.7168C5.37567 47.6108 6.8104 46.1152 6.8104 46.1152C6.8104 46.1152 7.55516 47.2577 7.72563 48.6255C7.89609 49.9933 6.55065 51.01 6.55065 51.01H6.55268Z" fill="url(#paint6_linear_347_20807)"/>
<g style="mix-blend-mode:multiply" opacity="0.4">
<path d="M6.55266 51.01C6.3619 49.5387 6.47555 47.8889 6.81038 46.1152C6.81038 46.1152 7.55514 47.2577 7.72561 48.6255C7.89607 49.9933 6.55063 51.01 6.55063 51.01H6.55266Z" fill="#9CB702"/>
</g>
<path d="M6.45123 51.325C6.45123 51.325 6.43094 51.2824 6.39847 51.2094C6.38224 51.1708 6.35991 51.1424 6.33556 51.0977C6.31121 51.0551 6.27265 51.0085 6.23207 50.9598C6.06769 50.7609 5.76532 50.5559 5.46498 50.3246C4.8501 49.8781 4.34886 49.2714 4.34886 49.2714C4.26566 49.1699 4.27986 49.0197 4.38133 48.9345C4.48279 48.8513 4.63296 48.8655 4.71819 48.967C4.72631 48.9771 4.7324 48.9873 4.73849 48.9974V49.0015C4.73849 49.0015 4.76284 49.04 4.8014 49.107C4.83995 49.1739 4.89677 49.2714 4.97389 49.3789C5.12812 49.5981 5.36555 49.8659 5.64356 50.1014C5.91955 50.3347 6.23004 50.5539 6.43703 50.7731C6.53444 50.8806 6.6217 50.9922 6.66634 51.0653C6.70693 51.1343 6.73128 51.1749 6.73128 51.1749C6.77592 51.2499 6.75157 51.3474 6.67446 51.392C6.59937 51.4366 6.50197 51.4123 6.45732 51.3352C6.45529 51.3311 6.45123 51.325 6.4492 51.321L6.45123 51.325Z" fill="#7C5939"/>
<path d="M9.08526 49.1453C7.34207 49.4193 6.97477 50.649 6.51614 50.8885C6.05751 51.128 4.82977 50.6795 3.62233 51.9904C2.83698 52.8427 2.78828 53.9913 3.184 55.1298C3.62842 56.4062 4.85818 57.5568 5.7795 58.1271C7.31366 59.0768 9.36936 59.6613 10.3191 58.1798C12.1414 58.3138 12.9328 56.2743 12.9552 54.2957C12.9694 52.9625 12.6731 51.5846 11.8431 50.4725C11.141 49.5329 10.1994 48.9708 9.08526 49.1433V49.1453Z" fill="url(#paint7_radial_347_20807)"/>
<g style="mix-blend-mode:multiply" opacity="0.3">
<path d="M11.8411 50.4744C11.139 49.5349 10.1974 48.9727 9.08326 49.1452C8.51303 49.2345 8.09093 49.4273 7.76421 49.6526C11.624 48.7475 12.6407 55.8765 9.12791 57.8003C8.18833 58.3157 7.15744 58.472 6.20569 58.3746C7.67492 59.166 9.45057 59.5293 10.3151 58.1818C12.1374 58.3157 12.9288 56.2763 12.9511 54.2977C12.9654 52.9644 12.6691 51.5865 11.8391 50.4744H11.8411Z" fill="#9CB702"/>
</g>
<g style="mix-blend-mode:screen" opacity="0.4">
<path d="M5.37972 51.899C7.36236 51.9132 6.01895 55.501 4.96979 55.5213C3.34228 55.5517 3.65074 51.8868 5.37972 51.899Z" fill="#FFF7E6"/>
<path d="M5.4163 56.055C6.25238 55.2087 7.03773 56.7957 6.62578 57.1894C5.98451 57.8002 4.76083 56.7186 5.4163 56.055Z" fill="#FFF7E6"/>
</g>
<path d="M10.6519 58.0134C10.3759 57.9281 9.97005 58.1656 9.91526 58.3908C9.87061 58.5288 9.86655 58.7926 9.93555 58.8129C10.0045 58.8332 10.2034 58.4497 10.2034 58.4497C10.2034 58.4497 10.4713 58.7013 10.522 58.6729C10.5728 58.6445 10.5443 58.3015 10.5443 58.3015C10.5443 58.3015 10.9279 58.2975 10.9522 58.2406C10.9766 58.1838 10.7189 58.0336 10.6519 58.0134Z" fill="#7C5939"/>
<path d="M0 58.9937H80.8684C80.8684 58.9937 68.7777 64 40.5133 64C12.249 64 0 58.9937 0 58.9937Z" fill="#D0E8F7"/>
<path d="M14.3006 57.2484C14.3006 57.2484 12.4458 59.3447 11.7782 59.0545C11.1227 58.7704 11.977 56.3027 11.977 56.3027L14.2986 57.2484H14.3006Z" fill="url(#paint8_linear_347_20807)"/>
<path d="M23.5746 57.2484C23.5746 57.2484 25.4294 59.3447 26.0971 59.0545C26.7526 58.7704 25.8982 56.3027 25.8982 56.3027L23.5767 57.2484H23.5746Z" fill="url(#paint9_linear_347_20807)"/>
<path d="M28.6442 51.3964C29.9095 46.0352 26.5892 40.6632 21.2279 39.3979C15.8667 38.1325 10.4948 41.4528 9.22938 46.8141C7.96402 52.1753 11.2844 57.5473 16.6456 58.8126C22.0069 60.078 27.3788 56.7576 28.6442 51.3964Z" fill="url(#paint10_linear_347_20807)"/>
<path d="M18.9376 58.2327C23.9777 58.2327 28.0635 54.1469 28.0635 49.1068C28.0635 44.0667 23.9777 39.981 18.9376 39.981C13.8976 39.981 9.81177 44.0667 9.81177 49.1068C9.81177 54.1469 13.8976 58.2327 18.9376 58.2327Z" fill="url(#paint11_linear_347_20807)"/>
<path d="M22.2937 57.2096C26.7689 55.3559 28.8941 50.2253 27.0404 45.7501C25.1867 41.2749 20.0561 39.1498 15.5809 41.0035C11.1057 42.8571 8.9805 47.9877 10.8342 52.463C12.6879 56.9382 17.8185 59.0633 22.2937 57.2096Z" fill="#FFE6D6"/>
<path d="M11.1775 37.3125C11.4859 37.7691 11.5448 38.2704 11.0862 38.5788C10.6275 38.8873 10.1872 38.6458 9.87872 38.1892C9.57027 37.7326 9.51142 37.2314 9.97004 36.9229C10.4266 36.6144 10.869 36.8559 11.1775 37.3146V37.3125Z" fill="url(#paint12_linear_347_20807)"/>
<path d="M8.89651 44.1224L17.0666 38.6148C17.0666 38.6148 14.7288 34.7896 10.5504 37.6063C6.37204 40.4229 8.89651 44.1224 8.89651 44.1224Z" fill="url(#paint13_linear_347_20807)"/>
<g style="mix-blend-mode:multiply" opacity="0.2">
<path d="M11.3074 37.1563C12.0765 37.1096 12.7117 37.3105 13.0364 37.7915C13.7101 38.7919 12.7908 40.592 10.9827 41.8116C10.0857 42.4163 9.14008 42.7633 8.33038 42.8384C8.55361 43.6177 8.89859 44.123 8.89859 44.123L17.0686 38.6154C17.0686 38.6154 15.0109 35.2528 11.3094 37.1563H11.3074Z" fill="#AA2424"/>
</g>
<g style="mix-blend-mode:screen" opacity="0.5">
<path d="M10.1588 38.8181C11.1734 39.1733 9.85436 40.7784 9.31253 40.6039C8.4724 40.334 9.27398 38.5076 10.1588 38.8181Z" fill="#FFF6E5"/>
<path d="M9.03251 41.0178C9.6758 40.965 9.43634 41.8965 9.12788 41.9127C8.64896 41.9371 8.5272 41.0584 9.03251 41.0178Z" fill="#FFF6E5"/>
</g>
<path d="M27.9316 38.2076C27.6191 38.6622 27.1726 38.8976 26.7201 38.5851C26.2655 38.2726 26.3284 37.7713 26.643 37.3188C26.9555 36.8642 27.4019 36.6288 27.8545 36.9413C28.309 37.2538 28.2461 37.7551 27.9316 38.2076Z" fill="url(#paint14_linear_347_20807)"/>
<path d="M20.7579 38.5685L28.8671 44.1633C28.8671 44.1633 31.5742 40.5897 27.4263 37.7284C23.2804 34.867 20.7579 38.5685 20.7579 38.5685Z" fill="url(#paint15_linear_347_20807)"/>
<g style="mix-blend-mode:multiply" opacity="0.2">
<path d="M28.1223 38.2699C28.447 38.968 28.4917 39.6336 28.1629 40.1105C27.477 41.1028 25.4659 40.9039 23.672 39.666C22.7812 39.0512 22.1135 38.2983 21.7482 37.5718C21.1049 38.0649 20.7599 38.5682 20.7599 38.5682L28.8691 44.163C28.8691 44.163 31.2495 41.0196 28.1243 38.2699H28.1223Z" fill="#AA2424"/>
</g>
<g style="mix-blend-mode:screen" opacity="0.5">
<path d="M26.1579 37.8079C26.1964 38.8834 24.2219 38.2401 24.1854 37.6719C24.1306 36.7912 26.1234 36.8703 26.1579 37.8079Z" fill="#FFF6E5"/>
<path d="M23.6984 37.5621C23.9825 38.1425 23.0287 38.2602 22.9009 37.9781C22.704 37.5398 23.4772 37.1075 23.6984 37.5621Z" fill="#FFF6E5"/>
</g>
<path d="M18.9376 41.6694C17.6287 41.6694 16.401 42.0104 15.3315 42.6029L15.4107 42.5725L18.9356 49.1069L15.1306 55.4891C16.2447 56.1547 17.5435 56.5444 18.9356 56.5444C23.0429 56.5444 26.373 53.2142 26.373 49.1069C26.373 44.9995 23.0429 41.6694 18.9356 41.6694H18.9376Z" fill="#FFC370"/>
<path d="M19.5403 56.4816C19.5403 56.8144 19.2704 57.0843 18.9376 57.0843C18.6048 57.0843 18.3349 56.8144 18.3349 56.4816C18.3349 56.1488 18.6048 55.8789 18.9376 55.8789C19.2704 55.8789 19.5403 56.1488 19.5403 56.4816Z" fill="#655352"/>
<path d="M18.9376 42.3373C19.2705 42.3373 19.5403 42.0674 19.5403 41.7345C19.5403 41.4017 19.2705 41.1318 18.9376 41.1318C18.6047 41.1318 18.3349 41.4017 18.3349 41.7345C18.3349 42.0674 18.6047 42.3373 18.9376 42.3373Z" fill="#655352"/>
<path d="M11.565 49.7093C11.2322 49.7093 10.9623 49.4394 10.9623 49.1066C10.9623 48.7738 11.2322 48.5039 11.565 48.5039C11.8979 48.5039 12.1678 48.7738 12.1678 49.1066C12.1678 49.4394 11.8979 49.7093 11.565 49.7093Z" fill="#655352"/>
<path d="M26.3122 49.7093C25.9794 49.7093 25.7095 49.4394 25.7095 49.1066C25.7095 48.7738 25.9794 48.5039 26.3122 48.5039C26.645 48.5039 26.9149 48.7738 26.9149 49.1066C26.9149 49.4394 26.645 49.7093 26.3122 49.7093Z" fill="#655352"/>
<path d="M15.4107 55.5903C15.3254 55.7324 15.1408 55.779 14.9987 55.6938C14.8567 55.6086 14.81 55.4239 14.8952 55.2819C14.9805 55.1398 15.1651 55.0931 15.3072 55.1784C15.4492 55.2636 15.4959 55.4483 15.4107 55.5903Z" fill="#806E6E"/>
<path d="M22.982 42.9336C22.8968 43.0756 22.7121 43.1223 22.5701 43.0371C22.428 42.9518 22.3813 42.7672 22.4666 42.6251C22.5518 42.4831 22.7365 42.4364 22.8785 42.5216C23.0206 42.6069 23.0673 42.7915 22.982 42.9336Z" fill="#806E6E"/>
<path d="M12.4559 45.58C12.3139 45.4948 12.2672 45.3101 12.3524 45.1681C12.4377 45.026 12.6223 44.9794 12.7644 45.0646C12.9064 45.1498 12.9531 45.3345 12.8679 45.4766C12.7827 45.6186 12.598 45.6653 12.4559 45.58Z" fill="#806E6E"/>
<path d="M25.1108 53.1513C24.9687 53.0661 24.9221 52.8814 25.0073 52.7394C25.0925 52.5973 25.2772 52.5507 25.4192 52.6359C25.5613 52.7211 25.608 52.9058 25.5227 53.0478C25.4375 53.1899 25.2528 53.2366 25.1108 53.1513Z" fill="#806E6E"/>
<path d="M12.5777 52.8512C12.4316 52.9303 12.249 52.8735 12.1698 52.7274C12.0907 52.5813 12.1475 52.3986 12.2936 52.3195C12.4397 52.2403 12.6224 52.2972 12.7015 52.4433C12.7807 52.5894 12.7238 52.772 12.5777 52.8512Z" fill="#806E6E"/>
<path d="M25.5816 45.8946C25.4355 45.9738 25.2529 45.9169 25.1737 45.7708C25.0946 45.6247 25.1514 45.4421 25.2975 45.3629C25.4436 45.2838 25.6263 45.3406 25.7054 45.4867C25.7846 45.6328 25.7277 45.8155 25.5816 45.8946Z" fill="#806E6E"/>
<path d="M15.1936 42.7469C15.1144 42.6008 15.1713 42.4182 15.3174 42.339C15.4635 42.2599 15.6461 42.3167 15.7253 42.4628C15.8044 42.6089 15.7476 42.7916 15.6015 42.8707C15.4554 42.9498 15.2727 42.893 15.1936 42.7469Z" fill="#806E6E"/>
<path d="M22.152 55.7508C22.0729 55.6047 22.1297 55.4221 22.2758 55.3429C22.4219 55.2638 22.6045 55.3206 22.6837 55.4667C22.7628 55.6128 22.706 55.7955 22.5599 55.8746C22.4138 55.9538 22.2312 55.8969 22.152 55.7508Z" fill="#806E6E"/>
<path d="M19.5403 49.1066C19.5403 49.4394 19.2704 49.7093 18.9376 49.7093C18.6048 49.7093 18.3349 49.4394 18.3349 49.1066C18.3349 48.7738 18.6048 48.5039 18.9376 48.5039C19.2704 48.5039 19.5403 48.7738 19.5403 49.1066Z" fill="#655352"/>
<path d="M21.103 48.2424C19.4612 49.1251 19.0168 49.2103 18.9377 49.0642C18.8585 48.9181 19.1771 48.5955 20.8168 47.7127C22.4585 46.83 24.8004 45.7219 24.8795 45.8681C24.9587 46.0142 22.7426 47.3596 21.103 48.2424Z" fill="#655352"/>
<path d="M18.3795 47.3982C19.0472 48.6341 19.0837 48.9852 18.9376 49.0643C18.7915 49.1434 18.5196 48.9202 17.8499 47.6844C17.1822 46.4485 16.3705 44.6688 16.5166 44.5897C16.6627 44.5105 17.7119 46.1624 18.3795 47.3982Z" fill="#655352"/>
<path d="M30.4175 46.3124C32.5783 46.3124 34.33 44.5607 34.33 42.3998C34.33 40.239 32.5783 38.4873 30.4175 38.4873C28.2566 38.4873 26.5049 40.239 26.5049 42.3998C26.5049 44.5607 28.2566 46.3124 30.4175 46.3124Z" fill="url(#paint16_linear_347_20807)"/>
<path d="M33.6214 43.0676C33.9893 41.2988 32.8537 39.5666 31.0849 39.1987C29.316 38.8308 27.5839 39.9665 27.216 41.7353C26.8481 43.5041 27.9837 45.2362 29.7525 45.6042C31.5213 45.9721 33.2535 44.8364 33.6214 43.0676Z" fill="#FFF2EB"/>
<path d="M28.7291 42.4043V42.386C28.5099 42.2196 28.3496 42.0147 28.3496 41.7163C28.3496 41.2334 28.7291 40.9351 29.2567 40.9351C29.7843 40.9351 30.1192 41.2435 30.1192 41.7123C30.1192 41.9842 29.9446 42.2034 29.7478 42.3333V42.3515C30.0197 42.4997 30.2389 42.7168 30.2389 43.0922C30.2389 43.5387 29.8371 43.8776 29.2344 43.8776C28.6662 43.8776 28.2461 43.561 28.2461 43.1003C28.2461 42.7554 28.4612 42.5463 28.7291 42.4023V42.4043ZM29.2465 43.423C29.4657 43.423 29.626 43.3073 29.626 43.0699C29.626 42.8203 29.3845 42.7249 29.0274 42.5747C28.9036 42.6904 28.8082 42.8528 28.8082 43.0253C28.8082 43.2749 29.0091 43.423 29.2465 43.423ZM29.5875 41.7569C29.5875 41.5378 29.4576 41.3917 29.2425 41.3917C29.068 41.3917 28.9259 41.4992 28.9259 41.7184C28.9259 41.9497 29.1228 42.0613 29.413 42.175C29.5246 42.0451 29.5875 41.9071 29.5875 41.759V41.7569Z" fill="#655352"/>
<path d="M30.7117 40.6934H31.3672V41.4625L31.3368 41.8602C31.5011 41.7121 31.7203 41.5558 32.0206 41.5558C32.5016 41.5558 32.7086 41.8947 32.7086 42.4487V43.8246H32.0531V42.534C32.0531 42.2133 31.9679 42.1139 31.7812 42.1139C31.6148 42.1139 31.5133 42.189 31.3692 42.329V43.8246H30.7138V40.6934H30.7117Z" fill="#655352"/>
<path d="M42.9161 56.6333C42.9161 56.6333 42.977 57.3253 42.9039 57.7372C42.7963 58.344 42.7416 58.3359 42.703 58.7133C42.6482 59.2714 44.9312 59.107 44.99 58.7985C45.0611 58.4353 43.9267 58.2892 43.8658 57.8184C43.8252 57.4977 44.1824 56.5825 44.1824 56.5825L42.914 56.6353L42.9161 56.6333Z" fill="url(#paint17_linear_347_20807)"/>
<g style="mix-blend-mode:multiply" opacity="0.4">
<path d="M43.8678 57.8167C43.8313 57.5326 44.1073 56.7797 44.1722 56.6133L42.9262 56.7675C42.9323 56.8771 42.9404 57.0435 42.9404 57.218H43.5309C43.5309 57.218 43.399 57.6442 43.5309 58.0216C43.6629 58.3991 44.7282 58.4153 44.7607 58.7441C44.7932 59.0728 43.2347 59.0383 43.2347 59.0383L43.2773 59.0525C43.9429 59.1398 44.9494 58.9998 44.988 58.7968C45.059 58.4336 43.9246 58.2875 43.8638 57.8167H43.8678Z" fill="#C3694D"/>
</g>
<path d="M38.5226 27.0381C38.0498 29.9075 42.1835 32.2595 42.1835 32.2595L43.4315 32.4807C43.5573 36.2999 43.2448 40.8638 43.0033 43.7881C42.5427 49.385 42.7963 53.054 42.7071 57.0396H44.1966C45.7612 51.0652 46.8327 49.7442 46.5181 43.8246C46.2462 38.7006 50.6113 32.5538 49.42 27.3019L38.5206 27.0401L38.5226 27.0381Z" fill="url(#paint18_linear_347_20807)"/>
<g style="mix-blend-mode:multiply" opacity="0.2">
<path d="M45.9255 43.1307C45.7936 44.6405 46.1873 46.3451 45.9905 48.2486C45.7936 50.1521 44.5476 55.3999 43.6283 55.5319C42.7091 55.6638 43.119 48.2933 43.119 48.2933C43.119 48.2933 43.742 48.2263 43.5614 45.8885C43.5066 45.1783 43.9226 44.2367 43.5512 43.9972C43.3077 43.8389 43.2205 44.1007 42.9749 44.1555C42.5548 49.5474 42.7943 53.1433 42.707 57.0417H44.1966C45.7632 51.0673 46.8326 49.7463 46.5181 43.8267C46.3943 41.4808 47.2405 38.9219 48.0807 36.3324C48.0868 36.233 48.0888 36.1782 48.0888 36.1782C47.3014 38.3435 46.0554 41.6229 45.9235 43.1327L45.9255 43.1307Z" fill="#334B72"/>
</g>
<path d="M42.0739 43.1607C42.5325 44.009 43.1494 43.6072 43.4782 44.0171C43.7217 44.3235 43.4437 44.8166 43.4498 45.5918C43.4538 46.3691 43.5289 47.5745 43.1332 47.6212C42.7375 47.6699 43.0074 46.4949 42.2646 45.1251C42.0617 44.7517 41.0491 44.0293 41.0491 44.0293L42.0759 43.1587L42.0739 43.1607Z" fill="url(#paint19_linear_347_20807)"/>
<g style="mix-blend-mode:multiply" opacity="0.4">
<path d="M43.0947 47.4613C43.0277 47.4755 42.9749 47.4694 42.9344 47.4511C42.977 47.5708 43.0338 47.6337 43.1312 47.6216C43.5269 47.5729 43.4539 46.3675 43.4478 45.5923C43.4437 44.8171 43.7217 44.3219 43.4762 44.0175C43.1819 43.6482 42.6523 43.9363 42.216 43.3823L41.4854 44.3665C41.597 44.4558 41.7188 44.5553 41.8304 44.6567L42.2505 44.0074C42.2505 44.0074 42.4027 44.0804 42.6766 44.1251C42.9506 44.1697 43.0378 44.1271 43.2022 44.3584C43.3666 44.5877 43.2469 45.1235 43.257 45.6917C43.2672 46.2599 43.3341 47.4085 43.0926 47.4633L43.0947 47.4613Z" fill="#C3694D"/>
</g>
<path d="M38.5226 27.0381C38.1837 29.0897 30.0319 34.3173 29.8493 37.0812C29.6667 39.8573 36.3512 41.1155 41.5788 44.6566L42.4798 43.23C38.0478 38.2826 35.1316 37.2537 35.1479 36.8336C35.1641 36.4135 42.561 32.2595 42.561 32.2595L38.5226 27.0381Z" fill="url(#paint20_linear_347_20807)"/>
<g style="mix-blend-mode:multiply" opacity="0.2">
<path d="M29.8493 37.0812C29.6667 39.8573 36.3512 41.1155 41.5788 44.6566L42.4798 43.23C38.0478 38.2826 35.1316 37.2537 35.1479 36.8336C35.1641 36.442 41.6681 32.7872 42.4737 32.3103L43.2834 32.4543L42.6888 31.8253L42.8633 27.1883L42.2302 27.1274L38.5226 27.0381C38.1837 29.0897 30.0319 34.3173 29.8493 37.0812Z" fill="#334B72"/>
</g>
<g style="mix-blend-mode:multiply" opacity="0.2">
<path d="M49.4221 27.4298L38.5226 27.168C38.4861 27.3932 38.3541 27.6591 38.1472 27.9533C39.2328 28.4627 43.4843 30.1166 49.5661 28.274C49.5337 27.9898 49.485 27.7098 49.4221 27.4318V27.4298Z" fill="#334B72"/>
</g>
<path d="M41.8405 11.8403C41.0207 11.4994 39.6022 12.9889 37.7677 16.6579C36.3816 19.4279 35.6917 21.5283 36.4385 21.8733C37.2867 22.2629 37.859 21.2036 39.1314 19.3549C39.9086 17.6543 43.9408 12.7129 41.8385 11.8403H41.8405Z" fill="url(#paint21_linear_347_20807)"/>
<g style="mix-blend-mode:multiply" opacity="0.4">
<path d="M39.5839 17.2363C39.5839 17.2363 38.5997 18.9633 38.1837 19.6208L38.7884 19.8562C38.898 19.6959 39.0116 19.5274 39.1313 19.3529C39.3241 18.9308 39.7198 18.3058 40.1704 17.5935L39.5819 17.2363H39.5839Z" fill="#C3694D"/>
</g>
<path d="M45.0448 0.325962C45.0448 0.325962 45.3391 -0.0413453 46.1264 0.0580914C50.5443 0.612096 48.1619 13.5734 46.8996 14.9249C44.852 12.1082 45.0468 0.325962 45.0468 0.325962H45.0448Z" fill="url(#paint22_linear_347_20807)"/>
<g style="mix-blend-mode:multiply" opacity="0.3">
<path d="M47.0112 0.393143C47.3298 0.880179 46.7941 1.34286 46.7941 1.34286L46.8367 1.38548L45.0428 0.96744C45.0367 3.45539 45.1381 12.5021 46.8996 14.9231C48.0685 13.675 50.1871 2.51175 47.0112 0.391113V0.393143Z" fill="#491D17"/>
</g>
<path d="M44.6167 9.1943C44.6167 9.1943 47.2751 8.70523 47.9224 5.71604L44.9718 5.58008L44.6146 9.19227L44.6167 9.1943Z" fill="url(#paint23_linear_347_20807)"/>
<g style="mix-blend-mode:multiply" opacity="0.3">
<path d="M44.9738 5.58203L47.9244 5.718C47.2771 8.70718 44.6187 9.19625 44.6187 9.19625L44.9758 5.58406L44.9738 5.58203Z" fill="#491D17"/>
</g>
<path d="M49.4343 27.43C48.9432 24.0065 46.6196 22.5292 46.7738 20.2766C46.8875 18.6126 48.8985 16.3824 48.1578 13.3688C47.5937 11.0757 45.4142 11.0777 43.5168 11.0209C42.7497 10.9986 41.9867 11.2502 41.3515 11.6764C39.933 12.6261 38.8027 15.6092 39.1639 16.8978C39.5373 18.227 40.3936 18.3062 40.3896 20.2888C40.3876 21.9468 38.6829 24.3738 38.5267 27.1662C38.5267 27.1662 42.839 29.6095 49.4363 27.428L49.4343 27.43Z" fill="#0070BB"/>
<path d="M46.3517 11.3614C45.9966 11.2376 45.611 11.1625 45.2132 11.1138L42.8856 11.061C42.5163 11.1199 42.1571 11.2376 41.8202 11.404C41.3758 12.1122 40.6351 13.6464 42.2849 13.965C44.6795 14.4277 45.9986 12.1 46.3517 11.3614Z" fill="#FFF4EE"/>
<g style="mix-blend-mode:multiply" opacity="0.8">
<path d="M46.7718 20.2781C46.8854 18.614 48.8965 16.3838 48.1558 13.3703C48.1131 13.1957 48.0604 13.0354 47.9995 12.8853C47.9224 14.1556 47.3034 15.5335 46.1893 16.6476C44.16 18.6769 41.2622 19.0666 39.7138 17.5202C39.4642 17.2706 39.2653 16.9845 39.1151 16.674C39.1253 16.7531 39.1415 16.8303 39.1618 16.9013C39.5352 18.2305 40.3916 18.3096 40.3875 20.2923C40.3855 21.9502 38.6809 24.3773 38.5246 27.1696C38.5246 27.1696 42.8369 29.6129 49.4342 27.4314C48.9431 24.008 46.6196 22.5306 46.7738 20.2781H46.7718Z" fill="#0070BB"/>
</g>
<g style="mix-blend-mode:multiply" opacity="0.8">
<path d="M46.7718 20.2782C46.7738 20.2356 46.7799 20.1929 46.7839 20.1503C45.5866 19.9109 43.9551 19.5821 43.3787 19.089C43.3219 19.0301 43.4214 18.7582 43.4457 18.464C43.4498 18.4051 43.4599 18.3422 43.4701 18.2793C42.8329 18.4599 42.1957 18.5106 41.6031 18.4295C41.6132 18.4701 41.6214 18.5106 41.6315 18.5492C41.4874 18.5999 41.3596 18.6831 41.2906 18.7765C41.0998 19.0423 40.7548 19.2615 40.3226 19.4604C40.3611 19.6958 40.3835 19.9677 40.3835 20.2904C40.3835 20.682 40.2881 21.1163 40.14 21.5871C41.0288 20.8728 41.7938 20.0489 42.1327 19.5273C42.1388 19.5334 42.1449 19.5415 42.151 19.5476C42.8511 20.544 45.4446 22.3501 47.7073 23.1517C47.1513 22.1817 46.6987 21.3091 46.7697 20.2761L46.7718 20.2782Z" fill="#ECD2BD"/>
</g>
<path d="M45.5785 6.72021C45.3776 7.56238 45.3086 8.26859 45.2417 9.25484C45.1463 10.6429 45.8606 11.2497 45.8606 11.2497C44.9738 11.483 43.3625 11.6494 42.4108 11.1705C42.4108 11.1705 43.1434 10.9919 42.8613 9.08843C42.6685 7.78155 45.5785 6.72021 45.5785 6.72021Z" fill="url(#paint24_linear_347_20807)"/>
<path d="M45.8586 11.25C45.8586 11.25 44.8358 13.8252 42.5792 13.5431C40.7752 13.3178 42.4088 11.1729 42.4088 11.1729L45.8586 11.252V11.25Z" fill="url(#paint25_linear_347_20807)"/>
<g style="mix-blend-mode:multiply" opacity="0.6">
<path d="M42.91 9.57127L45.3533 7.97217C45.3046 8.36586 45.2721 8.77578 45.2397 9.25267C45.1443 10.6407 45.8586 11.2475 45.8586 11.2475C45.8586 11.2475 45.5096 12.183 44.6106 12.9481C43.2875 12.1647 42.979 10.9248 42.8715 10.4439C42.9161 10.2247 42.9344 9.93858 42.91 9.57127Z" fill="#AC6B53"/>
</g>
<path d="M41.5848 1.12989C41.5848 1.12989 40.7711 0.831581 40.0527 1.72448C39.0746 2.94207 39.9654 4.24287 40.0365 5.29406L41.5219 2.67217L41.5848 1.13192V1.12989Z" fill="url(#paint26_linear_347_20807)"/>
<g style="mix-blend-mode:multiply" opacity="0.3">
<path d="M41.5219 2.66999L40.0365 5.29187C39.9878 4.56334 39.5433 3.71306 39.6042 2.85466C39.7787 2.9338 39.9939 2.87495 40.3388 2.49953C40.7082 2.09772 40.9558 1.5498 40.9558 1.5498L41.5463 2.09975L41.524 2.66999H41.5219Z" fill="#491D17"/>
</g>
<path d="M45.3837 8.13691C44.4705 9.96939 42.3803 10.5295 42.0536 10.4808C41.7249 10.4321 39.6286 8.59148 39.9898 6.14818C40.0263 5.82348 39.862 4.20815 40.1704 3.4715C40.9253 1.66541 42.3174 1.43001 43.7095 1.70599C45.9093 2.1423 46.2665 4.04986 45.8809 6.24152C45.8809 6.24152 45.7754 7.3475 45.3878 8.13894L45.3837 8.13691Z" fill="url(#paint27_linear_347_20807)"/>
<g style="mix-blend-mode:multiply" opacity="0.3">
<path d="M44.9778 4.01514L45.9478 5.72179C45.9275 5.89429 45.9093 6.06475 45.8788 6.2413C45.8788 6.2413 45.7733 7.34728 45.3857 8.13871C44.4725 9.97119 42.3823 10.5313 42.0556 10.4826C45.8768 9.21223 44.9799 4.01717 44.9799 4.01717L44.9778 4.01514Z" fill="#E38565"/>
</g>
<g style="mix-blend-mode:multiply" opacity="0.5">
<path d="M41.7431 6.15221C41.8425 5.74431 41.7471 5.28772 41.4549 4.92041C41.6497 5.06449 41.7898 5.26742 41.877 5.48659C41.9602 5.70373 42.0089 5.9513 41.9623 6.18468C41.8831 6.62707 41.5889 6.9822 41.2195 7.25413C41.3798 7.44894 41.6152 7.61941 41.8973 7.70058C41.4042 7.68434 41.1099 7.48547 40.7812 7.20745C41.2398 6.95785 41.6376 6.6291 41.7431 6.15221Z" fill="#E38565"/>
</g>
<path d="M45.9175 5.6853C46.5384 5.51078 46.9484 6.28395 46.7941 6.79534C46.6358 7.32296 46.0818 7.66389 45.6171 7.62533C45.3756 7.35949 45.5197 5.89838 45.9175 5.68327V5.6853Z" fill="url(#paint28_linear_347_20807)"/>
<g style="mix-blend-mode:multiply" opacity="0.3">
<path d="M45.9175 5.6853C46.5384 5.51078 46.9484 6.28395 46.7941 6.79534C46.6358 7.32296 46.0818 7.66389 45.6171 7.62533C45.3756 7.35949 45.5197 5.89838 45.9175 5.68327V5.6853Z" fill="#E38565"/>
</g>
<g style="mix-blend-mode:multiply" opacity="0.6">
<path d="M46.0067 6.18493C46.3436 6.11796 46.5343 6.53397 46.4369 6.79372C46.3354 7.06159 46.029 7.21582 45.7835 7.17727C45.7368 7.12856 45.8951 6.79981 46.0067 6.1829V6.18493Z" fill="#AC6B53"/>
</g>
<path d="M42.7172 4.67085C42.6178 4.90422 43.1961 4.82914 43.7745 5.05845C44.1905 5.22283 44.5598 5.4704 44.6288 5.41967C44.6978 5.36894 44.3995 4.96105 43.8699 4.72767C43.3666 4.50648 42.7882 4.50648 42.7172 4.67288V4.67085Z" fill="url(#paint29_linear_347_20807)"/>
<path d="M41.1384 4.71145C41.1973 4.96917 40.8015 4.89815 40.4444 5.01788C40.1298 5.1234 40.004 5.22081 39.9411 5.18631C39.8782 5.14978 39.9452 4.87583 40.3186 4.69522C40.6656 4.52475 41.0978 4.53084 41.1404 4.71348L41.1384 4.71145Z" fill="url(#paint30_linear_347_20807)"/>
<path d="M45.2072 5.5293C45.2985 6.01836 45.2579 6.58048 45.6394 6.58048C45.9945 6.58048 46.094 5.64091 46.094 5.64091L45.2072 5.5293Z" fill="url(#paint31_linear_347_20807)"/>
<path d="M41.0593 1.84801C41.1364 2.97631 43.7582 2.86876 44.5842 3.43291C44.9312 3.66831 45.2092 5.53123 45.2092 5.53123C45.4507 5.75445 45.82 5.75445 46.1143 5.64487C46.1143 5.64487 47.4415 5.93709 47.9224 5.71589C48.3973 2.80585 47.2811 0.510688 44.3589 0.0459741C42.5508 -0.252336 40.9984 0.965256 41.0572 1.84598L41.0593 1.84801Z" fill="url(#paint32_linear_347_20807)"/>
<path d="M44.2453 5.87626C44.1499 6.15225 43.8414 6.44244 43.3605 6.37142C42.9993 6.35721 42.7821 5.91888 42.8755 5.76465C42.8755 5.76465 43.0135 6.06296 43.3442 6.10152C43.8313 6.16037 44.2453 5.87423 44.2453 5.87423V5.87626Z" fill="#492A21"/>
<path d="M40.1683 5.78467C40.2231 6.11748 40.4504 6.39143 40.7873 6.38332C41.1728 6.34679 41.3291 6.02819 41.2926 5.85772C41.2926 5.85772 41.114 6.06674 40.8684 6.08907C40.4788 6.12356 40.1683 5.78467 40.1683 5.78467Z" fill="#492A21"/>
<path d="M46.9605 12.0292C47.8189 11.802 48.6367 13.4234 49.8888 16.9727C50.8325 19.6493 51.3682 22.0723 50.7695 22.4823C48.7483 23.8663 42.5488 19.8726 42.009 18.5068L43.328 18.2532C44.1195 19.0385 47.5896 19.418 48.0929 19.6777C48.0929 19.6777 44.9454 12.563 46.9585 12.0272L46.9605 12.0292Z" fill="url(#paint33_linear_347_20807)"/>
<path d="M41.2947 17.989C40.8117 18.6607 39.3425 19.0402 37.9361 19.5415C36.3249 20.1178 35.9433 21.3374 36.3208 21.8508C37.9098 23.3769 41.9542 19.4136 42.3012 18.4355C42.6462 17.4574 41.5524 17.6339 41.2967 17.989H41.2947Z" fill="url(#paint34_linear_347_20807)"/>
<path d="M42.4939 18.515C42.6137 18.4521 43.0561 18.0341 43.1494 17.7439C43.2813 17.3238 43.6791 16.5161 43.5086 16.4349C43.2123 16.2949 42.8836 17.4902 42.7659 17.3339C42.6299 17.1574 42.776 16.2645 42.8491 15.6719C42.916 15.1402 42.985 14.8561 42.8592 14.8298C42.7496 14.8054 42.6563 15.2174 42.5893 15.605C42.5325 15.9236 42.4696 16.3416 42.4107 16.3396C42.3072 16.3355 42.3641 15.9682 42.4107 15.6171C42.4736 15.1423 42.5812 14.6897 42.4493 14.6613C42.2829 14.6248 42.1794 15.0611 42.1084 15.5725C42.0597 15.9256 42.0272 16.3761 41.9521 16.4065C41.8567 16.4471 41.9257 16.0007 41.9622 15.6841C42.011 15.2478 42.1165 14.9048 41.9785 14.8845C41.8385 14.8643 41.7248 15.2194 41.6416 15.7145C41.5828 16.0656 41.5645 16.5222 41.4874 16.5486C41.3737 16.5871 41.5341 15.6395 41.3717 15.6658C41.1627 15.7003 41.1404 16.5953 41.1789 17.3238C41.2215 18.1335 41.3819 18.4724 41.6781 18.8437L42.496 18.517L42.4939 18.515Z" fill="url(#paint35_linear_347_20807)"/>
<path d="M43.3828 18.304C43.3179 18.2533 43.4214 17.9752 43.4478 17.6749C43.4904 17.1818 43.7461 16.5162 43.5736 16.437C43.322 16.3234 43.2388 17.4233 43.1008 17.2771C42.9465 17.1107 42.977 16.2178 42.9729 15.6273C42.9709 15.0977 43.0034 14.8115 42.8775 14.7933C42.7659 14.777 42.7294 15.189 42.7111 15.5786C42.6969 15.8972 42.6868 16.3152 42.63 16.3173C42.5265 16.3193 42.5386 15.952 42.5407 15.603C42.5407 15.1281 42.5914 14.6735 42.4575 14.6553C42.289 14.6309 42.2444 15.0692 42.2383 15.5786C42.2342 15.9317 42.2586 16.3782 42.1916 16.4147C42.1023 16.4614 42.1165 16.0149 42.1105 15.7004C42.1044 15.2661 42.1632 14.9191 42.0252 14.9089C41.8872 14.8988 41.8203 15.258 41.802 15.7511C41.7898 16.1022 41.8284 16.5547 41.7553 16.5872C41.6498 16.6339 41.5909 15.6314 41.4347 15.6679C41.2338 15.7146 41.4225 16.6562 41.5504 17.3725C41.6924 18.17 41.8933 18.4947 42.2282 18.8418L43.3828 18.306V18.304Z" fill="url(#paint36_linear_347_20807)"/>
<g style="mix-blend-mode:multiply" opacity="0.3">
<path d="M47.06 1.47078C47.6383 3.10438 46.2056 3.88567 44.8926 4.06019C45.0793 4.67913 45.2072 5.51521 45.2092 5.52942H45.2072C45.2985 6.01849 45.2579 6.58061 45.6394 6.58061C45.9824 6.58061 46.0879 5.70394 46.094 5.65118C46.1001 5.64915 46.1082 5.64915 46.1163 5.64509C46.1163 5.64509 47.4435 5.93731 47.9244 5.71612C48.2045 4.00337 47.9265 2.50776 47.06 1.46875V1.47078Z" fill="#491D17"/>
</g>
<path d="M40.4017 1.28784C39.9999 2.39585 40.5194 3.2989 43.0195 3.83058C45.0834 4.26892 45.8565 5.24096 45.8565 5.24096C45.8565 5.24096 46.1832 2.0326 43.955 0.601933C42.1875 -0.532457 40.6513 0.599904 40.4017 1.28784Z" fill="url(#paint37_linear_347_20807)"/>
<g style="mix-blend-mode:multiply" opacity="0.3">
<path d="M44.7221 1.2657C45.4791 2.43256 45.5501 4.32795 45.5501 4.32795C44.4705 2.9196 42.5061 3.49187 41.1952 2.8364C40.5072 2.49141 40.3206 2.04496 40.2962 1.69592C40.1643 2.61723 40.836 3.36402 43.0216 3.82873C45.0854 4.26707 45.8586 5.23911 45.8586 5.23911C45.8586 5.23911 46.1001 2.83842 44.7221 1.26367V1.2657Z" fill="#491D17"/>
</g>
<g style="mix-blend-mode:multiply" opacity="0.4">
<path d="M46.9605 12.0292C46.8813 12.0495 46.8123 12.08 46.7474 12.1206C47.9346 12.4087 48.933 15.2153 49.5661 16.9544C50.2216 18.7585 50.9765 21.4818 50.2541 21.9729C49.5316 22.464 48.4825 22.2022 46.4166 21.3174C44.3508 20.4327 42.2261 18.8417 42.2261 18.8417V18.864C43.4741 20.4529 48.9025 23.7587 50.7695 22.4823C51.3682 22.0723 50.8324 19.6493 49.8888 16.9727C48.6367 13.4234 47.8189 11.802 46.9605 12.0292Z" fill="#C3694D"/>
</g>
<g style="mix-blend-mode:multiply" opacity="0.4">
<path d="M36.3188 21.8509C37.7393 23.2146 41.1201 20.195 42.0699 18.8374C40.7021 20.122 37.6804 22.5064 36.1909 21.508C36.2072 21.6399 36.2498 21.7556 36.3188 21.8489V21.8509Z" fill="#C3694D"/>
</g>
<path d="M43.192 8.16896C42.6218 8.16693 41.9724 8.44697 41.9724 8.44697C41.9724 8.44697 41.5645 8.3658 41.2114 8.48756C41.2114 8.48756 41.668 9.18159 42.1591 9.14912C42.8389 9.10447 43.192 8.16896 43.192 8.16896Z" fill="#D3634E"/>
<g style="mix-blend-mode:multiply" opacity="0.3">
<path d="M42.086 8.72337C41.6863 8.76193 41.2175 8.49406 41.2175 8.49406L41.2134 8.49C41.5686 8.36824 41.9744 8.44942 41.9744 8.44942C41.9744 8.44942 42.6238 8.16937 43.1941 8.1714C43.1941 8.1714 42.5345 8.68076 42.086 8.7254V8.72337Z" fill="#7A2216"/>
</g>
<g style="mix-blend-mode:screen" opacity="0.6">
<path d="M64.1792 20.2724L64.1813 19.7935H63.3249L63.3269 20.2724H64.1792Z" fill="#FFF6E5"/>
</g>
<g style="mix-blend-mode:screen" opacity="0.5">
<path d="M63.4244 20.6069C63.4244 20.6069 64.1407 20.8119 64.1691 22.0782C64.1996 23.4297 63.7511 23.6245 63.7511 23.6245L63.4244 20.6069Z" fill="#FFF6E5"/>
</g>
<g style="mix-blend-mode:screen" opacity="0.3">
<path d="M65.3846 23.1621C65.3846 23.1621 65.6342 23.4158 65.6647 23.4137C65.6951 23.4117 65.8798 23.2798 65.8798 23.2798C65.8798 23.2798 65.7276 23.1479 65.3846 23.1641V23.1621Z" fill="white"/>
</g>
<g style="mix-blend-mode:screen" opacity="0.4">
<path d="M16.3502 27.1781C16.5957 27.3425 16.0762 27.9067 15.8713 27.7991C15.5527 27.6327 16.0336 26.9671 16.3502 27.1781Z" fill="#F9C9DF"/>
<path d="M15.8571 28.0708C16.0844 28.0708 16.0823 28.9536 16.0803 29.8952C16.0763 30.9971 15.989 32.1355 15.8571 32.1355C15.8023 32.1355 15.7617 30.9423 15.7414 29.8952C15.7232 28.9515 15.7516 28.0708 15.8571 28.0708Z" fill="#F9C9DF"/>
<path d="M16.3563 24.8101C16.4659 24.8101 16.5207 24.9136 16.5166 25.0415C16.5126 25.1673 16.47 25.2891 16.3543 25.2809C16.2792 25.2769 16.2244 25.1937 16.2224 25.0516C16.2203 24.9441 16.2528 24.8081 16.3583 24.8081L16.3563 24.8101Z" fill="#F9C9DF"/>
</g>
<path d="M76.3755 40.0864H61.5919C60.4297 40.0864 59.4875 41.0286 59.4875 42.1908V56.9744C59.4875 58.1367 60.4297 59.0788 61.5919 59.0788H76.3755C77.5377 59.0788 78.4799 58.1367 78.4799 56.9744V42.1908C78.4799 41.0286 77.5377 40.0864 76.3755 40.0864Z" fill="url(#paint38_linear_347_20807)"/>
<g style="mix-blend-mode:multiply">
<g style="mix-blend-mode:multiply" opacity="0.2">
<path d="M70.7685 48.2505H67.201C67.1494 48.2505 67.1076 48.2923 67.1076 48.3438V48.4433C67.1076 48.4948 67.1494 48.5366 67.201 48.5366H70.7685C70.8201 48.5366 70.8618 48.4948 70.8618 48.4433V48.3438C70.8618 48.2923 70.8201 48.2505 70.7685 48.2505Z" fill="#360D82"/>
</g>
<g style="mix-blend-mode:multiply" opacity="0.2">
<path d="M70.7665 50.0244H67.1989C67.1474 50.0244 67.1056 50.0662 67.1056 50.1178V50.2172C67.1056 50.2688 67.1474 50.3105 67.1989 50.3105H70.7665C70.818 50.3105 70.8598 50.2688 70.8598 50.2172V50.1178C70.8598 50.0662 70.818 50.0244 70.7665 50.0244Z" fill="#360D82"/>
</g>
<g style="mix-blend-mode:multiply" opacity="0.2">
<path d="M70.7665 51.7979H67.1989C67.1474 51.7979 67.1056 51.8396 67.1056 51.8912V51.9906C67.1056 52.0422 67.1474 52.084 67.1989 52.084H70.7665C70.818 52.084 70.8598 52.0422 70.8598 51.9906V51.8912C70.8598 51.8396 70.818 51.7979 70.7665 51.7979Z" fill="#360D82"/>
</g>
<g style="mix-blend-mode:multiply" opacity="0.2">
<path d="M70.7644 53.5732H67.1969C67.1453 53.5732 67.1035 53.615 67.1035 53.6666V53.766C67.1035 53.8176 67.1453 53.8594 67.1969 53.8594H70.7644C70.816 53.8594 70.8578 53.8176 70.8578 53.766V53.6666C70.8578 53.615 70.816 53.5732 70.7644 53.5732Z" fill="#360D82"/>
</g>
</g>
<g style="mix-blend-mode:multiply" opacity="0.3">
<path d="M76.3796 40.0906L61.596 40.0825C60.4332 40.0825 59.4916 41.0241 59.4896 42.1849L59.4814 56.9685C59.4814 58.1313 60.4231 59.0729 61.5838 59.0749L76.3674 59.083C77.5302 59.083 78.4718 58.1414 78.4739 56.9807L78.482 42.1971C78.482 41.0343 77.5404 40.0927 76.3796 40.0906ZM77.0878 55.899C77.0878 56.8914 76.2822 57.695 75.2899 57.695L62.6654 57.6869C61.6731 57.6869 60.8695 56.8812 60.8695 55.8889L60.8776 43.2645C60.8776 42.2722 61.6833 41.4685 62.6756 41.4685H64.8997L64.8977 45.1599C64.8977 45.513 65.1838 45.7991 65.5349 45.7991L72.4366 45.8032C72.7897 45.8032 73.0759 45.517 73.0759 45.166V41.4746H75.302C76.2944 41.4746 77.098 42.2803 77.098 43.2726L77.0899 55.897L77.0878 55.899Z" fill="#360D82"/>
</g>
<g style="mix-blend-mode:multiply" opacity="0.3">
<path d="M66.3445 48.628C67.0162 49.7238 65.2873 51.3351 65.5288 53.0641C65.6708 54.0828 66.586 54.8864 66.8985 55.5886C67.4079 56.7331 65.5795 57.7051 64.8591 56.5504C64.4492 55.8909 64.1204 54.7058 63.7754 53.8129C63.2113 52.3538 62.2656 51.2478 62.5355 50.1236C62.8703 48.7274 65.823 47.7777 66.3445 48.626V48.628Z" fill="#360D82"/>
<path d="M65.9265 47.9421C66.6145 48.0294 67.0954 46.5946 66.1599 46.4465C65.2244 46.2983 65.2041 47.8508 65.9265 47.9421Z" fill="#360D82"/>
<path d="M64.8226 47.9178C65.3239 47.8224 65.2914 46.7164 64.6035 46.826C63.9155 46.9356 64.297 48.0172 64.8226 47.9178Z" fill="#360D82"/>
<path d="M63.8769 48.277C64.3416 48.1471 64.2097 47.1061 63.5705 47.2644C62.9313 47.4227 63.3899 48.415 63.8769 48.277Z" fill="#360D82"/>
<path d="M62.9921 48.8816C63.4304 48.7578 63.3066 47.7736 62.7039 47.9237C62.0992 48.0739 62.5335 49.0115 62.9921 48.8816Z" fill="#360D82"/>
<path d="M62.3021 49.4658C62.637 49.3156 62.4056 48.5424 61.9429 48.7332C61.4803 48.924 61.9511 49.6241 62.3021 49.4658Z" fill="#360D82"/>
<path d="M71.6269 48.6259C70.943 49.7157 72.6537 51.3432 72.392 53.0701C72.2377 54.0868 71.3124 54.8823 70.9938 55.5804C70.4722 56.7209 72.2905 57.7112 73.021 56.5646C73.4391 55.9091 73.78 54.7281 74.1351 53.8392C74.7155 52.3862 75.6734 51.2904 75.4177 50.1621C75.0991 48.7639 72.1566 47.7817 71.6249 48.6259H71.6269Z" fill="#360D82"/>
<path d="M72.051 47.9463C71.361 48.0254 70.8984 46.5866 71.8339 46.4486C72.7714 46.3106 72.7734 47.8631 72.051 47.9463Z" fill="#360D82"/>
<path d="M73.1549 47.9317C72.6557 47.8323 72.7004 46.7263 73.3863 46.842C74.0722 46.9576 73.6805 48.0372 73.1549 47.9317Z" fill="#360D82"/>
<path d="M74.0966 48.3011C73.6339 48.1652 73.7759 47.1262 74.4131 47.2905C75.0503 47.4549 74.5816 48.4432 74.0966 48.3011Z" fill="#360D82"/>
<path d="M74.9752 48.914C74.5389 48.7861 74.6729 47.8019 75.2756 47.9582C75.8783 48.1144 75.4339 49.0479 74.9752 48.914Z" fill="#360D82"/>
<path d="M75.6611 49.5046C75.3283 49.3504 75.5678 48.5792 76.0284 48.7761C76.4891 48.9729 76.0102 49.667 75.6611 49.5046Z" fill="#360D82"/>
</g>
<path d="M76.3796 40.0906L61.596 40.0825C60.4332 40.0825 59.4916 41.0241 59.4896 42.1849L59.4814 56.9685C59.4814 58.1313 60.4231 59.0729 61.5838 59.0749L76.3674 59.083C77.5302 59.083 78.4718 58.1414 78.4739 56.9807L78.482 42.1971C78.482 41.0343 77.5404 40.0927 76.3796 40.0906ZM77.7372 56.4043C77.7372 57.4758 76.8666 58.3444 75.7952 58.3444L62.1602 58.3363C61.0887 58.3363 60.2201 57.4657 60.2201 56.3942L60.2282 42.7592C60.2282 41.6877 61.0988 40.8192 62.1703 40.8192L75.8053 40.8273C76.8768 40.8273 77.7453 41.6979 77.7453 42.7693L77.7372 56.4043Z" fill="#D9D9D9"/>
<g style="mix-blend-mode:screen" opacity="0.2">
<path d="M76.7083 41.7588C76.3796 41.4565 75.9412 41.2718 75.4603 41.2718L62.5152 41.2637C61.4965 41.2637 60.6726 42.0876 60.6706 43.1063L60.6625 56.0513C60.6625 56.5323 60.8471 56.9706 61.1495 57.2994L76.7063 41.7609L76.7083 41.7588Z" fill="white"/>
</g>
<path d="M65.3684 40.6162H72.605V44.8149C72.605 45.1335 72.3473 45.3912 72.0287 45.3912H65.9427C65.6241 45.3912 65.3664 45.1335 65.3664 44.8149V40.6162H65.3684Z" fill="#D9D9D9"/>
<path d="M71.9475 41.3506H66.028V44.632H71.9475V41.3506Z" fill="#544443"/>
<path d="M71.6391 41.6592H66.3345V44.3277H71.6391V41.6592Z" fill="white"/>
<path d="M69.0783 42.8553L69.079 41.8853L68.8334 41.8851L68.8328 42.8551L69.0783 42.8553Z" fill="#544443"/>
<path d="M66.908 42.8606L66.9085 41.8906L66.663 41.8905L66.6625 42.8605L66.908 42.8606Z" fill="#544443"/>
<path d="M71.313 42.8553L71.3137 41.8853L71.0682 41.8851L71.0675 42.8551L71.313 42.8553Z" fill="#544443"/>
<path d="M67.6045 42.3591L67.6049 41.8843L67.4507 41.8841L67.4503 42.359L67.6045 42.3591Z" fill="#544443"/>
<path d="M68.2917 42.3645L68.292 41.8896L68.1378 41.8895L68.1374 42.3644L68.2917 42.3645Z" fill="#544443"/>
<path d="M69.8125 42.3591L69.8129 41.8843L69.6587 41.8841L69.6583 42.359L69.8125 42.3591Z" fill="#544443"/>
<path d="M70.4877 42.3611L70.4881 41.8862L70.3339 41.8861L70.3335 42.361L70.4877 42.3611Z" fill="#544443"/>
<g style="mix-blend-mode:multiply">
<path d="M76.3796 40.0906L61.596 40.0825C60.4332 40.0825 59.4916 41.0241 59.4896 42.1849L59.4814 56.9685C59.4814 58.1313 60.4231 59.0729 61.5838 59.0749L76.3674 59.083C77.5302 59.083 78.4718 58.1414 78.4739 56.9807L78.482 42.1971C78.482 41.0343 77.5404 40.0927 76.3796 40.0906ZM78.2506 56.8041C78.2506 57.9385 77.3293 58.8578 76.1949 58.8578L61.7604 58.8497C60.626 58.8497 59.7067 57.9284 59.7067 56.794L59.7148 42.3594C59.7148 41.225 60.6361 40.3057 61.7705 40.3057L76.2051 40.3139C77.3395 40.3139 78.2587 41.2352 78.2587 42.3696L78.2506 56.8041Z" fill="#D9D9D9"/>
</g>
<path d="M68.3495 43.9074C68.4043 43.9602 68.4753 44.0069 68.5687 44.0069C68.6742 44.0069 68.7513 43.9399 68.7513 43.8262C68.7513 43.7146 68.6823 43.6497 68.5768 43.6497C68.5159 43.6497 68.4814 43.6659 68.4266 43.7025L68.3455 43.6517L68.3739 43.187H68.8771V43.3311H68.522L68.5017 43.5584C68.5423 43.5401 68.5768 43.5279 68.6275 43.5279C68.7899 43.5279 68.9238 43.6193 68.9238 43.8222C68.9238 44.0292 68.7655 44.1469 68.593 44.1469C68.4408 44.1469 68.3414 44.086 68.2724 44.017L68.3515 43.9074H68.3495Z" fill="#544443"/>
<path d="M69.1085 43.9074C69.1633 43.9602 69.2343 44.0069 69.3297 44.0069C69.4352 44.0069 69.5123 43.9399 69.5123 43.8262C69.5123 43.7146 69.4433 43.6497 69.3398 43.6497C69.2789 43.6497 69.2444 43.6659 69.1876 43.7025L69.1064 43.6517L69.1349 43.187H69.6381V43.3311H69.283L69.2647 43.5584C69.3053 43.5401 69.3418 43.5279 69.3905 43.5279C69.5509 43.5279 69.6868 43.6193 69.6868 43.8222C69.6868 44.0292 69.5285 44.1469 69.356 44.1469C69.2018 44.1469 69.1044 44.086 69.0334 44.015L69.1125 43.9054L69.1085 43.9074Z" fill="#544443"/>
<path d="M39.5413 54.9169C39.5434 52.6542 38.0802 50.8197 36.2599 50.765V50.7568H36.197C36.1909 50.7568 36.1869 50.7568 36.1828 50.7568C36.1787 50.7568 36.1727 50.7568 36.1686 50.7568H34.6913V51.2033C33.5853 51.8831 32.8182 53.2793 32.8162 54.9109C32.8162 56.5424 33.5792 57.9386 34.6831 58.6225V59.073H36.2518V59.0628C38.0721 59.0121 39.5393 57.1817 39.5413 54.919V54.9169Z" fill="url(#paint39_linear_347_20807)"/>
<g style="mix-blend-mode:multiply" opacity="0.2">
<path d="M34.6831 58.6204V59.0709H36.2518V59.0608C37.7312 59.0202 38.9609 57.7965 39.379 56.1284C38.9244 56.512 38.415 56.4876 37.861 56.1284H32.9663C33.2382 57.2182 33.8673 58.1151 34.6851 58.6204H34.6831Z" fill="#8A0040"/>
</g>
<path d="M37.9865 54.911C37.9889 52.6145 36.4854 50.7513 34.6283 50.7494C32.7712 50.7474 31.2638 52.6075 31.2614 54.9039C31.259 57.2004 32.7625 59.0636 34.6196 59.0655C36.4767 59.0675 37.9841 57.2074 37.9865 54.911Z" fill="url(#paint40_linear_347_20807)"/>
<g style="mix-blend-mode:multiply" opacity="0.3">
<path d="M35.8236 58.7848L35.4968 54.7627L32.8242 54.9798L33.1185 58.6103C33.573 58.8944 34.0783 59.0689 34.6222 59.0689C35.0463 59.0689 35.4502 58.9614 35.8236 58.7848Z" fill="#8A0040"/>
</g>
<g style="mix-blend-mode:screen" opacity="0.3">
<path d="M31.3773 55.1809C31.3794 52.8837 32.8871 51.0249 34.744 51.0269C36.0569 51.0269 37.1812 51.9685 37.7332 53.3261C37.2299 51.8183 36.0326 50.755 34.6303 50.7529C32.7735 50.7509 31.2657 52.6118 31.2617 54.9069C31.2617 55.5807 31.4017 56.2057 31.631 56.7699C31.4666 56.2788 31.3753 55.743 31.3753 55.1809H31.3773Z" fill="#FFF2F8"/>
</g>
<path d="M35.4928 54.9309C35.4928 54.1374 34.9428 53.4961 34.259 53.488H34.2549C34.2549 53.488 34.2508 53.488 34.2488 53.488C34.2488 53.488 34.2488 53.488 34.2468 53.488L28.4896 53.4819L28.4855 56.3656L34.2549 56.3717C34.9367 56.3636 35.4907 55.7243 35.4907 54.9309H35.4928Z" fill="url(#paint41_linear_347_20807)"/>
<path d="M31.7873 54.9271C31.7893 52.6401 30.2003 50.7873 28.2319 50.769H28.2218C28.2157 50.769 28.2116 50.769 28.2055 50.769C28.1994 50.769 28.1954 50.769 28.1893 50.769H26.6632V51.1851C25.4578 51.8547 24.6177 53.2692 24.6157 54.921C24.6157 56.5749 25.4497 57.9894 26.6551 58.6611V59.0811H28.2238V59.0771C30.1922 59.0629 31.7873 57.2121 31.7893 54.9271H31.7873Z" fill="url(#paint42_linear_347_20807)"/>
<g style="mix-blend-mode:multiply" opacity="0.2">
<path d="M26.6531 58.6612V59.0812H28.2218V59.0772C29.829 59.065 31.1704 57.821 31.6168 56.1245C31.2982 56.4837 30.454 56.5202 29.9832 56.1245H24.7679C25.0621 57.2427 25.7541 58.1579 26.6531 58.6591V58.6612Z" fill="#8A0040"/>
</g>
<path d="M30.1307 54.9232C30.1331 52.6267 28.5296 50.7634 26.5492 50.7613C24.5688 50.7593 22.9615 52.6192 22.9591 54.9157C22.9567 57.2121 24.5601 59.0754 26.5405 59.0775C28.5209 59.0796 30.1283 57.2196 30.1307 54.9232Z" fill="url(#paint43_linear_347_20807)"/>
<g style="mix-blend-mode:multiply" opacity="0.3">
<path d="M28.2765 55.134C28.2765 56.2055 27.5237 57.0741 26.6003 57.0741C25.675 57.0741 24.9261 56.2035 24.9282 55.13C24.9302 54.0565 25.681 53.1899 26.6044 53.1899C27.5298 53.1899 28.2786 54.0605 28.2765 55.134Z" fill="#8A0040"/>
</g>
<path d="M28.1325 54.9226C28.1325 55.9393 27.4202 56.7612 26.5435 56.7612C25.6669 56.7612 24.9586 55.9353 24.9586 54.9206C24.9586 53.9059 25.6709 53.082 26.5476 53.082C27.4242 53.082 28.1325 53.908 28.1325 54.9226Z" fill="#ECD2BD"/>
<g style="mix-blend-mode:screen" opacity="0.3">
<path d="M23.323 55.3814C23.325 53.0842 24.9322 51.2254 26.9149 51.2274C27.8545 51.2274 28.7027 51.6576 29.3419 52.3456C28.6865 51.3898 27.686 50.7647 26.5496 50.7627C24.569 50.7607 22.9618 52.6195 22.9577 54.9167C22.9577 56.1221 23.4042 57.1997 24.1124 57.9607C23.6253 57.2504 23.321 56.3616 23.323 55.3814Z" fill="#FFF2F8"/>
</g>
<g style="mix-blend-mode:screen" opacity="0.5">
<path d="M27.0894 53.5447C27.5197 54.2367 25.9794 54.5594 25.742 54.2002C25.3726 53.6421 26.714 52.942 27.0894 53.5447Z" fill="#FFF6E5"/>
<path d="M25.5715 54.4661C26.0281 54.6386 25.5634 55.1987 25.3462 55.1094C25.0094 54.9714 25.2123 54.3301 25.5715 54.4661Z" fill="#FFF6E5"/>
</g>
<path d="M62.3529 59.0261C64.7252 58.7846 67.0812 58.3462 69.3825 57.7212C70.1699 57.983 71.7487 58.4802 71.9415 58.3117C72.1992 58.0865 71.0201 57.5629 71.0201 57.5629C71.0201 57.5629 73.5791 58.1007 73.7739 57.8896C73.9667 57.6786 72.5036 57.1753 72.5036 57.1753C72.5036 57.1753 75.7951 57.5812 75.9737 57.3174C76.1523 57.0536 74.2001 56.601 74.2001 56.601C74.2001 56.601 78.0538 56.875 78.1187 56.5889C78.1836 56.3007 76.9843 56.0998 76.9843 56.0998C76.9843 56.0998 79.0461 55.4991 79.0015 55.215C78.9588 54.9309 76.6657 55.4849 76.6657 55.4849C76.6657 55.4849 77.6154 54.6752 77.3171 54.5189C77.0188 54.3627 75.3649 55.5072 75.3649 55.5072C75.3649 55.5072 76.0427 54.592 75.7444 54.4459C75.4461 54.2998 73.5182 55.9111 73.5182 55.9111C73.5182 55.9111 74.2914 54.6691 74.0763 54.5534C73.8592 54.4378 72.1383 55.9801 72.1383 55.9801C72.1383 55.9801 72.7714 54.9695 72.5381 54.8335C72.3047 54.6975 70.732 56.254 70.732 56.254C70.732 56.254 71.2332 55.5965 70.9613 55.4179C70.7502 55.2779 69.6463 56.6558 69.1653 57.2768C66.9169 57.8815 64.6176 58.3057 62.3022 58.5411L62.3509 59.0281L62.3529 59.0261Z" fill="url(#paint44_linear_347_20807)"/>
<g style="mix-blend-mode:multiply" opacity="0.4">
<path d="M62.3306 58.8093L62.3529 59.0264C64.7252 58.7849 67.0812 58.3466 69.3825 57.7215C70.1698 57.9833 71.7486 58.4805 71.9414 58.3121C72.1992 58.0868 71.0201 57.5633 71.0201 57.5633C71.0201 57.5633 73.5791 58.101 73.7739 57.89C73.9667 57.6789 72.5035 57.1757 72.5035 57.1757C72.5035 57.1757 75.7951 57.5815 75.9737 57.3177C76.1523 57.0539 74.2001 56.6014 74.2001 56.6014C74.2001 56.6014 78.0537 56.8753 78.1187 56.5892C78.1836 56.301 76.9843 56.1001 76.9843 56.1001C76.9843 56.1001 79.0461 55.4994 79.0014 55.2153C79.0014 55.2153 73.2808 56.508 68.798 57.6404C65.5897 58.4501 63.3493 58.72 62.3306 58.8072V58.8093Z" fill="#9CB702"/>
</g>
<path d="M78.969 60.5237C79.178 60.3513 78.3967 59.4523 78.3967 59.4523C78.3967 59.4523 80.3367 60.7104 80.5315 60.5623C80.7264 60.4142 79.7705 59.3082 79.7705 59.3082C79.7705 59.3082 81.9257 60.6009 82.1976 60.4101C82.4695 60.2194 80.9536 59.0789 80.9536 59.0789C80.9536 59.0789 83.47 60.2944 83.7399 60.0935C84.0098 59.8926 82.9464 59.2412 82.9464 59.2412C82.9464 59.2412 85.2964 59.434 85.2944 59.1458C85.2944 58.8577 83.1636 58.5837 83.1636 58.5837C83.1636 58.5837 84.3183 58.1981 84.2087 57.9242C84.0991 57.6502 80.3347 58.5188 80.3347 58.5188C80.3347 58.5188 82.1936 57.7679 81.9764 57.5366C81.7593 57.3052 78.5692 58.2144 78.5692 58.2144C78.5692 58.2144 79.937 57.4919 79.7137 57.3134C79.4905 57.1348 77.0452 58.0622 77.0452 58.0622C77.0452 58.0622 78.1288 57.3621 77.8386 57.1794C77.5992 57.0272 75.7992 57.9485 75.1904 58.2692C73.2402 58.2103 71.4179 58.2935 69.6361 58.3788C67.2659 58.4924 65.0255 58.5979 62.5863 58.3706L62.5416 58.8577C65.0154 59.089 67.272 58.9815 69.6605 58.8658C71.497 58.7785 73.3741 58.6892 75.3933 58.7623C76.0143 59.3407 77.1446 60.3513 77.3191 60.193C77.5586 59.9738 76.962 59.4015 76.962 59.4015C76.962 59.4015 78.7559 60.6962 78.9669 60.5237H78.969Z" fill="url(#paint45_linear_347_20807)"/>
<g style="mix-blend-mode:multiply" opacity="0.4">
<path d="M78.969 60.5239C79.178 60.3514 78.3967 59.4524 78.3967 59.4524C78.3967 59.4524 80.3367 60.7106 80.5315 60.5624C80.7263 60.4143 79.7705 59.3083 79.7705 59.3083C79.7705 59.3083 81.9257 60.601 82.1976 60.4102C82.4695 60.2195 80.9536 59.079 80.9536 59.079C80.9536 59.079 83.47 60.2945 83.7399 60.0936C84.0098 59.8927 82.9464 59.2413 82.9464 59.2413C82.9464 59.2413 85.2964 59.4341 85.2943 59.146C83.2792 58.9106 78.8188 58.5372 74.9063 58.4682C70.9958 58.3992 68.2237 58.7421 66.0645 58.7381C64.6724 58.736 63.3351 58.7157 62.5578 58.7036L62.5436 58.8578C65.0174 59.0891 67.274 58.9816 69.6625 58.8659C71.499 58.7786 73.3761 58.6894 75.3953 58.7624C76.0163 59.3408 77.1466 60.3514 77.3211 60.1931C77.5606 59.9739 76.964 59.4016 76.964 59.4016C76.964 59.4016 78.7579 60.6964 78.969 60.5239Z" fill="#9CB702"/>
</g>
<path d="M71.9252 62.143C72.1099 62.0638 71.7608 61.1811 71.7608 61.1811C71.7608 61.1811 72.8648 62.2992 73.1022 62.2018C73.3397 62.1065 72.6984 61.173 72.6984 61.173C72.6984 61.173 73.9342 62.2445 74.1636 62.145C74.3908 62.0456 73.9667 61.522 73.9667 61.522C73.9667 61.522 75.2777 61.8853 75.3771 61.7107C75.4786 61.5342 74.33 61.1121 74.33 61.1121C74.33 61.1121 75.162 61.0005 75.1985 60.8057C75.235 60.6068 72.4427 60.6799 72.4427 60.6799C72.4427 60.6799 74.0012 60.412 73.9403 60.209C73.8795 60.0021 71.1683 60.1563 71.1683 60.1563C71.1683 60.1563 72.4995 59.8255 72.3899 59.6408C72.2783 59.4521 69.8878 59.7423 69.8878 59.7423C69.8878 59.7423 71.077 59.3628 70.8862 59.1416C70.7442 58.9752 69.1694 59.2857 68.313 59.4683C66.1701 58.8981 63.9175 58.7987 61.7299 59.1964L61.8172 59.6774C63.8668 59.306 65.9712 59.3851 67.9843 59.8904C68.4064 60.4566 69.3033 61.6194 69.5083 61.5159C69.7782 61.38 69.415 60.8463 69.415 60.8463C69.415 60.8463 70.5595 62.0537 70.7726 61.9563C70.9856 61.8589 70.6325 61.1019 70.6325 61.1019C70.6325 61.1019 71.7406 62.2262 71.9252 62.145V62.143Z" fill="url(#paint46_linear_347_20807)"/>
<g style="mix-blend-mode:multiply" opacity="0.4">
<path d="M71.9252 62.1432C72.1098 62.064 71.7608 61.1813 71.7608 61.1813C71.7608 61.1813 72.8648 62.2994 73.1022 62.202C73.3396 62.1066 72.6983 61.1731 72.6983 61.1731C72.6983 61.1731 73.9342 62.2446 74.1635 62.1452C74.3908 62.0457 73.9667 61.5222 73.9667 61.5222C73.9667 61.5222 75.166 61.855 75.3547 61.7292C74.5105 61.4633 69.2444 59.8135 67.4099 59.5111C65.5146 59.1986 63.5096 59.1458 61.7766 59.4543L61.8171 59.6775C63.8667 59.3062 65.9712 59.3853 67.9842 59.8906C68.4063 60.4568 69.3033 61.6196 69.5083 61.5161C69.7782 61.3801 69.4149 60.8464 69.4149 60.8464C69.4149 60.8464 70.5594 62.0539 70.7725 61.9565C70.9856 61.859 70.6325 61.1021 70.6325 61.1021C70.6325 61.1021 71.7405 62.2264 71.9252 62.1452V62.1432Z" fill="#9CB702"/>
</g>
<path d="M46.5972 59.2818C46.6114 58.2509 55.8367 56.2176 58.4099 56.0593C60.9831 55.901 64.5872 55.8219 64.782 58.6893C64.9869 61.7069 60.6462 61.9423 58.3998 61.6886C56.1533 61.435 46.5851 60.3777 46.5993 59.2818H46.5972Z" fill="url(#paint47_linear_347_20807)"/>
<g style="mix-blend-mode:screen" opacity="0.4">
<path d="M63.2965 57.7209C63.191 59.8071 58.1704 58.5753 58.2739 57.5789C58.4342 56.0326 63.3797 56.0853 63.2965 57.7209Z" fill="#FFE299"/>
<path d="M57.6855 57.443C57.7687 58.7154 55.3599 58.2608 55.3457 57.652C55.3213 56.7043 57.6205 56.4466 57.6855 57.443Z" fill="#FFE299"/>
</g>
<g style="mix-blend-mode:multiply" opacity="0.3">
<path d="M64.78 58.687C64.6927 57.3984 63.9134 56.7064 62.8521 56.3472C63.4244 56.682 63.816 57.1995 63.8729 58.0011C64.0494 60.4809 60.3966 60.6676 58.5053 60.4565C56.614 60.2455 48.5596 59.3607 48.5698 58.4597C48.5698 58.3339 48.7463 58.1898 49.0466 58.0356C47.6079 58.4901 46.5993 58.9386 46.5952 59.2795C46.581 60.3754 56.1493 61.4326 58.3957 61.6863C60.6422 61.94 64.9829 61.7046 64.7779 58.687H64.78Z" fill="#DB7301"/>
</g>
<g style="mix-blend-mode:multiply" opacity="0.5">
<path d="M62.5213 59.3876C62.5193 59.3349 62.5741 59.2598 62.6431 59.2598C62.7121 59.2598 62.7648 59.3146 62.7648 59.3815V59.3876C62.7648 59.5763 62.7851 59.7732 62.8054 59.9619C62.8298 60.2014 62.8561 60.453 62.844 60.6925C62.8399 60.7594 62.7831 60.8122 62.7161 60.8081C62.6491 60.8041 62.5883 60.7452 62.6004 60.6803C62.6126 60.4571 62.5883 60.2298 62.5639 59.9883C62.5436 59.7935 62.5213 59.5885 62.5213 59.3876Z" fill="#DB7301"/>
<path d="M59.2724 58.797C59.2724 58.3932 59.311 58.0015 59.3901 57.6769C59.4063 57.6119 59.4713 57.5713 59.5382 57.5876C59.6032 57.6038 59.6438 57.6687 59.6275 57.7357C59.455 58.448 59.4855 59.4951 59.7026 60.2825C59.7209 60.3474 59.6823 60.4144 59.6174 60.4327C59.5524 60.4509 59.4855 60.4124 59.4672 60.3474C59.3373 59.8807 59.2724 59.3267 59.2724 58.797Z" fill="#DB7301"/>
<path d="M56.1837 60.128C56.1837 60.0124 56.1898 59.8967 56.1959 59.7851C56.202 59.6836 56.206 59.5842 56.206 59.4929C56.206 59.4259 56.2608 59.3711 56.3278 59.3711C56.3948 59.3711 56.4496 59.4259 56.4496 59.4929C56.4496 59.5882 56.4435 59.6917 56.4394 59.7973C56.4252 60.1098 56.4069 60.4324 56.5165 60.6617C56.5449 60.7206 56.5206 60.7957 56.4597 60.8241C56.3988 60.8545 56.3258 60.8281 56.2974 60.7673C56.206 60.5785 56.1837 60.3533 56.1837 60.126V60.128Z" fill="#DB7301"/>
<path d="M53.3 58.8272C53.3 58.3544 53.365 57.8937 53.4421 57.4696C53.4543 57.4026 53.5172 57.36 53.5842 57.3701C53.6511 57.3823 53.6917 57.4473 53.6836 57.5122C53.5334 58.3381 53.4299 59.3081 53.7932 60.2152C53.8175 60.2782 53.7871 60.3492 53.7242 60.3735C53.6613 60.3979 53.5902 60.3674 53.5659 60.3045C53.369 59.8134 53.3 59.3122 53.3 58.8231V58.8272Z" fill="#DB7301"/>
<path d="M51.0719 59.8912V59.0348C51.0719 58.9679 51.1287 58.9131 51.1957 58.9131C51.2627 58.9131 51.3174 58.9679 51.3174 59.0348V59.8912C51.3174 59.9582 51.2606 60.013 51.1937 60.013C51.1267 60.013 51.0719 59.9582 51.0719 59.8912Z" fill="#DB7301"/>
<path d="M60.8532 58.034C60.8532 58.034 60.8532 58.0198 60.8532 58.0137C60.8897 57.7884 60.8897 57.5429 60.8857 57.2852C60.8816 56.9341 60.8776 56.5688 60.9831 56.2441C61.0034 56.1792 61.0724 56.1447 61.1373 56.165C61.2023 56.1853 61.2368 56.2563 61.2165 56.3192C61.1231 56.6053 61.1292 56.9524 61.1312 57.2831C61.1353 57.5429 61.1373 57.8087 61.0947 58.0543C61.0846 58.1212 61.0216 58.1659 60.9547 58.1537C60.8958 58.1436 60.8532 58.0928 60.8532 58.034Z" fill="#DB7301"/>
</g>
<path d="M27.5054 23.844C35.7363 20.8427 34.6689 14.5883 31.077 14.2555C29.8574 14.1418 28.4754 14.5274 27.5054 16.5019H27.4222C26.4095 14.4361 24.9626 14.0688 23.7268 14.2758C20.2993 14.8501 19.4875 20.9076 27.4222 23.844H27.5054Z" fill="url(#paint48_linear_347_20807)"/>
<g style="mix-blend-mode:multiply" opacity="0.3">
<path d="M31.077 14.2551C30.8579 14.2348 30.6326 14.2307 30.4074 14.249C30.4216 14.249 30.4378 14.251 30.452 14.253C33.7456 14.5574 34.7257 20.2943 27.1767 23.0461H27.0996C20.4576 20.5886 20.5002 15.7446 22.9496 14.5189C20.2242 15.8095 20.1289 21.1466 27.4202 23.8436H27.5034C35.7343 20.8422 34.6669 14.5879 31.075 14.2551H31.077Z" fill="#91001B"/>
</g>
<path d="M27.1036 22.4922C27.0143 22.4922 26.9352 22.4333 26.9088 22.3481L26.0119 19.3934L25.7846 19.9291C25.7521 20.0042 25.679 20.0529 25.5979 20.0529H20.8939C20.7823 20.0529 20.691 19.9616 20.691 19.85C20.691 19.7384 20.7823 19.6471 20.8939 19.6471H25.4639L25.8576 18.7197C25.8901 18.6405 25.9692 18.5898 26.0545 18.5959C26.1397 18.5999 26.2128 18.6588 26.2371 18.74L27.0326 21.3598L27.6414 17.1632C27.6556 17.0698 27.7327 16.9968 27.8261 16.9907C27.9214 16.9846 28.0067 17.0414 28.0351 17.1327L28.9442 20.059L29.0538 19.7769C29.0842 19.6978 29.1593 19.6471 29.2425 19.6471H34.123C34.2347 19.6471 34.326 19.7384 34.326 19.85C34.326 19.9616 34.2347 20.0529 34.123 20.0529H29.3826L29.1147 20.751C29.0842 20.8322 29.0051 20.8829 28.9178 20.8809C28.8306 20.8789 28.7555 20.82 28.7311 20.7388L27.9133 18.1088L27.3025 22.3176C27.2883 22.411 27.2112 22.484 27.1178 22.4901C27.1117 22.4901 27.1077 22.4901 27.1016 22.4901L27.1036 22.4922Z" fill="white"/>
<path d="M27.2355 6.84609C27.2355 6.84609 26.576 8.09818 25.2245 8.11645C23.8729 8.13471 22.3367 6.91103 22.3367 6.91103C22.3367 6.91103 24.0109 5.64474 25.192 5.63053C26.3751 5.6143 27.2355 6.84812 27.2355 6.84812V6.84609Z" fill="#B699FF"/>
<path d="M27.2355 6.84649C27.2355 6.84649 26.0118 7.21583 25.0215 6.14029C24.0312 5.06475 23.6476 2.9502 23.6476 2.9502C23.6476 2.9502 25.6141 3.3865 26.4785 4.3281C27.3451 5.26768 27.2335 6.84649 27.2335 6.84649H27.2355Z" fill="#B699FF"/>
<path d="M27.2984 6.84609C27.2984 6.84609 28.5323 7.18296 29.4921 6.08306C30.454 4.98317 30.7807 2.85645 30.7807 2.85645C30.7807 2.85645 28.8265 3.34348 27.9864 4.30741C27.1462 5.26931 27.2984 6.84609 27.2984 6.84609Z" fill="#B699FF"/>
<path d="M27.2355 6.84613C27.2355 6.84613 26.1559 6.07499 26.1356 4.50429C26.1153 2.9336 27.1624 1.15186 27.1624 1.15186C27.1624 1.15186 28.2583 3.10203 28.2765 4.47588C28.2948 5.84973 27.2375 6.84613 27.2375 6.84613H27.2355Z" fill="#B699FF"/>
<path d="M27.2903 6.77935C27.2903 6.77935 27.9498 5.52726 29.3013 5.50899C30.6529 5.49073 32.1891 6.71441 32.1891 6.71441C32.1891 6.71441 30.5149 7.9807 29.3338 7.99491C28.1527 8.00911 27.2903 6.77732 27.2903 6.77732V6.77935Z" fill="#B699FF"/>
<path d="M26.7302 7.00639C26.2594 7.00639 25.5573 6.87245 24.9464 6.20886C23.948 5.12521 23.5645 3.0553 23.5482 2.96804L23.5219 2.81787L23.67 2.85034C23.7512 2.8686 25.677 3.30491 26.5537 4.25869C27.4384 5.22059 27.339 6.78722 27.3349 6.85419L27.3309 6.92319L27.2639 6.94348C27.2639 6.94348 27.0468 7.00639 26.7302 7.00639ZM23.7796 3.08777C23.8892 3.59104 24.291 5.19826 25.0946 6.0729C25.9083 6.95566 26.8702 6.82375 27.134 6.76693C27.1422 6.45035 27.1259 5.18 26.4035 4.39668C25.7074 3.63975 24.2524 3.21156 23.7775 3.08777H23.7796Z" fill="#DAC4FF"/>
<path d="M27.7428 6.99235C27.4608 6.99235 27.2761 6.94364 27.272 6.94364L27.2051 6.92538L27.199 6.85638C27.1929 6.78941 27.0529 5.22684 27.9133 4.24262C28.7656 3.26651 30.6793 2.77948 30.7604 2.75918L30.9086 2.72266L30.8863 2.87283C30.8721 2.96009 30.5413 5.04014 29.5733 6.15018C28.9543 6.86044 28.2157 6.99437 27.7469 6.99437L27.7428 6.99235ZM27.3958 6.76303C27.6617 6.81377 28.6276 6.91929 29.417 6.01624C30.1983 5.12131 30.5575 3.50394 30.6549 2.99864C30.1821 3.13461 28.7392 3.60338 28.0655 4.37655C27.3634 5.18016 27.3796 6.45052 27.3958 6.76506V6.76303Z" fill="#DAC4FF"/>
<g style="mix-blend-mode:multiply" opacity="0.2">
<path d="M29.2932 7.25821C28.0249 7.27445 27.1848 6.78132 27.1848 6.78132C27.1848 6.78132 28.035 8.10444 29.3034 8.0882C30.5717 8.07197 32.3676 6.71436 32.3676 6.71436C32.3676 6.71436 30.5615 7.24198 29.2932 7.25821Z" fill="#360D82"/>
</g>
<g style="mix-blend-mode:multiply" opacity="0.2">
<path d="M25.2955 7.34334C26.5273 7.34131 27.3288 6.83398 27.3288 6.83398C27.3288 6.83398 26.5374 8.18145 25.3056 8.17131C23.7045 8.16116 22.2982 6.84413 22.2982 6.84413C22.2982 6.84413 24.0637 7.34537 25.2955 7.34131V7.34334Z" fill="#360D82"/>
</g>
<g style="mix-blend-mode:multiply" opacity="0.2">
<path d="M30.2775 4.97317C29.2466 4.92041 28.6175 5.20654 28.6175 5.20654C28.8651 4.53686 28.7738 3.81646 28.7332 3.58105C28.581 3.67237 28.4328 3.77181 28.2948 3.87936C28.3354 4.09853 28.3598 4.31364 28.3618 4.51454C28.3679 4.97926 28.2603 5.40338 28.1102 5.76663C28.4227 5.57588 28.8103 5.43382 29.273 5.42774C29.5165 5.42368 29.7661 5.46021 30.0116 5.51906C30.109 5.3425 30.1963 5.15987 30.2755 4.97317H30.2775Z" fill="#360D82"/>
</g>
<path d="M29.3115 8.09811C28.102 8.09811 27.2436 6.88863 27.2071 6.8379L27.1726 6.78716L27.201 6.73237C27.2294 6.67961 27.9052 5.42549 29.3014 5.40723C29.3115 5.40723 29.3217 5.40723 29.3318 5.40723C30.6955 5.40723 32.1911 6.58423 32.254 6.63497L32.3555 6.71614L32.252 6.79528C32.183 6.84804 30.5372 8.08187 29.3359 8.09608C29.3277 8.09608 29.3196 8.09608 29.3115 8.09608V8.09811ZM27.4121 6.77296C27.5886 7.00024 28.3516 7.90126 29.3338 7.89517C30.2998 7.883 31.6331 6.98807 32.0207 6.71411C31.6513 6.44421 30.3972 5.59798 29.3034 5.61016C28.1852 5.62436 27.5562 6.53756 27.4121 6.77093V6.77296Z" fill="#DAC4FF"/>
<g style="mix-blend-mode:multiply" opacity="0.2">
<path d="M26.1702 3.92424C26.0078 3.79639 25.8252 3.68072 25.6364 3.5752H25.6263C25.5553 4.41533 25.8373 5.28388 25.8373 5.28388C25.1494 4.92672 24.2606 5.17024 24.2606 5.17024L24.2707 5.20271C24.36 5.38535 24.4594 5.56393 24.569 5.73033C24.7821 5.66945 24.9931 5.63293 25.19 5.6309C25.6851 5.62481 26.1255 5.83789 26.4685 6.08749L26.5172 6.09561V5.99009C26.3122 5.61872 26.1417 5.12357 26.1336 4.50665C26.1316 4.3159 26.1438 4.12108 26.1702 3.92627V3.92424Z" fill="#360D82"/>
</g>
<path d="M25.194 8.21782C23.8303 8.21782 22.3347 7.04081 22.2718 6.99008L22.1703 6.90891L22.2738 6.82976C22.3428 6.777 23.9886 5.54317 25.1899 5.52897C26.4075 5.51273 27.2821 6.73641 27.3187 6.78918L27.3532 6.83991L27.3248 6.8947C27.2963 6.94746 26.6206 8.20158 25.2244 8.21985C25.2143 8.21985 25.2041 8.21985 25.194 8.21985V8.21782ZM22.5051 6.91094C22.8704 7.17881 24.1022 8.01489 25.194 8.01489C25.2041 8.01489 25.2122 8.01489 25.2224 8.01489C26.3405 8.00068 26.9696 7.08749 27.1137 6.85411C26.9392 6.62886 26.1823 5.7319 25.2122 5.7319C25.2062 5.7319 25.198 5.7319 25.1919 5.7319C24.226 5.74408 22.8927 6.63901 22.5051 6.91297V6.91094Z" fill="#DAC4FF"/>
<path d="M27.2436 6.97833L27.1766 6.92963C27.1299 6.89716 26.0544 6.10978 26.0341 4.50662C26.0138 2.92578 27.0305 1.1765 27.0752 1.10142L27.1644 0.949219L27.2517 1.10345C27.2964 1.18462 28.3597 3.09218 28.378 4.47618C28.3962 5.87844 27.3511 6.87889 27.3065 6.92151L27.2456 6.97833H27.2436ZM27.1584 1.36523C26.9088 1.834 26.2188 3.24844 26.235 4.50256C26.2513 5.779 26.996 6.51159 27.2253 6.70843C27.4465 6.47303 28.1852 5.59839 28.171 4.47618C28.1568 3.3702 27.4161 1.85632 27.1584 1.3632V1.36523Z" fill="#DAC4FF"/>
<defs>
<linearGradient id="paint0_linear_347_20807" x1="55.5953" y1="28.2457" x2="55.5953" y2="59.1522" gradientUnits="userSpaceOnUse">
<stop stop-color="#0E8DC8"/>
<stop offset="0.46" stop-color="#2DB8E3"/>
<stop offset="0.6" stop-color="#2AB4E0"/>
<stop offset="0.74" stop-color="#21A8D9"/>
<stop offset="0.87" stop-color="#1395CD"/>
<stop offset="1" stop-color="#017BBD"/>
</linearGradient>
<linearGradient id="paint1_linear_347_20807" x1="50.9826" y1="47.0329" x2="60.1268" y2="47.0329" gradientUnits="userSpaceOnUse">
<stop stop-color="#30C2F0"/>
<stop offset="0.47" stop-color="#1BA6DF"/>
<stop offset="1" stop-color="#0183CA"/>
</linearGradient>
<linearGradient id="paint2_linear_347_20807" x1="52.5402" y1="29.3475" x2="58.9644" y2="29.3475" gradientUnits="userSpaceOnUse">
<stop stop-color="#CFD5EC"/>
<stop offset="0.05" stop-color="#D4D8EE"/>
<stop offset="0.19" stop-color="#DDDFF3"/>
<stop offset="0.37" stop-color="#E1E2F5"/>
<stop offset="0.72" stop-color="#BFCBE4"/>
<stop offset="1" stop-color="#A2B8D6"/>
</linearGradient>
<linearGradient id="paint3_linear_347_20807" x1="50.5727" y1="44.8496" x2="60.6178" y2="44.8496" gradientUnits="userSpaceOnUse">
<stop stop-color="#E1E2F5"/>
<stop offset="0.56" stop-color="#BFCBE4"/>
<stop offset="1" stop-color="#A2B8D6"/>
</linearGradient>
<linearGradient id="paint4_linear_347_20807" x1="66.1379" y1="29.9695" x2="62.3441" y2="38.4387" gradientUnits="userSpaceOnUse">
<stop stop-color="#E6CA2E"/>
<stop offset="0.28" stop-color="#E3BF25"/>
<stop offset="0.77" stop-color="#DEA10D"/>
<stop offset="1" stop-color="#DB9200"/>
</linearGradient>
<linearGradient id="paint5_linear_347_20807" x1="56.0903" y1="22.1889" x2="58.0426" y2="27.1282" gradientUnits="userSpaceOnUse">
<stop stop-color="#A2C935"/>
<stop offset="0.25" stop-color="#A5C934"/>
<stop offset="0.49" stop-color="#B1C933"/>
<stop offset="0.72" stop-color="#C4C931"/>
<stop offset="0.95" stop-color="#DEC92E"/>
<stop offset="1" stop-color="#E6CA2E"/>
</linearGradient>
<linearGradient id="paint6_linear_347_20807" x1="2.8094" y1="42.367" x2="8.65316" y2="51.9594" gradientUnits="userSpaceOnUse">
<stop stop-color="#9EC42C"/>
<stop offset="0.29" stop-color="#9BC12B"/>
<stop offset="0.49" stop-color="#91BA29"/>
<stop offset="0.66" stop-color="#82AD26"/>
<stop offset="0.82" stop-color="#6C9B21"/>
<stop offset="0.97" stop-color="#50851C"/>
<stop offset="1" stop-color="#4A801B"/>
</linearGradient>
<radialGradient id="paint7_radial_347_20807" cx="0" cy="0" r="1" gradientUnits="userSpaceOnUse" gradientTransform="translate(5.47771 53.8046) rotate(-27.51) scale(7.3847)">
<stop stop-color="#C3DE2C"/>
<stop offset="0.28" stop-color="#B8D623"/>
<stop offset="0.76" stop-color="#9AC30D"/>
<stop offset="1" stop-color="#8AB801"/>
</radialGradient>
<linearGradient id="paint8_linear_347_20807" x1="12.9166" y1="39.1042" x2="12.9166" y2="60.0935" gradientUnits="userSpaceOnUse">
<stop stop-color="#544140"/>
<stop offset="0.53" stop-color="#503D3C"/>
<stop offset="1" stop-color="#463332"/>
</linearGradient>
<linearGradient id="paint9_linear_347_20807" x1="24.9607" y1="39.1042" x2="24.9607" y2="60.0935" gradientUnits="userSpaceOnUse">
<stop stop-color="#544140"/>
<stop offset="0.53" stop-color="#503D3C"/>
<stop offset="1" stop-color="#463332"/>
</linearGradient>
<linearGradient id="paint10_linear_347_20807" x1="12.5017" y1="41.3898" x2="25.4427" y2="56.9101" gradientUnits="userSpaceOnUse">
<stop stop-color="#EC8E43"/>
<stop offset="0.21" stop-color="#F6AB5B"/>
<stop offset="0.38" stop-color="#FCBC6A"/>
<stop offset="0.51" stop-color="#FFC370"/>
<stop offset="1" stop-color="#E57830"/>
</linearGradient>
<linearGradient id="paint11_linear_347_20807" x1="13.2373" y1="41.9291" x2="24.6745" y2="56.3312" gradientUnits="userSpaceOnUse">
<stop stop-color="#E57830"/>
<stop offset="1" stop-color="#FFD782"/>
</linearGradient>
<linearGradient id="paint12_linear_347_20807" x1="9.94296" y1="36.8825" x2="11.099" y2="38.5971" gradientUnits="userSpaceOnUse">
<stop stop-color="#544140"/>
<stop offset="0.53" stop-color="#503D3C"/>
<stop offset="1" stop-color="#463332"/>
</linearGradient>
<linearGradient id="paint13_linear_347_20807" x1="10.4193" y1="37.5667" x2="13.0093" y2="41.4081" gradientUnits="userSpaceOnUse">
<stop stop-color="#FFC370"/>
<stop offset="1" stop-color="#E57830"/>
</linearGradient>
<linearGradient id="paint14_linear_347_20807" x1="27.8869" y1="36.9002" x2="26.7127" y2="38.6023" gradientUnits="userSpaceOnUse">
<stop stop-color="#544140"/>
<stop offset="0.53" stop-color="#503D3C"/>
<stop offset="1" stop-color="#463332"/>
</linearGradient>
<linearGradient id="paint15_linear_347_20807" x1="27.4217" y1="37.5921" x2="24.7909" y2="41.4056" gradientUnits="userSpaceOnUse">
<stop stop-color="#FFC370"/>
<stop offset="1" stop-color="#E57830"/>
</linearGradient>
<linearGradient id="paint16_linear_347_20807" x1="30.4175" y1="38.4224" x2="30.4175" y2="46.3935" gradientUnits="userSpaceOnUse">
<stop stop-color="#A2B744"/>
<stop offset="0.08" stop-color="#B5C949"/>
<stop offset="0.17" stop-color="#C2D54C"/>
<stop offset="0.28" stop-color="#C9DC4E"/>
<stop offset="0.52" stop-color="#CCDF4F"/>
<stop offset="0.65" stop-color="#C8DB4E"/>
<stop offset="0.77" stop-color="#BED14B"/>
<stop offset="0.88" stop-color="#ACBF46"/>
<stop offset="0.98" stop-color="#93A63F"/>
<stop offset="1" stop-color="#8EA13E"/>
</linearGradient>
<linearGradient id="paint17_linear_347_20807" x1="49.258" y1="59.1929" x2="49.2751" y2="56.4777" gradientUnits="userSpaceOnUse">
<stop stop-color="#FFB182"/>
<stop offset="0.21" stop-color="#FDA97C"/>
<stop offset="0.52" stop-color="#F7966B"/>
<stop offset="0.88" stop-color="#EF7650"/>
<stop offset="1" stop-color="#EC6B47"/>
</linearGradient>
<linearGradient id="paint18_linear_347_20807" x1="45.262" y1="27.0949" x2="45.262" y2="56.8934" gradientUnits="userSpaceOnUse">
<stop stop-color="#8AC5D5"/>
<stop offset="1" stop-color="#568998"/>
</linearGradient>
<linearGradient id="paint19_linear_347_20807" x1="43.6507" y1="46.0667" x2="38.9102" y2="42.8198" gradientUnits="userSpaceOnUse">
<stop stop-color="#FFB182"/>
<stop offset="0.21" stop-color="#FDA97C"/>
<stop offset="0.52" stop-color="#F7966B"/>
<stop offset="0.88" stop-color="#EF7650"/>
<stop offset="1" stop-color="#EC6B47"/>
</linearGradient>
<linearGradient id="paint20_linear_347_20807" x1="37.8671" y1="27.0969" x2="37.8671" y2="58.734" gradientUnits="userSpaceOnUse">
<stop stop-color="#8AC5D5"/>
<stop offset="1" stop-color="#568998"/>
</linearGradient>
<linearGradient id="paint21_linear_347_20807" x1="39.2856" y1="28.3082" x2="39.2856" y2="13.0336" gradientUnits="userSpaceOnUse">
<stop stop-color="#FFB182"/>
<stop offset="0.22" stop-color="#FCA87A"/>
<stop offset="0.57" stop-color="#F69167"/>
<stop offset="1" stop-color="#EC6B47"/>
</linearGradient>
<linearGradient id="paint22_linear_347_20807" x1="46.8611" y1="-0.345743" x2="46.8611" y2="14.6124" gradientUnits="userSpaceOnUse">
<stop stop-color="#DC874E"/>
<stop offset="0.25" stop-color="#C37441"/>
<stop offset="0.75" stop-color="#97522B"/>
<stop offset="1" stop-color="#864623"/>
</linearGradient>
<linearGradient id="paint23_linear_347_20807" x1="46.2705" y1="-0.146663" x2="46.2705" y2="9.87006" gradientUnits="userSpaceOnUse">
<stop stop-color="#DC874E"/>
<stop offset="0.25" stop-color="#C37441"/>
<stop offset="0.75" stop-color="#97522B"/>
<stop offset="1" stop-color="#864623"/>
</linearGradient>
<linearGradient id="paint24_linear_347_20807" x1="44.1337" y1="13.4373" x2="44.1337" y2="7.73082" gradientUnits="userSpaceOnUse">
<stop stop-color="#FFB182"/>
<stop offset="0.22" stop-color="#FDAC7E"/>
<stop offset="0.48" stop-color="#FA9E72"/>
<stop offset="0.74" stop-color="#F4885F"/>
<stop offset="1" stop-color="#EC6B47"/>
</linearGradient>
<linearGradient id="paint25_linear_347_20807" x1="43.7948" y1="14.1458" x2="43.7948" y2="6.77125" gradientUnits="userSpaceOnUse">
<stop stop-color="#FFB182"/>
<stop offset="0.22" stop-color="#FDAC7E"/>
<stop offset="0.48" stop-color="#FA9E72"/>
<stop offset="0.74" stop-color="#F4885F"/>
<stop offset="1" stop-color="#EC6B47"/>
</linearGradient>
<linearGradient id="paint26_linear_347_20807" x1="40.4502" y1="0.136534" x2="41.1681" y2="10.1275" gradientUnits="userSpaceOnUse">
<stop stop-color="#DC874E"/>
<stop offset="0.25" stop-color="#C37441"/>
<stop offset="0.75" stop-color="#97522B"/>
<stop offset="1" stop-color="#864623"/>
</linearGradient>
<linearGradient id="paint27_linear_347_20807" x1="43.6507" y1="2.03722" x2="41.0788" y2="13.8034" gradientUnits="userSpaceOnUse">
<stop stop-color="#FFB182"/>
<stop offset="0.22" stop-color="#FDAC7E"/>
<stop offset="0.48" stop-color="#FA9E72"/>
<stop offset="0.74" stop-color="#F4885F"/>
<stop offset="1" stop-color="#EC6B47"/>
</linearGradient>
<linearGradient id="paint28_linear_347_20807" x1="46.7391" y1="2.17096" x2="45.2207" y2="14.1905" gradientUnits="userSpaceOnUse">
<stop stop-color="#FFB182"/>
<stop offset="0.22" stop-color="#FDAC7E"/>
<stop offset="0.48" stop-color="#FA9E72"/>
<stop offset="0.74" stop-color="#F4885F"/>
<stop offset="1" stop-color="#EC6B47"/>
</linearGradient>
<linearGradient id="paint29_linear_347_20807" x1="43.8068" y1="1.20266" x2="43.6759" y2="4.97086" gradientUnits="userSpaceOnUse">
<stop stop-color="#DC874E"/>
<stop offset="0.25" stop-color="#C37441"/>
<stop offset="0.75" stop-color="#97522B"/>
<stop offset="1" stop-color="#864623"/>
</linearGradient>
<linearGradient id="paint30_linear_347_20807" x1="40.656" y1="1.27281" x2="40.5181" y2="4.60413" gradientUnits="userSpaceOnUse">
<stop stop-color="#DC874E"/>
<stop offset="0.25" stop-color="#C37441"/>
<stop offset="0.75" stop-color="#97522B"/>
<stop offset="1" stop-color="#864623"/>
</linearGradient>
<linearGradient id="paint31_linear_347_20807" x1="45.6495" y1="-0.146709" x2="45.6495" y2="9.87001" gradientUnits="userSpaceOnUse">
<stop stop-color="#DC874E"/>
<stop offset="0.25" stop-color="#C37441"/>
<stop offset="0.75" stop-color="#97522B"/>
<stop offset="1" stop-color="#864623"/>
</linearGradient>
<linearGradient id="paint32_linear_347_20807" x1="44.5436" y1="-0.12043" x2="44.5436" y2="9.85368" gradientUnits="userSpaceOnUse">
<stop stop-color="#DC874E"/>
<stop offset="0.25" stop-color="#C37441"/>
<stop offset="0.75" stop-color="#97522B"/>
<stop offset="1" stop-color="#864623"/>
</linearGradient>
<linearGradient id="paint33_linear_347_20807" x1="41.1972" y1="17.3887" x2="56.0093" y2="17.3887" gradientUnits="userSpaceOnUse">
<stop stop-color="#FFB182"/>
<stop offset="0.22" stop-color="#FDAC7E"/>
<stop offset="0.48" stop-color="#F99E72"/>
<stop offset="0.75" stop-color="#F3875F"/>
<stop offset="1" stop-color="#EC6B47"/>
</linearGradient>
<linearGradient id="paint34_linear_347_20807" x1="39.2755" y1="26.2707" x2="39.2755" y2="12.0066" gradientUnits="userSpaceOnUse">
<stop stop-color="#FFB182"/>
<stop offset="0.22" stop-color="#FDAC7E"/>
<stop offset="0.48" stop-color="#F99E72"/>
<stop offset="0.75" stop-color="#F3875F"/>
<stop offset="1" stop-color="#EC6B47"/>
</linearGradient>
<linearGradient id="paint35_linear_347_20807" x1="42.3559" y1="26.3543" x2="42.3559" y2="11.7979" gradientUnits="userSpaceOnUse">
<stop stop-color="#FFB182"/>
<stop offset="0.22" stop-color="#FDAC7E"/>
<stop offset="0.48" stop-color="#F99E72"/>
<stop offset="0.75" stop-color="#F3875F"/>
<stop offset="1" stop-color="#EC6B47"/>
</linearGradient>
<linearGradient id="paint36_linear_347_20807" x1="42.1927" y1="14.205" x2="44.7204" y2="32.3474" gradientUnits="userSpaceOnUse">
<stop stop-color="#FFB182"/>
<stop offset="0.33" stop-color="#FEAE7F"/>
<stop offset="0.54" stop-color="#FBA578"/>
<stop offset="0.71" stop-color="#F7966B"/>
<stop offset="0.87" stop-color="#F2825A"/>
<stop offset="1" stop-color="#EC6B47"/>
</linearGradient>
<linearGradient id="paint37_linear_347_20807" x1="43.2119" y1="-0.416461" x2="43.483" y2="10.8349" gradientUnits="userSpaceOnUse">
<stop stop-color="#DC874E"/>
<stop offset="0.25" stop-color="#C37441"/>
<stop offset="0.75" stop-color="#97522B"/>
<stop offset="1" stop-color="#864623"/>
</linearGradient>
<linearGradient id="paint38_linear_347_20807" x1="68.9933" y1="40.5919" x2="68.9838" y2="58.6609" gradientUnits="userSpaceOnUse">
<stop stop-color="#7F5AC5"/>
<stop offset="0.03" stop-color="#845FCA"/>
<stop offset="0.19" stop-color="#9C77DF"/>
<stop offset="0.34" stop-color="#AA85EC"/>
<stop offset="0.47" stop-color="#AF8AF1"/>
<stop offset="0.57" stop-color="#AA85EC"/>
<stop offset="0.69" stop-color="#9D77E0"/>
<stop offset="0.81" stop-color="#8761CC"/>
<stop offset="0.94" stop-color="#6A42B0"/>
<stop offset="1" stop-color="#5931A1"/>
</linearGradient>
<linearGradient id="paint39_linear_347_20807" x1="39.0481" y1="48.8659" x2="32.7672" y2="62.1232" gradientUnits="userSpaceOnUse">
<stop stop-color="#D2398F"/>
<stop offset="0.2" stop-color="#C93285"/>
<stop offset="0.54" stop-color="#B11F6B"/>
<stop offset="0.98" stop-color="#8B0041"/>
<stop offset="0.99" stop-color="#8A0040"/>
</linearGradient>
<linearGradient id="paint40_linear_347_20807" x1="34.6285" y1="50.5525" x2="34.6133" y2="65.05" gradientUnits="userSpaceOnUse">
<stop stop-color="#E950A5"/>
<stop offset="0.2" stop-color="#DF469B"/>
<stop offset="0.53" stop-color="#C52D81"/>
<stop offset="0.96" stop-color="#9B0458"/>
<stop offset="0.99" stop-color="#980155"/>
</linearGradient>
<linearGradient id="paint41_linear_347_20807" x1="31.9568" y1="53.4058" x2="32.0095" y2="56.5319" gradientUnits="userSpaceOnUse">
<stop stop-color="#D2398F"/>
<stop offset="0.2" stop-color="#C93285"/>
<stop offset="0.54" stop-color="#B11F6B"/>
<stop offset="0.98" stop-color="#8B0041"/>
<stop offset="0.99" stop-color="#8A0040"/>
</linearGradient>
<linearGradient id="paint42_linear_347_20807" x1="31.0971" y1="48.8221" x2="24.7693" y2="62.1785" gradientUnits="userSpaceOnUse">
<stop stop-color="#D2398F"/>
<stop offset="0.2" stop-color="#C93285"/>
<stop offset="0.54" stop-color="#B11F6B"/>
<stop offset="0.98" stop-color="#8B0041"/>
<stop offset="0.99" stop-color="#8A0040"/>
</linearGradient>
<linearGradient id="paint43_linear_347_20807" x1="26.5494" y1="50.5625" x2="26.5343" y2="65.0599" gradientUnits="userSpaceOnUse">
<stop stop-color="#E950A5"/>
<stop offset="0.2" stop-color="#DF469B"/>
<stop offset="0.53" stop-color="#C52D81"/>
<stop offset="0.96" stop-color="#9B0458"/>
<stop offset="0.99" stop-color="#980155"/>
</linearGradient>
<linearGradient id="paint44_linear_347_20807" x1="85.4295" y1="56.7584" x2="63.7787" y2="56.7206" gradientUnits="userSpaceOnUse">
<stop stop-color="#9EC42C"/>
<stop offset="0.29" stop-color="#9BC12B"/>
<stop offset="0.49" stop-color="#91BA29"/>
<stop offset="0.66" stop-color="#82AD26"/>
<stop offset="0.82" stop-color="#6C9B21"/>
<stop offset="0.97" stop-color="#50851C"/>
<stop offset="1" stop-color="#4A801B"/>
</linearGradient>
<linearGradient id="paint45_linear_347_20807" x1="85.4257" y1="58.8771" x2="63.775" y2="58.8393" gradientUnits="userSpaceOnUse">
<stop stop-color="#9EC42C"/>
<stop offset="0.29" stop-color="#9BC12B"/>
<stop offset="0.49" stop-color="#91BA29"/>
<stop offset="0.66" stop-color="#82AD26"/>
<stop offset="0.82" stop-color="#6C9B21"/>
<stop offset="0.97" stop-color="#50851C"/>
<stop offset="1" stop-color="#4A801B"/>
</linearGradient>
<linearGradient id="paint46_linear_347_20807" x1="85.4227" y1="60.6099" x2="63.772" y2="60.5721" gradientUnits="userSpaceOnUse">
<stop stop-color="#9EC42C"/>
<stop offset="0.29" stop-color="#9BC12B"/>
<stop offset="0.49" stop-color="#91BA29"/>
<stop offset="0.66" stop-color="#82AD26"/>
<stop offset="0.82" stop-color="#6C9B21"/>
<stop offset="0.97" stop-color="#50851C"/>
<stop offset="1" stop-color="#4A801B"/>
</linearGradient>
<linearGradient id="paint47_linear_347_20807" x1="65.3746" y1="59.3118" x2="44.3792" y2="57.6336" gradientUnits="userSpaceOnUse">
<stop stop-color="#DCA22C"/>
<stop offset="0.32" stop-color="#DB9722"/>
<stop offset="0.88" stop-color="#DB7907"/>
<stop offset="1" stop-color="#DB7301"/>
</linearGradient>
<linearGradient id="paint48_linear_347_20807" x1="27.5094" y1="7.69875" x2="27.5094" y2="30.3581" gradientUnits="userSpaceOnUse">
<stop stop-color="#FF396E"/>
<stop offset="0.23" stop-color="#F43268"/>
<stop offset="0.62" stop-color="#D62258"/>
<stop offset="1" stop-color="#B51047"/>
</linearGradient>
</defs>
</svg>
