<svg width="187" height="198" viewBox="0 0 187 198" fill="none" xmlns="http://www.w3.org/2000/svg">
<path d="M182.964 197.612C181.39 197.612 180.253 197.222 179.554 196.442C178.854 195.662 178.504 194.404 178.504 192.669V190.974H181.914V193.133C181.914 193.994 182.19 194.424 182.742 194.424C183.051 194.424 183.266 194.337 183.387 194.162C183.508 193.974 183.569 193.664 183.569 193.234C183.569 192.669 183.502 192.205 183.367 191.841C183.233 191.465 183.058 191.155 182.843 190.913C182.641 190.658 182.271 190.268 181.733 189.743L180.24 188.25C179.083 187.12 178.504 185.869 178.504 184.497C178.504 183.017 178.841 181.894 179.513 181.127C180.199 180.347 181.195 179.957 182.5 179.957C184.06 179.957 185.183 180.374 185.869 181.208C186.555 182.028 186.898 183.32 186.898 185.082H183.367L183.347 183.892C183.347 183.663 183.28 183.481 183.145 183.347C183.024 183.212 182.849 183.145 182.621 183.145C182.352 183.145 182.15 183.219 182.015 183.367C181.881 183.515 181.813 183.717 181.813 183.972C181.813 184.537 182.136 185.122 182.782 185.728L184.8 187.665C185.271 188.122 185.661 188.559 185.97 188.976C186.279 189.38 186.528 189.864 186.717 190.429C186.905 190.981 186.999 191.64 186.999 192.406C186.999 194.115 186.683 195.413 186.051 196.301C185.432 197.175 184.403 197.612 182.964 197.612Z" fill="#505A61"/>
<path d="M170.828 197.451V180.118H174.298V194.505H177.87V197.451H170.828Z" fill="#505A61"/>
<path d="M160.57 197.451L162.245 180.118H168.117L169.771 197.451H166.482L166.24 194.646H164.142L163.94 197.451H160.57ZM164.404 191.882H165.978L165.211 183.064H165.05L164.404 191.882Z" fill="#505A61"/>
<path d="M150.985 197.451V180.118H154.557L156.151 188.411V180.118H159.5V197.451H156.11L154.375 188.775V197.451H150.985Z" fill="#505A61"/>
<path d="M141.369 180.118H146.696C147.544 180.118 148.196 180.314 148.653 180.704C149.124 181.08 149.44 181.618 149.602 182.318C149.763 183.004 149.844 183.885 149.844 184.961C149.844 185.943 149.716 186.71 149.461 187.261C149.205 187.813 148.761 188.196 148.129 188.411C148.653 188.519 149.03 188.781 149.259 189.198C149.501 189.615 149.622 190.18 149.622 190.893L149.582 197.451H146.192V190.671C146.192 190.187 146.098 189.878 145.909 189.743C145.721 189.609 145.378 189.541 144.88 189.541V197.451H141.369V180.118ZM145.728 186.535C146.212 186.535 146.454 186.01 146.454 184.961C146.454 184.504 146.434 184.161 146.394 183.932C146.353 183.703 146.279 183.549 146.172 183.468C146.064 183.374 145.909 183.327 145.708 183.327H144.9V186.535H145.728Z" fill="#505A61"/>
<path d="M135.828 197.612C134.402 197.612 133.34 197.209 132.64 196.402C131.954 195.595 131.611 194.397 131.611 192.81V180.118H134.981V192.669C134.981 193.22 135.034 193.651 135.142 193.96C135.25 194.27 135.478 194.424 135.828 194.424C136.178 194.424 136.406 194.276 136.514 193.98C136.622 193.671 136.676 193.234 136.676 192.669V180.118H140.045V192.81C140.045 194.397 139.695 195.595 138.996 196.402C138.31 197.209 137.254 197.612 135.828 197.612Z" fill="#505A61"/>
<path d="M126.136 197.612C124.737 197.612 123.675 197.188 122.948 196.341C122.222 195.48 121.859 194.276 121.859 192.729V184.477C121.859 182.984 122.222 181.86 122.948 181.107C123.675 180.34 124.737 179.957 126.136 179.957C127.535 179.957 128.598 180.34 129.324 181.107C130.051 181.86 130.414 182.984 130.414 184.477V192.729C130.414 194.29 130.051 195.494 129.324 196.341C128.598 197.188 127.535 197.612 126.136 197.612ZM126.136 194.424C126.446 194.424 126.654 194.29 126.762 194.021C126.869 193.752 126.923 193.375 126.923 192.891V184.416C126.923 184.039 126.869 183.737 126.762 183.508C126.668 183.266 126.466 183.145 126.156 183.145C125.578 183.145 125.289 183.582 125.289 184.456V192.911C125.289 193.409 125.349 193.785 125.47 194.041C125.591 194.296 125.813 194.424 126.136 194.424Z" fill="#505A61"/>
<path d="M116.455 197.612C115.661 197.612 114.941 197.458 114.296 197.148C113.65 196.839 113.139 196.388 112.762 195.796C112.399 195.191 112.217 194.465 112.217 193.617V189.279H115.627V193.415C115.627 193.725 115.688 193.974 115.809 194.162C115.944 194.337 116.145 194.424 116.414 194.424C116.67 194.424 116.858 194.344 116.979 194.182C117.114 194.007 117.181 193.765 117.181 193.456V180.118H120.672V193.113C120.672 194.014 120.49 194.808 120.127 195.494C119.777 196.166 119.28 196.691 118.634 197.068C118.002 197.431 117.275 197.612 116.455 197.612Z" fill="#505A61"/>
<path d="M97.8026 197.451V180.118H101.253V186.313H102.887V180.118H106.338V197.451H102.887V189.582H101.253V197.451H97.8026Z" fill="#505A61"/>
<path d="M91.2958 197.451V183.448H89.2377V180.118H96.8244V183.448H94.7663V197.451H91.2958Z" fill="#505A61"/>
<path d="M85.0697 197.451V180.118H88.4192V197.451H85.0697Z" fill="#505A61"/>
<path d="M72.2184 197.451L70.3621 180.118H73.7519L74.7204 191.055L75.6889 180.118H78.9173L79.8455 191.055L80.7736 180.118H84.2038L82.3071 197.451H78.1506L77.2829 189.097L76.4557 197.451H72.2184Z" fill="#505A61"/>
<path d="M59.2309 197.451V191.741L56.4666 180.118H59.8967L60.8652 185.99L61.8338 180.118H65.2639L62.4996 191.741V197.451H59.2309Z" fill="#1079C0"/>
<path d="M48.8171 197.451V180.118H55.7582V183.468H52.3482V186.838H55.6169V190.106H52.3482V194.081H55.9801V197.451H48.8171Z" fill="#1079C0"/>
<path d="M38.7678 197.451V180.118H42.3392L43.9333 188.411V180.118H47.2827V197.451H43.8929L42.1576 188.775V197.451H38.7678Z" fill="#1079C0"/>
<path d="M29.152 180.118H34.4788C35.3263 180.118 35.9787 180.314 36.436 180.704C36.9068 181.08 37.223 181.618 37.3844 182.318C37.5458 183.004 37.6265 183.885 37.6265 184.961C37.6265 185.943 37.4987 186.71 37.2431 187.261C36.9876 187.813 36.5437 188.196 35.9114 188.411C36.436 188.519 36.8127 188.781 37.0414 189.198C37.2835 189.615 37.4046 190.18 37.4046 190.893L37.3642 197.451H33.9744V190.671C33.9744 190.187 33.8802 189.878 33.6919 189.743C33.5036 189.609 33.1606 189.541 32.6629 189.541V197.451H29.152V180.118ZM33.5103 186.535C33.9946 186.535 34.2367 186.01 34.2367 184.961C34.2367 184.504 34.2165 184.161 34.1762 183.932C34.1358 183.703 34.0618 183.549 33.9542 183.468C33.8466 183.374 33.6919 183.327 33.4901 183.327H32.683V186.535H33.5103Z" fill="#1079C0"/>
<path d="M23.6106 197.612C22.1848 197.612 21.1221 197.209 20.4226 196.402C19.7366 195.595 19.3936 194.397 19.3936 192.81V180.118H22.7632V192.669C22.7632 193.22 22.817 193.651 22.9246 193.96C23.0322 194.27 23.2609 194.424 23.6106 194.424C23.9604 194.424 24.1891 194.276 24.2967 193.98C24.4043 193.671 24.4581 193.234 24.4581 192.669V180.118H27.8277V192.81C27.8277 194.397 27.478 195.595 26.7785 196.402C26.0925 197.209 25.0365 197.612 23.6106 197.612Z" fill="#1079C0"/>
<path d="M13.9189 197.612C12.5199 197.612 11.4572 197.188 10.7308 196.341C10.0044 195.48 9.64124 194.276 9.64124 192.729V184.477C9.64124 182.984 10.0044 181.86 10.7308 181.107C11.4572 180.34 12.5199 179.957 13.9189 179.957C15.3178 179.957 16.3805 180.34 17.1069 181.107C17.8333 181.86 18.1965 182.984 18.1965 184.477V192.729C18.1965 194.29 17.8333 195.494 17.1069 196.341C16.3805 197.188 15.3178 197.612 13.9189 197.612ZM13.9189 194.424C14.2282 194.424 14.4367 194.29 14.5444 194.021C14.652 193.752 14.7058 193.375 14.7058 192.891V184.416C14.7058 184.039 14.652 183.737 14.5444 183.508C14.4502 183.266 14.2484 183.145 13.939 183.145C13.3606 183.145 13.0714 183.582 13.0714 184.456V192.911C13.0714 193.409 13.1319 193.785 13.253 194.041C13.3741 194.296 13.596 194.424 13.9189 194.424Z" fill="#1079C0"/>
<path d="M4.23727 197.612C3.44362 197.612 2.72396 197.458 2.07828 197.148C1.4326 196.839 0.921437 196.388 0.544791 195.796C0.181597 195.191 0 194.465 0 193.617V189.279H3.40999V193.415C3.40999 193.725 3.47052 193.974 3.59159 194.162C3.7261 194.337 3.92788 194.424 4.19691 194.424C4.45249 194.424 4.64082 194.344 4.76188 194.182C4.8964 194.007 4.96365 193.765 4.96365 193.456V180.118H8.45435V193.113C8.45435 194.014 8.27276 194.808 7.90956 195.494C7.55982 196.166 7.06211 196.691 6.41643 197.068C5.7842 197.431 5.05782 197.612 4.23727 197.612Z" fill="#1079C0"/>
<path d="M136.433 66.4291C134.456 60.4972 131.681 55.0643 126.878 50.8289H126.882C132.052 51.9866 136.867 53.8747 141.039 57.1081C141.524 56.5053 141.402 56.0982 141.307 55.7229C138.785 45.8551 134.831 36.7855 127.485 29.4804C117.591 19.6405 103.003 20.4708 94.7346 24.3429C89.1814 26.9456 86.758 31.6201 87.1961 37.7995C87.2435 38.4621 87.2593 39.1288 87.2829 39.7914C87.2829 39.8473 87.2316 39.9112 87.1448 40.0948C85.9844 39.979 85.2385 39.1128 84.4965 38.3544C81.189 34.9732 80.2497 30.8257 81.4179 26.3748C83.7584 17.453 88.7591 10.4113 96.7238 5.70094C115.965 -5.67986 143.877 -0.506407 155.019 25.6123C161.535 40.8892 162.005 56.6171 157.991 72.5247C153.112 91.8732 142.337 107.322 126.791 119.489C116.584 127.477 105.107 133.049 93.0453 137.388C87.0659 139.54 80.7549 140.514 74.0966 140.965C75.7937 139.372 77.2817 138.011 78.7301 136.606C79.784 135.58 80.4746 134.287 81.2245 133.033C81.8047 132.071 82.4323 132.067 82.8585 133.217C82.8783 133.277 82.8941 133.345 82.9217 133.405L82.9266 133.416C84.6346 137.424 84.6426 137.443 88.8262 136.123C91.6126 135.245 94.1702 133.919 96.483 132.091C98.7089 130.619 100.071 127.805 100.473 126.582C100.985 125.103 100.849 123.627 100.687 121.871L100.679 121.78C102.62 122.395 103.781 123.668 104.495 125.289C105.186 126.854 105.73 126.658 106.595 125.469C111.051 119.341 113.62 112.431 114.982 105.006C115.108 104.336 114.86 103.282 115.716 103.158C116.458 103.05 116.754 104.048 117.149 104.631C118.202 106.184 118.929 107.889 119.288 109.741C119.556 111.126 120.093 111.234 121.048 110.22C127.71 103.142 132.139 94.931 133.56 85.1749C134.049 81.8177 134.033 78.4486 133.67 74.4567C136.141 77.8778 137.751 81.0872 139.259 84.5003C140.163 82.3965 138.651 73.0756 136.433 66.4291Z" fill="#505A61"/>
<path d="M88.5143 108.811C89.3471 116.26 92.9072 122.207 98.3893 127.105L96.5817 129.461C89.9194 123.03 85.8542 115.333 86.2094 105.785C86.5212 97.4459 89.6865 90.053 94.1149 82.8517C94.068 84.156 94.0637 84.1649 93.5081 85.312L93.4913 85.3466C89.9155 92.7515 87.5789 100.432 88.5143 108.811Z" fill="#1079C0"/>
<path d="M64.8767 81.3108C64.4623 81.4585 64.0281 81.5423 63.1362 81.7779V81.7619C64.3478 79.5225 65.4372 77.778 66.1358 75.838C68.3736 69.6187 66.7317 65.7984 60.7049 63.2636C60.5391 63.1958 60.3971 63.072 60.1445 62.9083C65.5201 63.4632 68.6933 67.1796 68.3263 72.4848C68.2315 73.866 67.825 75.2232 67.5685 76.5924C67.4737 77.0914 66.9567 77.6343 67.3869 78.0734C67.825 78.5125 68.3736 78.0295 68.8393 77.8658C74.3136 75.9338 79.8786 74.337 85.6213 73.4828C94.9279 72.0976 104.219 71.7703 113.431 74.1893C114.311 74.4209 114.899 74.4169 115.392 73.5147C116.703 71.1156 117.867 68.6686 118.301 65.9302C118.952 61.8305 117.401 59.0881 113.557 57.6351C108.718 55.8068 103.615 55.719 98.5669 55.6471C82.8151 55.4196 67.1501 56.681 51.5956 59.128C45.8648 60.0302 41.1207 63.4113 36.7515 67.0559C20.0367 80.9994 15.3636 98.883 20.3564 119.76C22.0535 126.862 24.765 133.544 28.9723 139.552C29.6512 140.522 30.4563 141.141 31.5733 141.528C37.2212 143.492 43.0902 144.242 48.9828 144.825C52.0219 145.125 55.0254 144.785 57.9105 143.676C58.696 143.376 59.3314 143.272 59.9945 144.075C63.3374 148.127 67.8724 150.474 72.5138 152.53C78.0631 154.989 83.9005 156.621 89.7852 158.078C90.5904 158.278 91.3126 158.226 92.0981 157.994C102.277 154.977 111.67 150.242 120.657 144.626C121.08 144.362 121.782 144.199 121.715 143.588C121.644 142.953 120.906 143.005 120.44 142.861C115.641 141.376 111.059 139.368 106.717 136.838L110.924 134.662C117.054 138.518 123.764 140.099 130.382 141.736C130.584 142.378 130.169 142.57 129.869 142.785C116.047 152.773 101.168 160.437 84.157 162.809C66.6015 165.256 50.2695 162.118 36.5108 150.015C26.0438 140.809 20.1038 128.906 17.341 115.282C14.7874 102.683 15.6281 90.532 22.0654 79.1233C27.7883 68.9879 35.8911 61.4513 46.3503 56.5413C50.1708 54.745 54.3663 54.5214 58.467 53.9746C72.8256 52.0545 87.2356 50.7651 101.74 51.3838C105.873 51.5635 110.021 51.8429 113.991 53.24C121.084 55.739 123.965 61.4353 121.782 68.7085C120.796 71.9938 119.027 74.8719 117.18 77.7141C116.533 78.7081 115.815 78.7121 114.828 78.4047C105.628 75.5506 96.2343 75.0436 86.7146 76.1014C79.2235 76.9357 71.9731 78.7919 64.8767 81.3108Z" fill="#1079C0"/>
<path d="M34.4028 86.902C39.5147 93.0362 54.8504 102.647 75.2979 92.0139" stroke="#1079C0"/>
<path d="M36.4475 102.238C41.5594 108.586 56.895 118.533 77.3426 107.528" stroke="#1079C0"/>
<path d="M38.4923 117.573C43.6042 123.708 58.9398 133.318 79.3874 122.685" stroke="#1079C0"/>
<path d="M146.067 119.618C134.026 128.3 122.031 136.06 107.088 137.685L99.1355 139.226C97.3515 139.613 95.532 139.828 93.7007 140.004C106.627 135.673 120.429 133.681 131.756 125.071C128.326 124.719 124.995 125.538 121.542 125.334C123.697 124.408 125.82 123.406 128.007 122.572C136.496 119.322 143.34 113.861 148.791 106.616C154.814 98.6085 160.229 90.1977 164.432 81.0443C164.839 80.1621 165.371 79.2879 165.178 77.5355C162.005 81.1401 159.139 84.3895 156.006 87.9463C155.923 86.6489 156.491 85.9982 156.83 85.3076C159.798 79.228 163.086 73.3001 165.154 66.8014C167.862 58.3027 169.184 49.6364 167.163 40.8503C164.677 30.0363 159.735 20.6914 150.073 14.5559C148.585 13.6098 146.912 13.0789 145.373 12.2686C151.396 13.5579 156.195 16.959 160.126 21.5536C169.591 32.6231 172.724 45.5287 170.518 59.8715C170.238 61.6758 169.887 63.4682 169.563 65.2884C170.573 65.4681 170.771 64.51 171.655 64.3823C171.442 69.5877 171.039 74.6733 169.389 79.6112C167.364 85.6549 164.227 91.1038 160.829 96.421C156.574 103.071 152.382 109.774 146.565 115.203C145.306 116.372 143.979 117.466 142.693 118.604C142.405 118.859 141.974 119.139 142.263 119.566C142.397 119.761 142.843 119.805 143.147 119.797C143.987 119.777 144.824 119.698 146.067 119.618Z" fill="#505A61"/>
<path d="M81.4322 160.198C67.2807 164.856 41.0614 156.719 34.4028 145.503C35.7855 145.995 37.0075 146.391 38.1982 146.867C42.6869 148.663 47.1834 148.038 51.6721 146.912C53.5718 146.435 55.4597 145.891 57.3398 145.326C58.178 145.075 58.8164 145.059 59.3413 145.947C64.1355 154.019 71.4717 158.063 80.2023 159.896C80.5783 159.976 80.9465 160.081 81.4283 160.198H81.4322Z" fill="white"/>
</svg>
