<svg width="74" height="65" viewBox="0 0 74 65" fill="none" xmlns="http://www.w3.org/2000/svg">
<path d="M65.5489 59.4615C65.5489 59.4615 68.7918 49.5195 65.8277 45.3861C62.8636 41.2527 60.5126 39.4286 61.9979 36.0947C63.4832 32.7608 62.8212 27.3131 58.8968 25.6759C54.9708 24.0388 56.7936 17.8793 52.4469 14.3418C48.1003 10.8043 44.5574 12.405 42.4738 8.04155C40.6444 4.20943 36.8472 0.597466 33.0484 4.31041C32.2152 5.12484 31.656 6.18591 31.3658 7.33472C31.0625 8.5365 30.0011 10.6156 26.4175 12.6947C20.9035 15.8945 23.0898 17.9571 20.8757 21.6518C18.6616 25.3482 11.5612 23.4876 8.89714 30.5774C6.23305 37.6673 11.9819 40.0477 11.5156 44.2853C11.0493 48.523 8.28737 50.8355 9.96995 59.344" stroke="#C6E8FF" stroke-miterlimit="10"/>
<path d="M67.1157 59.5693C67.1157 59.5693 70.9096 48.5695 67.7108 44.3931C64.5119 40.215 61.9766 38.3726 63.5793 35.004C65.182 31.6353 64.4679 26.1297 60.2337 24.476C55.9979 22.8223 57.9642 16.5965 53.2752 13.0226C48.5861 9.44875 45.4476 9.78975 43.1992 5.38157C41.2248 1.50972 36.4445 -0.865703 32.344 2.88696C31.4456 3.70967 30.8424 4.78234 30.5293 5.94273C30.2016 7.1561 29.0571 9.25839 25.1898 11.359C19.2404 14.5919 21.5996 16.676 19.2094 20.4104C16.8193 24.1449 10.2145 22.8637 7.26018 29.1192C3.96675 36.0948 9.08297 38.899 8.57918 43.1814C8.07538 47.4638 6.81181 50.8638 8.62646 59.4617" stroke="#C6E8FF" stroke-miterlimit="10"/>
<path d="M33.5668 6.5272C32.7532 7.34163 32.2071 8.40271 31.9234 9.55152C31.6266 10.7533 30.5897 12.8324 27.0892 14.9115C21.704 18.1113 23.8398 20.1739 21.6763 23.8686C19.5127 27.565 13.3514 24.7294 10.7493 31.8192C8.14714 38.9091 14.1454 42.1089 13.6905 46.3482C13.2356 50.5875 9.65364 50.8358 11.2971 59.3443H65.5848C65.5848 59.3443 68.4804 51.738 65.5848 47.6029C62.6892 43.4695 60.3935 41.6437 61.8446 38.3115C63.2957 34.9776 62.65 29.5299 58.8153 27.8927C54.9806 26.2556 56.761 20.0961 52.5154 16.5586C48.2698 13.0211 44.8101 14.6218 42.7737 10.2584C40.9868 6.42623 37.2776 2.81426 33.5668 6.5272Z" fill="#C6E8FF"/>
<path d="M33.7804 8.52037C33.0027 9.29838 32.4793 10.3148 32.2086 11.4123C31.925 12.5611 30.9337 14.5508 27.5848 16.5405C22.4344 19.6013 24.4756 21.5744 22.4066 25.1086C20.3377 28.6427 14.4437 25.9313 11.9541 32.7132C9.4661 39.4952 15.2035 42.5559 14.7682 46.6099C14.3329 50.6638 10.9074 50.9022 12.4791 59.0399H64.4043C64.4043 59.0399 67.1744 51.7646 64.4043 47.81C61.6342 43.8554 59.4397 42.1106 60.8272 38.9224C62.2147 35.7342 61.5967 30.5216 57.9299 28.9573C54.2632 27.393 55.9653 21.4999 51.9056 18.1164C47.8459 14.7329 44.5345 16.2624 42.5878 12.0893C40.8775 8.42436 37.3314 4.968 33.782 8.52037H33.7804Z" stroke="white" stroke-miterlimit="10"/>
<path d="M53.8181 28.6126C53.4985 28.4239 53.0779 28.5597 53.0094 28.4554C52.9409 28.3511 53.3534 28.0233 53.4871 27.679C53.6208 27.3364 53.4708 26.4475 52.9262 26.8663C52.3817 27.2851 52.3572 27.9985 52.3572 27.9985C52.3572 27.9985 52.3491 28.0382 52.3409 28.1028C52.1567 27.6608 52.2561 27.0533 52.2561 27.045C52.261 27.0119 52.2398 26.9805 52.2072 26.9738C52.173 26.9689 52.1436 26.9904 52.1388 27.0235C52.1339 27.05 52.0556 27.5367 52.173 27.977C51.886 27.6426 51.4703 27.439 51.4475 27.4274C51.4181 27.4125 51.3822 27.4274 51.3676 27.4572C51.3529 27.487 51.3676 27.5234 51.3969 27.5383C51.4034 27.5416 51.9969 27.8313 52.2284 28.2667C52.1567 28.2137 52.1061 28.1872 52.1061 28.1872C52.1061 28.1872 51.5583 27.7403 50.8915 27.8859C50.2247 28.0316 50.7888 28.7269 51.1312 28.8494C51.4735 28.9719 51.9871 28.8676 52.0214 28.9884C52.0556 29.1109 51.679 29.3443 51.6105 29.7134C51.542 30.0826 51.9692 30.4666 52.2089 30.4832C52.4257 30.4981 52.7551 29.7581 52.7502 29.2053C53.1708 29.5413 53.8768 29.7449 54.0007 29.5761C54.1442 29.3807 54.1376 28.8014 53.8181 28.6126Z" fill="#DBA291"/>
<path d="M18.3812 34.3419C18.3208 34.039 18.0094 33.8503 18.0372 33.7493C18.0632 33.6484 18.4872 33.7295 18.7676 33.6252C19.048 33.5209 19.5045 32.9448 18.9551 32.8323C18.4056 32.7197 17.9605 33.0922 17.9605 33.0922C17.9605 33.0922 17.9312 33.1087 17.8888 33.1385C18.0551 32.7826 18.4774 32.5128 18.4823 32.5111C18.5051 32.4962 18.5132 32.4664 18.4986 32.4416C18.4839 32.4168 18.4545 32.4102 18.4317 32.4251C18.4138 32.4366 18.0747 32.6518 17.8725 32.9647C17.9198 32.6038 17.8154 32.2314 17.8105 32.2115C17.8024 32.185 17.7763 32.1701 17.7502 32.1767C17.7241 32.185 17.7094 32.2115 17.716 32.238C17.716 32.243 17.8643 32.7727 17.7274 33.1551C17.7209 33.0822 17.7094 33.0359 17.7094 33.0359C17.7094 33.0359 17.6817 32.4499 17.2301 32.1122C16.7785 31.7745 16.6644 32.5062 16.7769 32.7859C16.8894 33.0657 17.2317 33.3305 17.1763 33.4183C17.1209 33.506 16.7752 33.3984 16.5127 33.5556C16.2502 33.7129 16.2519 34.1896 16.3725 34.3502C16.4818 34.4942 17.1078 34.2972 17.4421 33.9927C17.4665 34.438 17.7274 34.9908 17.8986 34.9759C18.0959 34.9594 18.4431 34.6399 18.3828 34.337L18.3812 34.3419Z" fill="#DBA291"/>
<path d="M36.7119 13.067C36.6515 12.7641 36.3401 12.5754 36.3679 12.4744C36.3939 12.3734 36.8178 12.4546 37.0983 12.3503C37.3787 12.246 37.8352 11.6699 37.2858 11.5574C36.7363 11.4448 36.2912 11.8173 36.2912 11.8173C36.2912 11.8173 36.2619 11.8338 36.2195 11.8636C36.3858 11.5077 36.8081 11.2379 36.813 11.2362C36.8358 11.2213 36.8439 11.1915 36.8293 11.1667C36.8146 11.1419 36.7852 11.1353 36.7624 11.1501C36.7445 11.1617 36.4054 11.3769 36.2032 11.6898C36.2505 11.3289 36.1461 10.9565 36.1412 10.9366C36.1331 10.9101 36.107 10.8952 36.0809 10.9018C36.0548 10.9101 36.0401 10.9366 36.0467 10.9631C36.0467 10.9681 36.195 11.4978 36.0581 11.8802C36.0516 11.8073 36.0401 11.761 36.0401 11.761C36.0401 11.761 36.0124 11.175 35.5608 10.8373C35.1092 10.4996 34.9951 11.2313 35.1076 11.511C35.2201 11.7908 35.5624 12.0556 35.507 12.1434C35.4516 12.2311 35.1059 12.1235 34.8434 12.2807C34.5826 12.4397 34.5826 12.9147 34.7032 13.0753C34.8124 13.2193 35.4385 13.0223 35.7728 12.7178C35.7972 13.163 36.0581 13.7159 36.2293 13.701C36.4266 13.6845 36.7738 13.365 36.7135 13.0621L36.7119 13.067Z" fill="#DBA291"/>
<path d="M28.3903 21.2877C28.3332 21.3672 28.2224 21.3837 28.1457 21.3241C28.0675 21.2662 28.0512 21.1536 28.1099 21.0742C28.1669 20.9947 28.2778 20.9782 28.3544 21.0378C28.4327 21.0957 28.449 21.2083 28.3903 21.2877Z" fill="white"/>
<path d="M28.8435 20.528C28.7865 20.6074 28.6756 20.624 28.599 20.5644C28.5207 20.5064 28.5044 20.3939 28.5631 20.3144C28.6218 20.235 28.731 20.2184 28.8077 20.278C28.8843 20.3376 28.9022 20.4485 28.8435 20.528Z" fill="white"/>
<path d="M29.3686 21.7247C29.3115 21.8042 29.2006 21.8207 29.124 21.7612C29.0457 21.7032 29.0294 21.5907 29.0881 21.5112C29.1452 21.4317 29.2561 21.4152 29.3327 21.4748C29.411 21.5327 29.4273 21.6453 29.3686 21.7247Z" fill="white"/>
<path d="M51.9872 23.3737C51.9301 23.4531 51.8192 23.4697 51.7426 23.4101C51.666 23.3505 51.648 23.2396 51.7067 23.1601C51.7654 23.0807 51.8747 23.0641 51.9513 23.1237C52.0296 23.1816 52.0459 23.2942 51.9872 23.3737Z" fill="white"/>
<path d="M52.4388 22.6154C52.3817 22.6948 52.2709 22.7114 52.1943 22.6518C52.116 22.5938 52.0997 22.4813 52.1584 22.4018C52.2154 22.3224 52.3263 22.3058 52.4029 22.3654C52.4812 22.4233 52.4975 22.5359 52.4388 22.6154Z" fill="white"/>
<path d="M52.9638 23.8121C52.9067 23.8916 52.7958 23.9081 52.7192 23.8486C52.641 23.7906 52.6247 23.6781 52.6833 23.5986C52.742 23.5191 52.8513 23.5026 52.9279 23.5622C53.0062 23.6201 53.0225 23.7327 52.9638 23.8121Z" fill="white"/>
<path d="M43.664 16.1515C43.6069 16.231 43.496 16.2475 43.4194 16.1879C43.3412 16.13 43.3248 16.0174 43.3835 15.938C43.4406 15.8585 43.5515 15.8419 43.6281 15.9015C43.7064 15.9595 43.7227 16.072 43.664 16.1515Z" fill="white"/>
<path d="M44.1155 15.3912C44.0584 15.4707 43.9476 15.4873 43.8709 15.4277C43.7927 15.3697 43.7764 15.2572 43.8351 15.1777C43.8938 15.0982 44.003 15.0817 44.0796 15.1413C44.1579 15.1992 44.1742 15.3118 44.1155 15.3912Z" fill="white"/>
<path d="M44.6422 16.588C44.5851 16.6675 44.4743 16.684 44.3976 16.6244C44.3194 16.5665 44.3031 16.4539 44.3618 16.3745C44.4204 16.295 44.5297 16.2785 44.6063 16.3381C44.6846 16.396 44.7009 16.5086 44.6422 16.588Z" fill="white"/>
<path d="M45.9318 26.5171C45.8568 26.4542 45.8471 26.3416 45.909 26.2671C45.971 26.191 46.0818 26.181 46.1552 26.2439C46.2302 26.3068 46.24 26.4194 46.178 26.4939C46.1161 26.57 46.0052 26.58 45.9318 26.5171Z" fill="white"/>
<path d="M46.6541 27.0156C46.5791 26.9527 46.5694 26.8401 46.6313 26.7656C46.6933 26.6895 46.8041 26.6796 46.8775 26.7425C46.9509 26.8054 46.9623 26.9179 46.9003 26.9924C46.8384 27.0686 46.7275 27.0785 46.6541 27.0156Z" fill="white"/>
<path d="M45.4492 27.4868C45.3742 27.4239 45.3645 27.3113 45.4264 27.2368C45.4884 27.1607 45.5992 27.1508 45.6726 27.2137C45.7476 27.2766 45.7574 27.3891 45.6954 27.4636C45.6335 27.5398 45.5226 27.5497 45.4492 27.4868Z" fill="white"/>
<path d="M20.6899 30.258C20.6899 30.3838 20.5904 30.4848 20.4665 30.4848C20.3426 30.4848 20.2432 30.3838 20.2432 30.258C20.2432 30.1322 20.3426 30.0312 20.4665 30.0312C20.5904 30.0312 20.6899 30.1322 20.6899 30.258Z" fill="white"/>
<path d="M50.5589 18.5846C50.5589 18.7402 50.435 18.866 50.2817 18.866C50.1285 18.866 50.0046 18.7402 50.0046 18.5846C50.0046 18.429 50.1285 18.3032 50.2817 18.3032C50.435 18.3032 50.5589 18.429 50.5589 18.5846Z" fill="white"/>
<path d="M31.4294 27.3498C31.4294 27.5054 31.3055 27.6312 31.1522 27.6312C30.999 27.6312 30.8751 27.5054 30.8751 27.3498C30.8751 27.1942 30.999 27.0684 31.1522 27.0684C31.3055 27.0684 31.4294 27.1942 31.4294 27.3498Z" fill="white"/>
<path d="M36.7217 8.98514C36.7217 9.0795 36.6467 9.1573 36.5521 9.1573C36.4576 9.1573 36.3826 9.08115 36.3826 8.98514C36.3826 8.88913 36.4576 8.81299 36.5521 8.81299C36.6467 8.81299 36.7217 8.88913 36.7217 8.98514Z" fill="white"/>
<path d="M49.6394 34.1812C49.6394 34.3219 49.5269 34.4361 49.3883 34.4361C49.2497 34.4361 49.1372 34.3219 49.1372 34.1812C49.1372 34.0405 49.2497 33.9263 49.3883 33.9263C49.5269 33.9263 49.6394 34.0405 49.6394 34.1812Z" fill="white"/>
<path d="M33.1739 14.7823C33.1739 14.923 33.0614 15.0372 32.9228 15.0372C32.7842 15.0372 32.6718 14.923 32.6718 14.7823C32.6718 14.6416 32.7842 14.5273 32.9228 14.5273C33.0614 14.5273 33.1739 14.6416 33.1739 14.7823Z" fill="white"/>
<path d="M5.49933 57.4951H72.5205C73.0145 57.4951 73.1498 58.1854 72.6933 58.3758C68.2113 60.2463 56.3224 64.4807 39.6612 64.9657C24.1675 65.4159 11.2237 61.3223 5.22379 59.0114C4.42163 58.7019 4.6401 57.4968 5.4977 57.4968L5.49933 57.4951Z" fill="#EEEEEE"/>
<path d="M27.8375 43.2425C27.6892 40.5542 24.9142 40.0146 24.6371 39.3458C24.3599 38.677 23.9115 37.3081 21.9143 36.6641C19.917 36.0186 18.673 37.2121 17.5546 36.4804C16.4345 35.7504 15.4383 35.1462 14.1046 36.0649C12.771 36.9836 11.8253 36.6459 9.89818 36.4241C7.97267 36.2023 6.44172 38.0894 6.44172 38.0894C5.68847 38.7913 6.41563 39.6802 8.19114 40.1155C10.6987 40.7313 9.98296 42.385 11.3199 43.0554C12.6568 43.7258 14.2465 43.0621 15.2524 43.8732C16.26 44.6843 16.1834 46.1559 17.4307 46.5002C18.6779 46.8462 20.1485 46.0053 20.8627 46.5019C21.5768 47.0001 21.9648 48.4734 22.8159 48.9832C23.667 49.4931 26.0767 49.6189 26.0767 49.6189L26.6588 49.4765C26.6588 49.4765 27.9843 45.9324 27.8359 43.2441L27.8375 43.2425Z" fill="#89CC86"/>
<path d="M26.2659 48.6292C26.2659 48.6292 25.6365 43.1417 21.9208 40.6438C18.2035 38.1442 12.1091 38.0846 10.2618 37.982L8.41455 37.8777C8.41455 37.8777 15.8737 37.396 19.5714 38.9239C24.6501 41.0212 26.0979 44.4478 26.2659 48.6308V48.6292Z" fill="#FFFBF4"/>
<path d="M23.5382 42.8522C23.5382 42.8522 20.4306 40.0332 19.9627 37.6876C19.4948 35.3419 20.8676 34.4646 19.9431 33.2777C19.0187 32.0892 19.4312 29.9587 20.4274 29.4174C21.4235 28.8762 21.8311 27.6959 21.9273 26.0637C22.0235 24.4315 23.2496 23.824 23.6295 24.2776C24.6746 25.5241 24.1545 26.7987 25.7539 27.5916C27.3533 28.3845 27.9191 30.0266 27.518 31.3724C27.1169 32.7166 28.8794 33.1469 30.0468 35.1996C31.2141 37.2522 30.3679 38.9688 29.8739 40.2567C29.3783 41.5445 30.7511 43.0956 30.2522 44.5804C29.7533 46.0653 26.3148 48.5085 26.3148 48.5085C26.3148 48.5085 24.6517 47.8845 23.5382 42.8555V42.8522Z" fill="#AAE2A8"/>
<path d="M23.5072 26.5503C23.5072 26.5503 24.5327 30.5678 25.7686 35.7474C27.0044 40.927 27.2131 47.3149 27.2131 47.3149C27.2131 47.3149 27.9289 42.6783 27.0012 38.3281C26.0735 33.9778 23.5855 27.2207 23.5072 26.5503Z" fill="#FFFBF4"/>
<path d="M23.9555 44.9494C23.5316 42.7429 25.6691 41.7265 25.7588 41.1273C25.8484 40.528 25.9332 39.3262 27.4202 38.3877C28.9071 37.4491 30.1543 38.1543 30.9141 37.3299C31.6723 36.5055 32.357 35.8086 33.6239 36.2738C34.8907 36.7389 35.5869 36.2688 37.1015 35.6878C38.6162 35.1068 40.2368 36.3152 40.2368 36.3152C40.9884 36.7257 40.5808 37.5964 39.2308 38.3198C37.3249 39.3411 38.2395 40.5313 37.2923 41.3524C36.345 42.1734 34.9249 41.9682 34.2728 42.8339C33.6206 43.7013 33.9809 44.8766 33.0402 45.4163C32.1011 45.9559 30.7397 45.5818 30.262 46.133C29.7842 46.6842 29.7679 47.9589 29.1826 48.5498C28.5957 49.1391 26.6702 49.745 26.6702 49.745L26.1696 49.75C26.1696 49.75 24.3794 47.1577 23.9555 44.9494Z" fill="#89CC86"/>
<path d="M26.3181 48.9816C26.3181 48.9816 25.7164 44.4078 28.2207 41.6086C30.7251 38.8095 35.6473 37.4901 37.1228 37.0217L38.5983 36.5532C38.5983 36.5532 32.4614 37.7186 29.7762 39.7265C26.0882 42.4843 25.6088 45.56 26.3197 48.9816H26.3181Z" fill="#FFFBF4"/>
<path d="M24.849 48.9753C24.849 48.9753 20.7551 47.8364 18.6046 48.8363C16.4541 49.8344 16.0579 51.2067 16.0579 51.2067C16.0579 51.2067 16.979 51.5345 18.7301 51.2845C20.4812 51.0362 20.7437 49.9818 21.9648 50.4833C23.186 50.9849 23.5871 51.4666 24.6142 51.167C25.6414 50.8674 26.1696 49.75 26.1696 49.75L24.849 48.9753Z" fill="#9A9B82"/>
<path d="M26.8642 49.1239C26.8642 49.1239 27.9647 47.8361 29.5625 47.9205C31.1603 48.0066 31.4407 48.571 32.2217 48.6074C33.0043 48.6439 33.4364 48.3923 34.5043 48.7631C35.5608 49.1289 36.1869 49.6321 36.1869 49.6321C36.1869 49.6321 35.101 51.2279 33.4103 50.814C31.7195 50.4002 30.4413 50.1337 29.887 50.7097C29.3343 51.2841 25.8599 50.2363 25.8599 50.2363L26.8626 49.1223L26.8642 49.1239Z" fill="#9A9B82"/>
<path d="M50.5655 44.0077C50.5655 44.0077 52.8676 45.5074 57.6007 46.345C62.3354 47.1826 64.3326 45.8153 64.5935 45.1764C64.8543 44.5374 64.0717 44.1848 60.9886 43.6104C57.9055 43.0377 57.0806 42.3308 58.6001 42.1554C60.1196 41.9782 62.2489 43.3456 64.0717 43.3456C65.8945 43.3456 67.1548 42.3606 67.1989 41.6852C67.2429 41.0099 61.7272 40.8327 61.031 39.8627C60.3365 38.8927 64.6065 39.9074 66.4456 40.1706C68.2847 40.4355 69.0233 38.9804 68.8929 38.4954C68.7624 38.0104 64.2886 37.8531 63.8549 37.1827C63.4212 36.5123 65.7217 36.7507 67.7206 37.1827C69.7195 37.6147 70.7173 36.115 70.4564 35.7624C70.1956 35.4098 66.5043 35.145 66.113 34.4828C65.7217 33.8207 68.1103 33.9978 69.3265 34.2627C70.5428 34.5275 71.8455 33.3373 71.4118 32.9401C70.9781 32.5428 68.2407 32.4103 68.1543 31.8376C68.0679 31.2648 71.7999 31.5727 71.4966 30.7351C71.1934 29.8975 70.1515 29.1129 68.5456 29.0864C66.9396 29.0599 65.4625 30.7798 64.5935 30.2501C63.7245 29.7204 66.7212 28.4425 65.9402 27.9575C65.1592 27.4724 63.4212 27.7373 62.8131 28.5749C62.2049 29.4125 62.1609 30.8245 61.5104 30.7798C60.8582 30.7351 61.9881 28.752 61.424 28.3101C60.8598 27.8697 59.3827 28.7951 59.0794 29.6774C58.7762 30.5597 59.1235 32.3226 58.5153 32.412C57.9072 32.4997 58.662 29.5896 58.1322 29.3248C57.6023 29.0599 55.9099 30.7798 55.8659 31.8376C55.8219 32.8954 56.3876 34.5623 55.4746 34.8321C54.5632 35.1003 54.736 31.7946 54.0415 31.485C53.3469 31.1771 51.9562 33.1983 52.1747 34.8553C52.3915 36.5123 52.8692 37.8664 52.2187 37.873C51.5665 37.8779 51.0888 35.7624 50.5687 35.4098C50.047 35.0572 49.5774 35.9395 49.4437 38.1875C49.31 40.4371 50.3535 43.4565 50.5687 44.0077H50.5655Z" fill="#C7FEC5"/>
<path d="M49.822 47.6295C49.822 47.6295 52.2611 41.2762 55.0996 37.7553C57.9382 34.2344 63.4147 32.1123 66.0527 31.96C66.0527 31.96 59.8099 33.1386 55.7958 38.1774C51.7817 43.2163 50.2687 50.1075 50.2687 50.1075L49.1731 49.889L49.8204 47.6311L49.822 47.6295Z" fill="#FFFBF4"/>
<path d="M5.62006 56.9605C5.62006 56.9605 5.96897 55.6429 7.67763 55.032C9.38793 54.4212 9.64064 56.0617 10.7183 55.9971C11.7944 55.9325 12.2949 58.0547 12.2949 58.0547H5.24017L5.62006 56.9622V56.9605Z" fill="#9A9B82"/>
<path d="M9.75473 57.9784C9.65527 57.4785 9.50364 56.9157 9.31452 56.3131C9.62429 55.7023 10.5015 53.7639 10.4803 51.4166C10.4542 48.5678 8.51073 45.5815 8.51073 45.5815C8.51073 45.5815 8.00041 50.4549 8.84659 54.9375C8.26127 53.3335 7.50965 51.5937 6.8151 50.0725C7.11021 49.4435 7.64335 48.0894 7.63846 46.4837C7.63357 44.2639 6.13196 41.9249 6.13196 41.9249C6.13196 41.9249 5.72925 45.5418 6.30152 48.9684C5.78958 47.8792 5.34611 46.9853 5.07872 46.4522C5.03144 45.7007 4.84883 44.3831 4.17547 43.0902C3.15321 41.127 0.754879 39.7646 0.754879 39.7646C0.754879 39.7646 2.26627 43.7093 4.63199 46.5565C4.84557 46.9836 5.20589 47.7103 5.63632 48.6141C5.30698 48.1241 4.88796 47.6044 4.35971 47.1309C2.71952 45.6626 0 45.2521 0 45.2521C0 45.2521 3.09125 48.735 6.50532 50.4797C6.86075 51.261 7.22596 52.092 7.57487 52.9296C7.18031 52.385 6.69608 51.8222 6.1124 51.3057C3.99613 49.4368 0.503796 48.9336 0.503796 48.9336C0.503796 48.9336 4.28471 53.1398 8.53681 55.401C8.88898 56.3876 9.16941 57.308 9.31941 58.0678L9.7531 57.9784H9.75473Z" fill="#C7FEC5"/>
<path d="M65.5522 56.6323H67.6994C67.6994 56.6323 68.6711 54.8148 71.0238 53.5683C73.3765 52.3218 73.6325 50.8188 73.7335 50.1169C73.8363 49.415 72.8124 49.7775 71.2781 50.7128C69.7439 51.6481 69.3347 53.8596 68.6695 53.8182C68.0043 53.7769 68.4135 51.2326 69.845 50.4016C71.2765 49.5706 72.4015 47.5461 72.7602 46.2483C73.1189 44.9505 70.2037 45.8842 68.8228 47.4418C67.4418 48.9995 67.6472 52.8035 66.6233 53.2902C65.6011 53.7769 67.3896 50.5837 65.319 49.2809C64.4891 48.7578 64.2707 50.2526 64.5266 52.1447C64.7826 54.0367 66.0608 54.919 65.5489 56.6323H65.5522Z" fill="#89CC86"/>
<path d="M61.9343 57.7615C61.9343 57.7615 65.7054 58.1787 68.6189 58.1787C71.5325 58.1787 72.6509 57.9138 72.6509 57.9138C72.6509 57.9138 72.0167 56.7005 70.1499 56.2452C68.2831 55.79 68.0956 56.9272 67.2755 56.2452C66.4538 55.5632 64.9603 55.0699 63.6527 55.449C62.3451 55.8281 61.9343 57.7615 61.9343 57.7615Z" fill="#D7CA8C"/>
<path d="M37.9216 61.2476C50.3757 61.2476 60.4718 60.4079 60.4718 59.3721C60.4718 58.3363 50.3757 57.4966 37.9216 57.4966C25.4675 57.4966 15.3715 58.3363 15.3715 59.3721C15.3715 60.4079 25.4675 61.2476 37.9216 61.2476Z" fill="white"/>
<path d="M58.9033 49.0202L57.1898 50.8543C57.1898 50.8543 57.1898 50.8559 57.1881 50.8592L56.8653 51.2019L56.862 51.2036L56.8425 51.2251C56.8425 51.2251 56.8376 51.2218 56.836 51.2201C53.1382 48.8977 49.5709 45.438 48.6725 44.5458C48.2111 44.1236 47.7774 43.6188 47.4415 43.0162C46.6524 41.5976 45.5861 38.9474 44.8427 37.0073L44.7449 37.4294L43.4063 43.1884C43.9786 44.0806 44.7628 45.4479 45.4345 47.1331C45.7753 47.9889 46.0867 48.9291 46.3264 49.9273L38.6325 54.5225V54.6384L38.5297 54.5821L38.427 54.6417V54.5258L30.5619 50.2335C30.8163 48.9688 31.1864 47.7969 31.5875 46.7623C31.594 46.7457 31.6005 46.7275 31.607 46.7109C32.1548 45.3155 32.7614 44.1716 33.2244 43.3837L31.6445 37.59L31.4309 36.8103L31.3168 36.3899C30.5652 38.2852 29.1794 41.6638 28.2125 43.3241C27.8652 43.92 27.425 44.4166 26.9522 44.8288C26.0392 45.7028 22.4001 49.098 18.66 51.3509L18.3176 50.9718L16.6399 49.1062L25.1669 40.9669L28.0479 32.6024C29.7076 28.9872 30.9516 28.9375 30.9516 28.9375C31.1815 28.7438 31.4424 28.5783 31.7358 28.4608C31.8304 28.4227 31.9266 28.3846 32.026 28.3432H32.0277C32.5902 28.1065 33.2195 27.8069 33.8505 27.4311C34.5939 26.9859 35.3374 26.4313 35.9749 25.746C36.0678 25.1021 36.1021 24.1867 36.1151 23.5924C36.1216 23.2382 36.1216 22.9965 36.1216 22.9965L37.9346 23.1852L39.7395 22.9253C39.7395 22.9253 39.7558 23.4037 39.7982 24.0029C39.839 24.5426 39.8977 25.1815 39.9873 25.6682C40.2824 25.9629 40.5987 26.231 40.9264 26.471C42.0628 27.3202 43.3297 27.8648 44.3258 28.2158C44.5834 28.3068 44.8182 28.4343 45.0318 28.5866C45.291 28.6528 46.416 29.1097 47.8068 32.2995L50.5312 40.7169L58.9049 49.0202H58.9033Z" fill="#0070BB"/>
<path d="M40.9265 26.4724C40.6346 26.8051 39.7411 27.5186 37.2108 28.1095C33.7885 28.9074 32.0261 28.3446 32.0261 28.3446H32.0277C32.5902 28.1079 33.2195 27.8083 33.8505 27.4325C34.594 26.9872 35.3374 26.4327 35.9749 25.7474C36.0678 25.1034 36.1021 24.188 36.1151 23.5938L39.7982 24.0043C39.839 24.5439 39.8977 25.1829 39.9873 25.6696C40.2824 25.9642 40.5987 26.2324 40.9265 26.4724Z" fill="#126399"/>
<path d="M42.8536 38.8958C41.652 39.4354 39.5536 38.3892 37.7716 38.9736C35.9896 39.5579 35.1059 41.2331 34.7602 43.3751C34.4146 45.5155 35.2967 48.6292 35.2967 48.6292C35.2967 48.6292 33.7037 49.0778 31.6038 46.714C32.1516 45.3185 32.7581 44.1747 33.2211 43.3867L31.4277 36.8133L31.3136 36.3929C31.3136 36.3929 30.8864 34.1449 31.9592 32.4316C31.9592 32.4316 31.625 34.2641 32.2527 35.9377C32.8788 37.6112 34.3575 37.6112 35.8999 37.5731C37.4423 37.5351 37.4211 36.9971 39.164 37.3795C42.0726 38.0151 43.209 37.7304 43.8873 36.7604C44.334 36.1214 44.0503 38.3578 42.8503 38.8991L42.8536 38.8958Z" fill="#126399"/>
<path d="M34.5793 21.0081C34.5793 21.0081 34.1668 20.1523 33.6223 20.1871C33.0793 20.2202 32.8967 21.3988 33.663 22.3158C34.4293 23.2329 35.1239 22.8406 35.1239 22.8406L34.5793 21.0098V21.0081Z" fill="#EA8D78"/>
<path d="M41.396 20.8754C41.396 20.8754 41.7759 20.0046 42.3205 20.0162C42.865 20.0278 43.0916 21.1981 42.3612 22.145C41.6308 23.0919 40.9216 22.726 40.9216 22.726L41.396 20.8754Z" fill="#EA8D78"/>
<path d="M41.6406 19.1094C41.7058 22.5277 39.6988 25.5818 38.101 25.6132C36.1624 25.6513 34.2875 22.4416 34.2271 19.2534C34.1831 16.8962 35.5755 14.9561 37.8972 14.9114C40.2189 14.8667 41.5933 16.7522 41.639 19.1094H41.6406Z" fill="#FFA488"/>
<path d="M35.0587 19.4253C35.0587 19.4253 35.6032 19.268 36.1934 19.2233C36.9336 19.1687 37.2059 19.2465 37.2059 19.2465C37.2059 19.2465 37.0641 18.8261 36.4412 18.8376C35.8184 18.8492 35.0587 19.4253 35.0587 19.4253Z" fill="#2F2A00"/>
<path d="M37.1684 20.3477C37.1684 20.3477 36.7314 19.7518 36.1705 19.7452C35.6097 19.7385 35.1108 20.3874 35.1108 20.3874C35.1108 20.3874 35.264 20.5579 36.0613 20.5927C36.8781 20.6291 37.1684 20.3461 37.1684 20.3461V20.3477Z" fill="#EA8D78"/>
<path d="M36.1559 20.5461C35.6276 20.5511 35.1972 20.417 35.1238 20.3922L35.1157 20.3888C35.1157 20.3888 35.1157 20.3888 35.1141 20.3888H35.1108C35.1108 20.3888 35.1108 20.3888 35.1124 20.3888C35.0195 20.4501 34.8287 20.4667 34.8287 20.4667C35.026 20.5296 35.1809 20.508 35.251 20.4931C35.4043 20.5991 35.6733 20.7365 36.1575 20.7315C36.8521 20.7232 37.1667 20.3491 37.1667 20.3491C37.1667 20.3491 36.7347 20.5411 36.1543 20.5478L36.1559 20.5461Z" fill="#2F2A00"/>
<path d="M40.7798 19.313C40.7798 19.313 40.2287 19.1773 39.6385 19.1557C38.8983 19.1292 38.6276 19.2186 38.6276 19.2186C38.6276 19.2186 38.7532 18.7932 39.376 18.78C39.9988 18.7684 40.7798 19.313 40.7798 19.313Z" fill="#2F2A00"/>
<path d="M38.7075 20.3178C38.7075 20.3178 39.1216 19.7053 39.6825 19.6772C40.2434 19.649 40.7651 20.2781 40.7651 20.2781C40.7651 20.2781 40.6184 20.4552 39.8227 20.5214C39.0075 20.5893 38.7075 20.3195 38.7075 20.3195V20.3178Z" fill="#EA8D78"/>
<path d="M41.0488 20.346C41.0488 20.346 40.858 20.3377 40.7618 20.2798C40.7618 20.2798 40.7618 20.2798 40.7634 20.2798C40.7634 20.2798 40.7618 20.2798 40.7602 20.2798C40.7602 20.2798 40.7602 20.2798 40.7586 20.2798L40.7504 20.2848C40.6787 20.3112 40.2531 20.4635 39.7249 20.4784C39.1445 20.495 38.7059 20.3195 38.7059 20.3195C38.7059 20.3195 39.0336 20.682 39.7298 20.6622C40.214 20.6489 40.4781 20.4999 40.6265 20.389C40.6966 20.4023 40.8531 20.4172 41.0471 20.346H41.0488Z" fill="#2F2A00"/>
<path d="M37.457 22.3969C37.457 22.3969 37.7553 22.5806 37.9999 22.5939C38.2445 22.6071 38.5347 22.377 38.5347 22.377C38.5347 22.377 38.308 22.3522 38.0358 22.3472C37.7635 22.3406 37.4586 22.3985 37.4586 22.3985L37.457 22.3969Z" fill="#EA8D78"/>
<path d="M38.1287 23.4565C38.732 23.4201 39.1135 23.2264 39.1135 23.2264C39.1135 23.2264 38.4695 23.1569 38.3032 23.1883C38.2004 23.2082 38.1287 23.3075 38.0896 23.3804C38.0472 23.3092 37.9722 23.2132 37.8695 23.1966C37.7032 23.1701 37.0608 23.2661 37.0608 23.2661C37.0608 23.2661 37.4505 23.4433 38.0537 23.4565V23.4598C38.0668 23.4598 38.0782 23.4598 38.0912 23.4582C38.1043 23.4582 38.1157 23.4582 38.1287 23.4582C38.1287 23.4582 38.1287 23.4565 38.1287 23.4549V23.4565Z" fill="#743F3D"/>
<path d="M37.2466 23.5273C37.2466 23.5273 37.3738 23.7111 37.8434 23.827C38.3129 23.9428 38.6537 23.7458 38.9357 23.5638C38.9357 23.5638 38.6814 24.0571 38.1515 24.1233C37.6216 24.1895 37.2662 23.6002 37.2466 23.5273Z" fill="#EA8D78"/>
<path d="M39.389 16.9374C39.389 16.9374 38.5819 16.5037 37.4944 16.56C36.407 16.6162 35.5624 17.4787 35.2477 18.0895C34.9331 18.7003 34.6135 18.8741 34.6135 18.8741C34.6135 18.8741 34.713 20.354 34.4342 20.9847C34.4342 20.9847 34.0575 20.3457 33.6239 20.1868C33.6239 20.1868 33.2521 18.8361 33.4804 17.3976C33.7086 15.9607 35.2102 14.4113 37.2287 14.1994C39.2488 13.9876 40.271 14.9857 40.271 14.9857C40.271 14.9857 41.6129 15.7538 42.0107 17.0582C42.4101 18.3626 42.0677 20.0561 42.0677 20.0561C42.0677 20.0561 41.7221 20.2332 41.5003 20.8457C41.5003 20.8457 40.8547 19.8558 41.021 18.7467C41.021 18.7467 40.7569 16.9837 39.3906 16.9357L39.389 16.9374Z" fill="#743F3D"/>
<path d="M40.589 15.7224C40.1846 15.8531 37.5711 14.4163 37.5711 14.4163C37.5711 14.4163 37.558 14.1846 37.6314 13.8833C37.7341 13.4694 37.9999 12.9232 38.6961 12.6683C38.8151 12.6252 38.9341 12.5938 39.0482 12.5722C40.095 12.3918 40.964 13.1202 41.2134 13.8618C41.4906 14.6861 40.9966 15.5916 40.5906 15.7207L40.589 15.7224Z" fill="#743F3D"/>
<path d="M37.2058 19.2466C37.2058 19.2466 37.4586 19.7283 37.602 20.46C37.7439 21.1917 37.6265 21.7164 37.6265 21.7164C37.6265 21.7164 37.4863 19.6472 36.4493 19.2086C36.4493 19.2086 37.0184 19.1953 37.2058 19.2466Z" fill="#EA8D78"/>
<path d="M39.389 16.9373C39.389 16.9373 38.0993 16.4986 37.0005 16.9837C35.9016 17.4687 35.9276 18.1755 35.1662 18.2368L35.0684 18.0514C35.0684 18.0514 35.2722 18.0911 35.7369 17.7186C36.2016 17.3462 37.1814 16.0087 39.3906 16.9373H39.389Z" fill="#743F3D"/>
<path d="M34.1407 56.0337C34.1407 56.0337 33.0858 56.1711 32.7174 56.2423C32.7174 56.2423 31.2435 56.0271 30.6239 56.0552C30.0044 56.0817 29.6669 56.8299 29.3163 57.6427C28.9674 58.4555 27.6109 59.3196 27.1332 59.8261C26.6539 60.331 26.6408 61.0726 26.6523 61.2298C26.662 61.3871 26.3506 61.834 26.5153 62.1999C26.68 62.5673 26.8577 62.4448 27.0093 62.4018C27.1626 62.3604 27.2686 62.1005 27.2686 62.1005C27.2686 62.1005 27.6582 62.1204 27.8245 62.0476C27.9908 61.9731 27.8473 61.935 28.2191 61.9102C28.5892 61.8853 28.7881 61.839 29.0147 61.7446C29.2413 61.6503 30.7935 60.0148 31.6348 59.5794C32.4744 59.1441 33.7706 59.2451 33.7706 59.2451L34.1391 56.0337H34.1407Z" fill="#FFA488"/>
<path d="M57.9642 57.1457C55.4583 58.5693 51.3072 59.1288 46.5041 59.4252C45.9188 59.4616 45.3253 59.4947 44.722 59.5228L44.8036 61.6384C44.8036 61.6384 44.4383 61.635 43.7927 61.6251C41.8118 61.6019 37.1912 61.5423 32.375 61.443C24.5849 61.2874 18.3893 59.3242 16.5991 57.5745C15.7367 56.7303 15.2247 55.3828 15.4073 54.1247C15.5524 53.1282 16.1345 52.1896 17.3214 51.5954C17.6035 51.453 18.0975 51.2742 18.766 51.0806C20.8594 50.4714 24.6485 49.7364 28.8288 49.695C28.8957 49.6901 28.9576 49.6868 29.018 49.6801C29.569 48.8409 31.6054 46.7104 31.6054 46.7104C31.6054 46.7104 33.0369 47.9337 34.995 48.6604C36.0303 49.0445 37.2124 49.2911 38.4091 49.1438C41.8672 48.72 45.3416 46.7634 45.3416 46.7634C46.0443 47.4736 46.7177 49.1422 46.7177 49.1422C50.179 49.1753 55.9115 50.2413 57.1457 50.8687C57.1539 50.8736 57.162 50.8803 57.1686 50.8836C58.0066 51.112 58.7044 51.607 59.1821 52.236C60.2908 53.691 60.2174 55.8678 57.9642 57.1441V57.1457Z" fill="#505A61"/>
<path d="M16.6399 49.1078C16.6399 49.1078 15.7693 48.9721 15.4187 48.9803C15.0698 48.987 14.3655 49.2137 13.966 49.2816C13.5682 49.3495 13.3693 49.3644 13.3791 49.4256C13.3889 49.4869 13.5226 49.6359 13.9628 49.6988C14.403 49.7617 14.7796 49.6425 15.0144 49.6375C15.2492 49.6326 15.3013 49.7733 15.3013 49.7733C15.3013 49.7733 15.0633 50.4172 14.297 50.5529C13.5307 50.6903 13.2291 50.5744 13.1769 50.4635C13.1248 50.3526 13.4508 49.5961 13.3644 49.3147C13.2796 49.0333 13.1492 49.0548 12.9878 49.5051C12.8264 49.9537 12.5443 50.3857 12.5509 50.6787C12.5574 50.9717 13.0498 51.2266 13.0498 51.2266C13.0498 51.2266 12.0992 51.1141 11.8139 51.3823C11.5302 51.6521 12.0992 51.6603 12.5492 51.7017C12.9992 51.7431 13.4215 51.8772 13.6905 51.8424C13.6905 51.8424 12.4824 51.8259 12.246 52.0229C12.0096 52.2199 12.4922 52.3523 12.9503 52.344C13.4101 52.3357 14.0296 52.4351 14.1307 52.4317C14.1307 52.4317 13.0546 52.5642 13.0905 52.8373C13.1264 53.1104 13.322 52.9234 13.9122 52.983C14.5024 53.0426 14.9916 53.0326 15.5475 52.8605C16.1035 52.6867 18.3127 50.975 18.3127 50.975L16.635 49.1095L16.6399 49.1078Z" fill="#FFA488"/>
<path d="M53.8621 51.7841C49.2578 52.4479 36.3711 55.7966 36.3711 55.7966C36.3711 55.7966 29.5821 52.6416 25.03 51.9016C20.7077 51.1997 18.1855 51.549 18.7643 51.0806C20.8577 50.4714 24.6468 49.7364 28.8272 49.695C28.894 49.6901 28.956 49.6868 29.0163 49.6801C29.5674 48.8409 31.6038 46.7104 31.6038 46.7104C31.6038 46.7104 33.0353 47.9337 34.9934 48.6604C35.1515 49.4302 37.8662 53.2242 39.8226 52.6002C41.7791 51.9794 44.347 51.1203 45.5747 51.549C46.8024 51.9778 49.2953 51.7427 51.0138 51.3504C52.7306 50.9581 53.8588 51.7808 53.8588 51.7808L53.8621 51.7841Z" fill="#5B656D"/>
<path d="M57.1898 50.8543C57.1898 50.8543 57.1898 50.856 57.1882 50.8593C57.1719 50.8941 57.0903 51.0629 56.8653 51.202C56.8637 51.2036 56.8621 51.2036 56.8621 51.2036C56.8539 51.2086 56.8441 51.2152 56.836 51.2202C53.1382 48.8977 49.5709 45.438 48.6725 44.5458C48.2111 44.1237 47.7774 43.6188 47.4416 43.0163C46.6525 41.5976 45.5862 38.9474 44.8427 37.0074L45.2699 33.3921C45.2699 33.3921 46.8677 40.3859 48.5568 42.6405C50.2443 44.8934 57.1914 50.8543 57.1914 50.8543H57.1898Z" fill="#126399"/>
<path d="M31.6429 37.591L31.4293 36.8113L31.3152 36.3908C30.5636 38.2862 29.1778 41.6648 28.2109 43.3251C27.8636 43.921 27.4234 44.4176 26.9506 44.8298C26.0376 45.7038 22.3985 49.0989 18.6584 51.3518L18.316 50.9728C18.316 50.9728 25.6854 44.5831 27.849 42.0703C30.0109 39.5575 31.3413 34.0767 31.3413 34.0767L31.6413 37.591H31.6429Z" fill="#126399"/>
<path d="M57.9642 57.1459C55.4583 58.5695 51.3073 59.129 46.5041 59.4253C44.4954 59.0909 43.0623 58.2964 43.0623 58.2964V58.0547L36.3776 55.8001C36.4347 55.815 37.5336 55.5005 37.5336 55.5005C40.5776 56.1891 48.0791 58.2649 51.9839 57.3561C57.0088 56.1874 57.1996 54.0421 58.1191 52.9728C58.4794 52.5556 58.856 52.3421 59.1821 52.2378C60.2908 53.6928 60.2174 55.8696 57.9642 57.1459Z" fill="#5B656D"/>
<path d="M43.064 58.2949C43.064 58.2949 44.1156 58.4522 44.4824 58.5316C44.4824 58.5316 45.9596 58.3462 46.5791 58.386C47.197 58.4257 47.5215 59.1789 47.8557 59.9983C48.19 60.8177 49.5285 61.7082 49.9965 62.2247C50.466 62.7395 50.4644 63.4811 50.4497 63.6384C50.435 63.7956 50.7399 64.2475 50.5687 64.6117C50.3975 64.9759 50.2215 64.8501 50.0698 64.8037C49.9182 64.759 49.8155 64.4975 49.8155 64.4975C49.8155 64.4975 49.4258 64.5107 49.2611 64.4329C49.0965 64.3551 49.2399 64.3204 48.8698 64.2873C48.4997 64.2542 48.3008 64.2062 48.0775 64.1068C47.8541 64.0075 46.3313 62.3422 45.4998 61.8903C44.6683 61.4384 43.3705 61.5129 43.3705 61.5129L43.064 58.2949Z" fill="#FFA488"/>
<path d="M58.9034 49.0218C58.9034 49.0218 59.7773 48.9043 60.1262 48.9175C60.4751 48.9308 61.1762 49.1708 61.5723 49.247C61.9685 49.3231 62.1674 49.3413 62.156 49.4009C62.143 49.4605 62.0077 49.6078 61.5675 49.6624C61.1256 49.7171 60.7506 49.5896 60.5175 49.5813C60.2827 49.5714 60.2273 49.7121 60.2273 49.7121C60.2273 49.7121 60.4523 50.3593 61.2169 50.5116C61.9799 50.6623 62.2848 50.553 62.3386 50.4438C62.3924 50.3345 62.081 49.5714 62.1723 49.2916C62.2636 49.0119 62.3924 49.0367 62.5441 49.4886C62.6957 49.9405 62.9696 50.3776 62.9582 50.6706C62.9468 50.9636 62.4479 51.2085 62.4479 51.2085C62.4479 51.2085 63.4 51.1142 63.6805 51.389C63.9593 51.6638 63.3903 51.6621 62.9403 51.6952C62.4886 51.7283 62.0647 51.8541 61.7973 51.8127C61.7973 51.8127 63.0055 51.8194 63.2386 52.0213C63.4701 52.2233 62.9859 52.3458 62.5278 52.3292C62.0696 52.311 61.4468 52.3987 61.3457 52.3954C61.3457 52.3954 62.4185 52.5494 62.3794 52.8208C62.3386 53.0923 62.1462 52.9036 61.556 52.9516C60.9642 52.9996 60.4767 52.9814 59.924 52.7977C59.3713 52.6139 57.1947 50.8593 57.1947 50.8593L58.9066 49.0251L58.9034 49.0218Z" fill="#FFA488"/>
<path d="M43.7927 61.6254C41.8118 61.6022 37.1912 61.5426 32.375 61.4433C24.5849 61.2877 18.3893 59.3244 16.5991 57.5747C15.7367 56.7305 15.2247 55.3831 15.4073 54.125C16.066 54.6448 17.3393 55.5503 19.7654 56.7818C23.7534 58.808 31.1163 59.8988 36.9483 60.4683C42.7786 61.0394 43.302 60.7878 43.302 60.7878L43.7927 61.6237V61.6254Z" fill="#5B656D"/>
<path d="M39.7053 14.8023C38.9178 14.4117 37.6722 14.1733 37.6722 14.1733C37.651 14.0723 37.6379 13.9763 37.6314 13.8853C37.7341 13.4714 37.9999 12.9252 38.6961 12.6702C38.8151 12.6272 38.9341 12.5957 39.0482 12.5742C38.9162 12.7116 38.7808 12.9665 38.8999 13.3903C39.1037 14.112 40.4911 15.1913 39.7053 14.8023Z" fill="#603030"/>
<path d="M38.9716 16.2883C38.9716 16.2883 37.5205 15.7304 36.1331 16.2883C34.7456 16.8461 34.5516 18.3508 34.2271 18.4998C34.2271 18.4998 34.5075 16.4803 35.9994 16.0416C37.4896 15.6013 38.9716 16.2899 38.9716 16.2899V16.2883Z" fill="#603030"/>
<path d="M40.0689 15.3599L39.5194 16.6163C39.5194 16.6163 40.2694 16.2703 40.0689 15.3599Z" fill="#603030"/>
</svg>
