<svg version="1.2" xmlns="http://www.w3.org/2000/svg" viewBox="0 0 1000 1000" width="1000" height="1000">
	<title>9318698-ai</title>
	<defs>
		<clipPath clipPathUnits="userSpaceOnUse" id="cp1">
			<path d="m745.87 367.38q-5.98 0-11.95 0-7.41 0-14.82 0c-7.38 4.37-18.03 12.03-26.58 24.65-9.89 14.61-12.5 29.29-14.31 48.95-2.01 21.82-3.28 52.46 0.04 90.11h134.98q0-34.86 0-69.73c-0.65-17.6-2.73-32.07-4.69-42.62-3.16-17.05-5.76-22.35-8.56-26.51-7.95-11.79-19.33-16.87-24.47-19.17-12.02-5.36-23.03-5.92-29.64-5.68z"/>
		</clipPath>
	</defs>
	<style>
		tspan { white-space:pre } 
		.s0 { fill: #ffffff } 
		.s1 { fill: #f5f5f5 } 
		.s2 { fill: #505a61 } 
		.s3 { fill: none;stroke: #262626;stroke-linecap: round;stroke-linejoin: round;stroke-width: .5 } 
		.s4 { fill: #d6d6d6 } 
		.s5 { fill: #f7a99c } 
		.s6 { fill: #262626 } 
		.s7 { fill: none;stroke: #262626;stroke-linecap: round;stroke-linejoin: round } 
		.s8 { fill: #1079c0 } 
		.s9 { fill: #6cc1fb } 
		.s10 { fill: #ff7769 } 
		.s11 { fill: none;stroke: #262626;stroke-linecap: round;stroke-linejoin: round;stroke-width: 1.4 } 
		.s12 { fill: #2390e2 } 
		.s13 { fill: #5d1113 } 
		.s14 { opacity: .5;fill: #93cffc } 
		.s15 { fill: #1775af } 
		.s16 { fill: #93cffc } 
		.s17 { opacity: .5;fill: #53b2f3 } 
		.s18 { opacity: .5;fill: #3d89bc } 
		.s19 { fill: none;stroke: #ffffff;stroke-linecap: round;stroke-linejoin: round } 
		.s20 { fill: #787c7f } 
		.s21 { fill: #4450e4 } 
		.s22 { opacity: .5;fill: #cdebf5 } 
		.s23 { fill: #64bffd } 
		.t24 { font-size: 38px;fill: #161617;font-weight: 400;font-family: "Norwester-Regular", "Norwester" } 
	</style>
	<g id="BACKGROUND">
		<path id="&lt;Path&gt;" class="s0" d="m1000 1000h-1000v-1000h1000z"/>
	</g>
	<g id="OBJECT">
		<g id="&lt;Group&gt;">
			<path id="&lt;Compound Path&gt;" fill-rule="evenodd" class="s1" d="m238.2 511.1l26.5 15.3c-2.8 10.4-7 20.2-12.3 29.3l-29.5-7.9-22.1 22.2 7.9 29.4c-9.2 5.3-19 9.4-29.5 12.1l-15.2-26.3h-31.3l-15.1 26.2c-10.5-2.8-20.3-7-29.5-12.3l7.8-29.1-22.1-22.2-29 7.8c-5.3-9.1-9.5-19-12.3-29.5l26.1-15v-31.3l-26.1-15.1c2.8-10.4 7-20.3 12.3-29.5l29 7.8 22.1-22.1-7.8-29.2c9.2-5.3 19-9.5 29.5-12.3l15.1 26.2h31.3l15.2-26.3c10.5 2.7 20.4 6.9 29.5 12.1l-7.9 29.5 22.1 22.1 29.5-7.9c5.3 9.1 9.5 18.9 12.3 29.4l-26.5 15.3zm-24.7-15.7c0-35.8-29-64.9-64.9-64.9-35.8 0-64.9 29.1-64.9 64.9 0 35.9 29.1 64.9 64.9 64.9 35.9 0 64.9-29 64.9-64.9z"/>
			<path id="&lt;Path&gt;" class="s1" d="m967.5 843.6c0 29.2-186.4 52.9-416.3 52.9-229.8 0-416.2-23.7-416.2-52.9 0-29.3 186.4-52.9 416.2-52.9 229.9 0 416.3 23.6 416.3 52.9z"/>
			<path id="&lt;Path&gt;" class="s2" d="m237.5 495.4v-29.8c0-13.7 13.1-24.8 29.2-24.8h303.5l21.2-37.1c2.6-4.6 8.1-7.5 14.1-7.5h71.2c8.7 0 15.7 6 15.7 13.3v385.9c-0.3 3.7-1.8 15-11 24.6-12.8 13.3-30 12.5-32.6 12.3h-411.3z"/>
			<g id="&lt;Group&gt;">
				<path id="&lt;Path&gt;" class="s1" d="m577.6 478.6l-44-46.5-5.7 26.2-46.7-47.6-10 24.4-34.6-42.7-29.7 16.4-25.8-44.6-28.3 22.5-36.9-41.4c28.4-62.2 62.4-109 89-140.5q138.1 56.4 276.2 112.9c-26.8 46.2-54.6 100.4-80.4 162.5z"/>
				<path id="&lt;Path&gt;" class="s1" d="m383.2 373.9l25.9 44.5 29.7-16.3 34.6 42.6 10-24.4 46.6 47.6 5.7-26.2 44.1 46.5 23.1 1.6q-0.5 1.2-1.1 2.4c-27.4 66.6-46.9 128.7-60.9 183.4l-276.2-112.9c3.5-46.4 13.9-114.1 45.5-189.7q3.8-9.2 7.9-18.1l36.9 41.5z"/>
				<path id="&lt;Path&gt;" class="s3" d=""/>
				<path id="&lt;Path&gt;" class="s3" d="m600.7 480.2l-23.1-1.6-44-46.5-5.7 26.2-46.7-47.6-10 24.4-34.6-42.7"/>
				<path id="&lt;Path&gt;" class="s3" d="m602.9 489.8l-23.1-1.6-44.1-46.5-5.7 26.2-46.6-47.6-10 24.4-34.6-42.6"/>
			</g>
			<g id="&lt;Group&gt;">
				<path id="&lt;Path&gt;" class="s1" d="m128.4 257.4c-7.3 1.6-11.9 8.7-10.4 16 16.9 49 33.3 105 46.6 167.3 14.3 66.5 22.5 127.9 27 182.3 0.2 0.9 1.3 5.5 5.9 8.5 2.9 1.9 6.5 2.7 10.1 1.9l254.6-53.6c7.3-1.6 11.9-8.7 10.4-16-3.2-50.5-10.7-109.2-25.8-173.4-10.4-43.9-22.8-83.5-35.7-118.6q-44.2-27.6-88.3-55.3z"/>
				<path id="&lt;Path&gt;" class="s4" d="m346.3 285.5l64.8-13.7-88.3-55.3 13.1 62.2c1 4.7 5.6 7.8 10.4 6.8z"/>
				<path id="&lt;Path&gt;" class="s3" d="m322.8 216.5l13.1 62.2c1 4.7 5.6 7.8 10.4 6.8l64.8-13.7"/>
				<g id="&lt;Group&gt;">
				</g>
				<path id="&lt;Path&gt;" class="s3" d="m128.4 257.4c-7.3 1.6-11.9 8.7-10.4 16 16.9 49 33.3 105 46.6 167.3 14.3 66.5 22.5 127.9 27 182.3 0.2 0.9 1.3 5.5 5.9 8.5 2.9 1.9 6.5 2.7 10.1 1.9l254.6-53.6c7.3-1.6 11.9-8.7 10.4-16-3.2-50.5-10.7-109.2-25.8-173.4-10.4-43.9-22.8-83.5-35.7-118.6q-44.2-27.6-88.3-55.3z"/>
			</g>
			<path id="&lt;Path&gt;" class="s2" d="m154.1 500.4h446.8c11.7 0 22.8 9.5 24.8 21.1l51.5 294.7c2 11.7-5.8 21.1-17.4 21.1h-446.9c-11.7 0-22.8-9.4-24.8-21.1l-51.5-294.7c-2-11.6 5.8-21.1 17.5-21.1z"/>
			<g id="&lt;Group&gt;">
				<path id="&lt;Path&gt;" class="s5" d="m695.6 290.3l18.9-6.1 30.3 8.7-0.7 4.4h-20.5l-12 12-10.4 2z"/>
				<g id="&lt;Group&gt;">
					<path id="&lt;Path&gt;" class="s6" d="m712.3 288.5c5.2-2.9 18.4-9.2 34-6.1 4.8 0.9 13.5 2.7 19.1 10.1 2.9 4 3.8 8 4.4 11.3 1.9 9.6-1.3 13.5-1.4 29.5 0 6 0.4 8.3 1.9 10.5 2.7 4.3 6.2 3.6 12 7.7 0.9 0.6 9.2 6.5 12.6 16.5 2.4 7.2-0.1 9.2 2.7 13.1 4.4 6.1 12.1 3.5 15.9 8.6 4.5 6-0.6 16.7-1.2 18-12.2 26.1-89.2 38.6-122.4 4.9-1.2-1.1-20.3-20.8-14.7-34.5 3.2-7.9 13.4-11 13.4-20.2 0-4-1.9-4.2-2.9-11-0.7-4.9-1.6-11.4 1.7-16.7 3.9-6.1 10.2-5.3 11.4-10.2 0.8-3.9-2.7-5.9-3.4-10-0.7-4.5 1.9-11.3 16.9-21.5z"/>
					<path id="&lt;Path&gt;" class="s7" d="m763.9 291.8c4.3 4.1 9.3 10.4 10.3 18.7 1.5 11.6-6 17-2.7 25.2 3 7.5 10.1 5 19.6 15.6 2.9 3.4 9.3 10.6 10.7 21 1.1 8.6-2.1 13.8 1.5 17.1 0 0 1.1 1 11.5 3"/>
					<path id="&lt;Path&gt;" class="s7" d="m694.6 324.4c-5.1 2.3-11.6 6.2-13.6 12.9-2.4 8 4.1 11.8 2.7 20.9-1.8 12-15.4 12.9-15.1 24.2 0.2 5.8 2.1 10.7 8.6 19.2 5.3 7.1 11.4 10.3 12.7 11 2.2 1.2 4.2 2 5.6 2.5"/>
				</g>
				<path id="&lt;Path&gt;" class="s8" d="m694.6 286.5c-48.4 0.2-83.7 20.7-86.7 42.8-2.9 22.1 26.8 46.4 39.2 56.6 13.1 10.8 25.8 17.3 34.7 21.2l37.3-39.7-58.9-31.3 42.5-19z"/>
				<g id="&lt;Group&gt;">
					<path id="&lt;Path&gt;" class="s9" d="m745.9 367.4q-6 0-12 0-7.4 0-14.8 0c-7.4 4.3-18 12-26.6 24.6-9.9 14.6-12.5 29.3-14.3 49-2 21.8-2.9 53.5 0.5 91.2l134.5-1.1q0-34.9 0-69.7c-0.6-17.6-2.7-32.1-4.7-42.7-3.1-17-5.7-22.3-8.5-26.5-8-11.8-19.3-16.8-24.5-19.1-12-5.4-23-6-29.6-5.7z"/>
				</g>
				<g id="&lt;Clip Group&gt;" clip-path="url(#cp1)">
				</g>
				<g id="&lt;Group&gt;">
					<g id="&lt;Group&gt;">
						<path id="&lt;Path&gt;" class="s5" d="m732.5 378.2c7.5 0.1 13.6-6 13.7-13.5l0.1-29.4-27.3-0.1-0.1 29.3c0 7.6 6.1 13.7 13.6 13.7z"/>
					</g>
					<g id="&lt;Group&gt;">
						<path id="&lt;Path&gt;" class="s10" d="m718.9 356.3l17.8-9.1c-0.2 1.6-1.2 8.8-7.5 13.7-4.1 3.2-8.3 3.9-10.3 4.1z"/>
					</g>
					<g id="&lt;Group&gt;">
						<path id="&lt;Path&gt;" class="s5" d="m746.9 326.2c0.1-0.4 1.3-1.1 1.7-1.3q0.9-0.6 1.9-0.9c1.3-0.4 2.8-0.5 4.2-0.2 2.7 0.6 5.1 2.9 5.5 5.7 0.3 1.6-0.1 3.3-0.8 4.8-1 2.2-2.8 4.1-4.9 5.3-1.8 1-3.8 1.6-5.9 1.7-0.4 0.1-4.6 0-4.5-0.2q1.4-7.4 2.8-14.9z"/>
					</g>
					<g id="&lt;Group&gt;">
						<path id="&lt;Path&gt;" class="s5" d="m750.7 326.5c-0.3 2.2-2.3 13.8-12.7 21.9-1.9 1.5-14.6 11.5-26.3 6.6-15-6.2-13.3-30.8-13.2-32.2 0.3-4.5 1.4-17.7 12.4-24.8 8.9-5.8 18.7-3.7 20-3.3 1.5 0.3 10.7 2.6 16.4 11.7 5.1 8.2 3.9 16.5 3.4 20.1z"/>
					</g>
					<path id="&lt;Path&gt;" class="s6" d="m707 322.8c-0.3 2-1.7 3.4-3.3 3.2-1.6-0.2-2.7-2-2.5-3.9 0.3-1.9 1.8-3.3 3.3-3.1 1.6 0.2 2.7 1.9 2.5 3.8z"/>
					<path id="&lt;Path&gt;" class="s6" d="m724.3 325c-0.3 1.9-1.7 3.3-3.3 3.1-1.6-0.2-2.7-1.9-2.5-3.8 0.3-1.9 1.8-3.3 3.4-3.1 1.5 0.2 2.6 1.9 2.4 3.8z"/>
					<path id="&lt;Path&gt;" class="s11" d="m712.2 325.7l-2.6 3.6c-0.5 0.7-0.4 1.6 0.3 2l2.5 1.5"/>
					<g id="&lt;Group&gt;">
						<path id="&lt;Path&gt;" class="s10" d="m730.1 334.1c-0.3 2.1-2.2 3.6-4.4 3.4-2.2-0.3-3.7-2.3-3.4-4.4 0.3-2.2 2.2-3.7 4.4-3.4 2.1 0.2 3.7 2.2 3.4 4.4z"/>
					</g>
					<path id="&lt;Path&gt;" class="s11" d="m748.8 336.1c0-0.4-0.1-3.4 2.3-5.5 1.8-1.6 3.9-1.7 4.5-1.7"/>
					<path id="&lt;Path&gt;" class="s11" d="m750.8 331.2c0.2 0 1.7-0.2 2.8 1 0.9 0.9 0.9 2.1 0.8 2.3"/>
					<g id="&lt;Group&gt;">
						<path id="&lt;Path&gt;" class="s10" d="m700.5 327.8c-0.7 0-1.4 0.1-2.1 0.4 0.1 2.1 0.3 4.6 0.8 7.4q0.1 0 0.3 0c2.2 0.3 4.2-1.2 4.4-3.4 0.3-2.1-1.2-4.1-3.4-4.4z"/>
					</g>
					<path id="&lt;Path&gt;" class="s6" d="m695.8 306.4c-0.5 1.6-0.7 3.5-0.1 5.1 0.7 1.6 2 2.9 3.7 3.5 2.1 0.6 4.6 0.1 5.9-1.8 0 0 0.7 1.3 2.4 1.7 1.8 0.4 3.8-1.6 3.8-1.7-0.1 0.1 1.6 1.3 1.8 1.4 0.6 0.1 1.1 0 1.7-0.2 0.2-0.1 2.3-1 2.3-1.3 0 1.3 2.8 0.7 3.3 0.3 0.4-0.2 1.7-1.2 1.7-1.7 0 0-0.1 2.6 1.5 2.9 1.6 0.2 4.1-2.2 4.1-2.2 0 0 1 2.4 2 2.4 0.9 0.1 3.2-1.9 3.2-1.9 0 0 0.3 0.3 1.4 1.4 1.2 1 3.4-1.4 3.4-1.4l8.8 15.4c0 0-0.1-2.2 1.2-3.1 1.3-1 3.1-1.4 3.1-1.4 0.5-0.4 0.6-2.1 0.7-2.8q0.2-1.5 0.2-3.1c0.1-1.9-0.2-3.8-0.7-5.6-1.1-3.5-3.3-6.6-5.8-9.3-5.1-5.7-12-10.2-19.5-11.9-2.7-0.6-5.4-0.9-8.1-0.8-3.9 0.1-7.5 1.5-10.9 3.5-4.8 2.8-9.3 7-11.1 12.6z"/>
					<path id="&lt;Path&gt;" class="s0" d="m712.1 341.4l8.8-2.1c-0.5-2.5-2.9-4.1-5.2-3.7-2.5 0.4-4.3 3.1-3.6 5.8z"/>
				</g>
				<g id="&lt;Group&gt;">
					<path id="&lt;Path&gt;" class="s5" d="m777.7 440.6c-20.8 32.5-43.1 47.8-59.5 55.8-34 16.4-96.5 27.2-104 31.3-2.6 1.5-4.1 1.7-7.2 2.1-1.1 0.1-2.8 0.2-4.3-0.8-0.4-0.3-1.1-0.7-1.3-1.6-0.3-1.4 0.9-3.3 0.9-3.3-0.3 0.3-1.3 1-2.7 0.9-0.4 0-1.9-0.1-2.9-1.1-1.1-1.2-1.2-3.3-0.2-5.2-2 1.9-4.7 1.9-6 0.5-0.9-0.8-1.3-2.4-0.7-3.8 0.4-1 1.2-1.4 1.5-1.6-0.7 0.2-2.7 0.6-4.6-0.4-0.6-0.3-1.5-0.7-1.9-1.7-0.6-1.5 0.3-3.1 0.5-3.3 0.9-1.6 2.4-2.1 5.1-3 5.4-1.7 11.3-3.4 11.3-3.4l-10.6-4.3c-1.4-1.4-2-3.3-1.5-4.7 0.8-2.1 4-3.4 7-1.9q10.4 2.5 20.7 5c0 0 6.8 1.4 12.4 0.5 5.7-0.9 47.8-25 56.2-31.4 8.3-6.4 44.3-40.1 44.3-40.1z"/>
				</g>
				<g id="&lt;Group&gt;">
					<path id="&lt;Path&gt;" class="s12" d="m687.8 532.2c0 0-34.8 115.9-36.9 132.7-2 16.7 13.7 147.6 13.7 147.6h47.9l25.3-129.7c0 0 3.3 23.2 18.7 39.6 15.5 16.3 72.2 72.6 72.2 72.6l35.9-35.1-43.2-79.1c-2.5-16.8-3.7-31.1-4.5-41.8-1.1-16.8-1.7-25.3-0.8-35.3 1.7-20.3 6.2-23.8 5.9-37.6-0.3-8.4-2.3-20.5-11-35q-61.6 0.5-123.2 1.1z"/>
				</g>
				<g id="&lt;Group&gt;">
					<path id="&lt;Path&gt;" class="s5" d="m709 812.5v48.7h-78.1l2.1-14c0 0 24.4-13.8 28.3-16.9 3.8-3.1 7.8-9.2 8.7-11.2 0.8-1.9 0-6.6 0-6.6z"/>
				</g>
				<g id="&lt;Group&gt;">
					<path id="&lt;Path&gt;" class="s12" d="m712.9 830.8c-0.9-0.2-2.4-0.5-3.9 0-4 1.1-5.1 5.7-6.8 8.2 0 0-44.8 0.5-44.8 0.5q0.2-3.4 0.3-6.8-3.5-1.1-7-2.3c-4.8 5.5-9.6 8.6-13.2 10.5-5.5 3-12.6 5.3-15.5 10.3-1.4 2.4-1.5 4.8-1.5 5.3 0 1.2-0.1 3 1.2 4.2 0.9 0.9 2.1 1 2.7 1q43.3-0.3 86.7-0.5c1 0 1.8-0.9 1.8-1.9z"/>
				</g>
				<path id="&lt;Path&gt;" class="s13" d="m624.3 866.7h85.2c1.9 0 3.4-1.5 3.4-3.4v-3.8h-92v3.8c0 1.9 1.5 3.4 3.4 3.4z"/>
				<path id="&lt;Path&gt;" class="s14" d="m697.9 502.8l0.5 19.5q8.6-4.2 17.4-8.8 8.6-4.4 17-8.9 0-7.9 0-15.8z"/>
				<g id="&lt;Group&gt;">
					<path id="&lt;Path&gt;" class="s5" d="m863.8 760.7l34 34.8-55.9 54.5-8.3-11.5c0 0 8-26.9 8.5-31.8 0.5-4.9-0.8-12.1-1.6-14-0.7-2-4.6-4.8-4.6-4.8z"/>
				</g>
				<g id="&lt;Group&gt;">
					<path id="&lt;Path&gt;" class="s12" d="m879.5 771c-0.9 0.5-2.1 1.3-2.9 2.7-2.1 3.6 0.4 7.7 0.9 10.7 0 0-31.7 31.6-31.7 31.6q-2.3-2.6-4.6-5.1-3.2 1.6-6.5 3.3c0.3 7.3-0.9 12.8-2.2 16.7-1.9 5.9-5.4 12.6-4 18.2 0.7 2.7 2.4 4.5 2.7 4.8 0.8 0.9 2 2.2 3.8 2.2 1.3 0 2.2-0.8 2.6-1.2q30.9-30.4 61.7-60.9c0.7-0.7 0.8-1.8 0-2.6z"/>
				</g>
				<path id="&lt;Path&gt;" class="s13" d="m841.1 858.6l60.9-59.5c1.4-1.3 1.4-3.5 0.1-4.8l-2.7-2.8-65.9 64.3 2.7 2.7c1.3 1.4 3.5 1.4 4.9 0.1z"/>
				<path id="&lt;Path&gt;" class="s7" d="m590 496.3c0.8 0.5 1.8 1.2 3 1.8 2.2 1.3 4.1 2.1 5.5 2.6 1.9 0.8 4.4 1.5 7.3 2.1"/>
				<path id="&lt;Path&gt;" class="s7" d="m587.7 513.8c0 0 1 0.5 3.6 0 2.7-0.6 5.5-2.1 5.5-2.1"/>
				<path id="&lt;Path&gt;" class="s7" d="m593.4 520.2c0 0 1.1-0.3 3.6-1.4 2.5-1.2 4.9-2.8 4.9-2.8"/>
				<path id="&lt;Path&gt;" class="s7" d="m600.7 524.9c0 0 2.1-0.8 3.3-1.6 1.2-0.7 2.6-1.9 2.6-1.9"/>
				<path id="&lt;Path&gt;" class="s15" d="m729.3 599.2c0 0-25 95.7-26.6 120.5-1.5 24.7-8.2 92.8-8.2 92.8h18l25.3-129.7z"/>
				<path id="&lt;Path&gt;" class="s7" d="m748.7 712.1c-3.6-6.4-8.3-16.4-10.9-29.3-0.5-2.6-0.8-4.3-2.3-19.7-2-20.6-3.5-37.5-3.6-38.5-0.6-6.4-1.5-16-2.6-28 0 0-1.5-23.7-2.3-35.9"/>
				<path id="&lt;Path&gt;" class="s7" d="m780.7 531.1c0 0 6 115 8.7 128.8 2.8 13.8 9.8 44 21.6 59.6 11.9 15.6 38.8 54.9 38.8 54.9"/>
				<path id="&lt;Path&gt;" class="s7" d="m728.9 601c0 0-22.9 93.7-24.6 106.2-1.6 12.5-9.8 105.3-9.8 105.3"/>
				<path id="&lt;Path&gt;" class="s16" d="m863.8 760.7l-27.9 27.2 3.3 2.9 29-25.6z"/>
				<path id="&lt;Path&gt;" class="s16" d="m709 812.5h-39l0.3 4.8h38.7z"/>
				<path id="&lt;Path&gt;" class="s8" d="m719 367c0 0-15.1 55.8-17.9 76.3-2.8 20.5-2.8 96.9-2.8 96.9h-26.2c-1.1-11.5-6.3-74.3 5.3-119.8 5.8-22.4 13.8-33.8 22.2-41.3 7.2-6.5 14.6-10.1 19.4-12.1z"/>
				<path id="&lt;Path&gt;" class="s17" d="m671 524.9c4.1 0.6 9.4 0.9 15.6 0.1 4.6-0.6 8.6-1.6 11.8-2.7q0.1-7.4 0.2-14.7l-28.5 11.1z"/>
				<path id="&lt;Path&gt;" class="s8" d="m833.9 547.6c-8.4-64.1-17.9-112.6-24.3-135.9-2.5-9.1-6.8-22.6-18.7-32-7.2-5.8-15.4-8.4-18.4-9.4-10.6-3.4-19.9-3.4-25.6-2.9 0 0-11.3 28.6-11.5 39.6-9.6 14.3-24.1 32.2-45.2 48.9-23.1 18.3-45.7 28.3-61.4 33.9l7.6 41.3c0 0 64.1-22 97.6-38.3-0.4 26.7-0.8 49.3-0.8 49.3z"/>
				<path id="&lt;Path&gt;" class="s18" d="m732.8 504.6l0.2-11.8c23.6-12.1 37.2-26.6 44.2-35.5 9.7-12.1 17-26.3 20.1-32.2 4.2-8 7.2-15 9.3-20.1q3 11.3 6 22.6c-4.7 11-13.9 28.8-31.3 45.8-18.2 17.9-37.2 26.8-48.5 31.2z"/>
				<path id="&lt;Path&gt;" class="s7" d="m806 407.1c0 0-12.8 28.6-24.5 45.3-8.3 11.8-22.5 27.2-48.5 40.4-14.1 6.4-29 12.7-44.6 18.9-18.2 7.2-35.9 13.7-53 19.4"/>
				<path id="&lt;Path&gt;" class="s7" d="m768 369.3c-2.8 0.2-7.1 0.8-11.2 3.4-4.9 3.2-7 7.4-10.1 13.2-2.6 4.9-6.7 12.2-12.3 21.1-5.4 7.3-27.9 37.4-55.6 56.6-11.4 8-21.5 13.2-21.5 13.2-13.3 6.9-29.5 13-29.5 13"/>
				<path id="&lt;Path&gt;" class="s7" d="m685.5 398.5c0 0-3.9 7.1-6.4 16.6-2.5 9.4-4.5 19.3-4.5 19.3"/>
				<path id="&lt;Path&gt;" class="s7" d="m719.1 367.4l-66.8-35.7"/>
				<path id="&lt;Path&gt;" class="s19" d="m648.9 304.9c-4.7 0.5-16.6 2.6-25.4 12.5-2.5 2.8-6.6 7.4-7.3 14.3-1.4 13.1 10.5 22.4 11.6 23.2"/>
				<path id="&lt;Path&gt;" class="s7" d="m809.1 452.1l9.6 73.4"/>
			</g>
			<g id="&lt;Group&gt;">
				<path id="&lt;Compound Path&gt;" class="s20" d="m391.9 698.4q-2.5-14.2-1.8-22.9 0.7-8.7 5.7-15.9 2.8-4.3 6.9-7.5 4-3.1 7.2-6.6 3.3-3.5 5.2-7.8 1.9-4.4 0.7-11.4-2.1-11.8-9.4-16.5-7.4-4.7-16.3-4.7-12.8 0-16.4 7.1-3.5 7.1-2.6 19.2h-31.1q-2.1-11.8 0.1-21.5 2.1-9.6 8.1-16.4 5.9-6.7 15.3-10.3 9.4-3.6 21.4-3.6 26.1 0 43 10.6 16.9 10.6 21.1 34.4 1.3 7.8 0.8 13.5-0.6 5.8-2.9 10.5-2.3 4.7-6.2 8.8-3.9 4.1-8.9 8.5-4.6 4.1-7.2 7.6-2.7 3.5-3.7 7.3-1 3.9-0.7 8.1 0.2 4.2 1.1 9.5zm7.2 46.6l-5.5-31.6h32.5l5.6 31.6z"/>
			</g>
			<path id="&lt;Path&gt;" class="s21" d="m80.1 866.9c-1.6-6.1 2.1-12.4 8.2-14.1l159-42.3 5.9 22.3-159 42.3c-6.1 1.6-12.4-2-14.1-8.2z"/>
			<path id="&lt;Path&gt;" class="s22" d="m402.5 791.4c0 43.6-35.4 78.9-79 78.9-43.6 0-78.9-35.3-78.9-78.9 0-43.6 35.3-78.9 78.9-78.9 43.6 0 79 35.3 79 78.9z"/>
			<path id="&lt;Compound Path&gt;" fill-rule="evenodd" class="s8" d="m323.5 879.6c-48.7 0-88.1-39.4-88.1-88.2 0-48.7 39.4-88.2 88.1-88.2 48.8 0 88.2 39.5 88.2 88.2 0 48.8-39.4 88.2-88.2 88.2zm73.9-88.2c0-40.8-33-73.8-73.9-73.8-40.8 0-73.8 33-73.8 73.8 0 40.9 33 73.9 73.8 73.9 40.9 0 73.9-33 73.9-73.9z"/>
			<g id="&lt;Group&gt;">
				<g id="&lt;Group&gt;">
					<path id="&lt;Path&gt;" class="s0" d="m339.1 843.5c-0.9-0.8-1.5-2-1.6-3.4-0.2-2.7 1.9-5 4.6-5.2 4.9-0.3 9.8-1.6 14.1-3.9 4.8-2.6 7.9-5.8 9.3-7.5 1.7-1.9 5.3-6 6.6-12.1 1.7-8.5-2-15.8-3.7-18.6-1.4-2.3-0.7-5.3 1.6-6.8 2.4-1.4 5.4-0.7 6.8 1.7 2.9 4.6 7.3 14.2 4.9 25.7-1.8 8.6-6.7 14.2-8.7 16.6-2.3 2.6-6.3 6.5-12.2 9.6-5.5 3-11.8 4.8-18.1 5.1-1.4 0.1-2.6-0.4-3.6-1.2z"/>
				</g>
			</g>
			<path id="&lt;Path&gt;" class="s23" d="m185.4 822.6l-107.7 29.4c-8.8 2.3-14 11.3-11.7 20.1 2.3 8.7 11.3 14 20.1 11.6l109.1-29z"/>
			<path id="&lt;Path&gt;" class="s7" d="m185.3 848.8l-96 25"/>
			<path id="&lt;Path&gt;" class="s7" d="m356.6 716.3c-7.8-3.4-28.5-11.5-53.1-5.3-10.1 2.6-18.1 6.8-23.7 10.5"/>
			<g id="&lt;Group&gt;">
				<path id="&lt;Compound Path&gt;" class="s8" d="m814.8 276.5q1.4-10.7 3.8-17.1 2.5-6.4 7.9-11.3 3.2-2.9 7-4.8 3.7-2 7-4.3 3.2-2.2 5.7-5.3 2.4-3 3-8.3 1.2-9-3.3-13.2-4.5-4.1-11.3-5-9.6-1.2-14 3.7-4.3 5-6.4 14l-23.5-3q1.1-8.9 4.9-15.9 3.9-6.9 9.9-11.3 6-4.5 14-6.3 7.9-1.8 17-0.6 19.8 2.5 30.2 11.9 10.4 9.5 8.1 27.6-0.7 5.8-2.5 10.1-1.7 4.2-4.5 7.5-2.9 3.2-6.7 5.9-3.9 2.7-8.7 5.4-4.4 2.6-7.2 5-2.8 2.3-4.4 5.1-1.7 2.7-2.4 5.9-0.8 3.1-1.3 7.1zm-5.2 35.2l3-23.9 24.7 3.1-3 23.9z"/>
			</g>
			<g id="&lt;Group&gt;">
				<path id="&lt;Compound Path&gt;" class="s2" d="m726.8 229.7q-1.4-7.6-1.1-12.5 0.3-4.9 3-9.4 1.5-2.7 3.6-4.8 2.2-2.1 3.9-4.4 1.7-2.2 2.7-4.8 1-2.6 0.3-6.4-1.1-6.3-5.1-8.2-3.9-1.9-8.7-1-6.9 1.2-8.8 5.5-1.9 4.3-1.3 10.9l-16.7 3.1q-1.2-6.4-0.1-11.9 1.2-5.6 4.3-9.9 3.2-4.3 8.2-7.3 5-2.9 11.5-4.1 14-2.5 23.1 1.7 9.1 4.2 11.5 17.1 0.7 4.1 0.5 7.4-0.3 3.2-1.5 6-1.3 2.9-3.3 5.5-2.1 2.7-4.8 5.6-2.4 2.7-3.8 4.9-1.4 2.2-1.9 4.4-0.6 2.3-0.4 4.6 0.1 2.3 0.6 5.1zm4.1 25.1l-3.1-16.9 17.5-3.2 3.1 16.9z"/>
			</g>
		</g>
	</g>
	<text id=" No  Data  Found!!" style="transform: matrix(.987,-0.161,.161,.987,202.881,295.473)" >
		<tspan x="10" y="72.2" class="t24">N</tspan><tspan  y="72.2" class="t24">o</tspan><tspan  y="72.2" class="t24"> </tspan><tspan  y="72.2" class="t24">
</tspan>
		<tspan x="23.9" y="117.8" class="t24">R</tspan><tspan  y="117.8" class="t24">e</tspan><tspan  y="117.8" class="t24">c</tspan><tspan  y="117.8" class="t24">o</tspan><tspan  y="117.8" class="t24">r</tspan><tspan  y="117.8" class="t24">d</tspan><tspan  y="117.8" class="t24">
</tspan>
		<tspan x="35.7" y="163.4" class="t24">F</tspan><tspan  y="163.4" class="t24">o</tspan><tspan  y="163.4" class="t24">u</tspan><tspan  y="163.4" class="t24">n</tspan><tspan  y="163.4" class="t24">d</tspan><tspan  y="163.4" class="t24">!</tspan><tspan  y="163.4" class="t24">!
</tspan>
	</text>
</svg>