<svg width="44" height="51" viewBox="0 0 44 51" fill="none" xmlns="http://www.w3.org/2000/svg">
<path d="M15.4926 50.3738L11.641 46.944C11.4302 46.7472 11.149 46.6347 10.8538 46.6066L6.08854 46.213C5.73712 46.1849 5.52626 45.8194 5.66683 45.4961L12.4844 30.0476L23.1255 34.7426L16.3079 50.1911C16.1673 50.5144 15.7597 50.5988 15.4926 50.3738Z" fill="url(#paint0_linear_412_7926)"/>
<path d="M30.1238 50.3738L33.9754 46.944C34.1863 46.7472 34.4674 46.6347 34.7626 46.6066L39.5279 46.213C39.8793 46.1849 40.0902 45.8194 39.9496 45.4961L33.132 30.0476L22.491 34.7426L29.3085 50.1911C29.4491 50.5144 29.8568 50.5988 30.1238 50.3738Z" fill="url(#paint1_linear_412_7926)"/>
<path d="M40.6149 25.3906C42.2919 15.0136 35.2392 5.24193 24.8621 3.56494C14.4851 1.88795 4.71345 8.9407 3.03646 19.3177C1.35947 29.6947 8.41222 39.4664 18.7892 41.1434C29.1662 42.8204 38.9379 35.7676 40.6149 25.3906Z" fill="url(#paint2_linear_412_7926)"/>
<path d="M39.298 26.3409C41.5777 16.6289 35.5527 6.90769 25.8407 4.62797C16.1287 2.34826 6.4075 8.37331 4.12779 18.0853C1.84807 27.7973 7.87312 37.5185 17.5851 39.7982C27.2971 42.0779 37.0183 36.0529 39.298 26.3409Z" fill="url(#paint3_linear_412_7926)"/>
<path d="M34.2806 25.0015C35.9454 17.9203 31.5545 10.8302 24.4733 9.1654C17.3921 7.5006 10.302 11.8915 8.63719 18.9727C6.97239 26.054 11.3633 33.144 18.4445 34.8088C25.5257 36.4736 32.6158 32.0827 34.2806 25.0015Z" fill="url(#paint4_linear_412_7926)"/>
<g style="mix-blend-mode:overlay">
<path d="M9.09475 22.7801C9.09475 15.5127 14.9846 9.62283 22.252 9.62283C25.724 9.62283 28.8587 10.9723 31.2203 13.1652C28.8165 10.5928 25.4007 8.96216 21.6054 8.96216C14.3239 8.96216 8.43408 14.852 8.43408 22.1194C8.43408 25.9147 10.0506 29.3306 12.6371 31.7343C10.4442 29.3868 9.09475 26.2381 9.09475 22.766V22.7801Z" fill="white"/>
</g>
<path d="M21.5913 8.96216C21.4789 8.96216 21.3664 8.96216 21.2539 8.97622C28.0012 9.15895 33.4272 14.6692 33.4272 21.4587C33.4272 28.2482 27.8326 33.9553 20.9306 33.9553C14.0287 33.9553 8.63088 28.5434 8.44814 21.7961C8.44814 21.9085 8.43408 22.021 8.43408 22.1334C8.43408 29.4008 14.3239 35.3047 21.5913 35.3047C28.8587 35.3047 34.7626 29.4149 34.7626 22.1334C34.7626 14.852 28.8728 8.96216 21.5913 8.96216Z" fill="url(#paint5_linear_412_7926)"/>
<path d="M23.8992 24.2163H25.9744C25.908 25.0076 25.6866 25.7132 25.3103 26.333C24.934 26.9473 24.4055 27.4315 23.7249 27.7856C23.0442 28.1398 22.2169 28.3169 21.2429 28.3169C20.4958 28.3169 19.8235 28.1841 19.2258 27.9185C18.6282 27.6473 18.1163 27.2655 17.6902 26.7729C17.2641 26.2749 16.9376 25.6745 16.7107 24.9717C16.4893 24.2689 16.3787 23.4831 16.3787 22.6143V21.6099C16.3787 20.741 16.4921 19.9552 16.719 19.2524C16.9514 18.5496 17.2834 17.9492 17.7151 17.4512C18.1467 16.9476 18.6641 16.563 19.2673 16.2974C19.8761 16.0317 20.5595 15.8989 21.3176 15.8989C22.2805 15.8989 23.094 16.076 23.7581 16.4302C24.4221 16.7843 24.9368 17.2741 25.302 17.8994C25.6728 18.5247 25.8997 19.2414 25.9827 20.0493H23.9075C23.8521 19.5291 23.7304 19.0837 23.5422 18.7129C23.3596 18.3421 23.0885 18.0599 22.7288 17.8662C22.3691 17.667 21.8987 17.5674 21.3176 17.5674C20.8417 17.5674 20.4267 17.6559 20.0725 17.833C19.7183 18.0101 19.4223 18.2702 19.1843 18.6133C18.9464 18.9564 18.7665 19.3797 18.6448 19.8833C18.5286 20.3813 18.4705 20.9513 18.4705 21.5933V22.6143C18.4705 23.223 18.523 23.7764 18.6282 24.2744C18.7389 24.7669 18.9049 25.1903 19.1262 25.5444C19.3531 25.8986 19.6409 26.1725 19.9895 26.3662C20.3381 26.5599 20.7559 26.6567 21.2429 26.6567C21.835 26.6567 22.3137 26.5627 22.679 26.3745C23.0497 26.1864 23.3292 25.9124 23.5173 25.5527C23.711 25.1875 23.8383 24.742 23.8992 24.2163Z" fill="#565656"/>
<defs>
<linearGradient id="paint0_linear_412_7926" x1="11.8237" y1="45.3696" x2="15.0147" y2="38.8613" gradientUnits="userSpaceOnUse">
<stop stop-color="#D60909"/>
<stop offset="1" stop-color="#A00505"/>
</linearGradient>
<linearGradient id="paint1_linear_412_7926" x1="33.3148" y1="45.2712" x2="30.419" y2="38.1584" gradientUnits="userSpaceOnUse">
<stop stop-color="#D60909"/>
<stop offset="1" stop-color="#A00505"/>
</linearGradient>
<linearGradient id="paint2_linear_412_7926" x1="6.39646" y1="33.4937" x2="37.2626" y2="11.2159" gradientUnits="userSpaceOnUse">
<stop stop-color="#D5D5D5"/>
<stop offset="0.12" stop-color="#D7D7D7"/>
<stop offset="0.31" stop-color="#CECECE"/>
<stop offset="0.69" stop-color="#9B9B9B"/>
<stop offset="1" stop-color="white"/>
</linearGradient>
<linearGradient id="paint3_linear_412_7926" x1="6.36318" y1="31.7297" x2="37.0699" y2="12.6982" gradientUnits="userSpaceOnUse">
<stop stop-color="#D5D5D5"/>
<stop offset="0.12" stop-color="#D7D7D7"/>
<stop offset="0.31" stop-color="#CECECE"/>
<stop offset="0.69" stop-color="#9B9B9B"/>
<stop offset="1" stop-color="white"/>
</linearGradient>
<linearGradient id="paint4_linear_412_7926" x1="10.2637" y1="28.9226" x2="32.6594" y2="15.0529" gradientUnits="userSpaceOnUse">
<stop stop-color="#D5D5D5"/>
<stop offset="0.12" stop-color="#D7D7D7"/>
<stop offset="0.31" stop-color="#CECECE"/>
<stop offset="0.69" stop-color="#9B9B9B"/>
<stop offset="1" stop-color="white"/>
</linearGradient>
<linearGradient id="paint5_linear_412_7926" x1="12.2898" y1="12.8226" x2="30.9168" y2="31.4397" gradientUnits="userSpaceOnUse">
<stop stop-color="#D5D5D5"/>
<stop offset="0.12" stop-color="#D7D7D7"/>
<stop offset="0.31" stop-color="#CECECE"/>
<stop offset="0.69" stop-color="#9B9B9B"/>
<stop offset="1" stop-color="white"/>
</linearGradient>
</defs>
</svg>
