<svg width="74" height="56" viewBox="0 0 74 56" fill="none" xmlns="http://www.w3.org/2000/svg">
<path id="&#226;&#128;&#156;" opacity="0.1" d="M0.739746 56V40.3772C0.739746 35.683 1.61096 30.8422 3.35338 25.8546C5.17156 20.7937 7.63368 16.0262 10.7397 11.5521C13.8458 7.00458 17.2928 3.1539 21.0806 0L35.5125 8.36149C32.6337 12.909 30.2094 17.7132 28.2397 22.7741C26.27 27.835 25.2852 33.666 25.2852 40.2672V56H0.739746ZM38.6943 56V40.3772C38.6943 35.683 39.5655 30.8422 41.3079 25.8546C43.1261 20.7937 45.5882 16.0262 48.6943 11.5521C51.8003 7.00458 55.2473 3.1539 59.0352 0L73.467 8.36149C70.5882 12.909 68.164 17.7132 66.1943 22.7741C64.2246 27.835 63.2397 33.666 63.2397 40.2672V56H38.6943Z" fill="#3DA1E3"/>
</svg>
