<svg width="18" height="18" viewBox="0 0 18 18" fill="none" xmlns="http://www.w3.org/2000/svg">
<path d="M16.5 7.5V9.75C16.5 12.75 15 14.25 12 14.25H11.625C11.3925 14.25 11.1675 14.3625 11.025 14.55L9.9 16.05C9.405 16.71 8.595 16.71 8.1 16.05L6.975 14.55C6.855 14.385 6.5775 14.25 6.375 14.25H6C3 14.25 1.5 13.5 1.5 9.75V6C1.5 3 3 1.5 6 1.5L8.1 1.5" stroke="white" stroke-width="1.5" stroke-miterlimit="10" stroke-linecap="round" stroke-linejoin="round"/>
<path d="M8.99661 8.25H9.00335" stroke="white" stroke-width="2" stroke-linecap="round" stroke-linejoin="round"/>
<path d="M5.99588 8.25H6.00262" stroke="white" stroke-width="2" stroke-linecap="round" stroke-linejoin="round"/>
<path d="M11.07 6.465H14.07C15.105 6.465 15.945 5.625 15.945 4.59C15.945 3.555 15.105 2.715 14.07 2.715H9.94501" stroke="white" stroke-width="1.5" stroke-miterlimit="10" stroke-linecap="round" stroke-linejoin="round"/>
<path d="M11.625 4.5L9.75 2.625L11.625 0.75" stroke="white" stroke-width="1.5" stroke-linecap="round" stroke-linejoin="round"/>
</svg>
