<svg width="96" height="64" viewBox="0 0 96 64" fill="none" xmlns="http://www.w3.org/2000/svg">
<path d="M5.84365 61.1619C5.84365 61.1619 -5.86388 46.5901 3.8636 30.8134C12.4945 16.8156 22.5574 17.7723 29.9402 23.4531C33.0847 25.8726 42.1505 23.7512 49.8667 9.50779C60.3896 -9.91609 96.8655 1.86438 90.215 31.7489C86.9965 46.2107 100.01 46.7364 93.3792 61.1924L5.84398 61.1619H5.84365Z" fill="#D0E8F7"/>
<path d="M70.3137 55.3374C70.3137 55.329 70.3596 54.3882 69.9048 54.1715L69.9369 54.1406C70.1453 54.2132 70.3758 54.4383 70.4684 54.7555C70.5371 54.9914 70.485 55.0431 70.485 55.0518L70.3137 55.337V55.3374Z" fill="#C1F5BF"/>
<path d="M67.3003 52.8986C67.3003 52.8986 67.4558 54.1099 68.1944 54.4643C68.9331 54.8186 69.9752 54.1825 69.9752 54.1825C69.9752 54.1825 69.8197 52.9711 69.081 52.6168C68.3424 52.2621 67.3003 52.8986 67.3003 52.8986Z" fill="#AAE2A8"/>
<path d="M70.2361 57.102C70.2274 57.0545 70.0636 55.9466 70.4829 54.7119C70.886 53.5255 70.6626 52.5193 70.6609 52.5093H70.9573C70.9648 52.5522 70.9856 53.5397 70.6697 54.8928C70.3854 56.1104 70.916 57.102 70.8031 57.102H70.2357H70.2361Z" fill="#37474F"/>
<path d="M70.8585 53.8313C70.8601 53.825 71.0014 53.013 71.3824 52.9209C71.2124 52.943 70.996 53.0651 70.8751 53.2919C70.7851 53.4607 70.8168 53.5082 70.8151 53.5149L70.8589 53.8313H70.8585Z" fill="#C1F5BF"/>
<path d="M72.0806 53.9152C71.5112 53.8001 71.1936 52.9952 71.1936 52.9952C71.1936 52.9952 71.7989 52.3766 72.3678 52.4912C72.9372 52.6063 73.2549 53.4112 73.2549 53.4112C73.2549 53.4112 72.6496 54.0298 72.0806 53.9152Z" fill="#AAE2A8"/>
<path d="M67.6589 51.2912C66.7527 49.9152 67.1333 48.0644 68.5097 47.1582C69.8861 46.252 71.7365 46.6326 72.6427 48.009C73.5489 49.385 73.1683 51.2357 71.7919 52.142C70.4155 53.0482 68.5651 52.6676 67.6589 51.2912Z" fill="#FFB93E"/>
<path d="M71.6655 51.9504C71.059 52.3498 70.3332 52.489 69.6221 52.3427C68.911 52.1964 68.2991 51.7816 67.8997 51.1751C67.5004 50.5686 67.3612 49.8429 67.5075 49.1318C67.6538 48.4206 68.0685 47.8087 68.675 47.4094C69.2815 47.01 70.0073 46.8708 70.7184 47.0171C71.4295 47.1634 72.0415 47.5782 72.4408 48.1847C72.8401 48.7912 72.9794 49.5169 72.833 50.228C72.6867 50.9392 72.272 51.5511 71.6655 51.9504ZM68.7642 47.5452C67.5871 48.3206 67.2603 49.9092 68.0356 51.0863C68.8109 52.2635 70.3995 52.5903 71.5767 51.8154C72.7538 51.0401 73.0806 49.4515 72.3057 48.2743C71.5304 47.0971 69.9418 46.7703 68.7647 47.5452H68.7642Z" fill="#FFA412"/>
<path d="M70.9169 50.1329C70.8906 50.08 70.8598 50.0375 70.8248 50.0045C70.7897 49.9716 70.7472 49.9474 70.6968 49.9316C70.6463 49.9158 70.588 49.9074 70.5205 49.9066C70.4534 49.9058 70.3746 49.9116 70.2841 49.9237C70.1282 49.9437 69.9836 49.9549 69.8498 49.9583C69.716 49.9616 69.5938 49.9491 69.4834 49.9212C69.3729 49.8932 69.2741 49.8453 69.1866 49.7774C69.0994 49.7094 69.0248 49.614 68.9631 49.4906C68.9098 49.3839 68.8798 49.2767 68.8735 49.17C68.8673 49.0633 68.8831 48.9595 68.9206 48.8586C68.9581 48.7582 69.0161 48.6627 69.0936 48.5727C69.1711 48.4827 69.2683 48.4014 69.3842 48.3293L69.182 47.9258L69.5067 47.7632L69.7118 48.1721C69.8356 48.1288 69.9569 48.1071 70.0749 48.1058C70.1928 48.105 70.3037 48.125 70.4071 48.1659C70.5105 48.2067 70.6055 48.2688 70.6918 48.3522C70.7785 48.4355 70.8531 48.5398 70.916 48.6656L70.3295 48.9595C70.2541 48.8086 70.1641 48.7128 70.0594 48.6715C69.9552 48.6302 69.8464 48.6377 69.7343 48.694C69.6734 48.7244 69.6251 48.7594 69.5897 48.7982C69.5542 48.8374 69.5296 48.8787 69.5159 48.9224C69.5021 48.9662 69.4988 49.0116 69.5055 49.0587C69.5121 49.1058 69.5271 49.1525 69.5505 49.1992C69.5738 49.2459 69.6017 49.2842 69.6338 49.3155C69.6664 49.3463 69.7072 49.3697 69.7564 49.3851C69.8056 49.4005 69.8648 49.4089 69.9335 49.4097C70.0023 49.4105 70.0853 49.406 70.1816 49.3951C70.3375 49.3784 70.4821 49.3689 70.6155 49.3664C70.7489 49.3643 70.871 49.3772 70.9819 49.406C71.0928 49.4347 71.1916 49.4827 71.2791 49.5506C71.3662 49.6185 71.4404 49.7136 71.5017 49.8353C71.5571 49.9458 71.5876 50.055 71.593 50.1621C71.5984 50.2697 71.5822 50.3726 71.5438 50.4722C71.5055 50.5714 71.4463 50.6657 71.3666 50.7544C71.2866 50.8432 71.1887 50.9237 71.0728 50.9962L71.2608 51.3714L70.9381 51.5331L70.7514 51.16C70.6334 51.205 70.5125 51.2346 70.3887 51.2496C70.2649 51.2647 70.1449 51.2567 70.0282 51.2263C69.9115 51.1959 69.8018 51.1388 69.6989 51.0554C69.5959 50.9716 69.5067 50.8545 69.4313 50.7036L70.0177 50.4097C70.0624 50.4989 70.1124 50.5673 70.167 50.6144C70.222 50.6615 70.2791 50.6927 70.3391 50.7073C70.3992 50.7223 70.4592 50.7236 70.52 50.7111C70.5809 50.6986 70.6388 50.6786 70.6943 50.6511C70.7581 50.6194 70.8098 50.5831 70.8494 50.5427C70.8894 50.5023 70.9181 50.4593 70.9361 50.4143C70.954 50.3693 70.9611 50.3226 70.9577 50.2751C70.954 50.2276 70.9406 50.1804 70.9173 50.1338L70.9169 50.1329Z" fill="#FFA412"/>
<path d="M73.2179 56.814L73.2174 56.8165L73.1583 57.7306L72.9373 61.1241H68.8077L68.5642 57.7769L68.4975 56.8544L68.4946 56.814H73.2179Z" fill="#B4C9F7"/>
<path d="M73.2174 56.8169L73.1578 57.731C72.8469 57.6226 71.9823 57.3621 70.8556 57.3621C69.4333 57.3621 68.5638 57.7773 68.5638 57.7773L68.4967 56.8548L73.217 56.8169H73.2174Z" fill="#9BB8EA"/>
<path d="M73.3613 57.2975H68.3446L68.2875 56.7144H73.425L73.3613 57.2975Z" fill="#B4C9F7"/>
<path d="M73.0007 61.3055H68.7189L68.6697 61.1025H73.0553L73.0007 61.3055Z" fill="#B4C9F7"/>
<path d="M28.5761 60.2782V61.0043C28.5761 61.0622 28.5553 61.116 28.519 61.1606C28.4811 61.2077 28.4265 61.2448 28.3627 61.2652C28.3431 61.2719 28.3227 61.2765 28.3019 61.2794C28.2827 61.2823 28.2631 61.284 28.2431 61.284H14.4656C14.2881 61.284 14.1417 61.1656 14.1326 61.0185C14.1326 61.0139 14.1326 61.0089 14.1326 61.0043V60.2782C14.1326 60.2732 14.1326 60.2686 14.1326 60.2636C14.1417 60.1164 14.2881 59.998 14.4656 59.998H28.2431C28.2631 59.998 28.2827 59.9997 28.3019 60.0026C28.3227 60.0055 28.3431 60.0106 28.3627 60.0168C28.4265 60.0376 28.4811 60.0743 28.519 60.1214C28.5553 60.166 28.5761 60.2198 28.5761 60.2778V60.2782Z" fill="#FFB93E"/>
<path d="M21.8104 61.2845H14.4293C14.2709 61.2845 14.1401 61.1661 14.1321 61.019C14.1321 61.0144 14.1321 61.0094 14.1321 61.0048V60.2787C14.1321 60.2736 14.1321 60.2691 14.1321 60.2641C14.1401 60.1169 14.2709 59.9985 14.4293 59.9985H20.9041C21.0075 60.377 21.2485 60.901 21.8104 61.2849V61.2845Z" fill="#FFA412"/>
<path d="M26.8996 59.9985H26.7429V61.2849H26.8996V59.9985Z" fill="#FFA412"/>
<path d="M26.3694 59.9985H26.2127V61.2849H26.3694V59.9985Z" fill="#FFA412"/>
<path d="M25.7341 59.9985H25.5774V61.2849H25.7341V59.9985Z" fill="#FFA412"/>
<path d="M24.7596 59.9985H24.6028V61.2849H24.7596V59.9985Z" fill="#FFA412"/>
<path d="M23.7296 59.9985H23.5729V61.2849H23.7296V59.9985Z" fill="#FFA412"/>
<path d="M22.1501 59.9985H21.9934V61.2849H22.1501V59.9985Z" fill="#FFA412"/>
<path d="M20.6711 59.9985H20.5144V61.2849H20.6711V59.9985Z" fill="#FFA412"/>
<path d="M19.3506 59.9985H19.1939V61.2849H19.3506V59.9985Z" fill="#FFA412"/>
<path d="M27.404 59.9985H27.2473V61.2849H27.404V59.9985Z" fill="#FFA412"/>
<path d="M27.7374 59.9985H27.5807V61.2849H27.7374V59.9985Z" fill="#FFA412"/>
<path d="M28.0593 59.9985H27.9025V61.2849H28.0593V59.9985Z" fill="#FFA412"/>
<path d="M28.3014 60.0026V61.2798C28.2823 61.2828 28.2627 61.2844 28.2427 61.2844H28.1447V59.998H28.2427C28.2627 59.998 28.2823 59.9997 28.3014 60.0026Z" fill="#FFA412"/>
<path d="M28.5187 60.1216V61.1604C28.4807 61.2075 28.4261 61.2446 28.3624 61.265V60.0166C28.4261 60.0374 28.4807 60.0741 28.5187 60.1212V60.1216Z" fill="#FFA412"/>
<path d="M27.1031 58.9925V59.7187C27.1031 59.7766 27.0822 59.8304 27.0459 59.875C27.008 59.9221 26.9534 59.9592 26.8896 59.9796C26.87 59.9863 26.8496 59.9909 26.8288 59.9938C26.8096 59.9967 26.79 59.9984 26.77 59.9984H12.9925C12.815 59.9984 12.6687 59.88 12.6595 59.7328C12.6595 59.7278 12.6595 59.7232 12.6595 59.7187V58.9925C12.6595 58.9875 12.6595 58.9829 12.6595 58.9779C12.6687 58.8308 12.815 58.7124 12.9925 58.7124H26.77C26.7787 58.7124 26.7875 58.7124 26.7963 58.7132C26.8 58.7132 26.8038 58.7137 26.8075 58.7141C26.8117 58.7141 26.8158 58.7149 26.82 58.7153C26.8229 58.7153 26.8259 58.7162 26.8288 58.7166C26.8496 58.7195 26.8705 58.7245 26.8896 58.7312C26.8925 58.732 26.8955 58.7328 26.8984 58.7341C26.9013 58.7349 26.9042 58.7362 26.9067 58.737C26.9121 58.7391 26.918 58.7416 26.9234 58.7437C26.9267 58.7449 26.9296 58.7466 26.933 58.7483C26.9359 58.7495 26.9388 58.7508 26.9413 58.7524C26.9467 58.7549 26.9517 58.7578 26.9572 58.7608C26.963 58.7641 26.9688 58.7678 26.9742 58.7716C26.9788 58.7745 26.983 58.7774 26.9872 58.7803C26.9872 58.7803 26.9876 58.7803 26.988 58.7812C26.9909 58.7833 26.9938 58.7854 26.9963 58.7874C27.0047 58.7941 27.013 58.8012 27.0205 58.8083C27.023 58.8104 27.0251 58.8124 27.0272 58.8149C27.0293 58.817 27.0314 58.8195 27.0334 58.8216C27.0376 58.8262 27.0418 58.8312 27.0459 58.8358C27.0822 58.8804 27.1031 58.9342 27.1031 58.9921V58.9925Z" fill="#FFB93E"/>
<path d="M20.3377 59.9988H12.9567C12.7979 59.9988 12.6674 59.8805 12.6595 59.7333C12.6595 59.7283 12.6595 59.7237 12.6595 59.7191V58.993C12.6595 58.988 12.6595 58.9834 12.6595 58.9784C12.6674 58.8313 12.7979 58.7129 12.9567 58.7129H19.4311C19.434 58.7233 19.4369 58.7337 19.4402 58.7446C19.5482 59.1201 19.7912 59.6258 20.3377 59.9988Z" fill="#FFA412"/>
<path d="M25.4264 58.7124H25.2697V59.9988H25.4264V58.7124Z" fill="#FFA412"/>
<path d="M24.8967 58.7124H24.74V59.9988H24.8967V58.7124Z" fill="#FFA412"/>
<path d="M24.261 58.7124H24.1043V59.9988H24.261V58.7124Z" fill="#FFA412"/>
<path d="M23.2869 58.7124H23.1301V59.9988H23.2869V58.7124Z" fill="#FFA412"/>
<path d="M22.2565 58.7124H22.0997V59.9988H22.2565V58.7124Z" fill="#FFA412"/>
<path d="M20.6771 58.7124H20.5203V59.9988H20.6771V58.7124Z" fill="#FFA412"/>
<path d="M19.198 58.7124H19.0413V59.9988H19.198V58.7124Z" fill="#FFA412"/>
<path d="M17.8775 58.7124H17.7208V59.9988H17.8775V58.7124Z" fill="#FFA412"/>
<path d="M25.9313 58.7124H25.7746V59.9988H25.9313V58.7124Z" fill="#FFA412"/>
<path d="M26.2644 58.7124H26.1077V59.9988H26.2644V58.7124Z" fill="#FFA412"/>
<path d="M26.5861 58.7124H26.4294V59.9988H26.5861V58.7124Z" fill="#FFA412"/>
<path d="M26.8283 58.717V59.9942C26.8091 59.9971 26.7895 59.9988 26.7695 59.9988H26.6716V58.7124H26.7695C26.7895 58.7124 26.8091 58.7141 26.8283 58.717Z" fill="#FFA412"/>
<path d="M27.046 58.8355V59.8743C27.0081 59.9214 26.9535 59.9585 26.8897 59.9789V58.7305C26.9535 58.7513 27.0081 58.788 27.046 58.8351V58.8355Z" fill="#FFA412"/>
<path d="M27.8146 57.7376V58.4638C27.8146 58.5217 27.7938 58.5755 27.7575 58.6201C27.7196 58.6672 27.665 58.7043 27.6012 58.7247C27.5816 58.7314 27.5612 58.736 27.5403 58.7389C27.5211 58.7418 27.5016 58.7435 27.4815 58.7435H13.7041C13.6486 58.7435 13.5965 58.7322 13.5503 58.7118C13.4527 58.6689 13.3831 58.5867 13.3723 58.4905C13.3719 58.4863 13.3714 58.4821 13.371 58.4779C13.371 58.4734 13.371 58.4684 13.371 58.4638V57.7376C13.371 57.7326 13.371 57.728 13.371 57.723C13.3802 57.5759 13.5265 57.4575 13.7041 57.4575H27.4815C27.5016 57.4575 27.5211 57.4592 27.5403 57.4621C27.5612 57.465 27.5816 57.47 27.6012 57.4767C27.665 57.4975 27.7196 57.5342 27.7575 57.5813C27.7938 57.6259 27.8146 57.6797 27.8146 57.7376Z" fill="#FFB93E"/>
<path d="M21.0493 58.744H13.6682C13.6191 58.744 13.5724 58.7327 13.5311 58.7123C13.444 58.6693 13.3819 58.5872 13.3723 58.4909C13.3719 58.4868 13.3714 58.4826 13.371 58.4784C13.371 58.4739 13.371 58.4688 13.371 58.4643V57.7381C13.371 57.7331 13.371 57.7285 13.371 57.7235C13.379 57.5764 13.5098 57.458 13.6682 57.458H20.143C20.2435 57.8261 20.4744 58.3317 21.0042 58.7123C21.0192 58.7231 21.0342 58.7335 21.0497 58.744H21.0493Z" fill="#FFA412"/>
<path d="M26.1385 57.4575H25.9818V58.7439H26.1385V57.4575Z" fill="#FFA412"/>
<path d="M25.6082 57.4575H25.4515V58.7439H25.6082V57.4575Z" fill="#FFA412"/>
<path d="M24.973 57.4575H24.8162V58.7439H24.973V57.4575Z" fill="#FFA412"/>
<path d="M23.9983 57.4575H23.8416V58.7439H23.9983V57.4575Z" fill="#FFA412"/>
<path d="M22.9684 57.4575H22.8116V58.7439H22.9684V57.4575Z" fill="#FFA412"/>
<path d="M21.3889 57.4575H21.2322V58.7439H21.3889V57.4575Z" fill="#FFA412"/>
<path d="M19.91 57.4575H19.7533V58.7439H19.91V57.4575Z" fill="#FFA412"/>
<path d="M18.5895 57.4575H18.4328V58.7439H18.5895V57.4575Z" fill="#FFA412"/>
<path d="M26.6428 57.4575H26.4861V58.7439H26.6428V57.4575Z" fill="#FFA412"/>
<path d="M26.9763 57.4575H26.8196V58.7439H26.9763V57.4575Z" fill="#FFA412"/>
<path d="M27.2982 57.4575H27.1414V58.7439H27.2982V57.4575Z" fill="#FFA412"/>
<path d="M27.5403 57.4621V58.7393C27.5212 58.7422 27.5016 58.7439 27.4816 58.7439H27.3836V57.4575H27.4816C27.5016 57.4575 27.5212 57.4592 27.5403 57.4621Z" fill="#FFA412"/>
<path d="M27.7575 57.5816V58.6204C27.7195 58.6675 27.6649 58.7046 27.6011 58.725V57.4766C27.6649 57.4974 27.7195 57.5341 27.7575 57.5812V57.5816Z" fill="#FFA412"/>
<path d="M28.1447 56.4512V57.1777C28.1447 57.2357 28.1238 57.2894 28.0876 57.334C28.0496 57.3811 27.995 57.4182 27.9313 57.4387C27.9117 57.4453 27.8912 57.4499 27.8704 57.4532C27.8512 57.4562 27.8316 57.4578 27.8116 57.4578H14.0342C13.8566 57.4578 13.7103 57.3394 13.7011 57.1923C13.7011 57.1873 13.7011 57.1827 13.7011 57.1781V56.4516C13.7011 56.4466 13.7011 56.442 13.7011 56.4374C13.7094 56.3011 13.8353 56.1898 13.9946 56.174C14.0075 56.1727 14.0204 56.1719 14.0342 56.1719H27.8116C27.8316 56.1719 27.8512 56.1735 27.8704 56.1765C27.8912 56.1794 27.9117 56.1844 27.9313 56.191C27.995 56.2119 28.0496 56.2486 28.0876 56.2957C28.1238 56.3403 28.1447 56.3941 28.1447 56.452V56.4512Z" fill="#FFB93E"/>
<path d="M21.3793 57.4573H13.9983C13.8399 57.4573 13.709 57.339 13.7011 57.1918C13.7011 57.1868 13.7011 57.1822 13.7011 57.1776V56.4511C13.7011 56.4461 13.7011 56.4415 13.7011 56.4369C13.7086 56.3006 13.8207 56.1893 13.9633 56.1735C13.9746 56.1722 13.9866 56.1714 13.9983 56.1714H20.4731C20.4731 56.1714 20.4731 56.1726 20.4735 56.1735C20.5773 56.552 20.8183 57.0743 21.3793 57.4578V57.4573Z" fill="#FFA412"/>
<path d="M26.4686 56.1714H26.3118V57.4573H26.4686V56.1714Z" fill="#FFA412"/>
<path d="M25.9384 56.1714H25.7817V57.4573H25.9384V56.1714Z" fill="#FFA412"/>
<path d="M25.3027 56.1714H25.1459V57.4573H25.3027V56.1714Z" fill="#FFA412"/>
<path d="M24.3285 56.1714H24.1718V57.4573H24.3285V56.1714Z" fill="#FFA412"/>
<path d="M23.2982 56.1714H23.1414V57.4573H23.2982V56.1714Z" fill="#FFA412"/>
<path d="M21.7187 56.1714H21.562V57.4573H21.7187V56.1714Z" fill="#FFA412"/>
<path d="M20.2402 56.1714H20.0835V57.4573H20.2402V56.1714Z" fill="#FFA412"/>
<path d="M18.9196 56.1714H18.7629V57.4573H18.9196V56.1714Z" fill="#FFA412"/>
<path d="M26.973 56.1714H26.8163V57.4573H26.973V56.1714Z" fill="#FFA412"/>
<path d="M27.3065 56.1714H27.1498V57.4573H27.3065V56.1714Z" fill="#FFA412"/>
<path d="M27.6282 56.1714H27.4715V57.4573H27.6282V56.1714Z" fill="#FFA412"/>
<path d="M27.87 56.176V57.4532C27.8508 57.4561 27.8312 57.4578 27.8112 57.4578H27.7133V56.1714H27.8112C27.8312 56.1714 27.8508 56.1731 27.87 56.176Z" fill="#FFA412"/>
<path d="M28.0877 56.295V57.3338C28.0497 57.3809 27.9951 57.418 27.9313 57.4384V56.1899C27.9951 56.2108 28.0497 56.2475 28.0877 56.2946V56.295Z" fill="#FFA412"/>
<path d="M27.1317 55.1673V55.8934C27.1317 55.9513 27.1109 56.0051 27.0746 56.0497C27.0367 56.0968 26.9821 56.1339 26.9183 56.1543C26.8987 56.161 26.8783 56.1656 26.8575 56.1685C26.8512 56.1693 26.8445 56.1702 26.8383 56.171C26.835 56.171 26.8312 56.1714 26.8275 56.1718C26.8241 56.1718 26.8204 56.1723 26.8166 56.1723C26.8108 56.1723 26.8049 56.1727 26.7991 56.1727H13.0217C12.8441 56.1727 12.6978 56.0543 12.6886 55.9071C12.6886 55.9021 12.6886 55.8976 12.6886 55.893V55.1668C12.6886 55.1618 12.6886 55.1572 12.6886 55.1522C12.6886 55.1481 12.689 55.1443 12.6894 55.1406C12.7028 55.0222 12.8053 54.9242 12.9391 54.8955C12.9425 54.8946 12.9458 54.8942 12.9491 54.8934C12.9725 54.8892 12.9966 54.8867 13.0212 54.8867H26.7987C26.8087 54.8867 26.8187 54.8871 26.8287 54.888C26.8333 54.8884 26.8375 54.8888 26.842 54.8892C26.847 54.8896 26.8525 54.8905 26.8575 54.8913C26.8783 54.8942 26.8987 54.8992 26.9183 54.9059C26.9821 54.9267 27.0367 54.9634 27.0746 55.0105C27.1109 55.0551 27.1317 55.1089 27.1317 55.1668V55.1673Z" fill="#FFB93E"/>
<path d="M20.3665 56.1737H12.9855C12.8271 56.1737 12.6962 56.0553 12.6883 55.9081C12.6883 55.9031 12.6883 55.8985 12.6883 55.894V55.1678C12.6883 55.1628 12.6883 55.1582 12.6883 55.1532C12.6883 55.1491 12.6887 55.1453 12.6891 55.1416C12.7012 55.0202 12.7963 54.921 12.9201 54.8948C12.9242 54.8935 12.9284 54.8927 12.933 54.8923C12.9501 54.8894 12.9676 54.8877 12.9855 54.8877H19.4603C19.4611 54.8906 19.462 54.8935 19.4628 54.8969C19.5674 55.2741 19.8084 55.7914 20.3636 56.172C20.3644 56.1724 20.3657 56.1732 20.3665 56.1741V56.1737Z" fill="#FFA412"/>
<path d="M25.4557 54.8872H25.299V56.1736H25.4557V54.8872Z" fill="#FFA412"/>
<path d="M24.9255 54.8872H24.7687V56.1736H24.9255V54.8872Z" fill="#FFA412"/>
<path d="M24.2897 54.8872H24.133V56.1736H24.2897V54.8872Z" fill="#FFA412"/>
<path d="M23.3156 54.8872H23.1589V56.1736H23.3156V54.8872Z" fill="#FFA412"/>
<path d="M22.2852 54.8872H22.1285V56.1736H22.2852V54.8872Z" fill="#FFA412"/>
<path d="M20.7057 54.8872H20.549V56.1736H20.7057V54.8872Z" fill="#FFA412"/>
<path d="M19.2273 54.8872H19.0706V56.1736H19.2273V54.8872Z" fill="#FFA412"/>
<path d="M17.9067 54.8872H17.7499V56.1736H17.9067V54.8872Z" fill="#FFA412"/>
<path d="M25.9601 54.8872H25.8033V56.1736H25.9601V54.8872Z" fill="#FFA412"/>
<path d="M26.2936 54.8872H26.1368V56.1736H26.2936V54.8872Z" fill="#FFA412"/>
<path d="M26.6154 54.8872H26.4587V56.1736H26.6154V54.8872Z" fill="#FFA412"/>
<path d="M26.8572 54.8918V56.169C26.838 56.1719 26.8184 56.1736 26.7984 56.1736H26.7004V54.8872H26.7984C26.8184 54.8872 26.838 54.8889 26.8572 54.8918Z" fill="#FFA412"/>
<path d="M27.0747 55.0113V56.0501C27.0368 56.0972 26.9822 56.1343 26.9184 56.1547V54.9062C26.9822 54.9271 27.0368 54.9638 27.0747 55.0109V55.0113Z" fill="#FFA412"/>
<path d="M27.1031 53.8901V54.6162C27.1031 54.6741 27.0822 54.7279 27.046 54.7725C27.008 54.8196 26.9534 54.8567 26.8897 54.8771C26.8742 54.8821 26.8584 54.8863 26.8421 54.8892C26.8375 54.8901 26.8334 54.8909 26.8292 54.8917C26.81 54.8946 26.7904 54.8963 26.7704 54.8963H12.993C12.9784 54.8963 12.9638 54.8955 12.95 54.8938C12.9446 54.8934 12.9388 54.8926 12.9338 54.8917C12.7841 54.8692 12.6683 54.7613 12.6603 54.6308C12.6603 54.6258 12.6603 54.6212 12.6603 54.6166V53.8905C12.6603 53.8855 12.6603 53.8809 12.6603 53.8759C12.6695 53.7287 12.8158 53.6104 12.9934 53.6104H26.7708C26.7796 53.6104 26.7884 53.6104 26.7971 53.6112C26.8009 53.6112 26.8046 53.6116 26.8084 53.612C26.8125 53.612 26.8167 53.6129 26.8209 53.6133C26.8238 53.6133 26.8267 53.6141 26.8296 53.6145C26.8505 53.6174 26.8713 53.6224 26.8905 53.6291C26.8934 53.6299 26.8963 53.6308 26.8992 53.632C26.9022 53.6329 26.9051 53.6341 26.9076 53.6349C26.9134 53.637 26.9188 53.6395 26.9242 53.6416C26.9305 53.6445 26.9363 53.647 26.9422 53.6504C26.9476 53.6529 26.9526 53.6558 26.958 53.6587C26.9638 53.662 26.9697 53.6658 26.9751 53.6695C26.9797 53.6725 26.9839 53.6754 26.988 53.6783C26.988 53.6783 26.9884 53.6783 26.9889 53.6791C26.9918 53.6812 26.9947 53.6833 26.9972 53.6854C27.0055 53.6921 27.0139 53.6991 27.0214 53.7062C27.0239 53.7083 27.026 53.7104 27.028 53.7129C27.0301 53.7154 27.0322 53.7175 27.0343 53.7196C27.0385 53.7241 27.0426 53.7291 27.0468 53.7337C27.0831 53.7783 27.1039 53.8321 27.1039 53.8901H27.1031Z" fill="#FFB93E"/>
<path d="M20.3377 54.8963H12.9567C12.9509 54.8963 12.945 54.8963 12.9392 54.8959C12.9329 54.8959 12.9263 54.8951 12.92 54.8942C12.7783 54.878 12.6666 54.7667 12.6595 54.6308C12.6595 54.6258 12.6595 54.6212 12.6595 54.6166V53.8905C12.6595 53.8855 12.6595 53.8809 12.6595 53.8759C12.6674 53.7287 12.7979 53.6104 12.9567 53.6104H19.4311C19.434 53.6208 19.4369 53.6312 19.4402 53.642C19.5474 54.0147 19.7871 54.5149 20.3244 54.8876C20.329 54.8905 20.3331 54.8934 20.3377 54.8967V54.8963Z" fill="#FFA412"/>
<path d="M25.4264 53.6104H25.2697V54.8963H25.4264V53.6104Z" fill="#FFA412"/>
<path d="M24.8967 53.6104H24.74V54.8963H24.8967V53.6104Z" fill="#FFA412"/>
<path d="M24.261 53.6104H24.1043V54.8963H24.261V53.6104Z" fill="#FFA412"/>
<path d="M23.2869 53.6104H23.1301V54.8963H23.2869V53.6104Z" fill="#FFA412"/>
<path d="M22.2565 53.6104H22.0997V54.8963H22.2565V53.6104Z" fill="#FFA412"/>
<path d="M20.6771 53.6104H20.5203V54.8963H20.6771V53.6104Z" fill="#FFA412"/>
<path d="M19.198 53.6104H19.0413V54.8963H19.198V53.6104Z" fill="#FFA412"/>
<path d="M17.8775 53.6104H17.7208V54.8963H17.8775V53.6104Z" fill="#FFA412"/>
<path d="M25.9313 53.6104H25.7746V54.8963H25.9313V53.6104Z" fill="#FFA412"/>
<path d="M26.2644 53.6104H26.1077V54.8963H26.2644V53.6104Z" fill="#FFA412"/>
<path d="M26.5861 53.6104H26.4294V54.8963H26.5861V53.6104Z" fill="#FFA412"/>
<path d="M26.8283 53.6144V54.8917C26.8091 54.8946 26.7895 54.8962 26.7695 54.8962H26.6716V53.6099H26.7695C26.7895 53.6099 26.8091 53.6115 26.8283 53.6144Z" fill="#FFA412"/>
<path d="M27.046 53.7339V54.7727C27.0081 54.8198 26.9535 54.8569 26.8897 54.8773V53.6289C26.9535 53.6497 27.0081 53.6864 27.046 53.7335V53.7339Z" fill="#FFA412"/>
<path d="M27.8146 52.6356V53.3617C27.8146 53.4197 27.7938 53.4734 27.7575 53.518C27.7196 53.5651 27.665 53.6022 27.6012 53.6227C27.5816 53.6293 27.5612 53.6339 27.5403 53.6368C27.5211 53.6398 27.5016 53.6414 27.4815 53.6414H13.7041C13.6486 53.6414 13.5965 53.6302 13.5503 53.6097C13.4527 53.5668 13.3831 53.4847 13.3723 53.3884C13.3719 53.3842 13.3714 53.3801 13.371 53.3759C13.371 53.3713 13.371 53.3663 13.371 53.3617V52.6356C13.371 52.6306 13.371 52.626 13.371 52.621C13.3802 52.4739 13.5265 52.3555 13.7041 52.3555H27.4815C27.5016 52.3555 27.5211 52.3571 27.5403 52.3601C27.5612 52.363 27.5816 52.368 27.6012 52.3746C27.665 52.3955 27.7196 52.4322 27.7575 52.4793C27.7938 52.5239 27.8146 52.5776 27.8146 52.6356Z" fill="#FFB93E"/>
<path d="M21.0493 53.6419H13.6682C13.6191 53.6419 13.5724 53.6307 13.5311 53.6102C13.444 53.5673 13.3819 53.4852 13.3723 53.3889C13.3719 53.3847 13.3714 53.3806 13.371 53.3764C13.371 53.3718 13.371 53.3668 13.371 53.3622V52.6361C13.371 52.6311 13.371 52.6265 13.371 52.6215C13.379 52.4743 13.5098 52.356 13.6682 52.356H20.143C20.2435 52.724 20.4744 53.2297 21.0042 53.6102C21.0192 53.6211 21.0342 53.6315 21.0497 53.6419H21.0493Z" fill="#FFA412"/>
<path d="M26.1385 52.3555H25.9818V53.6418H26.1385V52.3555Z" fill="#FFA412"/>
<path d="M25.6082 52.3555H25.4515V53.6418H25.6082V52.3555Z" fill="#FFA412"/>
<path d="M24.973 52.3555H24.8162V53.6418H24.973V52.3555Z" fill="#FFA412"/>
<path d="M23.9983 52.3555H23.8416V53.6418H23.9983V52.3555Z" fill="#FFA412"/>
<path d="M22.9684 52.3555H22.8116V53.6418H22.9684V52.3555Z" fill="#FFA412"/>
<path d="M21.3889 52.3555H21.2322V53.6418H21.3889V52.3555Z" fill="#FFA412"/>
<path d="M19.91 52.3555H19.7533V53.6418H19.91V52.3555Z" fill="#FFA412"/>
<path d="M18.5895 52.3555H18.4328V53.6418H18.5895V52.3555Z" fill="#FFA412"/>
<path d="M26.6428 52.3555H26.4861V53.6418H26.6428V52.3555Z" fill="#FFA412"/>
<path d="M26.9763 52.3555H26.8196V53.6418H26.9763V52.3555Z" fill="#FFA412"/>
<path d="M27.2982 52.3555H27.1414V53.6418H27.2982V52.3555Z" fill="#FFA412"/>
<path d="M27.5403 52.3601V53.6373C27.5212 53.6402 27.5016 53.6418 27.4816 53.6418H27.3836V52.3555H27.4816C27.5016 52.3555 27.5212 52.3571 27.5403 52.3601Z" fill="#FFA412"/>
<path d="M27.7575 52.4796V53.5183C27.7195 53.5654 27.6649 53.6025 27.6011 53.623V52.3745C27.6649 52.3954 27.7195 52.432 27.7575 52.4791V52.4796Z" fill="#FFA412"/>
<path d="M28.9405 51.3496V52.0762C28.9405 52.1341 28.9197 52.1879 28.8834 52.2325C28.8455 52.2796 28.7909 52.3167 28.7271 52.3371C28.7075 52.3438 28.6871 52.3483 28.6662 52.3517C28.6471 52.3546 28.6275 52.3563 28.6075 52.3563H14.83C14.6524 52.3563 14.5061 52.2379 14.4969 52.0907C14.4969 52.0857 14.4969 52.0812 14.4969 52.0766V51.35C14.4969 51.3454 14.4969 51.3404 14.4969 51.3358C14.5053 51.1995 14.6312 51.0882 14.7904 51.0724C14.8033 51.0711 14.8167 51.0703 14.83 51.0703H28.6075C28.6275 51.0703 28.6471 51.072 28.6662 51.0749C28.6871 51.0778 28.7075 51.0828 28.7271 51.0895C28.7909 51.1103 28.8455 51.147 28.8834 51.1941C28.9197 51.2387 28.9405 51.2925 28.9405 51.3504V51.3496Z" fill="#FFB93E"/>
<path d="M22.1752 52.3558H14.7942C14.6358 52.3558 14.5049 52.2374 14.4969 52.0903C14.4969 52.0852 14.4969 52.0807 14.4969 52.0761V51.3495C14.4969 51.3449 14.4969 51.3399 14.4969 51.3354C14.5045 51.199 14.6166 51.0877 14.7591 51.0719C14.7704 51.0707 14.7825 51.0698 14.7942 51.0698H21.269C21.269 51.0698 21.269 51.0711 21.2694 51.0719C21.3732 51.4504 21.6141 51.9727 22.1752 52.3562V52.3558Z" fill="#FFA412"/>
<path d="M27.2644 51.0698H27.1077V52.3562H27.2644V51.0698Z" fill="#FFA412"/>
<path d="M26.7341 51.0698H26.5774V52.3562H26.7341V51.0698Z" fill="#FFA412"/>
<path d="M26.0988 51.0698H25.9421V52.3562H26.0988V51.0698Z" fill="#FFA412"/>
<path d="M25.1243 51.0698H24.9675V52.3562H25.1243V51.0698Z" fill="#FFA412"/>
<path d="M24.0943 51.0698H23.9376V52.3562H24.0943V51.0698Z" fill="#FFA412"/>
<path d="M22.5148 51.0698H22.3581V52.3562H22.5148V51.0698Z" fill="#FFA412"/>
<path d="M21.0359 51.0698H20.8792V52.3562H21.0359V51.0698Z" fill="#FFA412"/>
<path d="M19.7153 51.0698H19.5586V52.3562H19.7153V51.0698Z" fill="#FFA412"/>
<path d="M27.7687 51.0698H27.612V52.3562H27.7687V51.0698Z" fill="#FFA412"/>
<path d="M28.1022 51.0698H27.9455V52.3562H28.1022V51.0698Z" fill="#FFA412"/>
<path d="M28.4241 51.0698H28.2673V52.3562H28.4241V51.0698Z" fill="#FFA412"/>
<path d="M28.6663 51.0739V52.3511C28.6471 52.354 28.6275 52.3557 28.6075 52.3557H28.5095V51.0693H28.6075C28.6275 51.0693 28.6471 51.071 28.6663 51.0739Z" fill="#FFA412"/>
<path d="M28.8834 51.1929V52.2317C28.8454 52.2788 28.7908 52.3159 28.7271 52.3363V51.0879C28.7908 51.1087 28.8454 51.1454 28.8834 51.1925V51.1929Z" fill="#FFA412"/>
<path d="M27.1319 50.0652V50.7913C27.1319 50.8493 27.111 50.9031 27.0748 50.9477C27.0368 50.9948 26.9822 51.0319 26.9184 51.0523C26.8988 51.059 26.8784 51.0635 26.8576 51.0665C26.8513 51.0673 26.8447 51.0681 26.8384 51.069C26.8334 51.0694 26.828 51.0698 26.823 51.0702C26.8205 51.0702 26.818 51.0702 26.8151 51.0706C26.8096 51.0706 26.8042 51.0706 26.7988 51.0706H13.0213C12.8438 51.0706 12.6975 50.9522 12.6883 50.8051C12.6883 50.8001 12.6883 50.7955 12.6883 50.7909V50.0648C12.6883 50.0598 12.6883 50.0552 12.6883 50.0502C12.6975 49.9031 12.8438 49.7847 13.0213 49.7847H26.7988C26.8046 49.7847 26.8105 49.7847 26.8163 49.7851C26.8305 49.7859 26.8438 49.7872 26.8576 49.7893C26.8784 49.7922 26.8988 49.7972 26.9184 49.8038C26.9284 49.8072 26.938 49.8105 26.9472 49.8147C26.953 49.8172 26.9589 49.8197 26.9643 49.8226C26.9647 49.8226 26.9655 49.823 26.966 49.8234C26.9718 49.8264 26.9772 49.8293 26.9826 49.8322C26.9839 49.8326 26.9847 49.8334 26.9855 49.8339C26.9906 49.8368 26.9956 49.8397 27.0006 49.843C27.0122 49.8505 27.0235 49.8585 27.0339 49.8672C27.0372 49.8697 27.0402 49.8726 27.0435 49.8755C27.0439 49.876 27.0447 49.8764 27.0452 49.8772C27.0472 49.8789 27.0489 49.8805 27.051 49.8826C27.051 49.8826 27.0518 49.8835 27.0522 49.8839C27.0556 49.8872 27.0589 49.8905 27.0618 49.8943C27.0664 49.8993 27.071 49.9043 27.0752 49.9093C27.1114 49.9539 27.1323 50.0077 27.1323 50.0656L27.1319 50.0652Z" fill="#FFB93E"/>
<path d="M20.3665 51.0716H12.9855C12.8271 51.0716 12.6962 50.9532 12.6883 50.8061C12.6883 50.8011 12.6883 50.7965 12.6883 50.7919V50.0658C12.6883 50.0608 12.6883 50.0562 12.6883 50.0512C12.6962 49.904 12.8271 49.7856 12.9855 49.7856H19.4603C19.4628 49.7952 19.4657 49.8052 19.4686 49.8152C19.5762 50.1904 19.8184 50.696 20.3636 51.0695C20.3644 51.0699 20.3657 51.0708 20.3665 51.0716Z" fill="#FFA412"/>
<path d="M25.4557 49.7856H25.299V51.072H25.4557V49.7856Z" fill="#FFA412"/>
<path d="M24.9255 49.7856H24.7687V51.072H24.9255V49.7856Z" fill="#FFA412"/>
<path d="M24.2897 49.7856H24.133V51.072H24.2897V49.7856Z" fill="#FFA412"/>
<path d="M23.3156 49.7856H23.1589V51.072H23.3156V49.7856Z" fill="#FFA412"/>
<path d="M22.2852 49.7856H22.1285V51.072H22.2852V49.7856Z" fill="#FFA412"/>
<path d="M20.7057 49.7856H20.549V51.072H20.7057V49.7856Z" fill="#FFA412"/>
<path d="M19.2273 49.7856H19.0706V51.072H19.2273V49.7856Z" fill="#FFA412"/>
<path d="M17.9067 49.7856H17.7499V51.072H17.9067V49.7856Z" fill="#FFA412"/>
<path d="M25.9601 49.7856H25.8033V51.072H25.9601V49.7856Z" fill="#FFA412"/>
<path d="M26.2936 49.7856H26.1368V51.072H26.2936V49.7856Z" fill="#FFA412"/>
<path d="M26.6154 49.7856H26.4587V51.072H26.6154V49.7856Z" fill="#FFA412"/>
<path d="M26.8572 49.7897V51.0669C26.838 51.0699 26.8184 51.0715 26.7984 51.0715H26.7004V49.7852H26.7984C26.8184 49.7852 26.838 49.7868 26.8572 49.7897Z" fill="#FFA412"/>
<path d="M27.0747 49.9088V50.9475C27.0368 50.9946 26.9822 51.0317 26.9184 51.0522V49.8037C26.9822 49.8246 27.0368 49.8612 27.0747 49.9083V49.9088Z" fill="#FFA412"/>
<path d="M28.1447 48.8091V49.5357C28.1447 49.5936 28.1238 49.6474 28.0876 49.692C28.0496 49.7391 27.995 49.7762 27.9313 49.7966C27.9117 49.8033 27.8912 49.8079 27.8704 49.8112C27.8512 49.8141 27.8316 49.8158 27.8116 49.8158H14.0342C13.9808 49.8158 13.93 49.805 13.8854 49.7862C13.7849 49.7441 13.7132 49.6599 13.7024 49.562C13.7024 49.5582 13.7015 49.5545 13.7015 49.5507C13.7015 49.5457 13.7015 49.5411 13.7015 49.5365V48.81C13.7015 48.805 13.7015 48.8004 13.7015 48.7958C13.7099 48.6595 13.8358 48.5482 13.995 48.5324C14.0079 48.5311 14.0208 48.5303 14.0346 48.5303H27.812C27.8321 48.5303 27.8516 48.5319 27.8708 48.5349C27.8917 48.5378 27.9121 48.5428 27.9317 48.549C27.9955 48.5699 28.0501 48.6066 28.088 48.6537C28.1243 48.6983 28.1451 48.752 28.1451 48.81L28.1447 48.8091Z" fill="#FFB93E"/>
<path d="M21.3793 49.8153H13.9983C13.9508 49.8153 13.9054 49.8045 13.8653 49.7857C13.7757 49.7436 13.7115 49.6594 13.7019 49.5615C13.7019 49.5577 13.7011 49.554 13.7011 49.5502C13.7011 49.5452 13.7011 49.5406 13.7011 49.536V48.8095C13.7011 48.8045 13.7011 48.7999 13.7011 48.7953C13.7086 48.659 13.8207 48.5477 13.9633 48.5319C13.9746 48.5306 13.9866 48.5298 13.9983 48.5298H20.4731C20.4731 48.5298 20.4731 48.531 20.4735 48.5319C20.5744 48.9008 20.8062 49.406 21.3368 49.7861C21.3506 49.7962 21.3647 49.8062 21.3793 49.8157V49.8153Z" fill="#FFA412"/>
<path d="M26.4686 48.5288H26.3118V49.8152H26.4686V48.5288Z" fill="#FFA412"/>
<path d="M25.9384 48.5288H25.7817V49.8152H25.9384V48.5288Z" fill="#FFA412"/>
<path d="M25.3027 48.5288H25.1459V49.8152H25.3027V48.5288Z" fill="#FFA412"/>
<path d="M24.3285 48.5288H24.1718V49.8152H24.3285V48.5288Z" fill="#FFA412"/>
<path d="M23.2982 48.5288H23.1414V49.8152H23.2982V48.5288Z" fill="#FFA412"/>
<path d="M21.7187 48.5288H21.562V49.8152H21.7187V48.5288Z" fill="#FFA412"/>
<path d="M20.2402 48.5288H20.0835V49.8152H20.2402V48.5288Z" fill="#FFA412"/>
<path d="M18.9196 48.5288H18.7629V49.8152H18.9196V48.5288Z" fill="#FFA412"/>
<path d="M26.973 48.5288H26.8163V49.8152H26.973V48.5288Z" fill="#FFA412"/>
<path d="M27.3065 48.5288H27.1498V49.8152H27.3065V48.5288Z" fill="#FFA412"/>
<path d="M27.6282 48.5288H27.4715V49.8152H27.6282V48.5288Z" fill="#FFA412"/>
<path d="M27.87 48.5334V49.8106C27.8508 49.8135 27.8312 49.8152 27.8112 49.8152H27.7133V48.5288H27.8112C27.8312 48.5288 27.8508 48.5305 27.87 48.5334Z" fill="#FFA412"/>
<path d="M28.0877 48.6529V49.6917C28.0497 49.7388 27.9951 49.7759 27.9313 49.7963V48.5479C27.9951 48.5687 28.0497 48.6054 28.0877 48.6525V48.6529Z" fill="#FFA412"/>
<path d="M28.5761 47.5248V48.2514C28.5761 48.3093 28.5553 48.3631 28.519 48.4077C28.4811 48.4548 28.4265 48.4919 28.3627 48.5123C28.3431 48.519 28.3227 48.5236 28.3019 48.5269C28.2956 48.5277 28.2889 48.5286 28.2827 48.5294C28.2794 48.5294 28.2756 48.5298 28.2719 48.5302C28.2685 48.5302 28.2648 48.5307 28.261 48.5307C28.2552 48.5307 28.2493 48.5311 28.2435 48.5311H14.4661C14.2885 48.5311 14.1422 48.4127 14.133 48.2655C14.133 48.2605 14.133 48.256 14.133 48.2514V47.5248C14.133 47.5198 14.133 47.5152 14.133 47.5106C14.1422 47.3635 14.2885 47.2451 14.4661 47.2451H28.2435C28.2635 47.2451 28.2831 47.2468 28.3023 47.2497C28.3231 47.2526 28.3435 47.2576 28.3631 47.2643C28.4269 47.2851 28.4815 47.3218 28.5195 47.3689C28.5557 47.4135 28.5766 47.4673 28.5766 47.5252L28.5761 47.5248Z" fill="#FFB93E"/>
<path d="M21.8104 48.5311H14.4293C14.2709 48.5311 14.1401 48.4127 14.1321 48.2655C14.1321 48.2605 14.1321 48.256 14.1321 48.2514V47.5248C14.1321 47.5198 14.1321 47.5152 14.1321 47.5106C14.1401 47.3635 14.2709 47.2451 14.4293 47.2451H20.9041C21.0075 47.6232 21.2476 48.1455 21.8074 48.5294C21.8083 48.5298 21.8095 48.5307 21.8104 48.5315V48.5311Z" fill="#FFA412"/>
<path d="M26.8996 47.2451H26.7429V48.5315H26.8996V47.2451Z" fill="#FFA412"/>
<path d="M26.3699 47.2451H26.2131V48.5315H26.3699V47.2451Z" fill="#FFA412"/>
<path d="M25.7341 47.2451H25.5774V48.5315H25.7341V47.2451Z" fill="#FFA412"/>
<path d="M24.7596 47.2451H24.6028V48.5315H24.7596V47.2451Z" fill="#FFA412"/>
<path d="M23.7296 47.2451H23.5729V48.5315H23.7296V47.2451Z" fill="#FFA412"/>
<path d="M22.1501 47.2451H21.9934V48.5315H22.1501V47.2451Z" fill="#FFA412"/>
<path d="M20.6711 47.2451H20.5144V48.5315H20.6711V47.2451Z" fill="#FFA412"/>
<path d="M19.3506 47.2451H19.1939V48.5315H19.3506V47.2451Z" fill="#FFA412"/>
<path d="M27.404 47.2451H27.2473V48.5315H27.404V47.2451Z" fill="#FFA412"/>
<path d="M27.7374 47.2451H27.5807V48.5315H27.7374V47.2451Z" fill="#FFA412"/>
<path d="M28.0593 47.2451H27.9025V48.5315H28.0593V47.2451Z" fill="#FFA412"/>
<path d="M28.3014 47.2492V48.5264C28.2823 48.5293 28.2627 48.531 28.2427 48.531H28.1447V47.2446H28.2427C28.2627 47.2446 28.2823 47.2463 28.3014 47.2492Z" fill="#FFA412"/>
<path d="M28.519 47.3682V48.407C28.4811 48.4541 28.4264 48.4912 28.3627 48.5116V47.2632C28.4264 47.284 28.4811 47.3207 28.519 47.3678V47.3682Z" fill="#FFA412"/>
<path d="M17.9631 59.3702C20.5202 56.8131 20.5202 52.6673 17.9631 50.1103C15.4061 47.5532 11.2603 47.5532 8.7032 50.1103C6.14614 52.6673 6.14614 56.8131 8.7032 59.3702C11.2603 61.9272 15.4061 61.9272 17.9631 59.3702Z" fill="#E2810E"/>
<path d="M17.3922 59.3697C19.9493 56.8127 19.9492 52.6668 17.3922 50.1098C14.8351 47.5527 10.6893 47.5527 8.13228 50.1098C5.57522 52.6668 5.57522 56.8126 8.13228 59.3697C10.6893 61.9268 14.8351 61.9268 17.3922 59.3697Z" fill="#FFB93E"/>
<path d="M12.762 60.7828C11.1685 60.7828 9.67033 60.1621 8.5436 59.0354C7.41688 57.9086 6.7962 56.4105 6.7962 54.8169C6.7962 53.2233 7.41688 51.7252 8.5436 50.5985C9.67033 49.4718 11.1685 48.8511 12.762 48.8511C14.3556 48.8511 15.8538 49.4718 16.9805 50.5985C18.1072 51.7252 18.7279 53.2233 18.7279 54.8169C18.7279 56.4105 18.1072 57.9086 16.9805 59.0354C15.8538 60.1621 14.3556 60.7828 12.762 60.7828ZM12.762 49.2071C9.66866 49.2071 7.15219 51.7235 7.15219 54.8169C7.15219 57.9103 9.66866 60.4268 12.762 60.4268C15.8554 60.4268 18.3719 57.9103 18.3719 54.8169C18.3719 51.7235 15.8554 49.2071 12.762 49.2071Z" fill="#FFA412"/>
<path d="M13.5832 56.5488C13.5986 56.42 13.5936 56.3045 13.569 56.2024C13.5444 56.0998 13.4956 56.004 13.4227 55.9148C13.3498 55.8251 13.2522 55.7393 13.1297 55.6563C13.0075 55.5734 12.8562 55.4888 12.6757 55.402C12.366 55.2503 12.0867 55.0969 11.8374 54.9414C11.5882 54.786 11.3793 54.6159 11.2109 54.4312C11.0421 54.2466 10.9187 54.0394 10.8408 53.8097C10.7628 53.58 10.7416 53.3149 10.777 53.0148C10.8079 52.7543 10.882 52.5225 11 52.3191C11.1176 52.1157 11.2718 51.9444 11.4623 51.8055C11.6528 51.6667 11.8733 51.5617 12.1242 51.4904C12.3752 51.4191 12.6507 51.3874 12.9508 51.3949L13.0675 50.4116L13.8591 50.5054L13.7407 51.5025C14.02 51.5729 14.2681 51.6784 14.4856 51.8193C14.7028 51.9602 14.8816 52.1303 15.0221 52.3303C15.1622 52.5304 15.2614 52.7589 15.3193 53.0156C15.3773 53.2724 15.3881 53.5542 15.3518 53.8606L13.9225 53.6909C13.9663 53.3233 13.9171 53.0386 13.7753 52.8372C13.6336 52.6359 13.426 52.5183 13.1522 52.4862C13.0038 52.4687 12.8733 52.4742 12.7616 52.5029C12.6495 52.5313 12.5544 52.5775 12.4769 52.6413C12.3989 52.7051 12.3377 52.7839 12.2935 52.8781C12.2489 52.9723 12.2197 53.0761 12.2064 53.1895C12.193 53.3028 12.1972 53.4075 12.2193 53.5029C12.2414 53.5988 12.2881 53.6905 12.3598 53.7785C12.431 53.866 12.5298 53.9523 12.6549 54.0373C12.7803 54.1219 12.9375 54.2128 13.1267 54.3099C13.4323 54.4675 13.7091 54.6242 13.9563 54.781C14.2034 54.9377 14.4114 55.109 14.5799 55.2953C14.7483 55.4817 14.8716 55.6897 14.9496 55.9194C15.0275 56.149 15.0492 56.4129 15.0138 56.7097C14.9817 56.9794 14.9062 57.2157 14.7866 57.4187C14.667 57.6221 14.5123 57.7918 14.3222 57.9273C14.1322 58.0632 13.9104 58.1645 13.6565 58.2303C13.4031 58.2966 13.1259 58.3258 12.8262 58.3183L12.7178 59.2328L11.9312 59.1395L12.0392 58.2295C11.7687 58.1695 11.5111 58.0782 11.2664 57.956C11.0217 57.8339 10.8108 57.6747 10.6332 57.4779C10.456 57.2816 10.3235 57.0444 10.2359 56.7668C10.1484 56.4892 10.1267 56.1665 10.1701 55.7993L11.5994 55.969C11.5736 56.1865 11.5823 56.3716 11.6265 56.5242C11.6703 56.6772 11.7378 56.8031 11.8299 56.9027C11.9217 57.0023 12.0309 57.0773 12.1568 57.1278C12.2826 57.1786 12.4135 57.2116 12.5486 57.2278C12.7036 57.2462 12.842 57.2424 12.9638 57.2166C13.0855 57.1907 13.1901 57.147 13.2776 57.0861C13.3652 57.0252 13.4344 56.9485 13.4852 56.8568C13.5361 56.7651 13.5686 56.6626 13.5819 56.5492L13.5832 56.5488Z" fill="#FFA412"/>
<path d="M24.8021 45.7493C24.1318 46.9161 23.2885 47.3667 23.2885 47.3667H19.7804C19.7804 47.3667 25.314 44.859 24.8025 45.7493H24.8021Z" fill="#233862"/>
<path d="M22.1076 54.7781C22.0163 54.8828 22.0047 54.9999 22.0497 55.1249C22.0497 55.1254 22.0497 55.1262 22.0505 55.1266C22.1343 55.358 22.4107 55.616 22.7317 55.874C22.7725 55.9069 22.8092 55.9374 22.8409 55.9653C22.8492 55.9728 22.8575 55.9799 22.8655 55.9874C22.8721 55.9932 22.878 55.9991 22.8842 56.0045C23.1835 56.2804 23.071 56.3438 23.6091 56.904C24.2227 57.5422 24.645 57.5539 24.765 57.4955C24.8667 57.4459 24.66 57.1074 24.4315 56.7269C24.4203 56.7085 24.4094 56.6898 24.3982 56.6714C24.3678 56.621 24.3373 56.5693 24.3073 56.5184C24.0393 56.0608 24.1081 55.8457 24.1714 55.1641C24.2231 54.6106 25.033 52.0707 25.033 52.0707L23.8575 51.8682C23.8575 51.8682 23.5036 53.8907 23.1135 54.2021C22.9051 54.368 22.6716 54.37 22.4711 54.493C22.457 54.5014 22.4432 54.5105 22.4294 54.5193C22.3156 54.5947 22.1993 54.6727 22.1076 54.7777V54.7781Z" fill="#FFB27D"/>
<path d="M22.1076 54.7778C22.0163 54.8824 22.0047 54.9996 22.0497 55.1246C22.0497 55.125 22.0497 55.1259 22.0505 55.1263C22.1531 55.3572 22.4224 55.614 22.7329 55.8712C22.7733 55.9049 22.8092 55.9358 22.8413 55.9645C22.8496 55.972 22.858 55.9791 22.8659 55.9866C22.8725 55.9925 22.8784 55.9983 22.8846 56.0037C23.1839 56.2797 23.0714 56.343 23.6095 56.9033C24.2231 57.5415 24.6454 57.5531 24.7654 57.4948C24.8671 57.4452 24.6604 57.1067 24.4319 56.7261C24.3123 56.6823 23.7579 56.4568 23.3386 55.9204C22.9693 55.4489 22.7229 54.8437 22.4715 54.4927C22.4574 54.501 22.4436 54.5102 22.4299 54.5189C22.3161 54.5944 22.1998 54.6723 22.1081 54.7774L22.1076 54.7778Z" fill="#233862"/>
<path d="M31.5862 54.0434C31.6587 54.4061 32.176 54.3456 32.7538 54.2047C33.3315 54.0634 33.1944 54.2314 34.0168 54.1405C34.8392 54.0497 35.0885 53.7429 35.1135 53.6207C35.136 53.5123 34.7296 53.474 34.2936 53.4236C34.239 53.4173 34.1835 53.4106 34.1285 53.404C33.6362 53.3423 33.2761 53.0246 32.8292 52.7637C32.4057 52.5165 31.7738 51.5103 31.7738 51.5103L30.6458 51.5995C30.6458 51.5995 31.2377 52.4986 31.4666 52.8892C31.6012 53.1188 31.5941 53.4231 31.5775 53.6578C31.5687 53.7854 31.5604 53.9158 31.5862 54.0438V54.0434Z" fill="#FFB27D"/>
<path d="M32.7538 54.205C33.3315 54.0637 33.1944 54.2317 34.0168 54.1408C34.8392 54.0499 35.0885 53.7431 35.1135 53.621C35.136 53.5126 34.7296 53.4743 34.2936 53.4238L34.2894 53.4322C34.2894 53.4322 33.7963 53.7819 33.1118 53.7982C32.5541 53.8119 31.963 53.6518 31.5774 53.6581C31.5687 53.7856 31.5604 53.9161 31.5862 54.0441C31.6587 54.4067 32.176 54.3463 32.7538 54.2054V54.205Z" fill="#233862"/>
<path d="M27.264 46.832L26.2098 49.669L24.8334 53.3735C24.8334 53.3735 24.4599 53.4098 24.1022 53.3068C23.7729 53.2118 23.3948 52.9625 23.3948 52.9625C23.3948 52.9625 23.7771 48.985 24.4899 46.702C24.6725 46.1159 24.8775 45.6419 25.1035 45.3751C26.2089 44.0688 27.264 46.8324 27.264 46.8324V46.832Z" fill="#233862"/>
<path d="M26.1918 42.3267C25.5011 42.1041 23.5311 42.39 21.552 42.7773L21.1376 42.0937L16.8633 41.7598C16.8633 41.7598 15.4527 44.8877 16.2251 46.8807C16.3385 47.1737 16.6195 47.2971 17.0038 47.3033C17.0038 47.3033 17.0038 47.3033 17.0042 47.3038C17.0042 47.3038 19.5549 47.3659 20.3811 47.3659C22.507 47.3659 24.88 45.9044 25.1868 45.8431C25.6891 45.7427 25.8905 46.7477 26.3927 47.8027C26.895 48.8577 31.116 52.4759 31.116 52.4759C31.116 52.4759 31.7646 52.4822 32.0326 52.3817C32.3207 52.2738 32.4261 52.1333 32.4261 52.1333C32.4261 52.1333 27.7492 42.8281 26.1914 42.3258L26.1918 42.3267Z" fill="#2B478B"/>
<path d="M20.6837 29.5416C20.3632 29.3507 20.051 29.3231 19.8617 29.3294C19.7254 29.334 19.5887 29.3206 19.4536 29.3027C17.8338 29.0851 16.8588 31.4386 16.8017 32.1518C16.6958 33.4666 16.0005 33.6666 15.0218 34.4899C13.0593 36.1406 13.6345 38.0589 14.7079 38.7713C15.3519 39.199 16.487 38.7713 16.487 38.7713C16.5028 38.7825 19.5908 37.0451 21.1131 36.2069C23.3949 35.8826 21.6008 30.0872 20.6842 29.5416H20.6837Z" fill="#233862"/>
<path d="M19.837 35.4936C19.8437 35.4978 19.088 35.7558 18.5828 35.532C18.1076 35.3219 17.7474 34.5399 17.7545 34.5395C17.9708 34.5294 18.208 34.3406 18.391 33.1001L18.4831 33.133L20.0313 33.6899C20.0313 33.6899 19.9192 34.1868 19.8466 34.6595C19.7854 35.0568 19.7528 35.4369 19.8375 35.4932L19.837 35.4936Z" fill="#FFB27D"/>
<path d="M20.0309 33.6907C20.0309 33.6907 19.9187 34.1876 19.8462 34.6603C18.9571 34.5002 18.6082 33.6144 18.4827 33.1338L20.0309 33.6907Z" fill="#ED975D"/>
<path d="M20.2614 34.1835C20.2614 34.1835 18.1434 33.8992 18.3406 32.5828C18.5378 31.2664 18.3973 30.3431 19.7583 30.469C21.1188 30.5949 21.3056 31.1364 21.3469 31.592C21.3881 32.0476 20.8175 34.2235 20.2614 34.1835Z" fill="#FFB27D"/>
<path d="M21.2697 30.8707C21.2697 30.8707 19.9138 32.0391 18.9917 32.1333C18.0697 32.2275 17.7203 31.9316 17.7203 31.9316C17.7203 31.9316 18.2639 31.4801 18.5911 30.7519C18.6874 30.5372 18.8912 30.3897 19.1259 30.3697C19.7845 30.313 21.033 30.2867 21.2702 30.8707H21.2697Z" fill="#233862"/>
<path d="M20.4224 30.766C20.4224 30.766 20.8759 31.2045 21.0189 31.53C21.1568 31.8439 21.1981 32.5947 21.0881 32.8931C21.0881 32.8931 21.7946 31.5188 21.3949 30.8514C20.9705 30.1436 20.4224 30.7664 20.4224 30.7664V30.766Z" fill="#233862"/>
<path d="M21.6203 38.6137C21.5561 42.9014 21.6028 42.0051 21.1338 42.412C21.0209 42.5099 20.7032 42.5683 20.2852 42.5958C18.9704 42.6829 16.6595 42.4666 16.5715 42.2236C16.2685 41.3828 16.4823 41.1219 16.2293 39.8347C16.203 39.6979 16.1701 39.5495 16.1322 39.3882C15.9212 38.5041 15.7157 38.2036 16.4644 36.7834C17.143 35.497 17.8483 34.4528 17.9117 34.4907C19.7024 35.5537 19.8466 34.6604 19.8466 34.6604C19.8466 34.6604 21.6524 36.5224 21.6207 38.6137H21.6203Z" fill="white"/>
<path d="M26.2098 49.6692L24.8334 53.3737C24.8334 53.3737 24.4599 53.41 24.1022 53.307C23.7729 53.212 23.3948 52.9627 23.3948 52.9627C23.3948 52.9627 23.7771 48.9852 24.4899 46.7021L26.2098 49.6696V49.6692Z" fill="#2B478B"/>
<path d="M19.8462 34.6602C19.8462 34.6602 21.6886 34.9724 21.905 35.766C22.1213 36.5593 23.3943 41.2229 23.3943 41.2229C23.3943 41.2229 22.4577 41.3913 22.025 40.9586C21.5923 40.526 20.5194 36.944 20.5194 36.944L19.8462 34.6606V34.6602Z" fill="white"/>
<path d="M20.2852 42.5962C18.9705 42.6833 16.6595 42.467 16.5715 42.224C16.2685 41.3832 16.4823 41.1223 16.2293 39.8351L16.8633 38.0493C16.8633 38.0493 16.7583 40.0377 17.3448 40.5608C17.9304 41.0839 19.7458 41.5704 20.0305 42.0072C20.168 42.2169 20.2585 42.4274 20.2848 42.5962H20.2852Z" fill="#EBF3FF"/>
<path d="M18.7787 41.76C18.7787 41.76 20.076 41.4711 20.2852 41.5862C20.4945 41.7012 21.0059 42.1205 21.0701 42.2664C21.1343 42.4123 20.6041 42.1556 20.4319 42.1093C20.3202 42.0793 20.0264 42.1814 19.8809 42.2298C19.2685 42.4336 18.8938 42.329 18.8938 42.329L18.7792 41.7596L18.7787 41.76Z" fill="#FFB27D"/>
<path d="M17.9099 34.4897C17.9099 34.4897 16.1684 34.5969 15.5656 35.4381C14.7169 36.6219 13.0333 41.6661 13.9983 42.3389C15.085 43.0967 18.9437 42.5369 18.9437 42.5369C18.9437 42.5369 19.0721 41.9366 18.8933 41.6465C18.7145 41.3564 15.8111 40.887 15.6773 40.7532C15.5435 40.6194 17.3522 38.14 17.3522 37.7382C17.3522 37.3364 17.9099 34.4897 17.9099 34.4897Z" fill="white"/>
<path d="M20.3481 41.9472C20.3481 41.9472 20.6199 42.2978 20.7091 42.3394C20.7983 42.3811 20.8558 42.3707 20.8558 42.3707L20.6728 42.041L20.3485 41.9468L20.3481 41.9472Z" fill="#FFB27D"/>
<path d="M20.2852 41.5859L21.0755 41.9698C21.0755 41.9698 21.0417 42.0249 20.9446 42.0203C20.8475 42.0157 20.602 41.9261 20.602 41.9261L20.2856 41.5859H20.2852Z" fill="#FFB27D"/>
<path d="M20.7087 42.8764H26.9588L28.8392 38.2007H22.5986L20.7087 42.8764Z" fill="#F99746"/>
<path d="M27.0322 42.6948H18.7787V42.877H26.9588L27.0322 42.6948Z" fill="#ED7D2B"/>
<path d="M25.3811 40.5383C25.4282 40.3741 25.3331 40.2407 25.1689 40.2407C25.0046 40.2407 24.8329 40.3741 24.7858 40.5383C24.7387 40.7026 24.8337 40.836 24.998 40.836C25.1622 40.836 25.334 40.7026 25.3811 40.5383Z" fill="white"/>
<path d="M56.5737 43.3245C56.5728 43.2995 56.7117 40.4646 55.3419 39.8122L55.4386 39.7192C56.066 39.9385 56.7613 40.6155 57.0397 41.5717C57.2465 42.2824 57.0893 42.4383 57.0902 42.4654L56.5737 43.3245Z" fill="#C1F5BF"/>
<path d="M52.9973 37.7092C52.9973 37.7092 52.8409 39.1673 53.6046 39.7876C54.3687 40.4079 55.7634 39.9552 55.7634 39.9552C55.7634 39.9552 55.9197 38.4971 55.1561 37.8768C54.392 37.2565 52.9973 37.7092 52.9973 37.7092Z" fill="#AAE2A8"/>
<path d="M56.3399 48.6421C56.314 48.4995 55.8201 45.1606 57.0835 41.4399C58.2974 37.8651 57.6254 34.8342 57.62 34.8042H58.5133C58.5362 34.9338 58.5983 37.9088 57.6471 41.9855C56.7909 45.6542 58.3899 48.6417 58.0493 48.6417H56.3399V48.6421Z" fill="#37474F"/>
<path d="M58.2161 38.7861C58.2207 38.767 58.6471 36.3209 59.7943 36.0425C59.2816 36.1092 58.6301 36.4764 58.2657 37.16C57.9948 37.6682 58.0898 37.8124 58.0848 37.8324L58.2165 38.7857L58.2161 38.7861Z" fill="#C1F5BF"/>
<path d="M53.625 32.2976C53.625 32.2976 52.3878 30.5506 50.9822 30.0374C50.9822 30.0374 51.5079 34.1354 50.7392 34.1859C49.9706 34.2367 50.4829 29.5773 50.4829 29.5773C50.4829 29.5773 46.8222 27.5447 45.3353 27.601C45.3353 27.601 47.4399 31.6956 46.6825 31.5556C45.9251 31.4155 43.537 27.2563 43.537 27.2563C43.537 27.2563 39.7167 26.3146 38.9626 28.5672C38.2085 30.8199 39.1431 32.0229 39.7067 32.1996C40.2707 32.3763 43.9451 32.5435 43.8217 33.015C43.6984 33.4864 41.174 34.1037 39.8163 33.5935C39.8163 33.5935 41.1214 37.4501 43.1356 37.3764C45.1494 37.303 45.8422 36.0996 47.0873 36.0767C48.3328 36.0537 49.219 36.441 48.5796 36.7382C47.9401 37.0358 45.8551 36.6882 44.8038 37.481C43.7525 38.2738 42.9114 38.7507 44.7484 39.2409C46.5858 39.7315 49.3591 39.1775 50.675 38.3005C50.6788 38.298 51.7526 38.2125 52.5979 43.183C52.9239 45.0992 52.6734 47.9416 52.6734 47.9416L53.3553 47.8378C53.7338 42.2663 51.723 37.6348 51.723 37.6348C51.723 37.6348 55.1344 35.1125 53.625 32.2967V32.2976Z" fill="#AAE2A8"/>
<path d="M64.7822 39.6511C64.7822 39.6511 60.6717 37.9241 62.1432 34.782C62.1432 34.782 63.382 32.8149 64.8756 32.1759C64.8756 32.1759 64.5467 36.6498 65.3833 36.6598C66.2195 36.6694 65.39 31.6477 65.39 31.6477C65.39 31.6477 69.2399 29.2284 70.8552 29.2021C70.8552 29.2021 68.8139 33.7657 69.6272 33.5694C70.44 33.373 72.7847 28.7227 72.7847 28.7227C72.7847 28.7227 76.8719 27.4772 77.8219 29.8753C78.7718 32.2734 77.8298 33.6327 77.2287 33.8574C76.6276 34.0821 72.6534 34.4797 72.8148 34.9833C72.9761 35.4868 75.7497 36.0083 77.1916 35.3751C77.1916 35.3751 76.0032 39.6336 73.8152 39.6723C71.6272 39.7111 70.8056 38.4472 69.4538 38.4956C68.1019 38.5444 67.1636 39.0158 67.8744 39.3009C68.5851 39.5861 70.8256 39.0867 72.0119 39.8841C73.1983 40.6815 74.1386 41.1496 72.1753 41.7895C70.212 42.4293 66.5751 42.5798 65.6784 41.1155L64.7818 39.6511H64.7822Z" fill="#AAE2A8"/>
<path d="M76.0023 30.8643C76.0023 30.8643 65.5759 35.5942 64.7822 39.6509C64.7822 39.6509 65.0323 41.3974 64.1774 43.53L64.2649 44.3032C64.2649 44.3032 65.1011 41.5462 65.6788 41.1156C65.6788 41.1156 62.8714 37.9881 76.0023 30.8643Z" fill="#37474F"/>
<path d="M64.1773 43.5298C64.1773 43.5298 62.7951 46.2535 64.0961 49.231L64.5125 49.0672C64.5125 49.0672 63.7109 45.7162 64.3908 43.9079C65.0706 42.1001 64.1773 43.5298 64.1773 43.5298Z" fill="#37474F"/>
<path d="M49.1102 20.9425C50.7947 22.7353 49.9185 26.2955 49.9185 26.2955C49.9185 26.2955 46.3107 26.9491 44.6258 25.1563C42.9414 23.3635 43.8176 19.8032 43.8176 19.8032C43.8176 19.8032 47.4253 19.1496 49.1102 20.9425Z" fill="#AAE2A8"/>
<path d="M49.1103 20.9425C50.7947 22.7354 49.9185 26.2956 49.9185 26.2956L43.8176 19.8037C43.8176 19.8037 47.4254 19.1501 49.1103 20.9429V20.9425Z" fill="#C1F5BF"/>
<path d="M70.8367 27.7712C69.9576 28.7895 67.971 28.5157 67.971 28.5157C67.971 28.5157 67.4099 26.5903 68.289 25.5719C69.1681 24.5536 71.1548 24.8274 71.1548 24.8274C71.1548 24.8274 71.7159 26.7528 70.8367 27.7712Z" fill="#AAE2A8"/>
<path d="M60.4467 36.7295C59.8572 36.8929 59.1753 36.2885 59.1753 36.2885C59.1753 36.2885 59.4487 35.419 60.0382 35.2556C60.6276 35.0922 61.3095 35.6966 61.3095 35.6966C61.3095 35.6966 61.0361 36.5661 60.4471 36.7295H60.4467Z" fill="#AAE2A8"/>
<path d="M50.0394 17.6179C50.4433 18.5758 49.5729 19.8576 49.5729 19.8576C49.5729 19.8576 48.0473 19.5863 47.6433 18.6284C47.2394 17.6705 48.1102 16.3887 48.1102 16.3887C48.1102 16.3887 49.6358 16.66 50.0398 17.6179H50.0394Z" fill="#AAE2A8"/>
<path d="M64.5086 32.0724C68.0192 28.5618 68.0192 22.8699 64.5086 19.3592C60.9979 15.8485 55.306 15.8485 51.7953 19.3592C48.2847 22.8699 48.2847 28.5618 51.7953 32.0724C55.306 35.5831 60.9979 35.5831 64.5086 32.0724Z" fill="#E2810E"/>
<path d="M63.7304 32.1701C67.241 28.6594 67.241 22.9675 63.7304 19.4569C60.2197 15.9462 54.5278 15.9462 51.0171 19.4569C47.5065 22.9675 47.5065 28.6594 51.0171 32.1701C54.5278 35.6808 60.2197 35.6808 63.7304 32.1701Z" fill="#FFB93E"/>
<path d="M58.4099 34.0452C56.2394 34.3187 54.0923 33.7301 52.3641 32.3887C50.6358 31.0469 49.5337 29.1127 49.2603 26.9422C48.9868 24.7717 49.5754 22.6246 50.9168 20.8964C52.2586 19.1681 54.1928 18.066 56.3632 17.7925C58.5337 17.5191 60.6809 18.1077 62.4091 19.4491C64.1373 20.7909 65.2395 22.725 65.5129 24.8955C65.7864 27.066 65.1978 29.2136 63.8564 30.9414C62.5146 32.6696 60.5804 33.7718 58.4099 34.0452ZM56.4245 18.2769C52.2111 18.8076 49.2144 22.6671 49.745 26.881C50.2757 31.0944 54.1352 34.0911 58.3491 33.5604C62.5625 33.0298 65.5592 29.1702 65.0286 24.9564C64.4979 20.743 60.6384 17.7463 56.4249 18.2769H56.4245Z" fill="#FFA412"/>
<path d="M58.8025 28.1372C58.8013 27.9592 58.775 27.8029 58.7238 27.6679C58.6725 27.5328 58.5895 27.4102 58.4749 27.301C58.3603 27.1918 58.2123 27.0909 58.0318 26.9992C57.8509 26.9075 57.6304 26.8179 57.3699 26.7308C56.9218 26.5774 56.5149 26.4161 56.1489 26.2473C55.7829 26.0784 55.4691 25.8825 55.2077 25.6599C54.9463 25.4373 54.7425 25.1764 54.597 24.8767C54.4511 24.577 54.3769 24.2197 54.374 23.8046C54.3715 23.4448 54.4328 23.1159 54.5583 22.8183C54.6837 22.5211 54.8642 22.2614 55.0997 22.0392C55.3353 21.8175 55.6179 21.6366 55.9472 21.4965C56.2769 21.3565 56.6466 21.266 57.0568 21.2252L57.0472 19.8658L58.1414 19.8579L58.1514 21.2364C58.5437 21.2843 58.9001 21.3856 59.2206 21.5399C59.5408 21.6941 59.8134 21.8958 60.0389 22.1439C60.264 22.3923 60.4382 22.6866 60.5616 23.0263C60.685 23.3665 60.7479 23.7483 60.7509 24.1718L58.7746 24.186C58.7709 23.6778 58.6554 23.2985 58.4278 23.048C58.2002 22.7979 57.8972 22.6737 57.5191 22.6766C57.314 22.6783 57.1373 22.7079 56.9897 22.7662C56.8417 22.8242 56.7204 22.9038 56.6254 23.0038C56.5303 23.1043 56.4603 23.2222 56.4157 23.3581C56.3711 23.494 56.3494 23.6403 56.3507 23.7971C56.3519 23.9538 56.3757 24.0955 56.422 24.2222C56.4682 24.349 56.5478 24.4661 56.6604 24.5732C56.7729 24.6804 56.9218 24.7808 57.1072 24.875C57.2927 24.9692 57.5224 25.0659 57.7967 25.1656C58.2398 25.3277 58.6437 25.494 59.0072 25.6649C59.3707 25.8363 59.6833 26.0338 59.9451 26.2585C60.2065 26.4832 60.4103 26.7454 60.5562 27.0451C60.7021 27.3448 60.7763 27.7 60.7792 28.111C60.7817 28.4836 60.7192 28.8188 60.5916 29.116C60.4637 29.4136 60.2819 29.6708 60.0464 29.8884C59.8109 30.106 59.5262 30.2819 59.1919 30.4157C58.8576 30.5495 58.4857 30.6366 58.0756 30.6779L58.0847 31.9422L56.9972 31.9501L56.988 30.6925C56.6091 30.657 56.2427 30.577 55.8888 30.4528C55.5345 30.3281 55.2198 30.1472 54.9447 29.9101C54.6696 29.6729 54.4486 29.3727 54.2819 29.0097C54.1152 28.6466 54.0301 28.211 54.0264 27.7029L56.0026 27.6887C56.0047 27.9892 56.0485 28.2402 56.1343 28.4407C56.2202 28.6412 56.334 28.8012 56.4761 28.9213C56.6183 29.0409 56.7796 29.1247 56.9601 29.1718C57.1406 29.2193 57.324 29.2423 57.5112 29.241C57.7254 29.2394 57.9134 29.2106 58.0747 29.1543C58.2361 29.098 58.3711 29.0209 58.4799 28.9226C58.5887 28.8246 58.67 28.7083 58.7238 28.5745C58.7775 28.4407 58.8038 28.2956 58.8025 28.1389V28.1372Z" fill="#FFA412"/>
<path d="M65.3241 47.7744L65.3232 47.7815L65.1444 50.5352L64.4787 60.7599H52.0364L51.3036 50.6752L51.1018 47.8961L51.0931 47.7744H65.3241Z" fill="#739AF0"/>
<path d="M65.3232 47.7812L65.144 50.5348C64.2065 50.208 61.6017 49.424 58.2082 49.424C53.9226 49.424 51.3032 50.6749 51.3032 50.6749L51.1014 47.8954L65.3228 47.7808L65.3232 47.7812Z" fill="#618DD8"/>
<path d="M65.7564 49.2301H50.6417L50.4688 47.4727H65.9482L65.7564 49.2301Z" fill="#739AF0"/>
<path d="M64.67 61.3053H51.7692L51.6216 60.6934H64.8339L64.67 61.3053Z" fill="#618DD8"/>
<path d="M42.3532 55.6095C42.3415 55.5453 42.1193 54.0434 42.6879 52.3698C43.234 50.7616 42.9318 49.3985 42.9293 49.3848H43.3311C43.3415 49.4431 43.3694 50.7812 42.9414 52.6149C42.5562 54.2651 43.2752 55.609 43.1223 55.609H42.3532V55.6095Z" fill="#37474F"/>
<path d="M43.1974 51.1757C43.1995 51.1674 43.3912 50.0669 43.9073 49.9419C43.6767 49.9719 43.3837 50.137 43.2199 50.4446C43.0982 50.673 43.1407 50.7381 43.1386 50.7472L43.1978 51.1762L43.1974 51.1757Z" fill="#C1F5BF"/>
<path d="M42.244 50.919C42.244 50.919 41.7392 50.0991 41.1231 49.8281C41.1231 49.8281 41.2403 51.6827 40.8939 51.6831C40.5475 51.6835 40.9122 49.6072 40.9122 49.6072C40.9122 49.6072 39.3278 48.5889 38.6588 48.5709C38.6588 48.5709 39.4849 50.4701 39.149 50.385C38.813 50.3 37.8618 48.3642 37.8618 48.3642C37.8618 48.3642 36.174 47.831 35.7705 48.8202C35.367 49.8094 35.7513 50.3767 35.9993 50.4721C36.2473 50.5676 37.8918 50.7493 37.823 50.9573C37.7538 51.1654 36.6029 51.3696 36.0085 51.1012C36.0085 51.1012 36.4828 52.8698 37.3886 52.8952C38.2949 52.9207 38.6404 52.4005 39.2002 52.4263C39.7601 52.4521 40.1465 52.6514 39.8509 52.7664C39.5554 52.8815 38.6296 52.6652 38.1348 52.9907C37.64 53.3158 37.2486 53.5059 38.0589 53.779C38.8693 54.0524 40.1302 53.884 40.7463 53.5284C40.748 53.5272 41.2323 53.5201 41.4679 55.7756C41.5587 56.6452 41.3637 57.9136 41.3637 57.9136L41.6729 57.8865C42.0043 55.3967 41.2357 53.2596 41.2357 53.2596C41.2357 53.2596 42.8401 52.2262 42.244 50.9186V50.919Z" fill="#AAE2A8"/>
<path d="M44.2006 50.251C43.9355 50.3243 43.6287 50.0525 43.6287 50.0525C43.6287 50.0525 43.7516 49.6615 44.0167 49.5878C44.2819 49.5144 44.5886 49.7862 44.5886 49.7862C44.5886 49.7862 44.4657 50.1772 44.2006 50.251Z" fill="#C1F5BF"/>
<path d="M47.2499 44.2734C46.3241 44.8795 46.332 46.5289 46.332 46.5289C46.332 46.5289 47.8405 47.1954 48.7663 46.5889C49.6921 45.9829 49.6842 44.3334 49.6842 44.3334C49.6842 44.3334 48.1757 43.6669 47.2499 44.2734Z" fill="#AAE2A8"/>
<path d="M47.2499 44.2734C46.3241 44.8795 46.332 46.5289 46.332 46.5289L49.6842 44.3334C49.6842 44.3334 48.1757 43.6669 47.2499 44.2734Z" fill="#C1F5BF"/>
<path d="M47.1944 42.7215C46.9168 43.0979 47.1623 43.7498 47.1623 43.7498C47.1623 43.7498 47.858 43.7919 48.1357 43.4159C48.4133 43.0395 48.1678 42.3872 48.1678 42.3872C48.1678 42.3872 47.472 42.3451 47.1944 42.721V42.7215Z" fill="#AAE2A8"/>
<path d="M39.1564 45.8018C38.8775 43.5859 40.4474 41.5638 42.6633 41.2845C44.8792 41.0057 46.9013 42.5755 47.1806 44.7914C47.4595 47.0073 45.8897 49.0294 43.6737 49.3087C41.4578 49.5876 39.4357 48.0178 39.1564 45.8018Z" fill="#E2810E"/>
<path d="M38.8063 45.8468C38.5274 43.6308 40.0973 41.6087 42.3132 41.3294C44.5291 41.0506 46.5512 42.6204 46.8305 44.8363C47.1094 47.0523 45.5396 49.0744 43.3236 49.3537C41.1077 49.6325 39.0856 48.0627 38.8063 45.8468Z" fill="#FFB93E"/>
<path d="M43.2844 49.0441C42.3082 49.1671 41.3423 48.9024 40.5649 48.2988C39.7875 47.6952 39.2919 46.8253 39.1689 45.849C39.0459 44.8728 39.3106 43.907 39.9142 43.1296C40.5178 42.3521 41.3878 41.8565 42.364 41.7336C43.3403 41.6106 44.3061 41.8753 45.0835 42.4789C45.8609 43.0825 46.3565 43.9524 46.4795 44.9286C46.6025 45.9049 46.3378 46.8707 45.7342 47.6481C45.1306 48.4255 44.2606 48.9212 43.2844 49.0441ZM42.3915 41.9516C40.4961 42.1904 39.1485 43.9261 39.3869 45.8215C39.6254 47.7169 41.3615 49.0645 43.2569 48.8261C45.1523 48.5877 46.4999 46.8515 46.2615 44.9562C46.0226 43.0608 44.2869 41.7131 42.3915 41.9516Z" fill="#FFA412"/>
<path d="M43.4612 46.3861C43.4608 46.3061 43.4487 46.2356 43.4258 46.1748C43.4028 46.1139 43.3653 46.0589 43.3136 46.0097C43.2619 45.9605 43.1957 45.9155 43.1144 45.8738C43.0331 45.8325 42.9339 45.7921 42.8168 45.7529C42.6154 45.6837 42.4324 45.6112 42.2678 45.5353C42.1031 45.4595 41.9618 45.3715 41.8443 45.2711C41.7267 45.171 41.635 45.0535 41.5696 44.9188C41.5041 44.7842 41.4704 44.6233 41.4691 44.4365C41.4679 44.2748 41.4958 44.1268 41.5521 43.993C41.6083 43.8592 41.6896 43.7425 41.7955 43.6429C41.9014 43.5432 42.0285 43.4615 42.1769 43.3986C42.3253 43.3357 42.4916 43.2948 42.6759 43.2765L42.6713 42.665L43.1636 42.6616L43.1682 43.2819C43.3445 43.3036 43.505 43.349 43.6492 43.4186C43.793 43.4882 43.916 43.5787 44.0173 43.6904C44.1186 43.8021 44.1969 43.9347 44.2524 44.0872C44.3078 44.2402 44.3362 44.4119 44.3374 44.6024L43.4483 44.6087C43.4466 44.3803 43.3945 44.2094 43.2924 44.0968C43.1898 43.9843 43.0539 43.9284 42.8835 43.9297C42.7913 43.9305 42.7117 43.9438 42.6454 43.9701C42.5792 43.9963 42.5246 44.0318 42.4816 44.0768C42.4387 44.1218 42.4074 44.1752 42.3874 44.236C42.3674 44.2973 42.3574 44.3628 42.3582 44.4336C42.3587 44.5041 42.3695 44.5678 42.3903 44.6249C42.4112 44.6821 42.447 44.7346 42.4975 44.7829C42.5479 44.8313 42.615 44.8763 42.6984 44.9184C42.7817 44.9605 42.8851 45.0043 43.0085 45.0489C43.2078 45.1218 43.3895 45.1969 43.5529 45.2736C43.7163 45.3507 43.8572 45.4395 43.9747 45.5407C44.0923 45.6416 44.184 45.7596 44.2494 45.8946C44.3149 46.0297 44.3482 46.1894 44.3499 46.374C44.3512 46.5416 44.3228 46.6925 44.2653 46.8259C44.2078 46.9597 44.1261 47.0756 44.0202 47.1735C43.9143 47.2715 43.7859 47.3507 43.6359 47.4107C43.4854 47.4707 43.3182 47.5099 43.1336 47.5287L43.1377 48.0972L42.6488 48.1006L42.6446 47.5349C42.4741 47.5191 42.3095 47.4832 42.1502 47.427C41.991 47.3711 41.8493 47.2898 41.7255 47.1827C41.6017 47.076 41.5025 46.9409 41.4274 46.7775C41.3524 46.6141 41.314 46.4182 41.3124 46.1898L42.2015 46.1835C42.2023 46.319 42.2223 46.4315 42.2607 46.5216C42.299 46.6116 42.3503 46.6837 42.4145 46.7375C42.4783 46.7913 42.5508 46.8288 42.6321 46.8501C42.7134 46.8713 42.7959 46.8817 42.8801 46.8813C42.9764 46.8805 43.061 46.8676 43.1336 46.8425C43.2061 46.8171 43.267 46.7825 43.3157 46.7383C43.3645 46.6941 43.4012 46.642 43.4254 46.5816C43.4495 46.5216 43.4612 46.4561 43.4608 46.3857L43.4612 46.3861Z" fill="#FFA412"/>
<path d="M46.3945 55.2192L46.3941 55.2226L46.3136 56.461L46.0143 61.06H40.4174L40.0881 56.524L39.9972 55.2738L39.993 55.2192H46.3945Z" fill="#B4C9F7"/>
<path d="M46.394 55.2227L46.3136 56.4615C45.8918 56.3148 44.7204 55.9617 43.1939 55.9617C41.2661 55.9617 40.0881 56.5245 40.0881 56.5245L39.9972 55.2743L46.394 55.2227Z" fill="#9BB8EA"/>
<path d="M46.5887 55.8738H39.7904L39.7125 55.083H46.675L46.5887 55.8738Z" fill="#B4C9F7"/>
<path d="M46.1002 61.3054H40.2974L40.2311 61.0303H46.174L46.1002 61.3054Z" fill="#B4C9F7"/>
<path d="M69.4554 37.6653C69.4554 37.6653 68.8163 37.5406 68.67 37.6653C68.5237 37.7899 67.8309 38.4944 67.9793 38.7253C68.1277 38.9566 68.8393 38.534 68.9873 38.4939C69.1352 38.4539 69.5487 38.2926 69.5487 38.2926L69.4554 37.6653Z" fill="#FFB27D"/>
<path d="M76.2469 60.2611L76.9322 60.5162C76.9322 60.5162 79.9081 56.3891 80.2745 52.7575C80.3399 52.1094 80.3182 51.4812 80.1765 50.9009C80.1765 50.9009 80.2057 50.7346 80.2566 50.4412C80.2799 50.304 80.3091 50.1389 80.342 49.9501C80.4387 49.3957 80.5717 48.6375 80.7243 47.7738C81.0744 45.7863 81.5279 43.2456 81.8806 41.3782L81.6959 41.319L79.6984 40.6746L79.2857 39.3636L77.7984 38.9722C77.7984 38.9722 77.4662 39.622 77.169 42.6925C77.1144 43.0951 77.0644 43.5395 77.0269 44.021C76.911 45.4907 76.9026 47.3144 77.1686 49.399C77.237 49.9326 77.3228 50.4837 77.43 51.0497C77.5083 51.4649 77.52 52.0302 77.4871 52.6796C77.337 55.6479 76.2474 60.2615 76.2474 60.2615L76.2469 60.2611Z" fill="#2B478B"/>
<path d="M77.0265 44.0206L80.2562 50.4416C80.2795 50.3045 80.3087 50.1394 80.3416 49.9506C80.4383 49.3962 80.5713 48.638 80.7239 47.7743C81.074 45.7868 81.5275 43.2461 81.8802 41.3787L81.6955 41.3195L79.698 40.675L79.2854 39.3641L77.7981 38.9727C77.7981 38.9727 77.4658 39.6225 77.1686 42.693C77.114 43.0956 77.064 43.54 77.0265 44.0214V44.0206Z" fill="#233862"/>
<path d="M78.4475 39.7958L78.5221 39.1547C79.7747 39.4873 83.1216 38.2251 83.1216 38.2251C83.1216 38.2251 84.335 39.2918 84.1758 41.8487C84.0978 43.0967 83.9561 48.3998 83.8077 49.9692C83.7539 50.5378 83.7072 50.9425 83.688 51.1043C83.688 51.1051 83.688 51.1055 83.688 51.1059C83.6822 51.1551 83.6993 51.2018 83.7243 51.2447C83.9427 51.6153 84.1236 52.0013 84.272 52.3965C85.7281 56.2768 84.0478 61.0555 84.0478 61.0555L83.6118 60.8796C83.6118 60.8796 82.6555 55.5615 81.8785 53.2122C81.7468 52.8137 81.6201 52.5007 81.5042 52.3135C81.1666 51.7683 80.8527 50.8775 80.5684 49.8179C80.0307 47.8145 79.5976 45.2084 79.3095 43.1968C79.2699 43.1984 78.4483 39.7962 78.4483 39.7962L78.4475 39.7958Z" fill="#2B478B"/>
<path d="M69.4554 37.665L69.5488 38.2923C69.5488 38.2923 69.5901 38.2923 69.663 38.2873C69.891 38.2719 70.4458 38.2406 71.0732 38.1731C72.0169 38.0797 73.1366 37.9138 73.5826 37.6391C74.2616 37.2244 75.3767 35.9543 76.1024 34.6837C76.1232 34.6525 76.1386 34.6216 76.1541 34.5904C76.5326 33.9163 76.7968 33.2473 76.8177 32.7133C76.8331 32.3865 76.7968 32.1068 76.7297 31.863C76.6418 31.5416 76.4963 31.2873 76.3458 31.0956C76.325 31.0643 76.3041 31.0335 76.2733 31.0072C76.0244 30.7116 75.7806 30.5874 75.7806 30.5874C75.6559 30.5353 75.5213 30.5979 75.3812 30.7479V30.7529C75.267 30.8721 75.1428 31.0535 75.0236 31.2819C75.0186 31.2869 75.0132 31.2923 75.0132 31.2973C74.9873 31.344 74.9615 31.3957 74.9302 31.4528C74.9198 31.4632 74.9148 31.4786 74.9094 31.4891C74.8523 31.6083 74.7952 31.7329 74.7381 31.8626C74.1003 33.2519 73.4213 35.3574 72.856 35.9847C72.6122 36.2544 71.4975 36.7834 70.6109 37.1773C69.9731 37.4574 69.4546 37.6646 69.4546 37.6646L69.4554 37.665Z" fill="#FFB27D"/>
<path d="M76.0544 32.0189C76.4475 32.2015 76.9226 32.3253 77.4971 32.357C79.6505 32.4749 80.1394 30.587 80.2282 29.334C79.9177 29.2215 79.6459 29.2323 79.4891 29.2406C79.3366 29.249 79.1769 29.2648 79.0456 29.2811C78.7822 29.1435 78.3091 28.4749 78.0356 27.3569L77.9427 27.3999L76.3887 28.1302C76.3887 28.1302 76.5537 28.6358 76.6755 29.1198C76.7705 29.4983 76.8389 29.8642 76.7818 29.9668C76.6592 30.0164 76.5858 30.0481 76.5858 30.0481C76.5858 30.0481 76.5858 30.0485 76.5854 30.0497C76.5696 30.0893 76.2319 30.9501 76.054 32.0193L76.0544 32.0189Z" fill="#FFB27D"/>
<path d="M75.5159 33.4322C75.5322 33.4751 75.5501 33.5172 75.5697 33.5602C76.1149 34.7348 77.1245 39.6006 77.1245 39.6006C76.9807 40.4756 83.699 39.4289 83.7165 38.6323C83.9532 37.7878 82.8769 36.4305 82.27 35.7498C82.1942 35.6644 82.1258 35.5727 82.0666 35.4755C81.9165 35.2329 81.8215 34.9587 81.7915 34.6723C81.6723 33.5431 81.7177 32.4851 81.7077 31.8415C81.5893 31.7536 81.4743 31.6727 81.3676 31.5956C81.2042 31.4764 81.0599 31.3651 80.9536 31.2521C80.8369 31.1291 80.7636 31.0032 80.7552 30.8611C80.749 30.7536 80.7523 30.6435 80.7636 30.5335C80.7686 30.4814 80.7752 30.4293 80.7832 30.3776C80.8669 29.8311 81.0954 29.3355 81.0954 29.3355C80.5176 29.1016 79.4901 29.2408 79.4901 29.2408C79.4901 29.2408 79.4914 29.2979 79.4918 29.3913C79.4951 29.7665 79.4918 30.7302 79.3713 30.9128C79.2208 31.14 76.4684 32.135 76.3229 31.8269C76.1796 31.5239 76.5718 30.1037 76.5864 30.0499C76.5868 30.0487 76.5868 30.0483 76.5868 30.0483C75.6652 30.4101 75.3354 30.714 75.3354 30.714C75.8911 31.0741 75.0866 32.293 75.5159 33.4326V33.4322Z" fill="#F99746"/>
<path d="M77.37 23.282C77.3734 23.1887 77.4455 22.1824 78.9782 22.1299C78.9782 22.1299 78.2246 22.2199 78.0945 22.5509C78.0945 22.5509 78.6076 22.1416 79.0253 22.2733C79.443 22.405 79.6885 23.137 79.691 23.3779C79.6935 23.6188 79.4613 24.395 79.1962 24.4609C79.0958 24.4859 78.9803 24.4792 78.8748 24.4609C78.9453 24.5709 79.0145 24.6926 79.0808 24.8281C79.6923 26.0832 79.0616 27.31 78.5439 27.1745C78.2121 27.0874 78.1179 27.6543 78.1179 27.6543L74.8923 25.0432C74.8923 25.0432 76.077 22.5917 77.37 23.2816V23.282Z" fill="#2C3A64"/>
<path d="M76.3888 28.1302C76.3888 28.1302 76.5539 28.6354 76.6756 29.1198C77.5839 28.8664 77.8598 27.9118 77.9428 27.3999L76.3888 28.1302Z" fill="#ED985F"/>
<path d="M76.1975 28.6654C76.1975 28.6654 78.3705 28.1627 78.0366 26.8142C77.7027 25.4658 77.7581 24.4928 76.3567 24.7567C74.9553 25.021 74.814 25.6016 74.8161 26.0789C74.8181 26.5562 75.6239 28.7613 76.1979 28.6654H76.1975Z" fill="#FFB27D"/>
<path d="M74.6939 25.3136C74.9274 24.8251 75.2025 24.8509 75.3746 24.9377C76.3959 23.9931 77.3971 24.7647 77.3971 24.7647C77.7827 25.6959 78.6181 26.0765 78.6181 26.0765C78.6181 26.0765 78.2842 26.4183 77.3167 26.4108C77.0212 26.4083 76.724 26.2728 76.4534 26.0856C76.9749 26.6109 77.5864 26.9306 77.5864 26.9306C76.3751 26.6988 75.563 25.2966 75.4797 25.1477C75.3771 25.2995 75.1808 25.6217 75.1641 25.8943C75.1416 26.2645 75.2692 26.9831 75.057 27.0106C75.057 27.0106 74.3429 26.0469 74.6935 25.3136H74.6939Z" fill="#2C3A64"/>
<path d="M75.335 30.7134C75.335 30.7134 74.8119 31.6263 74.7335 31.8609C74.7335 31.8609 75.4121 31.8347 75.686 32.3566C75.686 32.3566 75.7519 30.8363 75.335 30.7134Z" fill="#F99746"/>
<path d="M78.9335 37.9652C80.2586 37.951 81.3807 36.575 82.0664 35.4754C81.9164 35.2328 81.8213 34.9585 81.7913 34.6721C81.6721 33.5429 81.7175 32.485 81.7075 31.8414C81.5892 31.7534 81.4741 31.6725 81.3674 31.5954C81.204 31.4762 81.0598 31.3649 80.9535 31.252C79.8684 33.0861 77.1369 37.9844 78.9335 37.9652Z" fill="#ED7D2B"/>
<path d="M73.9248 38.6859L74.1061 39.3495C74.1061 39.3495 74.3341 39.3083 74.6972 39.2407C74.806 39.2199 74.8681 39.2045 74.8681 39.2045C75.1582 39.1474 75.5059 39.0698 75.8844 38.9869H75.8894C76.5375 38.8314 77.2633 38.6446 77.8752 38.4371C78.3054 38.2866 78.6789 38.1261 78.9327 37.9652C78.9586 37.9498 78.9794 37.9339 79.0053 37.9131C79.6118 37.4725 80.3325 36.1761 80.8927 34.7868C80.9707 34.595 81.0432 34.4033 81.1157 34.2165C81.375 33.5217 81.5822 32.8372 81.7068 32.2461C81.7847 31.8935 81.8364 31.5721 81.8469 31.3078C81.8519 31.2144 81.8573 31.1265 81.8519 31.0435C81.8414 29.54 81.0949 29.3324 81.0949 29.3324C81.0795 29.3274 81.0636 29.322 81.0432 29.317C80.9135 29.2961 80.7789 29.3845 80.6389 29.5554C80.4625 29.768 80.2758 30.1152 80.084 30.5354C79.7885 31.2044 79.4775 32.0702 79.187 32.931C79.0261 33.4029 78.8706 33.8747 78.7151 34.3099C78.6272 34.5742 78.5388 34.823 78.4558 35.0515C78.2949 35.4871 78.1499 35.8397 78.0202 36.0623C77.9373 36.2074 77.6989 36.4095 77.3825 36.638C76.8331 37.0373 76.0294 37.5196 75.3291 37.9135C75.0386 38.0794 74.7639 38.2299 74.5359 38.3541C74.1678 38.5563 73.924 38.6859 73.924 38.6859H73.9248Z" fill="#FFB27D"/>
<path d="M80.0862 30.5379C81.0845 30.2628 81.8544 31.0418 81.8544 31.0418C81.8419 29.5408 81.0945 29.3353 81.0945 29.3353C80.794 29.2107 80.4455 29.7313 80.0862 30.5379Z" fill="#F99746"/>
<path d="M81.5117 61.4113H84.9623C84.9623 61.4113 85.0449 60.8852 84.8648 60.4863C84.6922 60.1032 84.4217 59.9294 84.4863 59.4663C84.267 59.6922 83.9098 59.9448 83.4109 59.8777C83.3496 59.9769 83.0161 60.5072 82.8123 60.6539C82.5868 60.816 81.5813 60.7581 81.5117 61.4113Z" fill="#233862"/>
<path d="M74.1028 61.4114H77.5534C77.5534 61.4114 77.6822 60.8612 77.4559 60.4865C77.2554 60.1551 77.3321 59.9662 77.4809 59.692C77.3246 59.7561 77.1224 59.8141 76.8998 59.8016C76.7281 59.7916 76.5459 59.7136 76.3867 59.6211C76.2383 59.7903 75.6022 60.511 75.4033 60.654C75.1778 60.8162 74.1724 60.7582 74.1028 61.4114Z" fill="#233862"/>
<path d="M73.7192 41.7615L72.8993 39.7611C72.7926 39.5001 72.5062 39.3646 72.2402 39.438C71.9689 38.9274 71.5946 38.5122 71.1702 38.2208C70.7234 37.9132 70.2215 37.7435 69.7263 37.7456C69.4649 37.7469 69.2044 37.7961 68.9555 37.8982C67.7896 38.3759 67.2669 39.849 67.695 41.2959L67.6312 41.3217C67.6312 41.3217 67.432 41.308 67.0977 41.308C66.0418 41.308 63.6412 41.4484 61.9568 42.6181C61.9568 42.6181 61.8509 42.7306 61.8467 42.9028C61.8446 42.9595 61.8542 43.0233 61.8821 43.0916C61.8821 43.0916 64.5858 41.3409 67.086 43.14C67.2398 43.25 67.3882 43.3521 67.5337 43.4468L67.7579 43.9941C68.1298 44.902 69.1765 45.3396 70.0839 44.9678L72.3741 44.0291L72.8513 43.8336C73.6596 43.5026 74.0502 42.5697 73.7188 41.7615H73.7192ZM69.2794 40.14L68.3465 40.5226C68.0931 40.6264 67.9597 40.9019 68.0251 41.1608L67.9251 41.2017C67.5458 39.8836 68.0085 38.5543 69.0497 38.1279C69.196 38.0678 69.3461 38.0287 69.4983 38.0095C69.9776 37.9461 70.477 38.0753 70.9264 38.3555C71.3532 38.6214 71.7338 39.0237 72.0081 39.5285L71.8705 39.5847C71.7355 39.3551 71.4474 39.2521 71.194 39.3555L70.2607 39.7381C70.1877 39.5601 70.0147 39.4522 69.833 39.4522C69.7755 39.4522 69.7167 39.4634 69.6604 39.4864L69.5312 39.5393C69.2969 39.6356 69.1835 39.9057 69.2798 40.14H69.2794Z" fill="#C94C43"/>
<path d="M67.5341 43.446C67.3891 43.3514 67.2403 43.2493 67.0865 43.1392C64.5858 41.3401 61.8826 43.0909 61.8826 43.0909C61.8547 43.0229 61.8447 42.9591 61.8472 42.902C62.2257 42.6528 63.6442 41.8237 65.4016 42.1071C67.4612 42.4393 67.8334 42.7257 67.5341 43.446Z" fill="#B23B38"/>
<path d="M72.8522 43.8332L72.3749 44.0287C73.0902 43.6381 72.2044 41.9878 71.6863 40.8986C71.1682 39.809 70.3841 40.3071 70.3841 40.3071C70.2044 39.942 69.8197 39.9616 69.8197 39.9616C69.7997 39.6097 69.5312 39.5389 69.5312 39.5389L69.6604 39.4859C69.7167 39.463 69.7759 39.4518 69.833 39.4518C70.0148 39.4518 70.1882 39.5597 70.2607 39.7377L71.194 39.355C71.4474 39.2513 71.7355 39.3546 71.8705 39.5843L72.0081 39.528C71.7338 39.0232 71.3532 38.621 70.9264 38.355C70.4775 38.0749 69.9777 37.9457 69.4983 38.0091C69.5733 37.9486 69.6542 37.864 69.7263 37.7456C70.2215 37.7435 70.7234 37.9132 71.1702 38.2208C71.5942 38.5122 71.9685 38.927 72.2403 39.438C72.5062 39.3646 72.7926 39.5001 72.8993 39.7611L73.7192 41.7615C74.051 42.5697 73.66 43.5026 72.8518 43.8336L72.8522 43.8332Z" fill="#B23B38"/>
<path d="M71.7781 39.3297C72.1099 39.4697 72.5764 39.957 73.3234 39.6615C73.8573 39.4539 74.4226 39.3088 74.6973 39.2413C74.8061 39.2204 74.8682 39.205 74.8682 39.205L74.5726 38.3442C74.5726 38.3442 74.5622 38.3492 74.5364 38.3547C74.3446 38.3959 73.3696 38.6035 72.9136 38.4997C72.4005 38.3805 71.5397 38.9974 71.5397 38.9974C71.5397 38.9974 71.4463 39.1946 71.7781 39.3292V39.3297Z" fill="#FFB27D"/>
<path d="M62.4108 44.5363C62.4108 44.2249 61.8468 43.2637 61.8468 43.2637C61.8468 43.2637 61.2828 44.2249 61.2828 44.5363C61.2828 44.8477 61.5354 45.1003 61.8468 45.1003C62.1582 45.1003 62.4108 44.8477 62.4108 44.5363Z" fill="#AFCDFB"/>
</svg>
