<svg width="68" height="64" viewBox="0 0 68 64" fill="none" xmlns="http://www.w3.org/2000/svg">
<path d="M19.9269 3.33398H1.0188V36.7043H19.9269V3.33398Z" fill="#C6E8FF" stroke="#C6E8FF" stroke-miterlimit="10"/>
<path d="M20.112 11.4252V11.215H16.085V3.14693H15.8136V11.215H11.0839V2.91162H10.0281V11.215H5.16031V3.14693H4.88891V11.215H1V11.4252H4.88891V19.4901H1V20.5459H4.88891V28.9418H1V29.152H4.88891V36.6992H5.16031V29.152H10.0281V36.4623H11.0839V29.152H15.8136V36.6992H16.085V29.152H20.112V28.9418H16.085V20.5459H20.112V19.4901H16.085V11.4252H20.112ZM5.16031 11.4252H10.0281V19.4901H5.16031V11.4252ZM5.16031 28.9418V20.5459H10.0281V28.9418H5.16031ZM15.8136 28.9418H11.0839V20.5459H15.8136V28.9418ZM15.8136 19.4901H11.0839V11.4252H15.8136V19.4901Z" fill="#FAFAFA"/>
<path d="M48.0749 42.6855H46.9548V47.1392H48.0749V42.6855Z" fill="#EBEBEB"/>
<path d="M62.2107 42.6855H61.0906V47.1392H62.2107V42.6855Z" fill="#DCEDF8"/>
<path d="M55.5232 42.6855H54.4031V47.1392H55.5232V42.6855Z" fill="#C6E8FF"/>
<path d="M67.5445 42.6855H66.4244V47.1392H67.5445V42.6855Z" fill="#C6E8FF"/>
<path d="M62.2328 32.418H46.9548V42.687H62.2328V32.418Z" fill="#DCEDF8"/>
<path d="M67.7422 32.418H62.2327V42.687H67.7422V32.418Z" fill="#C6E8FF"/>
<path d="M60.7895 37.5525C60.7895 37.5525 60.7879 37.5321 60.7864 37.4944C60.7864 37.4537 60.7864 37.3988 60.7832 37.3282C60.7832 37.1791 60.7801 36.9642 60.777 36.6865C60.7738 36.1265 60.7691 35.3139 60.7628 34.2864L60.7879 34.3115C57.9846 34.3146 53.5168 34.3209 48.4906 34.3272C48.5078 34.3083 48.4498 34.3679 48.5314 34.2864V34.7052C48.5314 34.8448 48.5314 34.9829 48.5314 35.1225C48.5314 35.3986 48.5314 35.6747 48.5314 35.9461C48.5314 36.4904 48.5314 37.027 48.5314 37.5525L48.4921 37.5133C51.9999 37.5211 55.0683 37.5274 57.263 37.5321C58.3595 37.5368 59.238 37.5415 59.8467 37.5431C60.1479 37.5446 60.3816 37.5478 60.5432 37.5478C60.6201 37.5478 60.6813 37.5493 60.7252 37.5509C60.766 37.5509 60.7879 37.5541 60.7879 37.5541C60.7879 37.5541 60.7691 37.5556 60.7299 37.5572C60.6876 37.5572 60.6279 37.5572 60.5526 37.5603C60.3926 37.5603 60.162 37.5635 59.864 37.565C59.2584 37.5682 58.3831 37.5713 57.2897 37.576C55.0871 37.5807 52.0093 37.587 48.4906 37.5948H48.4514V37.5556C48.4514 37.0301 48.4514 36.4952 48.4514 35.9492C48.4514 35.6763 48.4514 35.4017 48.4514 35.1256C48.4514 34.9876 48.4514 34.848 48.4514 34.7084V34.4997V34.3946V34.2926V34.2895C48.5329 34.2079 48.4749 34.2675 48.4937 34.2487C53.5184 34.255 57.9877 34.2613 60.7911 34.2644H60.8162V34.2895C60.8099 35.3233 60.8052 36.1406 60.8021 36.7038C60.7989 36.9783 60.7974 37.1917 60.7958 37.3391C60.7958 37.4082 60.7942 37.4615 60.7927 37.5007C60.7927 37.5368 60.7911 37.5541 60.7895 37.5541V37.5525Z" fill="#C6E8FF"/>
<path d="M55.1781 35.9194C55.1781 36.2175 54.9365 36.4575 54.64 36.4575C54.3435 36.4575 54.1019 36.2159 54.1019 35.9194C54.1019 35.6229 54.3435 35.3813 54.64 35.3813C54.9365 35.3813 55.1781 35.6229 55.1781 35.9194Z" fill="#C6E8FF"/>
<path d="M49.2435 28.501L49.8459 29.3669C49.8459 29.3669 48.4921 29.7434 48.4921 30.9466C48.4921 32.1499 49.3204 32.3758 50.2224 32.3758C51.1244 32.3758 51.9904 32.1122 51.9527 30.909C51.9151 29.7058 50.7871 29.254 50.7871 29.254L51.3519 28.501H49.2451H49.2435Z" fill="#C6E8FF"/>
<path d="M66.2503 30.0963V32.3004H56.7704C56.1617 32.3004 55.6675 31.8062 55.6675 31.1976C55.6675 30.5889 56.1617 30.0947 56.7704 30.0947" fill="#C6E8FF"/>
<path d="M62.763 30.5592H66.2519V31.8393H62.763C62.6124 31.8393 62.4885 31.7169 62.4885 31.5648V30.8321C62.4885 30.6815 62.6108 30.5576 62.763 30.5576V30.5592Z" fill="#FAFAFA"/>
<path d="M66.2503 27.9786V30.1827H56.7704C56.1617 30.1827 55.6675 29.6885 55.6675 29.0799C55.6675 28.4712 56.1617 27.9771 56.7704 27.9771H66.2503V27.9786Z" fill="#C6E8FF"/>
<path d="M62.763 28.441H66.2519V29.7211H62.763C62.6124 29.7211 62.4885 29.5988 62.4885 29.4466V28.714C62.4885 28.5634 62.6108 28.4395 62.763 28.4395V28.441Z" fill="#C6E8FF"/>
<path d="M39.8954 6.25296C39.933 6.21688 40.1918 6.40199 40.5323 6.78477C40.7033 6.97458 40.8868 7.21774 41.0719 7.50168C41.2539 7.78719 41.4327 8.11506 41.5896 8.47273C41.7433 8.83197 41.8594 9.18808 41.9441 9.51595C42.0241 9.84538 42.0759 10.145 42.0979 10.4007C42.1449 10.9106 42.1026 11.2259 42.0508 11.229C41.9284 11.2384 41.8171 10.0038 41.2147 8.63588C40.6295 7.26166 39.8044 6.33611 39.8954 6.25296Z" fill="#EBEBEB"/>
<path d="M42.4541 12.2519C42.4007 12.2597 42.2548 11.5836 42.1184 10.4776C41.9803 9.37167 41.8674 7.83587 41.8219 6.14006C41.7764 4.44268 41.7952 2.90688 41.8281 1.79621C41.8642 0.687109 41.916 0 41.9725 0C42.0289 0 42.0791 0.687109 42.1184 1.79621C42.1591 2.90531 42.1858 4.43797 42.2313 6.12908C42.2752 7.81861 42.3427 9.34657 42.407 10.4525C42.4682 11.5585 42.5137 12.244 42.4541 12.2519Z" fill="#EBEBEB"/>
<path d="M44.9296 2.60712C44.9829 2.63693 44.768 3.10912 44.4888 3.89663C44.2032 4.681 43.8518 5.78382 43.5067 7.01215C43.1679 8.24361 42.9012 9.3684 42.7412 10.1889C42.5749 11.0077 42.5153 11.5223 42.4541 11.5207C42.4023 11.5207 42.36 10.9905 42.4557 10.1449C42.5451 9.29938 42.771 8.14792 43.113 6.90234C43.4628 5.65832 43.8628 4.5555 44.2221 3.78681C44.5766 3.01342 44.8856 2.58045 44.9296 2.60712Z" fill="#EBEBEB"/>
<path d="M39.2679 10.8413V12.192C39.2679 13.7843 40.559 15.0753 42.1513 15.0753C43.7436 15.0753 45.0346 13.7843 45.0346 12.192V10.8413H39.2695H39.2679Z" fill="#C6E8FF"/>
<path d="M45.0848 11.9837C45.0848 12.0056 43.7828 12.0244 42.1764 12.0244C40.57 12.0244 39.2679 12.0056 39.2679 11.9837C39.2679 11.9617 40.57 11.9429 42.1764 11.9429C43.7828 11.9429 45.0848 11.9617 45.0848 11.9837Z" fill="#FAFAFA"/>
<path d="M45.0848 12.3587C45.0848 12.3806 43.7828 12.3994 42.1764 12.3994C40.57 12.3994 39.2679 12.3806 39.2679 12.3587C39.2679 12.3367 40.57 12.3179 42.1764 12.3179C43.7828 12.3179 45.0848 12.3367 45.0848 12.3587Z" fill="#FAFAFA"/>
<path d="M62.0178 15.0742H35.4166V16.6132H62.0178V15.0742Z" fill="#DCEDF8"/>
<path d="M41.3371 16.6133H40.4602V19.277H41.3371V16.6133Z" fill="#C6E8FF"/>
<path d="M55.9295 16.6133H55.0526V19.277H55.9295V16.6133Z" fill="#C6E8FF"/>
<path d="M50.6177 9.44385L50.0153 15.0364H57.7351L58.3767 9.44385H50.6177Z" fill="#EBEBEB"/>
<path d="M50.9347 9.84717L50.348 14.7401H57.3164L57.8811 9.84717H50.9347Z" fill="white"/>
<path d="M52.1081 10.6689L51.7473 13.9162H56.1444L56.3703 10.6689H52.1081Z" fill="#C6E8FF"/>
<path d="M58.1007 11.8533L59.6945 15.0598L57.7352 15.0363L58.1242 11.6431" fill="#C6E8FF"/>
<path d="M32.105 64.0001C47.0364 64.0001 59.1407 60.7271 59.1407 56.6897C59.1407 52.6523 47.0364 49.3794 32.105 49.3794C17.1736 49.3794 5.06927 52.6523 5.06927 56.6897C5.06927 60.7271 17.1736 64.0001 32.105 64.0001Z" fill="#C6E8FF"/>
<path d="M47.3783 24.4567C47.3783 24.4567 46.2959 23.7759 45.055 26.3565C43.8142 28.937 43.3561 30.4179 43.3561 30.4179C43.3561 30.4179 43.0251 30.9607 42.6502 30.6187C42.2752 30.2783 41.7497 29.2994 41.13 29.4924C40.4869 29.6916 40.2908 30.4195 40.4398 31.4768C40.5873 32.5342 40.8273 34.8653 40.8477 35.0755C40.8681 35.2826 40.7567 35.5901 40.4633 35.3987C40.17 35.2073 38.471 33.4001 37.6615 34.2582C36.8521 35.1163 37.7494 37.9965 37.8404 38.3134C37.9314 38.6303 37.8733 38.7684 37.7243 38.8499C37.5753 38.9331 37.0607 38.2711 36.5556 37.7769C36.0504 37.2828 35.379 36.798 34.9539 37.333C34.5288 37.8679 34.4393 40.0453 36.5917 43.5311L37.6945 45.081L39.5989 44.9304C43.6557 44.3609 45.2747 42.9004 45.4143 42.2321C45.5539 41.5639 44.7523 41.3568 44.0495 41.2831C43.3467 41.2109 42.509 41.2376 42.4776 41.0697C42.4462 40.9018 42.5137 40.7685 42.8164 40.6367C43.1192 40.505 45.9069 39.3566 46.0512 38.1848C46.1939 37.0145 43.7185 36.8592 43.3843 36.7572C43.0502 36.6537 43.2165 36.3713 43.389 36.2552C43.5647 36.136 45.51 34.8324 46.4183 34.2708C47.3266 33.7092 47.7611 33.0942 47.5038 32.4714C47.256 31.8722 46.1673 32.0918 45.6653 32.0212C45.1633 31.9506 45.3688 31.3498 45.3688 31.3498C45.3688 31.3498 46.2159 30.0509 47.4097 27.4483C48.6035 24.8458 47.3564 24.4442 47.3564 24.4442" fill="#89CC86"/>
<path d="M46.263 26.7661C46.263 26.7661 46.2567 26.7865 46.241 26.8226C46.2237 26.8634 46.2002 26.9167 46.172 26.9842C46.1076 27.1301 46.0151 27.3371 45.8959 27.6023C45.6558 28.1388 45.3013 28.9122 44.8605 29.866C43.9789 31.7751 42.7364 34.3996 41.3544 37.2939C39.977 40.1898 38.7314 42.8112 37.8263 44.7125C37.3807 45.6601 37.0199 46.4287 36.7674 46.9652C36.6434 47.2272 36.5462 47.4327 36.4787 47.5771C36.4458 47.6429 36.4207 47.6963 36.4018 47.7355C36.3846 47.7716 36.3736 47.7888 36.3736 47.7888C36.3736 47.7888 36.3799 47.7684 36.3956 47.7324C36.4128 47.6916 36.4363 47.6382 36.4646 47.5708C36.5289 47.4249 36.6215 47.2178 36.7407 46.9527C36.9807 46.4162 37.3352 45.6428 37.7761 44.689C38.6577 42.7798 39.9001 40.1553 41.2822 37.2594C42.658 34.3651 43.9051 31.7437 44.8087 29.8424C45.2543 28.8949 45.6151 28.1262 45.8676 27.5897C45.9916 27.3277 46.0888 27.1222 46.1563 26.9779C46.1892 26.912 46.2143 26.8587 46.2331 26.8195C46.2504 26.7834 46.2614 26.7661 46.2614 26.7661H46.263Z" fill="#263238"/>
<path d="M41.8108 30.8936C41.8218 30.8905 41.8893 31.074 41.985 31.3752C42.0807 31.6764 42.1999 32.0968 42.3207 32.5627C42.4368 33.0177 42.5419 33.4287 42.625 33.7581C42.7019 34.064 42.7536 34.2523 42.7427 34.2554C42.7317 34.2585 42.6611 34.0766 42.5701 33.7738C42.4775 33.471 42.3646 33.049 42.2422 32.5831C42.123 32.1298 42.0148 31.7188 41.9301 31.3909C41.85 31.0866 41.7998 30.8967 41.8108 30.8936Z" fill="#263238"/>
<path d="M42.9184 34.2845C42.9121 34.2626 43.7655 33.9771 44.826 33.6445C45.8864 33.3119 46.7524 33.0609 46.7587 33.0829C46.7649 33.1048 45.9115 33.3904 44.8495 33.7229C43.789 34.0539 42.9231 34.3065 42.9168 34.2845H42.9184Z" fill="#263238"/>
<path d="M40.595 38.6349C40.595 38.6223 40.7943 38.6176 41.1174 38.6098C41.439 38.6004 41.8845 38.5878 42.374 38.558C42.865 38.5282 43.3074 38.4874 43.6274 38.4576C43.9474 38.4262 44.1467 38.4074 44.1482 38.4199C44.1482 38.4309 43.9537 38.4701 43.6337 38.5156C43.3137 38.5611 42.8697 38.6113 42.3787 38.6411C41.8861 38.6709 41.4406 38.6757 41.1174 38.6694C40.7943 38.6631 40.595 38.6474 40.595 38.6364V38.6349Z" fill="#263238"/>
<path d="M38.9181 35.7878C38.9275 35.7815 39.0326 35.9337 39.1926 36.1847C39.3542 36.4357 39.5707 36.7855 39.806 37.1746C40.0413 37.5636 40.2515 37.9181 40.399 38.177C40.5465 38.4358 40.6343 38.599 40.6249 38.6037C40.6155 38.61 40.5104 38.4578 40.3504 38.2068C40.1904 37.9558 39.9723 37.606 39.737 37.2169C39.5017 36.8279 39.2915 36.4733 39.144 36.2161C38.9965 35.9572 38.9087 35.7941 38.9181 35.7894V35.7878Z" fill="#263238"/>
<path d="M36.3783 39.3662C36.3783 39.3662 36.4191 39.4101 36.4787 39.4996C36.5383 39.589 36.6246 39.716 36.7281 39.8776C36.9352 40.1976 37.2176 40.6447 37.5235 41.1389C37.831 41.6346 38.1039 42.0848 38.3 42.4143C38.3973 42.579 38.4757 42.7123 38.5275 42.8049C38.5792 42.8974 38.6059 42.9508 38.6012 42.9539C38.5965 42.9571 38.5604 42.91 38.5008 42.8206C38.4412 42.7327 38.3549 42.6041 38.2514 42.4425C38.0443 42.1225 37.7619 41.6754 37.456 41.1797C37.1486 40.684 36.8756 40.2337 36.6811 39.9059C36.5838 39.7411 36.5054 39.6078 36.4536 39.5152C36.4018 39.4227 36.3752 39.3693 36.3799 39.3662H36.3783Z" fill="#263238"/>
<path d="M38.5729 42.8533C38.5729 42.8533 38.6357 42.8407 38.7502 42.8313C38.882 42.8235 39.0435 42.8125 39.2334 42.7999C39.6412 42.7748 40.2044 42.7388 40.8256 42.6839C41.4469 42.6289 42.0085 42.5662 42.4132 42.5191C42.603 42.4972 42.763 42.4799 42.8948 42.4642C43.0093 42.4517 43.0721 42.4485 43.0721 42.4532C43.0721 42.4595 43.0109 42.4736 42.8979 42.4956C42.785 42.5176 42.6218 42.5458 42.4195 42.5756C42.0147 42.6368 41.4531 42.709 40.8303 42.7639C40.2075 42.8188 39.6428 42.8454 39.2334 42.8564C39.0294 42.8611 38.8631 42.8627 38.7486 42.8611C38.6341 42.8611 38.5714 42.8564 38.5714 42.8501L38.5729 42.8533Z" fill="#263238"/>
<path opacity="0.2" d="M47.3783 24.4567C47.3783 24.4567 46.2959 23.7759 45.055 26.3565C43.8142 28.937 43.3561 30.4179 43.3561 30.4179C43.3561 30.4179 43.0251 30.9607 42.6502 30.6187C42.2752 30.2783 41.7497 29.2994 41.13 29.4924C40.4869 29.6916 40.2908 30.4195 40.4398 31.4768C40.5873 32.5342 40.8273 34.8653 40.8477 35.0755C40.8681 35.2826 40.7567 35.5901 40.4633 35.3987C40.17 35.2073 38.471 33.4001 37.6615 34.2582C36.8521 35.1163 37.7494 37.9965 37.8404 38.3134C37.9314 38.6303 37.8733 38.7684 37.7243 38.8499C37.5753 38.9331 37.0607 38.2711 36.5556 37.7769C36.0504 37.2828 35.379 36.798 34.9539 37.333C34.5288 37.8679 34.4393 40.0453 36.5917 43.5311L37.6945 45.081L39.5989 44.9304C43.6557 44.3609 45.2747 42.9004 45.4143 42.2321C45.5539 41.5639 44.7523 41.3568 44.0495 41.2831C43.3467 41.2109 42.509 41.2376 42.4776 41.0697C42.4462 40.9018 42.5137 40.7685 42.8164 40.6367C43.1192 40.505 45.9069 39.3566 46.0512 38.1848C46.1939 37.0145 43.7185 36.8592 43.3843 36.7572C43.0502 36.6537 43.2165 36.3713 43.389 36.2552C43.5647 36.136 45.51 34.8324 46.4183 34.2708C47.3266 33.7092 47.7611 33.0942 47.5038 32.4714C47.256 31.8722 46.1673 32.0918 45.6653 32.0212C45.1633 31.9506 45.3688 31.3498 45.3688 31.3498C45.3688 31.3498 46.2159 30.0509 47.4097 27.4483C48.6035 24.8458 47.3564 24.4442 47.3564 24.4442" fill="#AAE2A8"/>
<path d="M22.8055 18.5867C22.8055 18.5867 22.8337 18.5742 22.8933 18.5679C22.9529 18.5616 23.0455 18.5648 23.1569 18.6071C23.2682 18.6479 23.3937 18.7311 23.5145 18.8566C23.6369 18.9821 23.7436 19.1562 23.8471 19.3586C24.0495 19.7696 24.1844 20.3171 24.3381 20.9524C24.4887 21.5909 24.655 22.325 24.768 23.1596V23.1533C24.8166 23.2741 24.9092 23.4122 25.0441 23.4185C25.11 23.4185 25.1727 23.3855 25.2323 23.3432C25.2919 23.3008 25.3515 23.2537 25.4112 23.2051C25.5288 23.1094 25.6512 23.009 25.7877 22.9243C25.9226 22.8443 26.0888 22.769 26.2645 22.8129C26.4324 22.8647 26.5642 22.9918 26.6426 23.1486C26.7179 23.3071 26.7367 23.4859 26.7258 23.6616C26.7069 24.0146 26.5673 24.3503 26.4669 24.6954C26.3587 25.0421 26.2489 25.3966 26.1359 25.759C26.0794 25.941 26.023 26.1245 25.9649 26.3097C25.9367 26.4022 25.9069 26.4948 25.8771 26.5889C25.863 26.6375 25.8457 26.6814 25.8441 26.7254C25.8394 26.7693 25.8457 26.8164 25.863 26.8524C25.8959 26.9309 25.9947 26.9136 26.0779 26.8666C26.1657 26.8179 26.2536 26.7693 26.3414 26.7207C26.5187 26.6234 26.7022 26.5293 26.8952 26.4508C27.0881 26.374 27.2921 26.3065 27.5086 26.294C27.6168 26.2877 27.7298 26.3002 27.8333 26.3442C27.9368 26.3881 28.0294 26.4665 28.0859 26.5638C28.2035 26.763 28.2098 26.9968 28.1894 27.2133C28.1674 27.4329 28.1188 27.6494 28.0529 27.8611C27.9227 28.2863 27.7423 28.6988 27.5368 29.1052C27.4882 29.2071 27.4238 29.306 27.3956 29.4064C27.3815 29.4566 27.3799 29.5068 27.3988 29.5475C27.4082 29.5679 27.4239 29.5868 27.4427 29.604C27.4521 29.6103 27.4599 29.6119 27.4866 29.604C27.5823 29.5711 27.6811 29.5005 27.7752 29.4377C27.8694 29.3718 27.9651 29.3044 28.0608 29.2385C28.2521 29.1052 28.4482 28.9718 28.6679 28.873C28.7777 28.8243 28.8938 28.7836 29.0177 28.7694C29.1401 28.7538 29.2812 28.7789 29.3816 28.8667C29.4836 28.9514 29.5385 29.0769 29.5558 29.2008C29.5699 29.262 29.5683 29.3248 29.573 29.386C29.5699 29.4471 29.5699 29.5099 29.5636 29.5711C29.5401 29.8158 29.4742 30.0542 29.3911 30.2848C29.2263 30.7492 28.9832 31.1837 28.7071 31.5979C28.431 32.0136 28.1141 32.4042 27.7737 32.7807C27.6105 32.9768 27.416 33.14 27.2325 33.3172C27.0474 33.4914 26.8607 33.6671 26.674 33.8428L26.6567 33.8584L26.6348 33.8522C26.6018 33.8428 26.5657 33.8318 26.5312 33.8208C26.2834 33.7455 26.0371 33.6718 25.7924 33.5965L25.4253 33.4851C25.3045 33.4443 25.1868 33.3925 25.0676 33.347C24.5938 33.1541 24.1342 32.9407 23.6981 32.6897C23.2635 32.4387 22.851 32.1517 22.4902 31.8128C22.3113 31.6418 22.1435 31.4598 22.0086 31.2496C21.9458 31.143 21.8815 31.0347 21.8485 30.9123C21.8125 30.79 21.8109 30.6504 21.8752 30.5311C21.9411 30.4119 22.0666 30.3445 22.1858 30.3115C22.3066 30.2786 22.429 30.2707 22.5498 30.2692C22.7914 30.2692 23.0282 30.3068 23.2588 30.3445C23.3749 30.3633 23.4894 30.3821 23.604 30.4009C23.6604 30.4088 23.7185 30.4166 23.775 30.4213C23.8283 30.4245 23.8926 30.4276 23.9271 30.4135C23.9381 30.4072 23.9303 30.4135 23.9365 30.4041C23.9412 30.3931 23.9444 30.3805 23.9459 30.3696C23.9507 30.346 23.9491 30.3241 23.9428 30.3021C23.9303 30.2582 23.8957 30.2158 23.855 30.1797C23.775 30.1091 23.673 30.0464 23.5836 29.9774C23.2149 29.7044 22.8635 29.4173 22.5513 29.0973C22.396 28.9373 22.2486 28.7679 22.1278 28.5812C22.0101 28.3961 21.9019 28.1859 21.9191 27.9521C21.927 27.8376 21.9756 27.7247 22.054 27.6415C22.1325 27.5568 22.2329 27.5035 22.3333 27.4627C22.5372 27.3842 22.7521 27.3607 22.9608 27.3482C23.1694 27.3372 23.3765 27.345 23.5804 27.356C23.6824 27.3607 23.7844 27.3701 23.8816 27.3717C23.9271 27.3717 23.9758 27.3654 24.0056 27.3435C24.0354 27.3231 24.0448 27.2854 24.0369 27.2431C24.0212 27.1552 23.9538 27.0877 23.8816 27.0187C23.8126 26.9481 23.7436 26.8791 23.6746 26.8101C23.5365 26.672 23.4 26.534 23.2667 26.3975C22.9969 26.1261 22.7333 25.8594 22.4776 25.6006C22.2266 25.3386 21.9474 25.1049 21.7623 24.8005C21.6681 24.6515 21.5975 24.4852 21.585 24.3095C21.5756 24.1338 21.6321 23.9565 21.7607 23.8326C21.9003 23.7134 22.0838 23.7134 22.2407 23.7259C22.4007 23.7432 22.5545 23.7793 22.7035 23.8138C22.7788 23.831 22.8525 23.8483 22.9247 23.8608C22.9984 23.8718 23.0706 23.8797 23.1302 23.853C23.2541 23.7965 23.273 23.6255 23.2604 23.4969V23.5032C22.9686 22.7188 22.7694 21.9972 22.6015 21.3665C22.4384 20.7375 22.2972 20.1947 22.2768 19.7398C22.2486 19.288 22.3537 18.9303 22.5168 18.7546C22.5953 18.6652 22.6768 18.6212 22.7317 18.6009C22.7882 18.5805 22.8196 18.5789 22.8196 18.5789C22.8196 18.5789 22.7898 18.5836 22.7349 18.6071C22.68 18.6291 22.6015 18.6746 22.5262 18.764C22.3709 18.9381 22.2705 19.2911 22.3019 19.7398C22.3254 20.19 22.4698 20.7281 22.636 21.3571C22.807 21.9846 23.011 22.7063 23.3059 23.4843V23.4875V23.4906C23.3137 23.5659 23.3106 23.6397 23.2918 23.715C23.2714 23.7871 23.2275 23.8671 23.1475 23.9001C23.0706 23.9346 22.9859 23.9252 22.9121 23.9142C22.8368 23.9016 22.7615 23.8844 22.6862 23.8671C22.5372 23.8326 22.385 23.7965 22.2297 23.7824C22.0776 23.7699 21.9082 23.7746 21.7921 23.8765C21.6838 23.9816 21.6273 24.1479 21.6368 24.3079C21.6493 24.4695 21.7152 24.628 21.8078 24.7707C21.9882 25.0625 22.2627 25.2931 22.5168 25.5567C22.7741 25.8155 23.0392 26.0806 23.309 26.352C23.4439 26.4869 23.5804 26.625 23.7185 26.763C23.7875 26.832 23.8565 26.9026 23.9271 26.9717C23.9946 27.0375 24.0809 27.116 24.1013 27.2305C24.1138 27.2838 24.0997 27.3623 24.0432 27.3984C23.9899 27.436 23.9318 27.4391 23.8785 27.4391C23.775 27.4376 23.6746 27.4282 23.5726 27.4235C23.3702 27.4125 23.1647 27.4062 22.9592 27.4156C22.7553 27.4266 22.5466 27.4517 22.3552 27.5254C22.2611 27.5631 22.1701 27.6133 22.1027 27.687C22.0352 27.7592 21.996 27.8533 21.9882 27.9537C21.9725 28.1576 22.0729 28.3584 22.1874 28.5357C22.305 28.7161 22.4494 28.8808 22.6031 29.0393C22.9121 29.3546 23.2604 29.6401 23.6275 29.9099C23.7185 29.9789 23.8142 30.037 23.9067 30.1186C23.9507 30.1594 23.9946 30.208 24.0165 30.2754C24.026 30.3084 24.0275 30.346 24.0212 30.379C24.0181 30.3962 24.0134 30.4119 24.0071 30.4276C24.0024 30.4433 23.9758 30.4762 23.9585 30.4778C23.8832 30.506 23.8283 30.4951 23.7671 30.4935C23.7075 30.4888 23.6495 30.4809 23.5914 30.4731C23.4753 30.4543 23.3608 30.4354 23.2447 30.4182C23.0141 30.3805 22.7819 30.3445 22.5482 30.3445C22.4321 30.3445 22.3145 30.3539 22.2046 30.3837C22.0964 30.4151 21.9944 30.4715 21.9427 30.5657C21.8391 30.7649 21.9521 31.0065 22.0744 31.2026C22.2031 31.4034 22.3678 31.5822 22.5435 31.7501C22.898 32.0842 23.3043 32.3666 23.7357 32.616C24.1671 32.8639 24.6252 33.0772 25.0943 33.267C25.2119 33.3125 25.328 33.3627 25.4488 33.4035L25.8159 33.5149C26.0606 33.5886 26.3069 33.6639 26.5532 33.7392C26.5893 33.7502 26.6238 33.7612 26.6567 33.7706L26.6175 33.78C26.8042 33.6043 26.9893 33.4302 27.176 33.256C27.3595 33.0803 27.5541 32.9156 27.7141 32.7227C28.0513 32.3509 28.3667 31.9618 28.6412 31.5508C28.9157 31.1414 29.1557 30.71 29.3173 30.255C29.4005 30.0291 29.4632 29.7954 29.4867 29.5601C29.493 29.502 29.493 29.4424 29.4962 29.3844C29.4915 29.3263 29.493 29.2667 29.4805 29.2118C29.4648 29.0989 29.4162 28.9938 29.333 28.9232C29.2514 28.8526 29.1401 28.8291 29.0287 28.8432C28.9173 28.8557 28.8075 28.8934 28.7024 28.9389C28.4922 29.033 28.2976 29.1648 28.1078 29.2965C28.0121 29.364 27.9164 29.4299 27.8223 29.4958C27.725 29.5601 27.6325 29.6291 27.5117 29.6715C27.4944 29.6762 27.4803 29.6809 27.4568 29.6793C27.4411 29.684 27.4019 29.6636 27.394 29.6542C27.3705 29.6323 27.3486 29.6056 27.3329 29.5742C27.3015 29.5099 27.3078 29.4377 27.325 29.3797C27.3611 29.2605 27.4239 29.1663 27.4725 29.0644C27.6764 28.6612 27.8553 28.2518 27.9855 27.8329C28.0513 27.6243 28.0984 27.4125 28.1188 27.2007C28.1392 26.9905 28.1298 26.7693 28.0262 26.5952C27.9243 26.4163 27.7141 26.3442 27.5133 26.3583C27.3109 26.3693 27.1117 26.432 26.9234 26.5089C26.7336 26.5858 26.5532 26.6783 26.3759 26.774C26.2865 26.8226 26.1987 26.8713 26.1108 26.9199C26.0653 26.9434 26.012 26.967 25.9539 26.967C25.8928 26.9717 25.8269 26.9293 25.8033 26.8744C25.7531 26.7693 25.7814 26.6485 25.8143 26.5622C25.8441 26.4681 25.8724 26.3755 25.9022 26.283C25.9602 26.0979 26.0183 25.9143 26.0747 25.7324C26.1892 25.37 26.3006 25.0139 26.4089 24.6687C26.5124 24.3205 26.6505 23.9911 26.6677 23.6506C26.6803 23.4828 26.6614 23.3134 26.5924 23.1675C26.5234 23.0247 26.3948 22.9055 26.252 22.8616C26.1045 22.8208 25.9492 22.8882 25.819 22.9651C25.6873 23.0451 25.5665 23.1439 25.4472 23.2396C25.3876 23.2883 25.328 23.3353 25.2653 23.3792C25.2041 23.4216 25.1288 23.464 25.0456 23.4624C24.9609 23.4608 24.8888 23.4106 24.8386 23.3557C24.7884 23.2977 24.7507 23.2334 24.7225 23.1643V23.158C24.6142 22.3282 24.4511 21.5924 24.3036 20.954C24.153 20.3171 24.0228 19.7711 23.8267 19.3633C23.7263 19.1625 23.6212 18.9899 23.5036 18.8644C23.3859 18.7389 23.2635 18.6558 23.1553 18.6134C22.9341 18.5287 22.8055 18.5883 22.8086 18.5805L22.8055 18.5867Z" fill="#263238"/>
<path d="M23.2353 20.301C23.2353 20.301 23.2416 20.3135 23.2494 20.3402C23.2588 20.3716 23.2698 20.4092 23.2839 20.4563C23.3137 20.5645 23.3561 20.7151 23.4094 20.9065C23.5161 21.2971 23.6667 21.8635 23.8487 22.5663C24.2126 23.9687 24.6958 25.9108 25.2213 28.0584C25.7484 30.2029 26.2238 32.145 26.5705 33.5569C26.743 34.255 26.8842 34.8228 26.983 35.2213C27.0301 35.4127 27.0662 35.5649 27.0928 35.6747C27.1038 35.7233 27.1117 35.7625 27.1195 35.7923C27.1258 35.819 27.1274 35.8331 27.1258 35.8331C27.1258 35.8331 27.1195 35.8206 27.1117 35.7939C27.1023 35.7625 27.0913 35.7249 27.0772 35.6778C27.0474 35.5696 27.005 35.419 26.9517 35.2276C26.845 34.837 26.6944 34.2706 26.5124 33.5678C26.1485 32.1654 25.6653 30.2233 25.1398 28.0741C24.6142 25.9296 24.1373 23.9891 23.7906 22.5772C23.6181 21.8791 23.4769 21.3113 23.3781 20.9112C23.331 20.7198 23.2949 20.5677 23.2683 20.4579C23.2573 20.4092 23.2494 20.37 23.2416 20.3386C23.2353 20.312 23.2337 20.2979 23.2353 20.2979V20.301Z" fill="#263238"/>
<path d="M22.6815 24.4003C22.6878 24.3909 22.8055 24.4599 22.9874 24.5807C23.1694 24.703 23.4141 24.8787 23.6793 25.0811C23.9444 25.2835 24.1813 25.4702 24.3523 25.6051C24.5232 25.74 24.6299 25.8231 24.6236 25.8325C24.6174 25.8419 24.4997 25.7745 24.3177 25.6506C24.1373 25.5266 23.8942 25.3478 23.6291 25.1454C23.3781 24.9525 23.1506 24.7799 22.9529 24.6277C22.7804 24.4944 22.6753 24.4097 22.6815 24.4003Z" fill="#263238"/>
<path d="M24.7288 25.7762C24.7099 25.7637 25.03 25.2475 25.4441 24.6248C25.8583 24.0004 26.2081 23.5062 26.2269 23.5188C26.2457 23.5313 25.9257 24.0475 25.5116 24.6702C25.0974 25.293 24.7476 25.7888 24.7288 25.7762Z" fill="#263238"/>
<path d="M25.3877 29.1068C25.3736 29.0879 25.7908 28.7538 26.2803 28.3114C26.7697 27.869 27.1431 27.4862 27.1604 27.5019C27.1682 27.5098 27.0851 27.6149 26.9376 27.7749C26.7917 27.9349 26.5799 28.1498 26.3352 28.371C26.0905 28.5938 25.8552 28.782 25.6826 28.9122C25.5085 29.0424 25.3955 29.1146 25.3892 29.1068H25.3877Z" fill="#263238"/>
<path d="M23.2777 28.2642C23.2824 28.2532 23.4032 28.2893 23.5977 28.3567C23.7923 28.4226 24.0574 28.5199 24.3492 28.6328C24.6409 28.7442 24.9029 28.8509 25.0912 28.9309C25.2794 29.0109 25.3939 29.0658 25.3908 29.0768C25.3861 29.0877 25.2653 29.0517 25.0708 28.9842C24.8763 28.9183 24.6111 28.8211 24.3194 28.7081C24.0276 28.5967 23.7656 28.4901 23.5773 28.41C23.3891 28.33 23.2746 28.2751 23.2777 28.2642Z" fill="#263238"/>
<path d="M23.4911 31.2667C23.4958 31.2557 23.6511 31.3028 23.8989 31.3875C24.1468 31.4722 24.4888 31.5946 24.8637 31.7342C25.2387 31.8738 25.5775 32.0056 25.8207 32.1044C26.0638 32.2033 26.2128 32.2691 26.2081 32.2801C26.2034 32.2911 26.0481 32.244 25.8003 32.1593C25.5524 32.0746 25.2104 31.9523 24.8355 31.8126C24.4606 31.673 24.1233 31.5412 23.8786 31.4424C23.6354 31.3436 23.4864 31.2777 23.4911 31.2667Z" fill="#263238"/>
<path d="M26.1485 32.2374C26.1406 32.228 26.2646 32.1119 26.4669 31.9268C26.6693 31.7401 26.9485 31.4844 27.2497 31.1958C27.5525 30.9071 27.8208 30.6389 28.0153 30.4444C28.2098 30.2498 28.3306 30.1322 28.34 30.14C28.3479 30.1479 28.2412 30.2796 28.0576 30.4851C27.8741 30.6891 27.6106 30.9652 27.3078 31.2554C27.005 31.5456 26.7179 31.7966 26.5062 31.9723C26.2944 32.148 26.1563 32.2484 26.1501 32.2406L26.1485 32.2374Z" fill="#263238"/>
<path d="M27.5509 45.0525C29.8429 42.828 29.8852 39.3831 29.2954 36.3868C29.1965 35.8863 29.1667 35.3483 28.8561 34.9451C28.5455 34.5435 27.9384 34.3317 27.5227 34.6172C27.1776 34.8541 27.085 35.3137 26.9344 35.7075C26.7336 36.2299 26.3838 36.6927 25.9383 37.0252C25.6449 37.2433 25.2653 37.4096 24.9217 37.2857C24.4495 37.1162 24.3005 36.5264 24.2236 36.0244C24.0777 35.091 23.9334 34.1592 23.7875 33.2258C23.7091 32.7253 23.6291 32.2139 23.3953 31.7653C23.1632 31.3166 22.7474 30.9307 22.2501 30.8742C21.7529 30.8177 21.2085 31.188 21.1881 31.6931C21.1787 31.9033 21.2556 32.1088 21.2744 32.3174C21.2948 32.5277 21.2352 32.7724 21.0469 32.8618C20.8571 32.9528 20.6343 32.843 20.4602 32.7206C19.8625 32.2986 19.406 31.7056 18.9746 31.1127C18.5432 30.5197 18.1181 29.9079 17.5596 29.4341C17.0027 28.9588 16.2842 28.6278 15.561 28.7031C14.8378 28.7784 14.1476 29.3447 14.0801 30.0773C14.0127 30.8115 14.5398 31.4609 15.0794 31.9582C15.881 32.6971 16.7878 33.3183 17.762 33.7968C17.9377 33.8831 18.1275 33.9756 18.2185 34.1513C18.3816 34.4666 18.1196 34.8494 17.8075 35.0126C17.4545 35.1977 17.0435 35.2243 16.6623 35.3326C16.2795 35.4424 15.8858 35.6824 15.7979 36.0746C15.6755 36.6189 16.1901 37.0849 16.667 37.3688C17.6224 37.9351 18.675 38.3336 19.7621 38.5438C20.1512 38.6191 20.5575 38.674 20.8963 38.8842C21.2352 39.0944 21.4862 39.5148 21.3654 39.896C21.243 40.2773 20.8022 40.4655 20.4053 40.4561C20.0084 40.4467 19.6303 40.2945 19.2397 40.2145C18.5103 40.067 17.6302 40.2584 17.2866 40.9236C17.0607 41.3613 17.1235 41.9087 17.3447 42.3496C17.5659 42.7919 17.9283 43.1433 18.3032 43.4618C19.6147 44.5756 21.1928 45.3866 22.8761 45.6816C24.5593 45.9765 26.0606 45.8855 27.5509 45.0494" fill="#AAE2A8"/>
<path d="M14.6904 29.2759C14.6904 29.2759 14.7092 29.29 14.7469 29.3151C14.7892 29.3418 14.8457 29.3778 14.9163 29.4233C15.0653 29.5175 15.2865 29.6571 15.5658 29.8453C16.1242 30.2187 16.918 30.7881 17.8106 31.5976C18.2577 32.0008 18.7299 32.4636 19.2272 32.9687C19.7245 33.4754 20.2516 34.0198 20.7834 34.6127C21.3168 35.2057 21.8564 35.8458 22.3631 36.5501C22.6173 36.9015 22.8541 37.2733 23.0957 37.653C23.3357 38.0326 23.5805 38.4169 23.8268 38.8076C24.8088 40.37 25.6967 41.8886 26.3885 43.3302C27.0835 44.7704 27.5776 46.1289 27.8867 47.2976C28.1988 48.4663 28.3322 49.4405 28.3918 50.1151C28.42 50.4523 28.4357 50.7143 28.4404 50.8932C28.4436 50.9779 28.4467 51.0453 28.4498 51.0955C28.453 51.141 28.4545 51.1645 28.4561 51.1645C28.4577 51.1645 28.4592 51.141 28.4592 51.0955C28.4592 51.0453 28.4592 50.9779 28.4592 50.8932C28.4592 50.7143 28.4498 50.4508 28.4279 50.1135C28.3792 49.4374 28.2569 48.4585 27.951 47.2835C27.6482 46.1085 27.1588 44.7405 26.4654 43.2942C25.7751 41.8462 24.8888 40.3214 23.9052 38.7589C23.6573 38.3699 23.4142 37.984 23.1726 37.6043C22.931 37.2263 22.6926 36.8513 22.4353 36.4984C21.9254 35.7909 21.3811 35.1493 20.8446 34.5563C20.3081 33.9633 19.7794 33.4205 19.279 32.9154C18.7785 32.4118 18.3032 31.9522 17.8514 31.5506C16.951 30.7442 16.1493 30.181 15.583 29.8171C15.3006 29.6336 15.0763 29.5002 14.9226 29.4108C14.8488 29.3684 14.7908 29.3355 14.7484 29.3104C14.7092 29.2884 14.6888 29.2774 14.6873 29.279L14.6904 29.2759Z" fill="#263238"/>
<path d="M22.4118 36.4953C22.4118 36.4953 22.4228 36.4169 22.4259 36.2741C22.429 36.1314 22.429 35.9259 22.4228 35.6702C22.4134 35.1603 22.3757 34.4575 22.3302 33.6826C22.2863 32.9076 22.258 32.2064 22.2549 31.6981C22.2533 31.444 22.2549 31.2385 22.2549 31.0957C22.2549 30.9529 22.2549 30.8745 22.2471 30.8745C22.2408 30.8745 22.2314 30.953 22.2188 31.0941C22.2047 31.2353 22.1953 31.4424 22.189 31.6965C22.1749 32.2064 22.1922 32.9107 22.2361 33.6873C22.2816 34.4512 22.3239 35.1431 22.3553 35.6717C22.3679 35.9102 22.3788 36.1125 22.3867 36.2741C22.3945 36.4169 22.4024 36.4953 22.4086 36.4953H22.4118Z" fill="#263238"/>
<path d="M15.7869 36.3353C15.7869 36.3353 15.8811 36.3368 16.0489 36.3243C16.2168 36.3117 16.4584 36.2929 16.758 36.2804C17.3573 36.249 18.1856 36.2333 19.1017 36.2568C20.0178 36.2819 20.8446 36.34 21.4423 36.3996C21.7419 36.4263 21.9835 36.4561 22.1498 36.4749C22.3161 36.4937 22.4102 36.5016 22.4102 36.4953C22.4102 36.489 22.3208 36.4686 22.1545 36.4388C21.9882 36.409 21.7482 36.3698 21.4485 36.3337C20.8508 36.2568 20.021 36.1894 19.1033 36.1627C18.1856 36.1392 17.3526 36.1643 16.7533 36.2145C16.4537 36.2364 16.2105 36.2647 16.0442 36.2882C15.8779 36.3117 15.7854 36.329 15.7869 36.3353Z" fill="#263238"/>
<path d="M26.3697 43.1857C26.3697 43.1857 26.3838 43.1574 26.4011 43.0994C26.4199 43.0319 26.445 42.9488 26.4732 42.8484C26.5344 42.6303 26.616 42.3134 26.7117 41.9197C26.9031 41.1322 27.1321 40.0372 27.369 38.8261C27.6059 37.6135 27.8255 36.5185 27.9996 35.7278C28.0859 35.3435 28.1565 35.0282 28.2083 34.7929C28.2302 34.6909 28.249 34.6078 28.2632 34.5387C28.2741 34.4807 28.2788 34.4493 28.2757 34.4478C28.2726 34.4478 28.2616 34.476 28.2443 34.534C28.2255 34.6015 28.2004 34.6846 28.1722 34.785C28.111 35.0031 28.0294 35.32 27.9337 35.7137C27.7423 36.5012 27.5133 37.5962 27.2764 38.8073C27.0395 40.0199 26.8199 41.1149 26.6474 41.904C26.5611 42.2883 26.4905 42.6036 26.4387 42.839C26.4168 42.9409 26.3979 43.0256 26.3838 43.0931C26.3728 43.1511 26.3681 43.1825 26.3713 43.1841L26.3697 43.1857Z" fill="#263238"/>
<path d="M17.3808 41.8167C17.3808 41.8167 17.4122 41.8277 17.4718 41.8386C17.5424 41.8496 17.6287 41.8637 17.7338 41.881C17.9754 41.9186 18.3001 41.9688 18.697 42.0285C19.5096 42.154 20.6313 42.3391 21.869 42.5461C23.1083 42.7532 24.2315 42.9289 25.0473 43.0372C25.4552 43.0921 25.7862 43.1329 26.0152 43.1564C26.1203 43.1658 26.2082 43.1752 26.2788 43.1815C26.3399 43.1862 26.3713 43.1878 26.3713 43.1846C26.3713 43.1815 26.3399 43.1736 26.2803 43.1627C26.2097 43.1517 26.1234 43.1376 26.0183 43.1203C25.7768 43.0827 25.452 43.0325 25.0551 42.9728C24.2425 42.8473 23.1209 42.6622 21.8816 42.4536C20.6438 42.2465 19.519 42.0708 18.7033 41.9626C18.2954 41.9077 17.9644 41.8669 17.7354 41.8433C17.6303 41.8339 17.5424 41.8245 17.4718 41.8182C17.4106 41.8135 17.3793 41.812 17.3793 41.8151L17.3808 41.8167Z" fill="#263238"/>
<path d="M47.6623 54.3023C47.6074 54.2835 47.5101 54.2662 47.3815 54.249L37.1172 49.9443H26.911L16.849 53.9195C15.8278 54.2599 14.3704 56.2523 15.1972 58.6336C15.2207 58.6995 15.2442 58.7638 15.2693 58.8266C15.9298 60.4831 17.7652 61.3444 19.4877 60.8847C20.8776 60.513 22.8746 59.9686 24.9312 59.407L25.1618 59.4007L31.5639 57.5841C32.5663 57.8618 34.6731 58.4422 37.0152 59.0854C39.8625 59.8682 43.0549 60.7404 45.0252 61.2675C46.7477 61.7287 48.5831 60.8659 49.2436 59.2093C49.2687 59.1466 49.2922 59.0823 49.3157 59.0164C50.1425 56.635 48.6835 54.6427 47.6639 54.3023H47.6623Z" fill="#455A64"/>
<path d="M31.4838 57.6073C31.4838 57.6073 31.4948 57.601 31.5183 57.5947C31.545 57.5869 31.5795 57.5759 31.6219 57.5618C31.7191 57.5335 31.854 57.4943 32.0282 57.4425C32.389 57.3406 32.9082 57.1931 33.5608 57.0064L33.5436 57.0362C33.28 56.0652 32.927 54.7741 32.5207 53.2822L32.5568 53.3089C32.2164 53.3089 31.8666 53.3089 31.5042 53.3105C31.1434 53.3152 30.7732 53.3419 30.3951 53.3591C29.6374 53.3999 28.8452 53.4438 28.0326 53.4877C25.1147 53.6572 22.4761 53.8548 20.5669 54.0086C19.6163 54.087 18.846 54.1513 18.3064 54.1952C18.0428 54.2172 17.8373 54.2329 17.6914 54.2454C17.624 54.2502 17.5722 54.2533 17.5314 54.2564C17.4953 54.258 17.4765 54.2596 17.4765 54.2564C17.4765 54.2564 17.4953 54.2517 17.5298 54.247C17.5706 54.2423 17.6224 54.236 17.6898 54.2282C17.8357 54.2125 18.0412 54.1905 18.3032 54.1623C18.8366 54.109 19.6069 54.0337 20.5622 53.949C22.4698 53.7795 25.11 53.5725 28.0279 53.403C28.8405 53.3591 29.6327 53.3167 30.3904 53.276C30.77 53.2603 31.1418 53.2336 31.5026 53.2305C31.8634 53.2305 32.2164 53.2305 32.5568 53.232H32.5851L32.5929 53.2587C32.9898 54.7537 33.3334 56.0464 33.5922 57.019L33.5985 57.0425L33.5749 57.0488C32.9192 57.2245 32.3984 57.3657 32.036 57.4629C31.8603 57.5084 31.7238 57.5445 31.6266 57.5696C31.5826 57.5806 31.5481 57.5884 31.5215 57.5947C31.4979 57.5994 31.4854 57.6026 31.4854 57.601L31.4838 57.6073Z" fill="#263238"/>
<path d="M28.1581 53.4047C28.1471 53.4235 27.8632 53.2619 27.5557 53.0031C27.2467 52.7458 27.0365 52.4964 27.0537 52.4822C27.071 52.4665 27.3047 52.6877 27.6091 52.9403C27.9118 53.1944 28.1722 53.3843 28.1597 53.4047H28.1581Z" fill="#263238"/>
<path d="M46.4528 54.6739C46.4528 54.6739 46.4041 54.6755 46.3116 54.6708C46.2128 54.6645 46.0779 54.6567 45.91 54.6473C45.5539 54.6222 45.0503 54.5892 44.4307 54.5469C43.1757 54.4621 41.4532 54.3461 39.5519 54.219C37.649 54.1045 35.9265 53.9994 34.67 53.9241C34.0503 53.888 33.5467 53.8582 33.1906 53.8362C33.0212 53.8252 32.8879 53.8158 32.789 53.8095C32.6965 53.8017 32.6494 53.797 32.6494 53.7939C32.6494 53.7907 32.698 53.7907 32.7906 53.7939C32.8894 53.797 33.0243 53.8001 33.1938 53.8064C33.5514 53.8221 34.055 53.8425 34.6747 53.8676C35.9249 53.9256 37.6521 54.0166 39.5582 54.139C41.4642 54.2613 43.1882 54.3884 44.4354 54.4904C45.0535 54.5437 45.5555 54.5861 45.9116 54.6174C46.0794 54.6347 46.2143 54.6473 46.3132 54.6567C46.4042 54.6661 46.4528 54.6724 46.4528 54.6755V54.6739Z" fill="#263238"/>
<path d="M46.7241 55.6918C46.699 55.6918 46.7084 55.4628 46.608 55.2102C46.5107 54.9561 46.3507 54.7945 46.368 54.7773C46.379 54.76 46.5782 54.9059 46.6849 55.182C46.7931 55.4565 46.7445 55.6997 46.7257 55.6934L46.7241 55.6918Z" fill="#263238"/>
<path d="M31.6532 54.4777C31.6391 54.462 31.807 54.3082 32.0737 54.2408C32.3403 54.1718 32.5615 54.2267 32.5568 54.2471C32.5537 54.2706 32.3419 54.2549 32.094 54.3208C31.8446 54.382 31.6673 54.4981 31.6532 54.4777Z" fill="#263238"/>
<path d="M31.9309 55.1256C31.9277 55.1036 32.1144 55.0628 32.3466 55.0346C32.5788 55.0063 32.7702 55.0032 32.7733 55.0252C32.7764 55.0471 32.5898 55.0879 32.3576 55.1161C32.1254 55.1444 31.934 55.1475 31.9309 55.1256Z" fill="#263238"/>
<path d="M32.0564 55.8784C32.0564 55.8548 32.2839 55.8486 32.549 55.7701C32.8141 55.6948 33.0102 55.5772 33.0243 55.5976C33.0369 55.6132 32.8533 55.767 32.5725 55.8486C32.2933 55.9301 32.0533 55.9003 32.0564 55.8784Z" fill="#263238"/>
<path d="M32.3059 56.6894C32.3059 56.6659 32.5239 56.6471 32.7718 56.5529C33.0212 56.4604 33.1969 56.3302 33.2126 56.349C33.2283 56.3631 33.0651 56.531 32.8 56.6298C32.5365 56.7302 32.3027 56.7098 32.3059 56.6894Z" fill="#263238"/>
<path d="M36.9839 53.0156C37.0011 53.0313 36.8301 53.2305 36.6387 53.4909C36.4458 53.7498 36.3062 53.971 36.2858 53.96C36.2669 53.9506 36.3768 53.7059 36.5729 53.4423C36.7674 53.1772 36.9682 52.9999 36.9839 53.0156Z" fill="#263238"/>
<path d="M57.0951 43.2787C56.8503 43.2912 54.9726 43.605 54.9726 43.605C57.3053 42.9822 57.3869 42.7124 57.3304 42.5414C57.2755 42.3719 55.1514 42.9571 55.1514 42.9571C55.1514 42.9571 55.3694 42.6041 55.404 42.1617C55.4589 41.4809 54.6557 40.8597 54.4031 40.9522C54.1505 41.0448 54.2525 41.3726 54.2525 41.3726C54.9977 41.7586 54.8816 42.6606 54.2603 42.932C53.6391 43.2034 53.2956 42.4174 53.6579 42.0864C54.4533 41.3601 53.9764 41.2173 53.9764 41.2173L52.2116 42.7829C52.1771 42.7939 50.7683 43.1438 50.7683 43.1438L44.7302 44.3486L42.2657 40.7373L39.6726 43.0732C39.6726 43.0732 40.1401 43.6301 42.192 46.4005C43.0125 47.508 44.429 47.9833 45.7374 47.5896L51.7441 45.7824L51.7551 45.8122L51.7488 45.7918L55.0902 44.9337C55.0902 44.9337 56.1664 44.6231 56.4189 44.5525C56.7531 44.4584 56.7264 44.2011 56.4597 44.1948C56.3578 44.1917 55.1043 44.234 55.1043 44.234C55.1043 44.234 56.91 43.7367 56.9758 43.7179C57.5657 43.5548 57.3288 43.2677 57.0919 43.2787H57.0951Z" fill="#FFBE9D"/>
<path d="M23.2871 39.2188L20.8226 42.83L14.7846 41.6252C14.7846 41.6252 13.3758 41.2754 13.3413 41.2644L11.5765 39.6988C11.5765 39.6988 11.0996 39.8415 11.8949 40.5679C12.2573 40.8989 11.9138 41.6848 11.2925 41.4134C10.6713 41.142 10.5552 40.24 11.3004 39.8557C11.3004 39.8557 11.4023 39.5278 11.1498 39.4352C10.8972 39.3427 10.094 39.9639 10.1489 40.6447C10.185 41.0871 10.4015 41.4401 10.4015 41.4401C10.4015 41.4401 8.27898 40.8534 8.22251 41.0244C8.1676 41.1938 8.24761 41.4652 10.5803 42.088C10.5803 42.088 8.70254 41.7742 8.45782 41.7617C8.22094 41.7491 7.98406 42.0362 8.57391 42.2009C8.63979 42.2198 10.4454 42.717 10.4454 42.717C10.4454 42.717 9.19199 42.6747 9.09002 42.6778C8.82177 42.6841 8.79667 42.9414 9.13081 43.0355C9.38338 43.1061 10.4595 43.4167 10.4595 43.4167L13.801 44.2748L13.7947 44.2952L13.8057 44.2654L19.8124 46.0726C21.1207 46.4663 22.5373 45.991 23.3577 44.8835C25.4097 42.1131 25.8771 41.5562 25.8771 41.5562L23.284 39.2203L23.2871 39.2188Z" fill="#FFBE9D"/>
<path d="M37.7588 50.1777L36.7438 45.6205C36.794 44.9851 37.5219 40.9707 37.6192 40.7323L40.923 45.542L44.7821 43.9199C44.7821 43.9199 41.5034 38.4215 40.0759 36.3712C38.3236 33.8533 34.8943 33.5835 34.8943 33.5835L30.483 33.6431C30.483 33.6431 27.402 32.9591 24.31 37.1116L20.7631 42.7089L23.8096 44.2572C24.0998 44.4157 24.4622 44.3451 24.6724 44.0894L27.1745 41.0397L27.9369 45.3475L26.8812 48.9964C26.8812 48.9964 25.9179 49.1235 26.0984 50.2969C26.0984 50.2969 29.2421 51.7715 32.1945 51.5911C35.1453 51.4107 37.7604 50.1761 37.7604 50.1761L37.7588 50.1777Z" fill="#0070BB"/>
<path d="M36.1132 42.7686C36.1132 42.7686 36.1085 42.7952 36.0943 42.8423C36.0787 42.8893 36.0567 42.9615 36.0206 43.0494C35.9532 43.2282 35.8386 43.4808 35.6676 43.7757C35.3304 44.3655 34.7217 45.1248 33.8385 45.6911C32.9553 46.259 32.0125 46.4975 31.3348 46.5586C30.9944 46.5916 30.7167 46.59 30.5269 46.5775C30.4312 46.5743 30.3575 46.5633 30.3088 46.5586C30.2586 46.5524 30.2335 46.5477 30.2335 46.5461C30.2335 46.5398 30.3386 46.5445 30.5284 46.5461C30.7183 46.5492 30.9928 46.5414 31.3285 46.5022C31.9984 46.4269 32.9239 46.1837 33.7946 45.6237C34.6652 45.0652 35.2723 44.3247 35.619 43.7474C35.7947 43.4588 35.9155 43.2109 35.9924 43.0384C36.0692 42.8658 36.1085 42.767 36.1147 42.7701L36.1132 42.7686Z" fill="#263238"/>
<path d="M41.381 45.4198C41.3637 45.4339 41.2414 45.3084 41.141 45.117C41.0406 44.9272 41.0045 44.7546 41.0249 44.7483C41.0468 44.7405 41.1159 44.8958 41.2131 45.0778C41.3088 45.2597 41.3998 45.4041 41.381 45.4182V45.4198Z" fill="#263238"/>
<path d="M42.1638 45.0572C42.1419 45.0666 42.065 44.9239 41.9709 44.7497C41.8768 44.5756 41.7999 44.4329 41.8187 44.4203C41.8375 44.4078 41.9458 44.5317 42.043 44.7105C42.1403 44.8894 42.1858 45.0478 42.1654 45.0572H42.1638Z" fill="#263238"/>
<path d="M43.069 44.5788C43.0502 44.5914 42.9404 44.4596 42.8228 44.2855C42.7051 44.1113 42.6251 43.9592 42.6439 43.9466C42.6627 43.9341 42.7726 44.0659 42.8902 44.24C43.0079 44.4141 43.0879 44.5663 43.069 44.5788Z" fill="#263238"/>
<path d="M43.96 44.1381C43.9381 44.1459 43.8738 44.0095 43.7906 43.8479C43.7075 43.6847 43.6337 43.5545 43.6526 43.542C43.6698 43.5294 43.7765 43.6424 43.8628 43.8118C43.9491 43.9796 43.9804 44.1318 43.96 44.1397V44.1381Z" fill="#263238"/>
<path d="M21.3576 42.8624C21.3388 42.8498 21.4031 42.7212 21.5003 42.5737C21.5976 42.4263 21.6933 42.318 21.7121 42.3306C21.7309 42.3431 21.6666 42.4718 21.5694 42.6192C21.4721 42.7667 21.3764 42.8749 21.3576 42.8624Z" fill="#263238"/>
<path d="M22.5953 42.6961C22.6141 42.7087 22.5232 42.864 22.3945 43.0428C22.2659 43.2201 22.1467 43.3534 22.1278 43.3409C22.109 43.3283 22.2 43.173 22.3286 42.9942C22.4573 42.8169 22.5765 42.6836 22.5953 42.6961Z" fill="#263238"/>
<path d="M23.4079 43.2407C23.4283 43.2501 23.3766 43.3992 23.2919 43.5733C23.2071 43.7474 23.1224 43.8792 23.102 43.8698C23.0816 43.8604 23.1334 43.7113 23.2181 43.5372C23.3028 43.3631 23.3875 43.2313 23.4079 43.2407Z" fill="#263238"/>
<path d="M24.2159 43.7536C24.2331 43.7678 24.1437 43.9027 24.0151 44.0548C23.8864 44.207 23.7688 44.3184 23.7515 44.3043C23.7343 44.2902 23.8237 44.1552 23.9523 44.0031C24.081 43.8509 24.1986 43.7395 24.2159 43.7536Z" fill="#263238"/>
<path d="M26.7698 50.4917C26.7525 50.5043 26.6239 50.2391 26.6851 49.8972C26.7416 49.5552 26.9486 49.3465 26.9612 49.3638C26.9816 49.3779 26.8169 49.5928 26.7651 49.9097C26.7086 50.2266 26.7933 50.4839 26.7698 50.4901V50.4917Z" fill="#263238"/>
<path d="M27.6263 50.8209C27.6185 50.8256 27.5777 50.777 27.54 50.6829C27.5024 50.5887 27.4757 50.4476 27.493 50.2923C27.5102 50.137 27.5683 50.0052 27.6248 49.9205C27.6812 49.8358 27.7314 49.7981 27.7393 49.8044C27.7597 49.8185 27.6028 50.0115 27.5746 50.3017C27.5385 50.5903 27.6483 50.8131 27.6263 50.8225V50.8209Z" fill="#263238"/>
<path d="M28.6114 50.1875C28.6334 50.1875 28.6412 50.3993 28.6271 50.6566C28.613 50.9138 28.5848 51.1225 28.5612 51.1209C28.5393 51.1209 28.5314 50.9091 28.5455 50.6519C28.5597 50.3946 28.5879 50.1859 28.6114 50.1875Z" fill="#263238"/>
<path d="M29.9574 50.46C29.9794 50.471 29.8821 50.6781 29.857 50.9542C29.8288 51.2287 29.8853 51.4515 29.8618 51.4577C29.8429 51.4672 29.7457 51.2397 29.7755 50.9463C29.8021 50.6514 29.9402 50.4475 29.9574 50.46Z" fill="#263238"/>
<path d="M30.9959 50.6198C31.0195 50.6245 30.9834 50.8457 30.985 51.1186C30.985 51.3916 31.0226 51.6128 30.9991 51.6175C30.9787 51.6238 30.9034 51.4026 30.9018 51.1186C30.9003 50.8347 30.974 50.6135 30.9944 50.6198H30.9959Z" fill="#263238"/>
<path d="M32.2933 51.5881C32.2697 51.5881 32.2697 51.3496 32.2274 51.0641C32.1882 50.777 32.1239 50.5495 32.1458 50.5417C32.1662 50.5339 32.2666 50.7566 32.3074 51.0531C32.3498 51.3496 32.3121 51.5912 32.2917 51.5896L32.2933 51.5881Z" fill="#263238"/>
<path d="M33.6597 51.4912C33.6361 51.4865 33.6644 51.2669 33.6236 51.0033C33.5859 50.7382 33.495 50.5358 33.5169 50.5249C33.5342 50.5139 33.6644 50.71 33.7036 50.9908C33.746 51.2716 33.6801 51.4975 33.6597 51.4912Z" fill="#263238"/>
<path d="M35.0073 51.2008C34.9837 51.2008 34.9774 50.9765 34.9131 50.7113C34.8504 50.4462 34.7547 50.2438 34.7766 50.2329C34.7939 50.2219 34.9272 50.4148 34.9931 50.6925C35.0606 50.9702 35.0292 51.2024 35.0088 51.2008H35.0073Z" fill="#263238"/>
<path d="M36.1414 50.8948C36.1163 50.8916 36.1399 50.6641 36.0567 50.4006C35.9783 50.1371 35.8324 49.9598 35.8512 49.9441C35.8638 49.9268 36.0489 50.0931 36.1352 50.3771C36.223 50.661 36.1603 50.901 36.1414 50.8948Z" fill="#263238"/>
<path d="M37.1423 50.526C37.1188 50.5229 37.1423 50.2891 37.0733 50.013C37.009 49.7369 36.8803 49.5393 36.9007 49.5252C36.9164 49.511 37.0827 49.6993 37.1533 49.9942C37.2255 50.2876 37.1627 50.5323 37.1439 50.526H37.1423Z" fill="#263238"/>
<path d="M41.0092 38.2302C41.0092 38.2302 40.9951 38.2349 40.9669 38.238C40.9339 38.2427 40.8916 38.2474 40.8414 38.2537C40.7237 38.2663 40.5621 38.2851 40.3551 38.3086C40.1448 38.3322 39.886 38.3588 39.5848 38.3824C39.2836 38.4075 38.9432 38.4388 38.5636 38.4608C37.8059 38.5141 36.9038 38.5534 35.8998 38.5753C34.8958 38.591 33.793 38.5847 32.6353 38.5408C31.4775 38.4922 30.3763 38.4106 29.377 38.3149C28.3777 38.2145 27.482 38.1016 26.7305 37.9886C26.354 37.9368 26.0167 37.8772 25.7187 37.8286C25.4206 37.7815 25.1665 37.7345 24.9578 37.6937C24.7539 37.6545 24.5939 37.6231 24.4778 37.6011C24.4276 37.5901 24.3868 37.5823 24.3539 37.5745C24.3256 37.5682 24.3115 37.5635 24.3115 37.5635C24.3115 37.5635 24.3272 37.5635 24.3554 37.5666C24.3884 37.5713 24.4292 37.5776 24.4809 37.5854C24.597 37.6043 24.7586 37.6309 24.9626 37.6639C25.1712 37.7 25.4269 37.7423 25.725 37.7847C26.023 37.8286 26.3619 37.8851 26.7368 37.9321C27.4882 38.0388 28.384 38.1439 29.3817 38.2412C30.3794 38.3322 31.4791 38.4122 32.6353 38.4608C33.7914 38.5047 34.8927 38.5141 35.8951 38.5016C36.8975 38.4843 37.7996 38.4514 38.5557 38.4059C38.9338 38.3886 39.2758 38.3588 39.577 38.34C39.8782 38.3212 40.1354 38.2992 40.3472 38.2804C40.5543 38.2631 40.7174 38.2506 40.8335 38.2412C40.8853 38.238 40.9276 38.2349 40.9606 38.2333C40.9888 38.2333 41.0045 38.2333 41.0045 38.2333L41.0092 38.2302Z" fill="#263238"/>
<g opacity="0.2">
<path d="M30.4218 46.5758C30.1127 46.4613 29.7911 46.3374 29.5637 46.0989C29.3362 45.8605 29.2311 45.4683 29.4162 45.1953C29.57 44.9694 29.8727 44.8894 30.1457 44.9082C30.4186 44.9286 30.6791 45.029 30.9457 45.0886C31.738 45.2643 32.607 45.0573 33.2345 44.5427C33.6957 44.1631 34.0189 43.6423 34.4472 43.2265C34.5821 43.0963 34.7421 42.9708 34.9288 42.9567C35.2535 42.9332 35.5139 43.2767 35.5139 43.603C35.5139 43.9293 35.3272 44.2243 35.1264 44.4815C33.9813 45.942 32.0815 46.775 30.2304 46.6276" fill="black"/>
</g>
<g opacity="0.2">
<path d="M27.4051 49.221C28.6977 50.0273 30.2602 50.3128 31.7834 50.2893C33.3067 50.2657 34.808 49.952 36.2983 49.6382C36.4332 49.61 36.5775 49.5771 36.6748 49.4798C36.7736 49.3825 36.7971 49.1974 36.6873 49.1143C33.9483 50.3112 30.69 50.2516 27.9949 48.9558C27.8412 48.8821 27.6702 48.8021 27.5039 48.846C27.3392 48.8915 27.2356 49.1362 27.3737 49.2366" fill="black"/>
</g>
<path d="M40.6139 54.6095L33.3365 56.1704L32.6824 53.6714L35.3759 53.5412C35.3759 53.5412 35.6991 53.0141 36.074 53.0534C36.4489 53.0926 36.7172 53.5632 36.9933 53.5867C37.2678 53.6103 40.6955 53.113 40.6139 54.6095Z" fill="#FFBE9D"/>
<path d="M24.357 36.9582C24.3147 37.0241 41.0547 38.094 41.0547 38.094C41.0547 38.094 39.6758 33.8568 34.4032 33.5885C29.1307 33.3203 26.5329 33.5274 24.357 36.9582Z" fill="#FFBE9D"/>
<path d="M34.4691 34.0451C34.5021 32.936 34.557 31.7689 34.557 31.7689C34.557 31.7689 35.9783 31.5744 36.3218 29.7185C36.6497 27.949 36.4708 23.8326 36.4708 23.8326C34.4566 22.9306 32.0297 23.4153 30.5332 25.017L30.4092 34.0326C30.3951 35.0789 31.2736 35.9276 32.3827 35.9386C33.5028 35.9496 34.4362 35.1009 34.4676 34.0451H34.4691Z" fill="#FFBE9D"/>
<path d="M34.4644 28.7157C34.4644 28.7016 34.6229 28.678 34.8802 28.6529C34.946 28.6482 35.0072 28.6373 35.0198 28.5918C35.037 28.5447 35.0104 28.4725 34.9821 28.3957C34.9257 28.2341 34.866 28.0662 34.8033 27.889C34.5554 27.1689 34.3782 26.5759 34.4064 26.5665C34.4346 26.5571 34.659 27.1328 34.9068 27.8545C34.9664 28.0317 35.0229 28.2011 35.0778 28.3643C35.0998 28.4396 35.1406 28.5259 35.1045 28.6231C35.0857 28.6718 35.037 28.7063 34.9947 28.7157C34.9523 28.7267 34.9162 28.7267 34.8833 28.7282C34.6245 28.7345 34.4644 28.7298 34.4644 28.7157Z" fill="#263238"/>
<path d="M34.557 31.7669C34.557 31.7669 33.313 31.8093 32.1035 31.0249C32.1035 31.0249 32.6683 32.3238 34.5209 32.2062L34.557 31.7669Z" fill="#EB996E"/>
<path d="M34.3389 29.334C34.2511 29.2085 34.0926 29.1363 33.9326 29.1489C33.8212 29.1567 33.7083 29.2085 33.6393 29.2963C33.5702 29.3857 33.5514 29.5144 33.611 29.6022C33.6769 29.7026 33.8197 29.7293 33.942 29.6979C34.0644 29.6666 34.1711 29.5897 34.273 29.5112C34.3013 29.4893 34.3295 29.4673 34.3483 29.4375C34.3656 29.4077 34.3703 29.3669 34.3499 29.3418" fill="#EB996E"/>
<path d="M33.7099 28.8712C33.7507 28.8712 33.7444 29.1489 33.975 29.3544C34.2056 29.5599 34.5021 29.5379 34.5021 29.5772C34.5052 29.5944 34.4346 29.6289 34.3107 29.6289C34.1884 29.6289 34.0111 29.585 33.8699 29.4579C33.7287 29.3324 33.6707 29.1677 33.6644 29.0532C33.6565 28.9355 33.6895 28.8681 33.7083 28.8697L33.7099 28.8712Z" fill="#263238"/>
<path d="M33.655 27.0997C33.655 27.0997 33.6267 27.1594 33.542 27.2158C33.4589 27.2723 33.324 27.3288 33.1655 27.3272C33.0086 27.3272 32.8722 27.2692 32.7906 27.2111C32.7074 27.1531 32.6729 27.0997 32.6808 27.0935C32.6933 27.0731 32.88 27.2456 33.1671 27.2472C33.4526 27.2503 33.6424 27.0809 33.655 27.1013V27.0997Z" fill="#263238"/>
<path d="M36.2528 27.1096C36.2528 27.1096 36.2261 27.1598 36.1508 27.2037C36.0771 27.2476 35.9594 27.2853 35.8261 27.2837C35.6927 27.2806 35.5766 27.2367 35.5045 27.1896C35.4323 27.1425 35.4009 27.0986 35.4072 27.0908C35.4213 27.0719 35.5861 27.199 35.8276 27.2021C36.0692 27.21 36.2386 27.0908 36.2528 27.1096Z" fill="#263238"/>
<path d="M33.7553 26.1038C33.7365 26.1713 33.5028 26.1618 33.2298 26.1948C32.9553 26.2246 32.7294 26.2858 32.6964 26.2262C32.6619 26.1697 32.8737 25.9893 33.2016 25.9516C33.5294 25.9124 33.7773 26.0411 33.7553 26.1038Z" fill="#263238"/>
<path d="M36.2638 26.3438C36.223 26.4002 36.0238 26.3234 35.7806 26.2669C35.5374 26.2057 35.3257 26.1838 35.3147 26.1147C35.3021 26.0504 35.5421 25.9563 35.8371 26.0285C36.1336 26.0991 36.3046 26.292 36.2622 26.3438H36.2638Z" fill="#263238"/>
<path d="M36.8474 23.688C36.5462 23.2127 35.9736 22.9962 35.4308 22.844C34.8676 22.6871 34.295 22.5679 33.7162 22.4863C33.3616 22.4377 32.993 22.4032 32.6526 22.5146C32.6133 22.5271 32.5741 22.5428 32.5365 22.5601C31.7176 22.5507 31.0948 22.7609 30.621 23.0934C30.37 23.2456 30.1535 23.4354 30.0171 23.6707C29.8225 23.9202 29.6704 24.1931 29.5527 24.4739C29.0021 25.4371 28.2758 26.78 28.1769 27.4828C28.0216 28.595 28.2507 29.7747 28.8013 30.694C28.944 30.9325 29.1088 31.1521 29.2892 31.3513C28.9739 31.6337 28.7652 32.0353 28.7291 32.4573C28.6899 32.9044 28.8436 33.364 29.1354 33.7044C28.9189 33.8833 28.7574 34.1264 28.693 34.3994C28.5738 34.9202 28.8185 35.5038 29.2735 35.783C29.3002 35.8003 29.3284 35.8144 29.3566 35.8285C29.3315 35.852 29.3064 35.8756 29.2845 35.9022C29.1009 36.1187 29.035 36.4183 29.068 36.7007C29.1009 36.9831 29.2249 37.2466 29.3802 37.4835C29.5308 37.7094 29.7425 37.9306 30.0139 37.9479C30.0516 37.951 30.0892 37.9479 30.1253 37.9416C29.9135 38.0357 29.7582 38.2585 29.7551 38.4922C29.7504 38.7589 29.9433 39.0162 30.2006 39.0883C30.2916 39.1134 30.392 39.1197 30.4642 39.1809C30.5363 39.2421 30.5583 39.3456 30.5473 39.4382C30.5348 39.5307 30.4924 39.617 30.45 39.7017C30.5881 39.6876 30.712 39.5825 30.7481 39.4476C30.7481 39.5354 30.7481 39.6233 30.7465 39.7127C30.9536 39.5856 31.0854 39.3644 31.1638 39.1338C31.2423 38.9032 31.2736 38.6507 31.2219 38.4122C31.1701 38.1738 31.0242 37.951 30.8109 37.8302C30.7105 37.7737 30.5944 37.7439 30.4798 37.7424C30.5787 37.6373 30.654 37.5039 30.6885 37.3659C30.7654 37.0521 30.6901 36.7242 30.6116 36.4105C30.563 36.2207 30.5112 36.0293 30.4093 35.8614C30.3763 35.8065 30.3355 35.7563 30.2916 35.7093C30.4281 35.5618 30.5159 35.361 30.5646 35.1618C30.6571 34.7774 30.6383 34.3507 30.4265 34.0182C30.4061 33.9852 30.381 33.9554 30.3575 33.9256C30.5049 33.7578 30.5614 33.513 30.6006 33.2856C30.6587 32.9608 30.7105 32.633 30.6916 32.3035C30.8783 32.1514 31.1011 31.9113 31.2485 31.5443C31.8211 30.3002 31.1528 28.5385 31.1528 28.5385C32.1286 27.5722 32.3137 25.7321 32.3325 24.6449C32.502 24.8802 32.709 25.0889 32.9506 25.2505C33.1263 25.3697 33.3334 25.4685 33.5436 25.4403C33.7538 25.412 33.9515 25.2112 33.9044 25.0042C34.0299 25.2426 34.1601 25.4842 34.3515 25.674C34.5429 25.8638 34.8096 25.9956 35.0763 25.9627C35.343 25.9297 35.5892 25.6897 35.5704 25.4215C35.7242 25.6379 35.8999 25.8513 36.1399 25.9642C36.3799 26.0772 36.6983 26.0615 36.8756 25.8638C37.0105 25.7117 37.0356 25.4936 37.0529 25.2913C37.1015 24.7438 37.1392 24.1492 36.8442 23.6849L36.8474 23.688Z" fill="#263238"/>
<path d="M29.3268 30.4762C29.3268 30.4762 29.3142 30.4574 29.297 30.4166C29.2797 30.3758 29.2609 30.3131 29.2468 30.2299C29.2201 30.0636 29.2326 29.8111 29.3487 29.5303C29.4601 29.2479 29.686 28.9577 29.9699 28.6863C30.2539 28.4117 30.5818 28.1325 30.8516 27.7733C31.3959 27.0532 31.6767 26.2704 31.876 25.7151C31.967 25.4437 32.0423 25.2193 32.1003 25.0484C32.1536 24.8915 32.185 24.8036 32.1897 24.8052C32.1944 24.8068 32.174 24.8962 32.1301 25.0562C32.0862 25.2162 32.0203 25.4484 31.9293 25.7308C31.7442 26.2924 31.4697 27.0861 30.9143 27.8203C30.6382 28.1874 30.3025 28.4698 30.0201 28.738C29.7362 29.0047 29.5134 29.2808 29.3989 29.5506C29.2797 29.8189 29.2593 30.0621 29.275 30.2236C29.2938 30.3868 29.3315 30.4715 29.3236 30.4746L29.3268 30.4762Z" fill="#455A64"/>
<path d="M30.268 33.8472C30.268 33.8472 30.2272 33.8394 30.1613 33.808C30.0955 33.7766 30.0029 33.7233 29.8962 33.6449C29.686 33.4896 29.4272 33.2119 29.2781 32.8323C29.1291 32.4526 29.1275 32.073 29.1762 31.8157C29.1997 31.6855 29.2311 31.5835 29.2577 31.5161C29.2844 31.4486 29.3048 31.4125 29.3095 31.4141C29.3236 31.4188 29.264 31.5694 29.2326 31.8236C29.1997 32.0761 29.2107 32.4385 29.3534 32.8009C29.4962 33.1633 29.7362 33.4362 29.9323 33.5978C30.1284 33.7625 30.2743 33.8331 30.268 33.8457V33.8472Z" fill="#455A64"/>
<path d="M30.1723 34.1218C30.1754 34.1312 30.1033 34.1626 29.9762 34.1688C29.8507 34.1751 29.6734 34.1453 29.504 34.0512C29.3362 33.9555 29.2169 33.819 29.1589 33.7092C29.0993 33.5978 29.0899 33.5194 29.0977 33.5178C29.1103 33.5131 29.1401 33.5837 29.2075 33.6794C29.275 33.7751 29.3895 33.8927 29.5448 33.9821C29.7001 34.07 29.8601 34.1061 29.9778 34.1139C30.0954 34.1233 30.1692 34.1108 30.1723 34.1249V34.1218Z" fill="#455A64"/>
<path d="M29.5213 35.5619C29.5151 35.5493 29.5951 35.5054 29.7017 35.4066C29.8084 35.3093 29.9339 35.1525 30.0155 34.9485C30.0971 34.7446 30.1143 34.5438 30.1049 34.401C30.0955 34.2567 30.0688 34.1689 30.0814 34.1641C30.0892 34.161 30.1363 34.2442 30.1614 34.3948C30.1865 34.5438 30.1771 34.7618 30.0908 34.9799C30.0029 35.1964 29.8602 35.3611 29.7378 35.4505C29.6155 35.5415 29.5245 35.5697 29.5213 35.5603V35.5619Z" fill="#455A64"/>
<path d="M30.2696 35.6698C30.279 35.6745 30.2665 35.731 30.21 35.8031C30.1551 35.8753 30.0484 35.9584 29.9072 35.9851C29.766 36.0118 29.6358 35.9741 29.5574 35.9286C29.4774 35.8831 29.4445 35.8345 29.4523 35.8282C29.4601 35.8188 29.5056 35.8486 29.5825 35.8769C29.6594 35.9051 29.7723 35.9286 29.8915 35.9051C30.0108 35.8816 30.108 35.8188 30.1676 35.7639C30.2288 35.709 30.2586 35.6651 30.2696 35.6698Z" fill="#455A64"/>
<path d="M30.4014 37.6923C30.3779 37.7017 30.2335 37.2577 29.9104 36.7934C29.5903 36.3259 29.228 36.0341 29.2452 36.0153C29.2515 36.0075 29.3503 36.0702 29.4915 36.1941C29.6327 36.3181 29.8131 36.5095 29.9778 36.7463C30.141 36.9848 30.2555 37.2217 30.3214 37.3974C30.3873 37.5746 30.4108 37.6892 30.4014 37.6923Z" fill="#455A64"/>
<path d="M30.6414 37.7501C30.6524 37.7689 30.5505 37.8489 30.4014 37.9023C30.254 37.9556 30.1238 37.9619 30.1206 37.9399C30.1159 37.918 30.2336 37.8772 30.3732 37.8254C30.5144 37.7752 30.6289 37.7297 30.6414 37.7501Z" fill="#455A64"/>
<path d="M28.4859 30.2362C28.4859 30.2362 28.4765 30.2111 28.4671 30.1625C28.4577 30.1139 28.4436 30.0401 28.4294 29.946C28.4012 29.7578 28.3573 29.4848 28.3526 29.1412C28.3494 28.8008 28.3902 28.3788 28.6004 27.9678C28.704 27.7639 28.8593 27.5694 29.0569 27.4156C29.253 27.2603 29.4821 27.1411 29.7174 27.0297C29.9527 26.9168 30.1833 26.8164 30.3904 26.6909C30.599 26.5669 30.7857 26.4257 30.9504 26.2783C31.2799 25.9787 31.5214 25.6508 31.6862 25.3574C32.0156 24.7644 32.0674 24.3346 32.0878 24.3409C32.0909 24.3409 32.0878 24.3676 32.0799 24.4178C32.0721 24.468 32.0595 24.5401 32.0344 24.6327C31.9874 24.8178 31.8995 25.0829 31.7379 25.3857C31.5779 25.6884 31.3363 26.0257 31.0022 26.3348C30.8343 26.4885 30.6445 26.6344 30.4312 26.7615C30.2194 26.8917 29.9856 26.9936 29.7519 27.105C29.5182 27.2164 29.2954 27.3325 29.1071 27.4799C28.9173 27.6258 28.7699 27.8078 28.6679 28.0039C28.4624 28.3961 28.4153 28.8071 28.4106 29.1428C28.4075 29.4801 28.442 29.7546 28.4608 29.9429C28.4702 30.0291 28.4765 30.1013 28.4828 30.1609C28.4875 30.2111 28.4891 30.2378 28.4859 30.2378V30.2362Z" fill="#455A64"/>
<path d="M34.0769 24.2735C34.0769 24.2735 34.0518 24.3002 33.9938 24.3268C33.9358 24.3551 33.8448 24.3802 33.7303 24.3864C33.5012 24.399 33.1733 24.2955 32.9255 24.0429C32.6808 23.7903 32.5568 23.4938 32.4768 23.2868C32.4 23.0765 32.3639 22.9432 32.3749 22.9401C32.3858 22.9354 32.4407 23.0624 32.5317 23.2648C32.6227 23.464 32.7529 23.748 32.9851 23.9849C33.2173 24.2202 33.5185 24.3253 33.7318 24.3284C33.9499 24.3347 34.0738 24.2578 34.0785 24.2735H34.0769Z" fill="#455A64"/>
<path d="M35.1672 24.7076C35.1688 24.7154 35.0825 24.7436 34.9366 24.7358C34.7923 24.7295 34.5899 24.6731 34.4064 24.5444C34.2228 24.4142 34.1036 24.2448 34.0471 24.1099C33.9907 23.975 33.9875 23.884 33.9969 23.8824C34.0111 23.8793 34.033 23.964 34.1005 24.0848C34.1664 24.2056 34.284 24.3577 34.455 24.4785C34.626 24.5978 34.8095 24.6589 34.9445 24.6793C35.0794 24.7013 35.1672 24.695 35.1688 24.7076H35.1672Z" fill="#455A64"/>
</svg>
