<svg width="500" height="500" viewBox="0 0 500 500" fill="none" xmlns="http://www.w3.org/2000/svg">
<path d="M453.6 447.7C481.6 447.7 498.6 419 482.1 398.6C481.8 398.2 481.4 397.7 481 397.3C470.9 385.9 455.6 381.8 442.1 375.4C438.4 373.6 434.6 371.6 432 368.3C428.4 363.7 427.5 357.2 428.2 351.3C431.3 326.5 458.4 311.2 462.8 286.6C466.1 268 454.7 249.1 439.3 239.2C423.9 229.3 405.2 226.9 387.2 226.1C369.1 225.3 350.8 226 333.3 221.6C328.7 220.4 323.9 218.8 320.7 215C317.1 210.8 316.4 204.6 316.9 199C318.4 183.8 353 131.7 335.7 114.5C328.9 107.7 319.6 104.1 310.3 105C301 105.9 292.3 110.2 284.2 115C267 125.1 206.9 192.4 185.3 202.5C164.1 212.5 139.7 209.5 116.4 209.1C93.1 208.6 67.3 212.1 52.1 230.5C46.7 237 43 245.8 44.8 254.3C45.9 259.6 49.1 264.1 52.7 268C60.9 276.8 71.5 283 79.2 292.2C86.9 301.4 91 316.2 83.7 325.9C80.9 329.7 76.8 332.1 72.8 334.3C50.3 347 25.1 360 15.3 384.7C10.3 397.3 10.4 411.2 14.1 424.2C18 438 31.9 447.7 47.7 447.7H453.6Z" fill="#F2F6FF"/>
<path opacity="0.41" d="M481 397.3C470.9 385.9 455.6 381.8 442.1 375.4C438.4 373.6 434.6 371.6 432 368.3C428.4 363.7 427.5 357.2 428.2 351.3C431.3 326.5 458.4 311.2 462.8 286.6C466.1 268 454.7 249.1 439.3 239.2C423.9 229.3 405.2 226.9 387.2 226.1C369.1 225.3 350.8 226 333.3 221.6C328.7 220.4 323.9 218.8 320.7 215C317.1 210.8 316.4 204.6 316.9 199C318.4 183.8 353 131.7 335.7 114.5C329.8 108.6 322 105.1 314 104.9C324.9 107.9 332.9 114.1 327.1 126.9C313.7 156.5 188.9 254.9 276.5 264.6C364.2 274.3 218.9 352.3 285.1 357.7C335.6 361.8 232 420.9 180.3 447.7H453.6C481.6 447.7 498.6 419 482.1 398.6C481.8 398.2 481.4 397.8 481 397.3Z" fill="#EDF2FF"/>
<path d="M53.4 414.1C53.4 414.1 50.1 411 52.3 399.2C54.5 387.4 60.2 376.2 57.4 363.4C54.6 350.6 32.9 318.5 32.8 316.4C32.7 314.3 26.1 353.8 37.3 369.4C48.5 385 49.9 390.4 49.4 398.6C48.9 406.8 49.5 413.4 50.7 415.3L53.4 414.1Z" fill="#7CBF8F"/>
<path d="M51.3 390.4C50 395.6 49.2 408.8 51.3 411.9C51.5 412.2 51.8 412 52.1 411.5C51.5 409.3 51 405.5 52.2 399.2C54.4 387.4 60.1 376.2 57.3 363.4C54.5 350.6 32.8 318.5 32.7 316.4C32.7 316.4 36 343.2 47 361.6C55 374.8 52.6 385.2 51.3 390.4Z" fill="#7CBF8F"/>
<path d="M57.3 413.2C57.3 413.2 50.9 397.3 61.7 383.5C72.6 369.7 89.9 352 90.2 345C90.2 345 94.6 378.3 80.6 387.8C66.5 397.2 56.6 398.7 59.1 413.3L57.3 413.2Z" fill="#7DBC82"/>
<path d="M72.5 381C56.8 392.4 55.5 405.6 58 411.7C58.2 412.2 58.5 412.5 59 412.6C56.9 398.6 66.7 397 80.6 387.7C94.7 378.3 90.2 344.9 90.2 344.9C90.2 344.9 88.2 369.6 72.5 381Z" fill="#7DBC82"/>
<path d="M46.8 413.6C46.8 413.6 48.8 405.2 47.8 396.1C46.7 387 37.2 381.9 28.3 372.2C23.7 367.2 22.4 341.1 25.2 338.6C25.2 338.6 9.49999 357.6 11.9 371.6C14.3 385.5 39.9 394.6 42.3 401.3C44.7 408 44.5 413.7 44.5 413.7L46.8 413.6Z" fill="#7DBC82"/>
<path d="M19.9 346.1C14.7 360.2 20 377.2 37.3 387.7C50 395.5 45.9 411.7 45.9 411.7L48 405.3C48.2 402.5 48.2 399.3 47.8 396C46.7 386.9 37.2 381.8 28.3 372.1C23.9 367.3 22.5 342.8 24.9 338.9C24.2 339.9 22.2 342.5 19.9 346.1Z" fill="#7DBC82"/>
<path d="M24.9 339C25.1 338.8 25.2 338.6 25.2 338.6C25.1 338.7 25 338.8 24.9 339Z" fill="#7DBC82"/>
<path d="M60.6 412.5C60.6 412.5 64.3 398.8 73.4 397C82.5 395.2 92.9 381.7 93.5 379.1C93.5 379.1 92 404.5 60.6 412.5Z" fill="#7DBC82"/>
<path d="M72.9 401.6C67.3 404.4 65 408.1 64.2 411.5C92.1 402.5 93.6 379.1 93.6 379.1C93.5 379.6 93 380.6 92.2 381.8C89.4 386.6 82.7 396.6 72.9 401.6Z" fill="#7DBC82"/>
<path d="M80.3 407.5H32.7L38.4 443C38.8 445.7 41.2 447.7 43.9 447.7H69.2C71.9 447.7 74.3 445.7 74.7 443L80.3 407.5Z" fill="#E3E7EF"/>
<path d="M79.4 413.4L80.3 407.5H32.7L33.7 413.4H79.4Z" fill="#DCE0E5"/>
<path d="M68.8 407.5L63.1 443C62.7 445.7 60.3 447.7 57.6 447.7H69.1C71.8 447.7 74.2 445.7 74.6 443L80.3 407.5H68.8Z" fill="#DCE0E5"/>
<path d="M267.7 366.8H257.8V447.8H267.7V366.8Z" fill="white"/>
<path d="M267.7 366.8H263.8V447.8H267.7V366.8Z" fill="#E8F2FC"/>
<path d="M291.2 441.2H237C235.2 441.2 233.7 442.7 233.7 444.5C233.7 446.3 235.2 447.8 237 447.8H291.2C293 447.8 294.5 446.3 294.5 444.5C294.5 442.7 293 441.2 291.2 441.2Z" fill="white"/>
<path d="M291.2 441.2H237C235.8 441.2 234.7 441.9 234.2 442.8H281.1C282.9 442.8 284.4 444.3 284.4 446.1C284.4 446.7 284.2 447.3 283.9 447.8H291.2C293 447.8 294.5 446.3 294.5 444.5C294.5 442.7 293 441.2 291.2 441.2Z" fill="#E8F2FC"/>
<path d="M267.7 366.8H257.8V374H267.7V366.8Z" fill="#E8F2FC"/>
<path d="M319 253.8C317.6 253.2 316.1 252.8 314.4 252.8H258.6C253.2 252.8 248.5 256.7 247.4 262L230 353.5C229.7 355 229.7 356.4 230 357.8V357.9H214.5C211.9 357.9 209.9 360 209.9 362.5C209.9 365.1 212 367.1 214.5 367.1H264.6V367H297C302.4 367 307.1 363.1 308.2 357.8L325.7 266.4C326.6 261 323.7 255.9 319 253.8Z" fill="#FF9933"/>
<path d="M325.6 266.4L308.1 357.8C307.1 363.2 302.4 367 296.9 367H264.6V367.1H214.5C211.9 367.1 209.9 365 209.9 362.5C209.9 359.9 212 357.9 214.5 357.9H230V357.8C230.1 357.8 230.3 357.8 230.4 357.8H286.2C293.7 357.8 300.1 352.5 301.5 345.1L318.9 253.9C323.7 255.9 326.6 261 325.6 266.4Z" fill="#E8F2FC"/>
<path d="M301.7 344.5L301.6 345C300.2 352.4 293.7 357.7 286.3 357.7H230.5C230.4 357.7 230.2 357.7 230.1 357.7V357.8H214.6C212.3 357.8 210.4 359.5 210 361.7V349.2V349.1C209.6 346.6 211.7 344.5 214.2 344.5H301.7Z" fill="white"/>
<path d="M319 253.8L301.6 345C300.2 352.4 293.7 357.7 286.3 357.7H230.5C230.4 357.7 230.2 357.7 230.1 357.7C229.8 356.3 229.8 354.9 230.1 353.4L247.6 262C248.6 256.6 253.3 252.8 258.8 252.8H314.6C316.1 252.9 317.6 253.2 319 253.8Z" fill="white"/>
<path d="M186.8 231.9H91.9C89.7 231.9 88 233.9 88.3 236L96.4 291.8C96.7 293.6 98.2 294.9 100 294.9H195C197.2 294.9 198.9 292.9 198.6 290.8L190.5 235C190.2 233.3 188.6 231.9 186.8 231.9Z" fill="#1079C0"/>
<path d="M143.8 274.5H131.7H125.8C124.2 274.5 123.1 275.9 123.3 277.4L128.7 314.8C128.7 314.9 128.7 315 128.7 315.2L128.9 316.7C129.1 317.9 130.2 318.9 131.4 318.9H137.2H149.1L143.8 274.5Z" fill="#648BB2"/>
<path d="M170 316.2C170 314.8 168.8 313.7 167.4 313.7H153.8C151.8 313.7 150.1 312.2 149.8 310.2L145.8 281.1H148.2C149.8 281.1 150.9 279.7 150.7 278.2L150.5 276.7C150.3 275.4 149.2 274.5 148 274.5H143.3C141.1 274.5 139.5 276.4 139.8 278.5L144.8 315.5C145 317.3 146.6 318.7 148.5 318.7H167.5C168.9 318.8 170 317.7 170 316.2Z" fill="#47739E"/>
<path d="M158.6 288.6C159.539 288.6 160.3 287.839 160.3 286.9C160.3 285.961 159.539 285.2 158.6 285.2C157.661 285.2 156.9 285.961 156.9 286.9C156.9 287.839 157.661 288.6 158.6 288.6Z" fill="#1079C0"/>
<path d="M167.3 288.6C168.239 288.6 169 287.839 169 286.9C169 285.961 168.239 285.2 167.3 285.2C166.361 285.2 165.6 285.961 165.6 286.9C165.6 287.839 166.361 288.6 167.3 288.6Z" fill="#1079C0"/>
<path d="M175 288.6C175.939 288.6 176.7 287.839 176.7 286.9C176.7 285.961 175.939 285.2 175 285.2C174.061 285.2 173.3 285.961 173.3 286.9C173.3 287.839 174.061 288.6 175 288.6Z" fill="#1079C0"/>
<path d="M283.7 255C282.6 246.9 270.8 250.7 275.3 243.2C279.4 236.2 274.6 233.2 269 232.1C261.8 230.7 265.9 227.9 262.4 221.2C257.9 212.7 251.1 215.2 251.1 215.2C251.1 215.2 242.5 210.5 233.7 217.9C224.4 225.7 226.5 232.6 231.4 242.1C233.9 246.9 230.8 251.2 228.6 260C226 270.6 239 291.8 266.9 277.5C277.7 271.8 284.2 259.3 283.7 255Z" fill="#40454C"/>
<path d="M245.1 257.2C245.1 257.2 240.8 257.7 236.5 262C233.6 264.9 219.3 293.3 219.3 293.3L206.1 253L196.5 253.7C196.5 253.7 207.4 318.6 215.8 318.7C223.8 318.8 249.2 276.8 249.2 276.8L245.1 257.2Z" fill="#F95858"/>
<path d="M272.4 274.3L280.8 305.9L230.9 310L231.1 319C231.1 319 288.7 319.3 299.5 319.1C306.7 319 293.1 261.8 284.4 255.3C277.5 250.1 258.6 251.5 258.6 251.5L245.1 257.2C245.1 257.2 229.4 272.7 238.8 287.3C246.2 298.8 236.8 321.2 236.8 321.2L268.7 323.1L297.2 323.4L272.4 274.3Z" fill="#F95858"/>
<path d="M240.5 309.2L242.3 308.9C244 301.4 244.3 291.2 240.4 286.3C232.7 276.6 240.6 262.4 245.1 257.3C244.4 258 229.7 273.1 238.8 287.4C243.2 294.2 242.1 303.1 240.5 309.2Z" fill="#E54848"/>
<path d="M231 312C225.7 312.2 220.1 314.1 217.4 317.2C216.8 317.9 217.3 319 218.2 319H231V312Z" fill="#FFE2DC"/>
<path d="M258.6 240.9V251.6L249 262.5L248.9 262.4L246.3 256.8V250.8C241.5 250.1 237.3 246.5 236.2 241.4L235 234C235 234 242.1 233.2 247.8 227.5C247.8 227.5 249.5 230.6 251.9 233C253.7 234.8 256.1 235.2 257.1 236.2C258.3 237.5 258.8 239.1 258.6 240.9Z" fill="#FFE2DC"/>
<path d="M256 231.7C256 231.7 255.6 227.2 253.9 223.4C251.9 219 249.2 213.8 243.5 213.8C243.5 213.8 257.4 211.6 259.7 230.9L256 231.7Z" fill="#FF4751"/>
<path d="M258.821 242.258C262.28 241.884 264.758 238.555 264.355 234.821C263.952 231.087 260.821 228.363 257.362 228.736C253.902 229.11 251.425 232.439 251.828 236.173C252.231 239.907 255.362 242.631 258.821 242.258Z" fill="#FF4751"/>
<path d="M260 241.6C256.7 242 253.7 239.3 253.3 235.8C252.9 232.5 255 229.5 257.9 228.8C257.7 228.8 257.6 228.8 257.4 228.8C254 229.2 251.5 232.5 251.9 236.2C252.3 239.9 255.4 242.6 258.8 242.3C259.9 242.2 260.8 241.8 261.6 241.2C261.1 241.3 260.6 241.5 260 241.6Z" fill="#CC3241"/>
<path d="M259.24 238.582C260.888 238.404 262.064 236.791 261.869 234.979C261.673 233.167 260.179 231.842 258.532 232.02C256.885 232.198 255.708 233.811 255.904 235.623C256.099 237.435 257.593 238.759 259.24 238.582Z" fill="#CC3241"/>
<path d="M255.5 246.3C255.1 246.8 252.8 249.7 251 251.2C250.3 251.8 249.9 252.7 249.9 253.7L249.1 262.4L246.5 256.8V250.8L246.6 250.7C246.5 250.8 252.5 249.9 255.5 246.3Z" fill="#F9BAAF"/>
<path d="M251.4 245.8L251.3 245.2C254.8 244.6 257.3 239.9 257.4 239.9L257.9 240.2C257.8 240.4 255.2 245.2 251.4 245.8Z" fill="#FF4751"/>
<path d="M252 245.5C251.9 244.9 251.1 244.6 250.1 244.8C249.1 245 248.4 245.6 248.5 246.2C248.6 246.8 249.4 247.1 250.4 246.9C251.4 246.7 252.1 246.1 252 245.5Z" fill="#FF4751"/>
<path d="M205.4 253.3C205.4 253.3 206.8 242.1 205.5 241.7C204.3 241.3 203 246.1 203 246.1C203 246.1 197.8 236 194.3 237.1C190.8 238.2 197.3 253.7 197.3 253.7L205.4 253.3Z" fill="#FFE2DC"/>
<path d="M240.5 309.1L279.8 305.8C281.1 305.7 282.1 304.4 281.8 303.1C280.3 295.7 276.1 274.7 275.9 275.3C275.6 276.1 279.9 300.1 274.8 302.5C271.4 304.2 240.5 309.1 240.5 309.1Z" fill="#E54848"/>
<path d="M267.2 425.4C266.9 425.5 266.6 425.6 266.5 425.9C264 429.4 261.8 430.2 257.4 430.8C257.1 430.8 256.9 430.9 256.6 431.1C256.9 430.6 258.4 428.2 257.4 426C256.3 423.6 254.9 421.8 254.9 421.8L261.3 418C261.2 418 265.2 422.6 267.2 425.4Z" fill="#FFB19E"/>
<path d="M272 433.6C270.9 434.7 252.6 444.7 248.2 447.2C247.7 447.5 246.6 448.1 246.4 447.5C246.1 446.6 254 431.3 257.4 430.9C261.8 430.3 264 429.5 266.5 426C267 425.3 268.1 425.3 268.6 426C270.3 428.6 272.9 432.7 272 433.6Z" fill="#13448C"/>
<path d="M237 321.2C237 321.2 192.6 341.8 191.4 356.1C190.4 368.8 255.8 426.9 255.8 426.9L266.2 422.6L230.4 364.8C230.4 364.8 268.4 346.1 277.6 323.6L237 321.2Z" fill="#1B55AA"/>
<path d="M241 437.4C240.7 437.3 240.4 437.3 240.1 437.5C236.2 439.3 233.9 438.9 229.8 437.3C229.6 437.2 229.3 437.1 228.9 437.1C229.4 436.8 231.9 435.4 232.1 433.1C232.3 430.4 232 428.2 232 428.2L239.5 428C239.4 428 240.7 433.9 241 437.4Z" fill="#FFB19E"/>
<path d="M241.2 447.4C239.7 447.8 218.1 447.6 213.1 447.6C212.5 447.6 212 447.1 212.1 446.5C212.3 445.6 226.6 436.1 229.8 437.3C233.9 438.9 236.3 439.3 240.1 437.5C240.9 437.1 241.9 437.7 241.9 438.6C242.2 441.7 242.4 447 241.2 447.4Z" fill="#13448C"/>
<path d="M297 323.3C297 323.3 300.7 348.5 278.2 354.8C260.4 359.8 241.4 362.4 241.4 362.4L242.8 433.8H230.9C230.9 433.8 209.1 357.5 212.2 351.8C215.7 345.3 243.4 325.7 255.2 322.2L297 323.3Z" fill="#1D54B5"/>
<path d="M94.6 447.8H89.7L110.3 323.7H115.3L94.6 447.8Z" fill="white"/>
<path d="M299.1 447.8H304.4L278.8 322.3H273.5L299.1 447.8Z" fill="white"/>
<path d="M114 330.6L115.3 323.7H110.3L109 330.6H114Z" fill="#E4EDF7"/>
<path d="M280.5 330.6L278.8 322.3H273.5L275.2 330.6H280.5Z" fill="#E4EDF7"/>
<path d="M308.9 318.9H85.1C83.7 318.9 82.6 320 82.6 321.4C82.6 322.8 83.7 323.9 85.1 323.9H308.9C310.3 323.9 311.4 322.8 311.4 321.4C311.4 320 310.3 318.9 308.9 318.9Z" fill="white"/>
<path d="M200.9 182.6H169.1C168.6 182.6 168.1 183.1 168.2 183.6L168.4 184.5C168.5 184.9 168.8 185.2 169.3 185.2H201.1C201.6 185.2 202.1 184.7 202 184.2L201.8 183.3C201.8 183 201.4 182.6 200.9 182.6Z" fill="white"/>
<path d="M202 191.1H170.2C169.7 191.1 169.2 191.6 169.3 192.1L169.5 193C169.6 193.4 169.9 193.7 170.4 193.7H202.2C202.7 193.7 203.2 193.2 203.1 192.7L202.9 191.8C202.8 191.4 202.5 191.1 202 191.1Z" fill="white"/>
<path d="M194.4 200.2H179.7C179.2 200.2 178.7 200.7 178.8 201.2L179 202.1C179.1 202.5 179.4 202.8 179.9 202.8H194.6C195.1 202.8 195.6 202.3 195.5 201.8L195.3 200.9C195.2 200.6 194.9 200.2 194.4 200.2Z" fill="white"/>
<path d="M443.4 154.8L450.7 122.7C451.1 121.2 450.2 120.1 448.7 120.1L396.9 120.7C395.1 120.7 393 122.3 392.5 124.2L386.1 152.4L382.2 168.4C382 169.2 383 169.5 383.8 168.8L394.3 158.9L439 158.4C440.8 158.3 442.9 156.7 443.4 154.8Z" fill="#83AAE2"/>
<path d="M434.1 130.5H405.6C405.1 130.5 404.6 130.9 404.4 131.4L404.2 132.2C404.1 132.6 404.3 132.9 404.7 132.9H433.2C433.7 132.9 434.2 132.5 434.4 132L434.6 131.2C434.7 130.8 434.5 130.5 434.1 130.5Z" fill="white"/>
<path d="M432 138.1H403.5C403 138.1 402.5 138.5 402.3 139L402.1 139.8C402 140.2 402.2 140.5 402.6 140.5H431.1C431.6 140.5 432.1 140.1 432.3 139.6L432.5 138.8C432.6 138.4 432.4 138.1 432 138.1Z" fill="white"/>
<path d="M422 146.3H408.8C408.3 146.3 407.8 146.7 407.6 147.2L407.4 148C407.3 148.4 407.5 148.7 407.9 148.7H421.1C421.6 148.7 422.1 148.3 422.3 147.8L422.5 147C422.6 146.6 422.4 146.3 422 146.3Z" fill="white"/>
<path d="M133.6 177H101.8C101.3 177 100.8 177.5 100.9 178L101.1 178.9C101.2 179.3 101.5 179.6 102 179.6H133.8C134.3 179.6 134.8 179.1 134.7 178.6L134.5 177.7C134.4 177.4 134 177 133.6 177Z" fill="white"/>
<path d="M134.6 185.5H102.8C102.3 185.5 101.8 186 101.9 186.5L102.1 187.4C102.2 187.8 102.5 188.1 103 188.1H134.8C135.3 188.1 135.8 187.6 135.7 187.1L135.5 186.2C135.4 185.8 135.1 185.5 134.6 185.5Z" fill="white"/>
<path d="M393.5 276.4L393.3 282.8L389.5 431.1H374.2L360.6 304.1L343.4 346.9L355.2 431.1H349.5L340.1 431.2C340.1 431.2 312.1 347.2 312.7 341.8C313.3 336.4 334.3 277 334.3 277L393.5 276.4Z" fill="#1D54B5"/>
<path d="M395 184.7L366.3 180.7L365.6 180.6L351.8 180.7H351.7L335.3 184.8V277.3H395V184.7Z" fill="#EAE8E8"/>
<path d="M444.3 202.6C444.3 202.6 446.4 189.5 447.9 189.5C449.4 189.4 449.3 195.2 449.3 195.2C449.3 195.2 458.4 185.5 462.1 187.9C465.7 190.3 453.3 205.7 453.3 205.7L444.3 202.6Z" fill="#FFE2DC"/>
<path d="M351.8 180.8L353.4 282.9H331.9L330.4 255L301.8 254.5C298.8 254.6 296.6 251.8 297.5 248.9L311.7 199.4C313.4 193.6 318 189.2 323.8 187.7L351.7 180.7L351.8 180.8Z" fill="#1079C0"/>
<path d="M454.2 206.1L426.5 263C424.7 266.2 420.2 266.3 418.3 263.2L396.6 227.3L395.5 282.9H372.5L366.1 180.8H366.2L395.4 184.8C400.9 185.6 405.7 189.1 408.1 194.2L422.9 224.7C423.3 225.4 424.3 225.6 424.8 224.9L443.6 202.4L454.2 206.1Z" fill="#1079C0"/>
<path d="M330.2 255.2H358.3L358.6 240.8L330.5 240.4L330.2 255.2Z" fill="#1079C0"/>
<path d="M358.5 251.2C366.4 250.9 374.9 248.1 378.8 243.4C379.7 242.4 378.9 240.8 377.6 240.8H358.4L358.5 251.2Z" fill="#FFE2DC"/>
<path opacity="0.41" d="M358.5 240.7C358.5 240.7 320.4 243.5 320.7 242.7L327.3 219.9L327.4 220.2L328 236.1C328.1 238.4 356.5 240.1 358.5 240.7Z" fill="#13448C"/>
<path d="M341.9 431.1C338.6 437.9 322.9 441.3 322.9 441.3C322.9 441.3 321.8 443.3 323.6 445.8C325.4 448.3 341.9 446.8 344 446.3C346.1 445.8 347.5 444.2 347.5 444.2C347.5 444.2 348.9 445.7 349.7 446.1C350.5 446.5 354.7 445.6 354.7 445.6C355.7 442.9 354.7 432.6 354.4 431L341.9 431.1Z" fill="#13448C"/>
<path d="M388.1 431.1C391.4 437.9 407.1 441.3 407.1 441.3C407.1 441.3 408.2 443.3 406.4 445.8C404.6 448.3 388.1 446.8 386 446.3C383.9 445.8 382.5 444.2 382.5 444.2C382.5 444.2 381.1 445.7 380.3 446.1C379.5 446.5 375.3 445.6 375.3 445.6C374.3 442.9 375.3 432.6 375.6 431L388.1 431.1Z" fill="#13448C"/>
<path fill-rule="evenodd" clip-rule="evenodd" d="M366.2 180.8C364.1 182.5 359.1 186 359.1 186C359.1 186 354 182.5 351.9 180.8V168.6H366.3V180.8H366.2Z" fill="#FFE2DC"/>
<path fill-rule="evenodd" clip-rule="evenodd" d="M366.2 168.7V173.8C362 177.3 356 177.3 351.8 173.9V168.7H366.2Z" fill="#FFB19E"/>
<path fill-rule="evenodd" clip-rule="evenodd" d="M346 159.9H371.9L375.8 151.8C382.9 148.8 377.6 131.7 377.6 131.7C378 135.8 366.9 136 362.5 135.3C358.1 134.6 355.1 136.4 355.1 136.4C355.1 136.4 341.1 133.4 341.9 153C342 156 345.4 157.6 346 159.9Z" fill="#40454C"/>
<path fill-rule="evenodd" clip-rule="evenodd" d="M371.9 151.8V159.9C371.9 163.4 370.5 166.7 368 169.1C367.6 169.5 367.2 169.9 366.7 170.3C362.3 174.4 355.5 174.4 351.2 170.3L350 169C347.5 166.6 346 163.3 346 159.9V153.7C346 153.7 349.7 151.2 354.9 145C354.9 145.1 360.6 150.5 371.9 151.8Z" fill="#FFE2DC"/>
<path fill-rule="evenodd" clip-rule="evenodd" d="M366.2 170.7V173.8C362 177.3 356 177.3 351.8 173.9V170.8C356 174.1 362 174.1 366.2 170.7Z" fill="#FFCFC7"/>
<path d="M381.7 198.6H331.5C328.8 198.6 326.6 201 326.7 203.8L328 236.1C328.1 238.7 330.3 240.8 332.9 240.8H380.3C382.9 240.8 385.1 238.7 385.2 236.1L386.5 203.8C386.6 201 384.5 198.6 381.7 198.6Z" fill="#13448C"/>
<path d="M356.2 226.3C359.348 226.3 361.9 223.748 361.9 220.6C361.9 217.452 359.348 214.9 356.2 214.9C353.052 214.9 350.5 217.452 350.5 220.6C350.5 223.748 353.052 226.3 356.2 226.3Z" fill="#1079C0"/>
<path d="M222.4 203C232.286 203 240.3 194.986 240.3 185.1C240.3 175.214 232.286 167.2 222.4 167.2C212.514 167.2 204.5 175.214 204.5 185.1C204.5 194.986 212.514 203 222.4 203Z" fill="url(#paint0_linear_1694_5329)"/>
<path d="M226.1 188.4C225.4 188.2 224.5 188.5 224.2 189.2C224 189.6 224 190.1 223.6 190.3C223.3 190.4 223 190.3 222.7 190.1C221.3 189.3 218.6 183.9 218.8 182.4C218.8 182.1 218.9 181.7 219.2 181.6C219.6 181.4 220 181.7 220.5 181.8C221.2 182 222 181.4 222.3 180.7C222.6 180 222.6 179.2 222.5 178.5C222.4 177.6 222.1 176.7 221.6 176C219.9 174.1 217.5 176 216.5 177.6C215.9 178.6 215.5 179.8 215.4 181C215 183.5 219.6 192.6 221.9 193.8C223 194.4 224.1 194.8 225.3 194.9C227.2 195.1 230.2 194.2 229.7 191.8C229.5 190.9 228.9 190.2 228.3 189.6C227.5 189 226.9 188.5 226.1 188.4Z" fill="white"/>
<path d="M247.9 67.2C246.9 67.1 245.9 67.1 244.9 67.1" stroke="#8296BE" stroke-width="0.5" stroke-miterlimit="10"/>
<path d="M238.8 67C152.9 66.8 80.9 129.2 73.4 211" stroke="#8296BE" stroke-width="0.5" stroke-miterlimit="10" stroke-dasharray="6.09 6.09"/>
<path d="M73.1 214C73 215 73 216 72.9 217" stroke="#8296BE" stroke-width="0.5" stroke-miterlimit="10"/>
<path d="M229 59.4L219.8 87.4L278.6 65.7L278 63.8L229 59.4Z" fill="url(#paint1_linear_1694_5329)"/>
<path d="M223.5 41.6L278 63.8L231.5 67.7L223.5 41.6Z" fill="#EDF7FF"/>
<path d="M242.3 102.7L278.6 65.7L234.3 76.6L242.3 102.7Z" fill="#F5F9FF"/>
<path d="M137.5 217.2C147.386 217.2 155.4 209.186 155.4 199.3C155.4 189.414 147.386 181.4 137.5 181.4C127.614 181.4 119.6 189.414 119.6 199.3C119.6 209.186 127.614 217.2 137.5 217.2Z" fill="url(#paint2_linear_1694_5329)"/>
<path d="M127.8 198.9H132.7C132.7 197.4 133 196 133.4 194.7C132.2 194.4 131 193.9 129.9 193.2C128.6 194.8 127.8 196.8 127.8 198.9Z" fill="white"/>
<path d="M132.7 199.7H127.8C127.9 201.8 128.7 203.8 129.9 205.4C131 204.8 132.2 204.3 133.4 203.9C133 202.6 132.7 201.1 132.7 199.7Z" fill="white"/>
<path d="M137.1 199.7H133.4C133.4 201.1 133.7 202.4 134.1 203.7C135.1 203.5 136.1 203.4 137.1 203.3V199.7Z" fill="white"/>
<path d="M137.1 198.9V195.2C136.1 195.2 135.1 195.1 134.1 194.8C133.7 196.1 133.5 197.5 133.4 198.8H137.1V198.9Z" fill="white"/>
<path d="M137.1 204.1C136.2 204.1 135.3 204.2 134.3 204.4C134.9 206.1 135.8 207.6 137.1 209V204.1Z" fill="white"/>
<path d="M140.8 194.9C139.8 195.1 138.8 195.2 137.8 195.3V199H141.5C141.5 197.6 141.2 196.2 140.8 194.9Z" fill="white"/>
<path d="M137.8 194.5C138.7 194.5 139.6 194.4 140.5 194.2C139.9 192.5 139 191 137.8 189.6V194.5Z" fill="white"/>
<path d="M137.1 194.5V189.6C135.9 191 135 192.5 134.3 194.2C135.2 194.4 136.2 194.5 137.1 194.5Z" fill="white"/>
<path d="M133.6 194C134.2 192.4 135 191 136 189.7C133.8 190 131.8 191.1 130.3 192.7C131.4 193.3 132.5 193.7 133.6 194Z" fill="white"/>
<path d="M133.6 204.6C132.5 204.9 131.4 205.3 130.3 205.9C131.8 207.5 133.8 208.6 136 208.9C135 207.6 134.2 206.1 133.6 204.6Z" fill="white"/>
<path d="M137.8 204.1V209C139 207.6 139.9 206.1 140.5 204.4C139.7 204.2 138.7 204.1 137.8 204.1Z" fill="white"/>
<path d="M141.3 204.6C140.7 206.1 139.9 207.6 138.9 208.9C141.1 208.6 143.2 207.5 144.6 205.9C143.5 205.3 142.4 204.9 141.3 204.6Z" fill="white"/>
<path d="M141.3 194C142.4 193.7 143.5 193.3 144.6 192.7C143.1 191.1 141.1 190 138.9 189.7C139.9 191 140.7 192.5 141.3 194Z" fill="white"/>
<path d="M137.8 199.7V203.4C138.8 203.4 139.8 203.5 140.8 203.8C141.2 202.5 141.4 201.1 141.5 199.8L137.8 199.7Z" fill="white"/>
<path d="M147.2 199.7H142.3C142.3 201.1 142 202.5 141.6 203.9C142.8 204.2 144 204.7 145.1 205.4C146.3 203.8 147.1 201.8 147.2 199.7Z" fill="white"/>
<path d="M142.2 198.9H147.1C147 196.8 146.3 194.8 145 193.2C143.9 193.8 142.7 194.3 141.5 194.7C141.9 196.1 142.2 197.5 142.2 198.9Z" fill="white"/>
<path d="M287.7 146.2C282.4 155.8 270.9 160.5 260.3 157.4C246.5 153.3 239.6 138.3 245 125.4C250.1 113.3 264 107.6 276.1 112.7C289.1 118 294.7 133.6 287.7 146.2Z" fill="url(#paint3_linear_1694_5329)"/>
<path d="M280 131.1L260.3 122.9L267.6 133.1L280 131.1Z" fill="white"/>
<path d="M266.3 136L257.3 123.3L251.6 137L276 147.2L281.7 133.6L266.3 136Z" fill="white"/>
<defs>
<linearGradient id="paint0_linear_1694_5329" x1="204.412" y1="185.062" x2="240.3" y2="185.062" gradientUnits="userSpaceOnUse">
<stop offset="0.00537634" stop-color="#FFCE0C"/>
<stop offset="0.3389" stop-color="#FFC90B"/>
<stop offset="0.9731" stop-color="#FFC50B"/>
</linearGradient>
<linearGradient id="paint1_linear_1694_5329" x1="223.697" y1="70.0083" x2="275.103" y2="81.4197" gradientUnits="userSpaceOnUse">
<stop stop-color="#C6D6F6"/>
<stop offset="0.7964" stop-color="#CDE0F5"/>
<stop offset="1" stop-color="#D0E4F5"/>
</linearGradient>
<linearGradient id="paint2_linear_1694_5329" x1="119.515" y1="199.31" x2="155.408" y2="199.31" gradientUnits="userSpaceOnUse">
<stop stop-color="#8FA925"/>
<stop offset="0.306" stop-color="#8CA526"/>
<stop offset="0.6148" stop-color="#829929"/>
<stop offset="0.9239" stop-color="#71852F"/>
<stop offset="0.9946" stop-color="#6C7F30"/>
</linearGradient>
<linearGradient id="paint3_linear_1694_5329" x1="243.164" y1="134.54" x2="290.749" y2="134.54" gradientUnits="userSpaceOnUse">
<stop offset="2e-08" stop-color="#D0E4F5"/>
<stop offset="0.2036" stop-color="#CDE0F5"/>
<stop offset="1" stop-color="#C6D6F6"/>
</linearGradient>
</defs>
</svg>
