<svg id="Layer_1" data-name="Layer 1" xmlns="http://www.w3.org/2000/svg" viewBox="0 0 283.63 650.92"><defs><style>.cls-1{fill:#fff8f7;}.cls-2{fill:#1b1f23;}.cls-3{fill:#1c2e75;}.cls-4{fill:#ffdccc;}.cls-5{fill:#343b48;}.cls-22,.cls-6{fill:none;}.cls-6{stroke:#bd7653;}.cls-6,.cls-9{stroke-linecap:round;stroke-linejoin:round;}.cls-7{fill:#b8482b;opacity:0.11;isolation:isolate;}.cls-8{fill:#051441;}.cls-9{fill:#bd7653;stroke:#d29374;}.cls-10{fill:#d2a28a;}.cls-11{fill:#595989;}.cls-12{fill:#4484ea;}.cls-13{fill:#b5b5b5;}.cls-14{fill:#f4e6ad;}.cls-15{fill:#e3e3e3;}.cls-16{fill:#2767c4;}.cls-17{fill:#5a54ff;}.cls-18{fill:#1f1f33;}.cls-19{fill:#181b1e;}.cls-20{fill:#3d3d6b;}.cls-21{fill:#463fe8;}.cls-22{stroke:#7f7aff;stroke-miterlimit:10;stroke-dasharray:4;}.cls-23{fill:#ebedf5;}.cls-24{fill:#fff;}</style></defs><title>form-avt</title><path class="cls-1" d="M94,637.1s-14.3-1-12.5-7.5,11.8,1.5,12.5,7.5" transform="translate(-12.71 -8.08)"/><path class="cls-2" d="M122.2,630.5l11.8,5c23.2,3.8,38.5,6.8,38,20l-77.1-.6s-5.4-14.7,4.4-24.2C99.3,630.8,111.6,636.6,122.2,630.5Z" transform="translate(-12.71 -8.08)"/><path id="Path-59" class="cls-3" d="M100.4,27.2,93.4,57c10.9,22.5,18.7,31.1,23.6,25.8s7.1-25.2,6.2-50.8Z" transform="translate(-12.71 -8.08)"/><path id="Path-16" class="cls-4" d="M119.4,122.9c4.7,0,2.2,11.1-11.1,15.5-21.6,7.3-48.6-6.6-39.8-15.5,1.4-1.4,6.1-7.4,6.6-9.8,4.3-19.6,3.1-30.9-3.5-34l31.6,6.1,5.2,35.5C108.4,120.5,114.9,122.9,119.4,122.9Z" transform="translate(-12.71 -8.08)"/><path id="Path-17" class="cls-4" d="M100.6,17.2C89.8,9.2,35.7,57.1,64.3,84c19.2,17.9,35.5,21.8,48.8,15.5,18.9-33.6,11.3-43.4,8.7-49.6-1.7-4.2-2.1-9-1.1-14.6A132.65,132.65,0,0,0,100.6,17.2Z" transform="translate(-12.71 -8.08)"/><ellipse id="Oval" class="cls-5" cx="94.4" cy="53.6" rx="1.9" ry="2.9" transform="translate(-22.6 15.38) rotate(-13.47)"/><ellipse id="Oval-2" data-name="Oval" class="cls-5" cx="114.7" cy="52.1" rx="1.9" ry="2.9" transform="translate(-21.69 20.06) rotate(-13.47)"/><path id="Path-18" class="cls-6" d="M106,69.6l7.1-1.4c2-1.2-.2-4.8-1.3-6.8l-5.4-9.7" transform="translate(-12.71 -8.08)"/><ellipse id="Oval-2-2" data-name="Oval-2" class="cls-7" cx="89.52" cy="67.11" rx="8.9" ry="6.6" transform="translate(-21.53 5.68) rotate(-8.38)"/><ellipse id="Oval-2-3" data-name="Oval-2" class="cls-7" cx="119.05" cy="62.74" rx="4.5" ry="5.4" transform="translate(-28.05 47.65) rotate(-24.8)"/><path id="Path-65" class="cls-4" d="M113.1,100.3c-8,5.2-24.6,1.3-43.5-7.6-2.8-13.5-2.5-16.8.1-17s4.1-3.4,4.5-10.1c7.3,15.5,27.1,9.8,36.5,7.9,6.2-1.3,12.5-3.2,15-7.8C124.7,85,121,95.1,113.1,100.3Z" transform="translate(-12.71 -8.08)"/><path id="Path-58" class="cls-8" d="M127.3,19.7a100.89,100.89,0,0,0-12.9-7.5C81.7-2.8,63.9,28,63.9,28s-10.6-.6-18.2,11-1.8,41.7,9.1,45.9c5.3,2,13.2,6.8,17.3,9.4,2.9,1.8-1-19.4-4.6-20.8-8.2-3.1-9.9-12.7-4.2-17.6,3.4-2.9,7.5,7.4,8.4,5.2s4.6-15.4,5.9-20,5.2-6.7,23.5-2.7c12.2,2.7,18.8,0,24.4-7.6C127.7,27.4,132.2,23,127.3,19.7Z" transform="translate(-12.71 -8.08)"/><path id="Path-19" class="cls-9" d="M108.5,87.3c-4.6.2-9.5-2.7-11.7-9.7,6.3,2,13.9,2.6,21.5-1.1C115.7,85.5,112.7,87.1,108.5,87.3Z" transform="translate(-12.71 -8.08)"/><path id="Path-75" class="cls-10" d="M101.8,619.8l.9,13.6c4.1,3.2,17.7,3.4,19.5,1.8l.6-13.9Z" transform="translate(-12.71 -8.08)"/><path id="Path-76" class="cls-11" d="M133,293.2c-48.6-28.8-68,12.7-68,32.5,0,29.6,22.5,86.8,28.8,113.5,2.7,11.2-5.7,33.9-1.9,62.2l-.2,132.1c5.9,4.1,43.4,2.3,43.5,2,0-11.7,22.2-170.7,19.5-198.2C152,410,133,293.2,133,293.2Z" transform="translate(-12.71 -8.08)"/><path id="Path-75-2" data-name="Path-75" class="cls-10" d="M55.3,619.8l.9,11.9c7.7,5.2,14.2,5.8,19.5,1.6l.6-8.2Z" transform="translate(-12.71 -8.08)"/><path class="cls-12" d="M257.2,67.8l-69.3,44c-13.2,4.4-40.8,3.8-57.5,6.6l-16-2.2L99,134.4,72.8,118.3l-17.7,2.2-17.7,104,4.4,35.2,1.8,33.4h88.9s4.4-86.3,0-92.9,0-37.6,0-37.6,66.3-17.7,77.4-24.3,61.8-58.9,61.8-58.9" transform="translate(-12.71 -8.08)"/><path class="cls-13" d="M128.9,223.7l58,3.6a2.06,2.06,0,0,0,2.2-2l4.6-73.1a2.06,2.06,0,0,0-2-2.2l-58-3.6a2.06,2.06,0,0,0-2.2,2l-4.6,73A2.28,2.28,0,0,0,128.9,223.7Z" transform="translate(-12.71 -8.08)"/><circle class="cls-14" cx="147.69" cy="178.72" r="5.7"/><path class="cls-15" d="M122.1,118.7s-12.5-7.3-14.7-5-6.5,15.6-8.7,20C96.7,137.3,112.4,130.3,122.1,118.7Z" transform="translate(-12.71 -8.08)"/><path class="cls-4" d="M127.9,203.4a60,60,0,0,1,15.9-8.2c1.8-.6,3.8-1.2,5.5-.4,2.8,1.3,3.2,5.2,2.1,8.1-1.6,4.3-5.3,7.4-8.5,10.6-3.3,3.4-6.4,7.1-10,10.2s-8.4,3.5-13.1,3-9.3-4.4-9.4-9.2c-.1-4.6,3.5-6.5,6.6-9.9a134.87,134.87,0,0,0,11.9-16.2Z" transform="translate(-12.71 -8.08)"/><path class="cls-12" d="M59.7,118.5c2.2,2.2-24.3-4.4-37.6,30.9S11,251.1,19.9,253.4s97.4-24.3,99.6-22.1-2.2-24.3-2.2-24.3L46.5,220.2s4.4-42,8.9-57.5C59.7,147.3,59.7,118.5,59.7,118.5Z" transform="translate(-12.71 -8.08)"/><path class="cls-16" d="M117.2,209.2,48.6,220.3l6.6-53.1,6.6-2.2s-8.9,39.8-6.6,44.3C57.5,213.6,117.2,209.2,117.2,209.2Z" transform="translate(-12.71 -8.08)"/><polygon class="cls-16" points="106.69 223.22 28.29 242.22 29.19 254.02 106.69 223.22"/><path class="cls-15" d="M101.8,134s-24.4-24.3-33.3-19.9c-3.9,2-15.4,4.1-11.1,6.6C86.6,138.2,101.8,134,101.8,134Z" transform="translate(-12.71 -8.08)"/><path class="cls-17" d="M114.9,346.3a486.6,486.6,0,0,0,11.8-53.1l-73.8,2.2Z" transform="translate(-12.71 -8.08)"/><path class="cls-18" d="M109.2,410.2l8.4,56.4-14,169.2a58,58,0,0,1-11.9-1C89.8,634.6,109.2,410.2,109.2,410.2Z" transform="translate(-12.71 -8.08)"/><path class="cls-19" d="M75.7,631.1l37.3,7.8s21.1,2.3,20.7,16.5l-87.3-.9s-2.2-18.4,9.8-22.7A19.91,19.91,0,0,0,75.7,631.1Z" transform="translate(-12.71 -8.08)"/><path id="Path-76-2" data-name="Path-76" class="cls-20" d="M43.7,293.2c-1.3,0-5.3,19.9-6.2,26.6-1.7,12.2,5.2,58.3,6.6,130.5l1.2,183.4c5.9,4.1,44.1,4.5,49.8,1.5,0-7.8,11.6-137.4,14.7-186.1,5.2-82.9,22.4-135.8,23.1-155.9C133.1,290.9,121.5,294.1,43.7,293.2Z" transform="translate(-12.71 -8.08)"/><path id="Path-149-Copy" class="cls-21" d="M61.2,315.2c-6.8,3.4-12.5,2.3-17.2-3.1,11.4,2,21.1-2,28.9-12.3C71.9,306.8,67.9,311.9,61.2,315.2Z" transform="translate(-12.71 -8.08)"/><path class="cls-22" d="M56.8,328.2s1.9,142.9,3.7,150.1-2.3,144.2-2.3,144.2" transform="translate(-12.71 -8.08)"/><polyline class="cls-23" points="120.99 646.72 120.49 650.82 158.89 650.92 159.39 646.82 120.89 646.22"/><polyline class="cls-24" points="33.69 645.72 33.69 650.82 120.49 650.82 120.99 646.72 33.69 645.72"/><path class="cls-4" d="M258.6,68c-1-2.5,2.5-6,4.6-7.6,1.5-1.2,8.4-6.2,10.4-5.9,4.1.7-.7,4.1-1.7,5.9,10.9.7,13.8-14.5,21-13.4,7.1,3.3,2.6,13.9-7.9,23.6-3.1,2.9-10.5,8.1-14.8,7.4C268.1,77.6,258.6,69.3,258.6,68Z" transform="translate(-12.71 -8.08)"/></svg>