<svg width="64" height="64" viewBox="0 0 64 64" fill="none" xmlns="http://www.w3.org/2000/svg">
<path d="M58.5867 48.88C58.5867 49.84 58.3733 50.8267 57.92 51.7867C57.4667 52.7467 56.88 53.6533 56.1067 54.5067C54.8 55.9467 53.36 56.9867 51.7333 57.6533C50.1333 58.32 48.4 58.6667 46.5333 58.6667C43.8133 58.6667 40.9067 58.0267 37.84 56.72C34.7733 55.4133 31.7067 53.6533 28.6667 51.44C25.6 49.2 22.6933 46.72 19.92 43.9733C17.1733 41.2 14.6933 38.2933 12.48 35.2533C10.2933 32.2133 8.53334 29.1733 7.25334 26.16C5.97334 23.12 5.33334 20.2133 5.33334 17.44C5.33334 15.6267 5.65334 13.8933 6.29334 12.2933C6.93334 10.6667 7.94668 9.17334 9.36001 7.84001C11.0667 6.16001 12.9333 5.33334 14.9067 5.33334C15.6533 5.33334 16.4 5.49334 17.0667 5.81334C17.76 6.13334 18.3733 6.61334 18.8533 7.30668L25.04 16.0267C25.52 16.6933 25.8667 17.3067 26.1067 17.8933C26.3467 18.4533 26.48 19.0133 26.48 19.52C26.48 20.16 26.2933 20.8 25.92 21.4133C25.5733 22.0267 25.0667 22.6667 24.4267 23.3067L22.4 25.4133C22.1067 25.7067 21.9733 26.0533 21.9733 26.48C21.9733 26.6933 22 26.88 22.0533 27.0933C22.1333 27.3067 22.2133 27.4667 22.2667 27.6267C22.7467 28.5067 23.5733 29.6533 24.7467 31.04C25.9467 32.4267 27.2267 33.84 28.6133 35.2533C30.0533 36.6667 31.44 37.9733 32.8533 39.1733C34.24 40.3467 35.3867 41.1467 36.2933 41.6267C36.4267 41.68 36.5867 41.76 36.7733 41.84C36.9867 41.92 37.2 41.9467 37.44 41.9467C37.8933 41.9467 38.24 41.7867 38.5333 41.4933L40.56 39.4933C41.2267 38.8267 41.8667 38.32 42.48 38C43.0933 37.6267 43.7067 37.44 44.3733 37.44C44.88 37.44 45.4133 37.5467 46 37.7867C46.5867 38.0267 47.2 38.3733 47.8667 38.8267L56.6933 45.0933C57.3867 45.5733 57.8667 46.1333 58.16 46.8C58.4267 47.4667 58.5867 48.1333 58.5867 48.88Z" stroke="#1079C0" stroke-width="2.5" stroke-miterlimit="10"/>
<path d="M49.3333 24C49.3333 22.4 48.08 19.9467 46.2133 17.9467C44.5067 16.1067 42.24 14.6667 40 14.6667" stroke="#1079C0" stroke-width="2.5" stroke-linecap="round" stroke-linejoin="round"/>
<path d="M58.6667 24C58.6667 13.68 50.32 5.33334 40 5.33334" stroke="#1079C0" stroke-width="2.5" stroke-linecap="round" stroke-linejoin="round"/>
</svg>
