<svg width="452" height="456" viewBox="0 0 452 456" fill="none" xmlns="http://www.w3.org/2000/svg">
<g clip-path="url(#clip0_1689_4710)">
<path d="M48.2901 349.36C-4.90985 286.71 13.7302 193.85 45.4002 165.71C77.0702 137.57 127.32 122.11 154.24 89.24C181.16 56.36 212.17 32.82 268.85 49.79C325.53 66.75 324.68 110.82 341.69 138.09C358.69 165.36 434.5 180.58 430.18 250.56C425.86 320.53 377.75 320.41 355.8 337.65C333.86 354.89 299.25 436.3 229.98 437.15C145.09 438.19 93.3201 402.39 48.2901 349.37V349.36Z" fill="#EEEEFF"/>
<g opacity="0.3">
<path d="M240.01 12.1099L237.01 22.5399C234.26 23.2899 231.65 24.3499 229.23 25.7099L219.62 20.4299L211.03 28.9099L216.37 38.3899C214.99 40.7799 213.91 43.3599 213.16 46.0699L202.6 49.0299V61.0399L213.16 63.9999C213.92 66.7099 214.99 69.2899 216.37 71.6799L211.03 81.1599L219.62 89.6399L229.23 84.3599C231.65 85.7199 234.27 86.7799 237.01 87.5299L240.01 97.9599H252.18L255.18 87.5299C257.93 86.7799 260.54 85.7199 262.96 84.3599L272.57 89.6399L281.16 81.1599L275.82 71.6799C277.2 69.2899 278.28 66.7099 279.03 63.9999L289.59 61.0399V49.0299L279.03 46.0699C278.27 43.3599 277.2 40.7799 275.82 38.3899L281.16 28.9099L272.57 20.4299L262.96 25.7099C260.54 24.3499 257.92 23.2899 255.18 22.5399L252.18 12.1099H240.01ZM246.09 32.6099C258.61 32.6099 268.82 42.6899 268.82 55.0499C268.82 67.4099 258.61 77.4899 246.09 77.4899C233.57 77.4899 223.36 67.4099 223.36 55.0499C223.36 42.6899 233.57 32.6099 246.09 32.6099Z" stroke="#1079C0" stroke-miterlimit="10"/>
</g>
<g opacity="0.3">
<path d="M417.63 209.75L415.64 216.69C413.81 217.19 412.07 217.89 410.46 218.8L404.07 215.29L398.36 220.93L401.92 227.24C401 228.83 400.29 230.55 399.78 232.35L392.75 234.32V242.31L399.78 244.28C400.28 246.08 401 247.8 401.92 249.39L398.36 255.7L404.07 261.34L410.46 257.83C412.07 258.74 413.81 259.44 415.64 259.94L417.63 266.88H425.73L427.72 259.94C429.55 259.44 431.29 258.74 432.9 257.83L439.29 261.34L445 255.7L441.44 249.39C442.36 247.8 443.07 246.08 443.58 244.28L450.61 242.31V234.32L443.58 232.35C443.08 230.55 442.36 228.83 441.44 227.24L445 220.93L439.29 215.29L432.9 218.8C431.29 217.89 429.55 217.19 427.72 216.69L425.73 209.75H417.63ZM421.68 223.39C430.01 223.39 436.8 230.1 436.8 238.32C436.8 246.54 430 253.25 421.68 253.25C413.36 253.25 406.56 246.54 406.56 238.32C406.56 230.1 413.36 223.39 421.68 223.39Z" stroke="#1079C0" stroke-miterlimit="10"/>
</g>
<g opacity="0.3">
<path d="M54.59 228.02L50.26 243.1C46.29 244.18 42.51 245.72 39.01 247.69L25.12 240.06L12.7 252.32L20.43 266.03C18.44 269.49 16.88 273.22 15.79 277.14L0.52002 281.42V298.79L15.79 303.07C16.88 306.99 18.44 310.72 20.43 314.18L12.7 327.89L25.12 340.15L39.01 332.52C42.51 334.49 46.29 336.03 50.26 337.11L54.59 352.19H72.19L76.52 337.11C80.49 336.03 84.27 334.49 87.77 332.52L101.66 340.15L114.08 327.89L106.35 314.18C108.34 310.72 109.9 306.99 110.99 303.07L126.26 298.79V281.42L110.99 277.14C109.9 273.22 108.34 269.49 106.35 266.03L114.08 252.32L101.66 240.06L87.77 247.69C84.27 245.72 80.49 244.18 76.52 243.1L72.19 228.02H54.59ZM63.39 257.66C81.49 257.66 96.25 272.24 96.25 290.1C96.25 307.96 81.48 322.54 63.39 322.54C45.3 322.54 30.53 307.96 30.53 290.1C30.53 272.24 45.3 257.66 63.39 257.66Z" stroke="#1079C0" stroke-miterlimit="10"/>
</g>
<path d="M211.09 421.59C213.35 416.39 217.6 412.24 222.96 410.01L223.13 409.94L222.41 409.62C217.39 407.38 213.4 403.43 211.2 398.52L211.1 398.3L210.54 399.4C208.4 403.62 204.92 407.05 200.6 409.19L199.07 409.95L199.16 409.99C204.3 412.11 208.44 416 210.78 420.91L211.1 421.59H211.09Z" fill="#32338C"/>
<path d="M226.23 428.73C227.36 426.13 229.48 424.05 232.16 422.94L232.24 422.91L231.88 422.75C229.37 421.63 227.37 419.65 226.27 417.2L226.22 417.09L225.94 417.64C224.87 419.75 223.13 421.46 220.97 422.53L220.2 422.91L220.25 422.93C222.82 423.99 224.89 425.94 226.06 428.39L226.22 428.73H226.23Z" fill="#1079C0"/>
<path d="M420.41 128.22C418.72 124.33 415.54 121.23 411.54 119.56L411.42 119.51L411.96 119.27C415.71 117.59 418.7 114.64 420.34 110.97L420.41 110.8L420.83 111.62C422.43 114.77 425.03 117.34 428.26 118.94L429.41 119.51L429.34 119.54C425.5 121.12 422.4 124.04 420.66 127.71L420.42 128.22H420.41Z" fill="#1079C0"/>
<path d="M409.1 133.56C408.26 131.62 406.67 130.06 404.66 129.23L404.6 129.2L404.87 129.08C406.75 128.24 408.24 126.77 409.06 124.93L409.1 124.85L409.31 125.26C410.11 126.84 411.41 128.12 413.03 128.92L413.6 129.2H413.57C411.65 130.01 410.1 131.46 409.23 133.3L409.11 133.55L409.1 133.56Z" fill="#32338C"/>
<path d="M21.0701 215.78C19.3801 211.89 16.2001 208.79 12.2001 207.12L12.0801 207.07L12.6201 206.83C16.3701 205.15 19.3601 202.2 21.0001 198.53L21.0701 198.36L21.4901 199.18C23.0901 202.33 25.6901 204.9 28.9201 206.5L30.0701 207.07L30.0001 207.1C26.1601 208.68 23.0601 211.6 21.3201 215.27L21.0801 215.78H21.0701Z" fill="#1079C0"/>
<path d="M9.76025 221.12C8.92025 219.18 7.33025 217.62 5.32025 216.79L5.26025 216.76L5.53025 216.64C7.41025 215.8 8.90025 214.33 9.72025 212.49L9.76025 212.41L9.97025 212.82C10.7703 214.4 12.0703 215.68 13.6903 216.48L14.2603 216.76H14.2303C12.3103 217.57 10.7603 219.02 9.89025 220.86L9.77025 221.11L9.76025 221.12Z" fill="#32338C"/>
<path d="M325.18 91.8602C332.55 92.8002 339.62 95.2102 346.21 98.6302C365.37 108.57 382.6 122.2 396.67 138.56C402.35 145.16 407.72 152.68 408.61 161.35C409.63 171.27 404.64 180.72 399.81 189.45C395.79 196.72 390.93 204.66 382.9 206.77C376.32 208.5 369.42 205.74 363.47 202.43C340.22 189.49 322.78 167.4 312.77 142.74C307.91 130.76 306.1 119.38 306.93 106.55C307.16 102.96 297.75 102.63 300.28 99.7802C303.87 95.7302 315.08 90.5902 325.18 91.8802V91.8602Z" fill="#455A64"/>
<path d="M384.05 113.45C383.28 114.49 382.43 115.47 381.51 116.37C378.34 119.44 374.41 121.63 370.32 123.29C367.29 124.52 364.08 125.49 360.81 125.42C360.45 125.42 360.08 125.39 359.72 125.35C359.88 125.98 360.11 126.58 360.5 127.11C361.71 128.75 363.96 129.17 365.99 129.29C371.46 129.61 377 128.65 382.04 126.51C382.59 126.28 383.16 126 383.47 125.49C383.79 124.97 383.76 124.32 383.72 123.71C383.53 120.22 383.72 116.82 384.06 113.45H384.05Z" fill="#F8AB73"/>
<path d="M370.32 123.29C374.41 121.63 378.33 119.43 381.51 116.37C382.44 115.48 383.29 114.49 384.05 113.45C384.6 107.9 385.55 102.44 385.84 96.7999C380.15 95.4599 370.97 101.37 367.01 105.09C361.9 109.89 358.7 116.95 359.45 123.91C359.5 124.39 359.58 124.87 359.7 125.34C360.06 125.38 360.43 125.4 360.79 125.41C364.06 125.47 367.27 124.51 370.3 123.28L370.32 123.29Z" fill="#F29E63"/>
<path d="M408.63 71.63C412.09 66.76 415.6 61.82 417.73 56.24C419.87 50.66 420.52 44.27 418.24 38.74C415.95 33.22 410.26 28.91 404.31 29.43C406.18 25.6 403.9 21.35 400.78 18.45C397.66 15.55 393.36 14.27 389.15 13.62C377.22 11.78 365.06 14.28 353.01 13.75C348.56 13.55 344.01 12.9 340.14 10.7C336.27 8.49 333.21 4.46 333.21 0C331.65 3.39 329.9 7.49 330.16 11.21C330.42 14.93 332.45 18.71 335.89 20.17C332.43 21.15 328.81 19.01 326.56 16.2C324.31 13.39 323.42 9.71 323.19 6.12C319.38 8.52 316.75 12.5 315.33 16.77C314.04 20.66 313.36 24.83 314.04 28.87C314.72 32.91 316.88 36.81 320.34 39.01C318.69 39.29 316.91 39.46 315.37 38.81C315.27 41.09 316.57 43.26 318.34 44.71C320.11 46.16 322.3 46.97 324.49 47.63C331.99 49.88 339.87 50.48 347.56 51.98C365.71 55.51 382.47 63.91 399.72 70.57C402.14 71.5 406.13 72.26 408.64 71.63H408.63Z" fill="#37474F"/>
<path d="M389.7 68.9199C387.1 59.7099 388.48 49.7799 391.35 40.6499C382.28 49.1899 368.93 51.2899 356.59 49.6199C360.7 47.6199 364.42 44.8199 367.49 41.4199C355.22 40.6199 342.56 43.6099 330.32 42.4699C328.92 46.7099 328.01 51.1199 327.51 55.1999C326.44 63.9999 327.13 72.9299 328.59 81.6699C330.18 91.2099 332.83 100.9 338.87 108.45C344.91 116 355 120.95 364.37 118.57C367.86 117.68 371.05 115.85 373.99 113.77C384.83 106.09 392.7 94.8499 397.98 82.6099C394.06 78.9799 391.15 74.0899 389.7 68.9199Z" fill="#F8AB74"/>
<path d="M367.49 41.42C364.43 44.82 360.71 47.62 356.59 49.62C368.93 51.29 382.28 49.19 391.35 40.65C388.47 49.78 387.1 59.7 389.7 68.92C391.16 74.09 394.06 78.97 397.98 82.61C398.67 81.02 399.31 79.42 399.91 77.8C402.49 70.84 404.36 63.53 404.42 56.11C404.49 48.69 402.65 41.12 398.37 35.06C392.34 26.52 382.09 21.81 371.81 19.88C366.79 18.94 361.6 18.57 356.59 19.56C349.92 20.88 340.84 24.63 336.51 30.24C333.81 33.74 331.79 38.01 330.32 42.47C342.56 43.61 355.22 40.63 367.49 41.42Z" fill="#37474F"/>
<path d="M392.88 68.97C391.45 72.79 391.44 77.02 392.17 81.04C392.73 84.14 394 87.49 396.85 88.82C398.96 89.81 401.52 89.42 403.54 88.27C405.56 87.12 407.11 85.3 408.43 83.38C410.42 80.49 412 77.23 412.41 73.75C412.82 70.26 411.93 66.53 409.53 63.97C407.19 61.47 403.06 59.65 399.83 61.14C396.57 62.65 394.13 65.66 392.88 68.98V68.97Z" fill="#F8AB73"/>
<path d="M407.92 67.6901C406.9 66.3701 405.18 65.8501 403.64 66.0301C402.07 66.1601 400.69 67.0901 399.7 68.2801C398.69 69.4801 398.04 70.9401 397.64 72.4801C397.22 74.0201 397.05 75.6301 396.84 77.2601L395.86 76.8501C396.84 75.6801 398.3 74.7001 400 74.8101C400.83 74.8601 401.65 75.2601 402.21 75.8501C402.78 76.4401 403.12 77.1901 403.28 77.9501C403.43 78.7101 403.42 79.5101 403.18 80.2501C402.94 80.9901 402.53 81.6401 402.02 82.1801C400.97 83.2401 399.62 83.9101 398.22 84.2201C399.54 83.7001 400.79 82.9301 401.63 81.8501C402.04 81.3101 402.38 80.7101 402.53 80.0701C402.69 79.4401 402.65 78.7601 402.48 78.1401C402.14 76.8901 401.13 75.8601 399.93 75.8301C398.73 75.7901 397.51 76.5401 396.71 77.5401L395.53 79.0101L395.73 77.1301C395.91 75.4901 396.13 73.8301 396.59 72.1901C397.05 70.5601 397.82 68.9501 399.02 67.6801C400.2 66.4301 401.84 65.4801 403.6 65.4501C405.31 65.4201 407.11 66.1901 407.92 67.6801V67.6901Z" fill="#37474F"/>
<path d="M356.09 58.5601C357 63.1201 356.96 67.8801 356.13 72.4801C355.3 77.0901 353.68 81.5601 351.3 85.5701L351.18 85.1501C351.86 85.5601 352.57 85.9401 353.32 86.2401C354.07 86.5401 354.84 86.7801 355.64 86.9701C354.82 86.9301 354.01 86.7901 353.21 86.5701C352.41 86.3501 351.62 86.0701 350.88 85.7001L350.62 85.5701L350.76 85.2801C352.73 81.1301 354.19 76.7601 355.08 72.2801C355.97 67.7901 356.28 63.2001 356.11 58.5601H356.09Z" fill="#37474F"/>
<path d="M352.96 99.76C354.03 100.44 355.15 100.92 356.3 101.03C359.43 101.32 362.38 98.46 364.45 95.74C360.29 95.46 356.04 96.95 352.96 99.76Z" fill="white"/>
<path d="M355.13 94.5598C351.14 94.1498 345.22 90.5698 345.22 90.5698C345.22 90.5698 348.6 96.9598 352.96 99.7598C356.04 96.9498 360.29 95.4598 364.45 95.7398C366.25 93.3798 367.38 91.1198 367.38 91.1198C367.38 91.1198 359.12 94.9698 355.13 94.5598Z" fill="#505A61"/>
<path d="M344.52 67.8801C344.63 70.0101 343.6 71.7901 342.24 71.8601C340.87 71.9301 339.68 70.2601 339.57 68.1301C339.46 66.0001 340.49 64.2201 341.85 64.1501C343.22 64.0801 344.41 65.7501 344.52 67.8801Z" fill="#37474F"/>
<path d="M372.33 68.4001C372.44 70.5301 371.41 72.3101 370.05 72.3801C368.68 72.4501 367.49 70.7801 367.38 68.6501C367.27 66.5201 368.3 64.7401 369.66 64.6701C371.02 64.6001 372.22 66.2701 372.33 68.4001Z" fill="#37474F"/>
<path d="M333.94 59.6102C334.29 58.3202 334.9 57.0802 335.69 55.9202C336.09 55.3502 336.54 54.8002 337.05 54.2802C337.56 53.7802 338.13 53.3102 338.73 52.8802C339.34 52.4602 339.97 52.0102 340.65 51.6302C341.34 51.2602 342.11 51.0802 342.89 51.1202C344.44 51.2002 346.07 51.8202 347.02 53.3702L346.9 53.8002C345.39 54.6702 344.43 55.1502 343.45 55.5502C342.97 55.7502 342.49 55.8402 341.96 55.8502C341.43 55.8502 340.87 55.8902 340.35 56.0502C339.83 56.2102 339.3 56.4102 338.79 56.6702C338.26 56.9002 337.75 57.1902 337.24 57.5102C336.21 58.1402 335.25 58.9402 334.31 59.8402L333.93 59.6102H333.94Z" fill="#37474F"/>
<path d="M376.95 59.84C376.01 58.94 375.05 58.14 374.02 57.51C373.52 57.19 373 56.9 372.47 56.67C371.96 56.42 371.44 56.21 370.91 56.05C370.39 55.89 369.83 55.85 369.3 55.85C368.77 55.84 368.29 55.74 367.81 55.55C366.83 55.14 365.87 54.67 364.36 53.8L364.24 53.37C365.19 51.82 366.82 51.2 368.37 51.12C369.15 51.08 369.93 51.27 370.61 51.63C371.3 52 371.92 52.45 372.53 52.88C373.14 53.31 373.7 53.78 374.21 54.28C374.71 54.8 375.16 55.35 375.57 55.92C376.36 57.08 376.96 58.32 377.32 59.61L376.94 59.84H376.95Z" fill="#37474F"/>
<g style="mix-blend-mode:multiply" opacity="0.4">
<path d="M343.13 85.83C343.13 87.53 340.83 88.91 337.99 88.91C335.15 88.91 332.85 87.53 332.85 85.83C332.85 84.13 335.15 82.75 337.99 82.75C340.83 82.75 343.13 84.13 343.13 85.83Z" fill="#FFA488"/>
</g>
<g style="mix-blend-mode:multiply" opacity="0.4">
<path d="M378.79 85.83C378.79 87.53 376.49 88.91 373.65 88.91C370.81 88.91 368.51 87.53 368.51 85.83C368.51 84.13 370.81 82.75 373.65 82.75C376.49 82.75 378.79 84.13 378.79 85.83Z" fill="#FFA488"/>
</g>
<path d="M333.36 0.169922C332.64 3.67992 333.18 7.34992 334.7 10.5199C336.19 13.6999 338.63 16.4399 341.7 18.0799C344.79 19.6899 348.34 20.1999 351.86 20.2599C355.4 20.3099 358.95 20.0699 362.49 19.7499C369.58 19.1899 376.73 18.2299 383.94 18.7899C387.51 19.1099 391.18 19.9699 394.19 22.0899C395.66 23.1699 396.93 24.5099 397.83 26.0799C398.74 27.6399 399.25 29.4399 399.18 31.2299C399.13 29.4399 398.52 27.7199 397.57 26.2299C396.62 24.7499 395.32 23.4999 393.87 22.5399C390.93 20.5999 387.37 19.8599 383.87 19.6499C376.79 19.2799 369.7 20.2199 362.59 20.8699C359.02 21.1599 355.44 21.3699 351.84 21.2799C348.26 21.1699 344.52 20.6699 341.3 18.8399C338.1 17.0099 335.64 14.0799 334.21 10.7599C332.81 7.42992 332.39 3.64992 333.36 0.189922V0.169922Z" fill="#607883"/>
<path d="M395.13 37.3399C394.52 33.2299 391.39 29.8999 387.72 28.3699C384 26.7699 379.79 26.7299 375.83 27.4099C371.84 28.1099 367.96 29.4199 364.01 30.5599C360.06 31.6899 356.05 32.6799 351.95 33.2599C347.86 33.8199 343.67 33.9399 339.55 33.3699C335.47 32.7799 331.3 31.6199 327.94 29.0399C324.61 26.4899 322.18 22.8099 321.2 18.7499C320.27 14.6999 320.74 10.3499 322.57 6.66992C320.97 10.4399 320.65 14.7199 321.73 18.6099C322.78 22.5099 325.22 25.9899 328.45 28.3399C331.71 30.6799 335.7 31.8299 339.69 32.3499C343.7 32.8699 347.78 32.7199 351.8 32.1399C355.83 31.6099 359.8 30.6699 363.74 29.5699C367.67 28.4899 371.58 27.1299 375.7 26.5499C379.78 25.9499 384.13 26.0899 387.95 27.8599C389.84 28.7499 391.52 30.0599 392.81 31.6899C394.1 33.3099 394.97 35.2799 395.14 37.3299L395.13 37.3399Z" fill="#607883"/>
<path d="M390.94 35.41C389.63 33.25 387.33 31.98 385 31.58C382.64 31.2 380.19 31.64 377.97 32.57C375.74 33.48 373.75 34.94 371.88 36.54C370.02 38.16 368.26 39.94 366.4 41.62C367.94 39.65 369.48 37.67 371.29 35.9C373.08 34.13 375.15 32.53 377.54 31.54C378.74 31.06 379.99 30.7 381.28 30.54C382.57 30.4 383.89 30.43 385.16 30.73C386.43 31.03 387.64 31.59 388.65 32.39C389.64 33.2 390.48 34.23 390.92 35.41H390.94Z" fill="#607883"/>
<path d="M404.98 35.2002C406.4 34.7002 408.02 34.8302 409.45 35.3702C410.89 35.9202 412.15 36.9402 413.11 38.1502C415.04 40.6202 415.82 43.7602 415.92 46.8002C415.98 49.8702 415.34 52.9102 414.18 55.7002C413.6 57.0902 412.92 58.4402 412.16 59.7402C411.37 61.0202 410.55 62.2702 409.63 63.4402C410.34 62.1202 411.06 60.8302 411.68 59.4802C412.33 58.1502 412.9 56.7902 413.37 55.4002C414.31 52.6302 414.88 49.7302 414.8 46.8302C414.73 43.9502 414.03 41.0302 412.42 38.6602C411.61 37.4802 410.53 36.4902 409.23 35.8702C407.95 35.2102 406.45 34.9502 404.98 35.2002Z" fill="#607883"/>
<path d="M397.14 39.9499C398.18 39.7199 399.31 39.9799 400.28 40.4699C401.26 40.9799 402.08 41.7799 402.7 42.6899C403.95 44.5199 404.57 46.6199 405.01 48.7199C405.41 50.8399 405.49 53.0099 405.21 55.1399C405.08 56.1999 404.86 57.2499 404.55 58.2699C404.38 58.7799 404.21 59.2799 404.01 59.7699C403.91 60.0099 403.83 60.2799 403.65 60.4999C403.49 60.7099 403.19 60.9299 402.93 60.7699C403.21 60.8599 403.4 60.6199 403.51 60.4099C403.63 60.1899 403.67 59.9399 403.73 59.6799C403.85 59.1699 403.94 58.6599 404.02 58.1399C404.2 57.1199 404.29 56.0799 404.35 55.0499C404.45 52.9899 404.32 50.9299 403.93 48.9199C403.54 46.9199 402.97 44.8999 401.99 43.1499C401.48 42.2899 400.84 41.4999 400.02 40.9299C399.21 40.3299 398.22 39.9699 397.16 39.9399L397.14 39.9499Z" fill="#607883"/>
<path d="M161.932 70.4823L36.5503 86.6553L54.1292 222.936L179.51 206.763L161.932 70.4823Z" fill="#EEEEFF"/>
<path d="M158.097 40.7831L32.7153 56.9561L36.5456 86.65L161.927 70.4771L158.097 40.7831Z" fill="#1079C0"/>
<path d="M36.5398 86.6445L19.4712 88.8462L37.0501 225.127L54.1187 222.925L36.5398 86.6445Z" fill="#91C4FB"/>
<path d="M32.7161 56.9551L15.6475 59.1567L19.4777 88.8507L36.5463 86.6491L32.7161 56.9551Z" fill="#233862"/>
<path d="M65.3995 92.6876L46.2383 95.1592L49.5939 121.174L68.7551 118.702L65.3995 92.6876Z" fill="#FEFFFD"/>
<path d="M88.1378 89.7525L68.9766 92.2241L72.3322 118.239L91.4934 115.767L88.1378 89.7525Z" fill="#FEFFFD"/>
<path d="M110.875 86.8175L91.7134 89.2891L95.069 115.304L114.23 112.832L110.875 86.8175Z" fill="#FEFFFD"/>
<path d="M133.623 83.8824L114.462 86.354L117.818 112.368L136.979 109.897L133.623 83.8824Z" fill="#FEFFFD"/>
<path d="M156.36 80.9473L137.199 83.4189L140.554 109.433L159.716 106.962L156.36 80.9473Z" fill="#FEFFFD"/>
<path d="M69.1905 122.091L50.0293 124.562L53.3849 150.577L72.5462 148.105L69.1905 122.091Z" fill="#FEFFFD"/>
<path d="M91.9288 119.166L72.7676 121.637L76.1232 147.652L95.2844 145.18L91.9288 119.166Z" fill="#FEFFFD"/>
<path d="M114.666 116.231L95.5049 118.703L98.8605 144.717L118.022 142.246L114.666 116.231Z" fill="#FEFFFD"/>
<path d="M137.414 113.296L118.253 115.768L121.609 141.782L140.77 139.31L137.414 113.296Z" fill="#FEFFFD"/>
<path d="M160.153 110.371L140.992 112.842L144.347 138.857L163.509 136.385L160.153 110.371Z" fill="#FEFFFD"/>
<path d="M72.983 151.513L53.8218 153.984L57.1774 179.999L76.3386 177.527L72.983 151.513Z" fill="#FEFFFD"/>
<path d="M95.7301 148.578L76.5688 151.05L79.9245 177.064L99.0857 174.593L95.7301 148.578Z" fill="#FEFFFD"/>
<path d="M118.468 145.643L99.3071 148.115L102.663 174.129L121.824 171.658L118.468 145.643Z" fill="#FEFFFD"/>
<path d="M141.206 142.708L122.044 145.18L125.4 171.194L144.561 168.723L141.206 142.708Z" fill="#FEFFFD"/>
<path d="M163.944 139.783L144.783 142.254L148.138 168.269L167.3 165.797L163.944 139.783Z" fill="#FEFFFD"/>
<path d="M76.7745 180.926L57.6133 183.398L60.9689 209.412L80.1301 206.941L76.7745 180.926Z" fill="#FEFFFD"/>
<path d="M99.5216 177.982L80.3604 180.453L83.716 206.468L102.877 203.996L99.5216 177.982Z" fill="#FEFFFD"/>
<path d="M122.26 175.056L103.099 177.528L106.454 203.542L125.615 201.071L122.26 175.056Z" fill="#FEFFFD"/>
<path d="M144.998 172.121L125.837 174.593L129.193 200.607L148.354 198.136L144.998 172.121Z" fill="#FEFFFD"/>
<path d="M167.735 169.187L148.574 171.658L151.929 197.673L171.091 195.201L167.735 169.187Z" fill="#FEFFFD"/>
<path d="M25.7203 57.85L24.6303 49.41C23.9503 44.12 27.6803 39.28 32.9703 38.59L38.8403 37.83C44.1303 37.15 48.9703 40.88 49.6603 46.17L51.5403 60.71C52.2203 66 48.4903 70.84 43.2003 71.53" stroke="#32338C" stroke-width="4.03" stroke-linecap="round" stroke-linejoin="round"/>
<path d="M42.4503 55.6898L41.3603 47.2498C40.6803 41.9598 44.4103 37.1198 49.7003 36.4298L55.5703 35.6698C60.8603 34.9898 65.7003 38.7198 66.3903 44.0098L68.2703 58.5498C68.9503 63.8398 65.2203 68.6798 59.9303 69.3698" stroke="#32338C" stroke-width="4.03" stroke-linecap="round" stroke-linejoin="round"/>
<path d="M59.1803 53.5399L58.0903 45.0999C57.4103 39.8099 61.1403 34.9699 66.4303 34.2799L72.3003 33.5199C77.5903 32.8399 82.4303 36.5699 83.1203 41.8599L85.0002 56.3999C85.6802 61.6899 81.9503 66.5299 76.6603 67.2199" stroke="#32338C" stroke-width="4.03" stroke-linecap="round" stroke-linejoin="round"/>
<path d="M75.9102 51.3798L74.8202 42.9398C74.1402 37.6498 77.8702 32.8098 83.1602 32.1198L89.0302 31.3598C94.3202 30.6798 99.1602 34.4098 99.8502 39.6998L101.73 54.2398C102.41 59.5298 98.6802 64.3698 93.3902 65.0598" stroke="#32338C" stroke-width="4.03" stroke-linecap="round" stroke-linejoin="round"/>
<path d="M92.6402 49.2201L91.5502 40.7801C90.8702 35.4901 94.6002 30.6501 99.8902 29.9601L105.76 29.2001C111.05 28.5201 115.89 32.2501 116.58 37.5401L118.46 52.0801C119.14 57.3701 115.41 62.2101 110.12 62.9001" stroke="#32338C" stroke-width="4.03" stroke-linecap="round" stroke-linejoin="round"/>
<path d="M109.37 47.06L108.28 38.62C107.6 33.33 111.33 28.49 116.62 27.8L122.49 27.04C127.78 26.36 132.62 30.09 133.31 35.38L135.19 49.92C135.87 55.21 132.14 60.05 126.85 60.74" stroke="#32338C" stroke-width="4.03" stroke-linecap="round" stroke-linejoin="round"/>
<path d="M126.09 44.8998L125 36.4598C124.32 31.1698 128.05 26.3298 133.34 25.6398L139.21 24.8798C144.5 24.1998 149.34 27.9298 150.03 33.2198L151.91 47.7598C152.59 53.0498 148.86 57.8898 143.57 58.5798" stroke="#32338C" stroke-width="4.03" stroke-linecap="round" stroke-linejoin="round"/>
<path d="M215.65 385.28C300.282 385.28 368.89 316.672 368.89 232.04C368.89 147.408 300.282 78.7998 215.65 78.7998C131.018 78.7998 62.4102 147.408 62.4102 232.04C62.4102 316.672 131.018 385.28 215.65 385.28Z" fill="#32338C"/>
<path d="M222.86 385.28C307.492 385.28 376.1 316.672 376.1 232.04C376.1 147.408 307.492 78.7998 222.86 78.7998C138.228 78.7998 69.6201 147.408 69.6201 232.04C69.6201 316.672 138.228 385.28 222.86 385.28Z" fill="#1079C0"/>
<path d="M246.75 307.7C274.4 296.54 299.5 277.99 315.78 253C334.69 223.99 340.4 188.8 338.74 153.8C313.61 116.65 271.08 92.2202 222.85 92.2202C145.63 92.2202 83.04 154.82 83.04 232.03C83.04 257.63 89.92 281.61 101.93 302.25C146.8 323.47 200.59 326.32 246.75 307.7Z" fill="white"/>
<path d="M338.75 153.8C340.41 188.8 334.7 223.99 315.79 253C299.51 277.98 274.41 296.54 246.76 307.7C200.6 326.32 146.81 323.47 101.94 302.25C126.16 343.87 171.24 371.85 222.86 371.85C300.08 371.85 362.67 309.25 362.67 232.04C362.67 203.05 353.85 176.13 338.75 153.8Z" fill="#EEEEFF"/>
<path d="M221.33 233.84L155.55 175.21L224.38 230.23L221.33 233.84Z" fill="#263238"/>
<path d="M225.48 230.38L255.84 341.82L220.24 233.69L225.48 230.38Z" fill="#263238"/>
<path d="M222.86 242.4C228.582 242.4 233.22 237.762 233.22 232.04C233.22 226.319 228.582 221.68 222.86 221.68C217.138 221.68 212.5 226.319 212.5 232.04C212.5 237.762 217.138 242.4 222.86 242.4Z" fill="#1079C0"/>
<path d="M222.86 92.2202V121.94" stroke="#32338C" stroke-width="3.88" stroke-linecap="round" stroke-linejoin="round"/>
<path d="M222.86 342.13V371.85" stroke="#32338C" stroke-width="3.88" stroke-linecap="round" stroke-linejoin="round"/>
<path d="M362.67 232.04H332.95" stroke="#32338C" stroke-width="3.88" stroke-linecap="round" stroke-linejoin="round"/>
<path d="M112.77 232.04H83.04" stroke="#32338C" stroke-width="3.88" stroke-linecap="round" stroke-linejoin="round"/>
<path d="M104.84 157.07L129.93 173" stroke="#32338C" stroke-width="3.88" stroke-linecap="round" stroke-linejoin="round"/>
<path d="M315.79 291.07L340.87 307.01" stroke="#32338C" stroke-width="3.88" stroke-linecap="round" stroke-linejoin="round"/>
<path d="M297.83 114.02L281.89 139.11" stroke="#32338C" stroke-width="3.88" stroke-linecap="round" stroke-linejoin="round"/>
<path d="M163.82 324.96L147.89 350.05" stroke="#32338C" stroke-width="3.88" stroke-linecap="round" stroke-linejoin="round"/>
<path d="M340.87 157.07L315.79 173" stroke="#32338C" stroke-width="3.88" stroke-linecap="round" stroke-linejoin="round"/>
<path d="M129.93 291.07L104.84 307.01" stroke="#32338C" stroke-width="3.88" stroke-linecap="round" stroke-linejoin="round"/>
<path d="M147.89 114.02L163.82 139.11" stroke="#32338C" stroke-width="3.88" stroke-linecap="round" stroke-linejoin="round"/>
<path d="M281.89 324.96L297.83 350.05" stroke="#32338C" stroke-width="3.88" stroke-linecap="round" stroke-linejoin="round"/>
<path d="M418.723 292.661L292.93 262.971L254.63 425.242L380.424 454.932L418.723 292.661Z" fill="#32338C"/>
<path d="M421.065 293.204L295.271 263.514L256.971 425.785L382.765 455.475L421.065 293.204Z" fill="#91C4FB"/>
<path d="M407.065 306.465L301.866 281.635L269.502 418.758L374.701 443.587L407.065 306.465Z" fill="white"/>
<path d="M343.402 256.698L381.067 265.587C387.111 267.014 390.859 273.077 389.432 279.121L387.951 285.398L328.387 271.34L329.869 265.062C331.295 259.019 337.358 255.271 343.402 256.698Z" fill="#37474F"/>
<path d="M326.85 308.86C325.53 314.45 319.93 317.9 314.35 316.59C308.77 315.28 305.31 309.67 306.62 304.09C307.94 298.5 313.54 295.05 319.12 296.36C324.71 297.68 328.16 303.27 326.85 308.86Z" fill="#EEEEFE"/>
<path d="M311.88 302.07L316.23 309.1L328.72 301.38" stroke="#FE814B" stroke-width="3.2" stroke-linecap="round" stroke-linejoin="round"/>
<path d="M336.98 304.58L394.24 318.09" stroke="#91C4FB" stroke-width="3.2" stroke-linecap="round" stroke-linejoin="round"/>
<path d="M335.49 310.9L392.75 324.42" stroke="#91C4FB" stroke-width="3.2" stroke-linecap="round" stroke-linejoin="round"/>
<path d="M334 317.22L391.25 330.74" stroke="#91C4FB" stroke-width="3.2" stroke-linecap="round" stroke-linejoin="round"/>
<path d="M319.25 341.06C317.93 346.65 312.33 350.1 306.75 348.79C301.16 347.47 297.71 341.87 299.02 336.29C300.33 330.71 305.94 327.25 311.52 328.56C317.11 329.88 320.56 335.48 319.25 341.06Z" fill="#EEEEFE"/>
<path d="M304.28 334.27L308.63 341.29L321.12 333.58" stroke="#FE814B" stroke-width="3.2" stroke-linecap="round" stroke-linejoin="round"/>
<path d="M329.38 336.78L386.64 350.29" stroke="#91C4FB" stroke-width="3.2" stroke-linecap="round" stroke-linejoin="round"/>
<path d="M327.89 343.1L385.15 356.61" stroke="#91C4FB" stroke-width="3.2" stroke-linecap="round" stroke-linejoin="round"/>
<path d="M326.4 349.42L383.65 362.94" stroke="#91C4FB" stroke-width="3.2" stroke-linecap="round" stroke-linejoin="round"/>
<path d="M311.65 373.26C310.33 378.85 304.73 382.3 299.15 380.99C293.56 379.67 290.11 374.07 291.42 368.49C292.74 362.9 298.34 359.45 303.92 360.76C309.51 362.08 312.96 367.68 311.65 373.26Z" fill="#EEEEFE"/>
<path d="M296.68 366.47L301.03 373.49L313.52 365.77" stroke="#FE814B" stroke-width="3.2" stroke-linecap="round" stroke-linejoin="round"/>
<path d="M321.78 368.98L379.04 382.49" stroke="#91C4FB" stroke-width="3.2" stroke-linecap="round" stroke-linejoin="round"/>
<path d="M320.29 375.3L377.55 388.81" stroke="#91C4FB" stroke-width="3.2" stroke-linecap="round" stroke-linejoin="round"/>
<path d="M318.8 381.62L376.05 395.14" stroke="#91C4FB" stroke-width="3.2" stroke-linecap="round" stroke-linejoin="round"/>
<g style="mix-blend-mode:multiply">
<path d="M314.946 268.164L401.371 288.562L400.184 293.594C399.607 296.037 397.153 297.554 394.71 296.977L317.141 278.669C314.698 278.093 313.182 275.639 313.758 273.196L314.946 268.164Z" fill="#91C4FB"/>
</g>
<path d="M304.28 405.51C302.96 411.1 297.36 414.55 291.78 413.24C286.19 411.92 282.74 406.32 284.05 400.74C285.37 395.15 290.97 391.7 296.55 393.01C302.14 394.33 305.59 399.93 304.28 405.51Z" fill="#EEEEFE"/>
<path d="M289.32 398.72L293.66 405.75L306.15 398.03" stroke="#FE814B" stroke-width="3.2" stroke-linecap="round" stroke-linejoin="round"/>
<path d="M314.42 401.23L371.67 414.74" stroke="#91C4FB" stroke-width="3.2" stroke-linecap="round" stroke-linejoin="round"/>
<path d="M312.93 407.55L370.18 421.07" stroke="#91C4FB" stroke-width="3.2" stroke-linecap="round" stroke-linejoin="round"/>
<path d="M311.43 413.88L368.69 427.39" stroke="#91C4FB" stroke-width="3.2" stroke-linecap="round" stroke-linejoin="round"/>
<path d="M384.05 145.42C382.68 148.72 381.01 151.86 379.27 154.95C377.5 158.03 375.66 161.06 373.52 163.93C374.89 160.63 376.56 157.49 378.3 154.4C380.07 151.32 381.91 148.29 384.05 145.42Z" fill="white"/>
<path d="M398.79 191.26C398.79 191.26 388.7 207.1 378.71 218.89C368.72 230.69 354.64 243.91 354.64 243.91L279.3 212.35L290.36 186.55L345.52 203.59L377.3 158.61L398.8 191.25L398.79 191.26Z" fill="#455A64"/>
<path d="M278.48 181.56L290.36 186.55L282.57 204.73L274.85 202.1L257.81 202.8L252.81 200.3C250.97 199.38 250.27 197.11 251.28 195.32L252.64 192.89L251.43 191.95C249.71 190.6 249.57 188.04 251.14 186.52L252.5 185.21L250.66 182.72C249.35 180.94 249.93 178.42 251.88 177.39L253.75 176.41L253.14 173.1C252.8 171.22 253.98 169.4 255.83 168.95C258.23 168.36 260.77 168.86 262.78 170.3L278.48 181.58V181.56Z" fill="#F8AB72"/>
<path d="M278.69 182.78C275.08 175.04 271.4 167.09 270.75 158.57C270.72 158.15 270.66 157.68 270.32 157.44C270.12 157.3 269.87 157.27 269.63 157.27C267.63 157.25 265.8 158.74 265.09 160.6C264.37 162.47 264.65 164.61 265.5 166.42C265.69 166.82 265.91 167.23 265.89 167.67C265.87 168.05 265.68 168.4 265.49 168.73C264.86 169.84 264.23 170.94 263.6 172.05C267.54 176.84 272.84 180.74 278.69 182.78Z" fill="#F8AB72"/>
<path d="M271.79 177.63C271.07 177.18 270.4 176.69 269.72 176.19C269.04 175.69 268.4 175.17 267.75 174.64C267.11 174.1 266.47 173.56 265.86 172.99C265.25 172.42 264.64 171.84 264.07 171.22C264.79 171.67 265.47 172.16 266.14 172.66C266.82 173.16 267.46 173.68 268.11 174.21C268.75 174.75 269.39 175.29 270 175.86C270.61 176.43 271.22 177.01 271.79 177.63Z" fill="#32338C"/>
<path d="M267.87 75.98L286.1 83.02C288.47 83.93 289.93 86.31 289.68 88.84L288.76 98.12L282.45 108.46C282.45 108.46 279.86 107.74 280.8 104.84C281.73 101.94 284.83 94.19 284.83 94.19V88.71C284.83 88.71 281.84 101.36 278.99 103.71C276.14 106.06 265.81 101.47 263.02 99.2C261.66 98.09 264.08 94.51 264.41 89.17C264.76 83.56 263.16 76.21 267.87 75.99V75.98Z" fill="#F8AB74"/>
<path d="M279.54 80.2202C279.85 82.3202 279.9 84.4502 279.76 86.5702C279.62 88.6902 279.23 90.8002 278.69 92.8602C278.11 94.9102 277.37 96.9202 276.42 98.8202C275.47 100.72 274.34 102.54 273.01 104.19C274.15 102.41 275.17 100.56 276.03 98.6402C276.89 96.7202 277.62 94.7502 278.15 92.7202C278.72 90.7002 279.09 88.6302 279.33 86.5402C279.56 84.4502 279.62 82.3402 279.54 80.2302V80.2202Z" fill="#32338C"/>
<path d="M272.6 77.8201C272.8 79.8801 272.78 81.9701 272.62 84.0401C272.46 86.1101 272.1 88.1701 271.63 90.1901C271.12 92.2101 270.49 94.2001 269.69 96.1101C269.28 97.0601 268.85 98.0101 268.37 98.9301C268.12 99.3801 267.89 99.8501 267.61 100.29C267.34 100.73 266.97 101.17 266.46 101.32C266.94 101.11 267.24 100.66 267.48 100.22C267.71 99.7701 267.91 99.2801 268.12 98.8101C268.54 97.8701 268.93 96.9101 269.29 95.9501C270.01 94.0201 270.63 92.0601 271.09 90.0501C271.6 88.0601 271.94 86.0301 272.19 83.9801C272.44 81.9401 272.56 79.8801 272.6 77.8101V77.8201Z" fill="#32338C"/>
</g>
<defs>
<clipPath id="clip0_1689_4710">
<rect width="451.11" height="455.49" fill="white"/>
</clipPath>
</defs>
</svg>
