<svg width="32" height="32" viewBox="0 0 32 32" fill="none" xmlns="http://www.w3.org/2000/svg">
<path d="M15.9998 30.3334C8.09317 30.3334 1.6665 23.9067 1.6665 16.0001C1.6665 8.09338 8.09317 1.66672 15.9998 1.66672C23.9065 1.66672 30.3332 8.09338 30.3332 16.0001C30.3332 23.9067 23.9065 30.3334 15.9998 30.3334ZM15.9998 3.66672C9.19984 3.66672 3.6665 9.20005 3.6665 16.0001C3.6665 22.8001 9.19984 28.3334 15.9998 28.3334C22.7998 28.3334 28.3332 22.8001 28.3332 16.0001C28.3332 9.20005 22.7998 3.66672 15.9998 3.66672Z" fill="#1079C0"/>
<path d="M14.1064 20.7734C13.8398 20.7734 13.5864 20.6667 13.3998 20.4801L9.62643 16.7067C9.23976 16.3201 9.23976 15.6801 9.62643 15.2934C10.0131 14.9067 10.6531 14.9067 11.0398 15.2934L14.1064 18.3601L20.9598 11.5067C21.3464 11.1201 21.9864 11.1201 22.3731 11.5067C22.7598 11.8934 22.7598 12.5334 22.3731 12.9201L14.8131 20.4801C14.6264 20.6667 14.3731 20.7734 14.1064 20.7734Z" fill="#1079C0"/>
</svg>
